G04 EAGLE Gerber RS-274X export*
G75*
%MOMM*%
%FSLAX34Y34*%
%LPD*%
%INTop Copper*%
%IPPOS*%
%AMOC8*
5,1,8,0,0,1.08239X$1,22.5*%
G01*
%ADD10C,1.270000*%
%ADD11C,3.045000*%
%ADD12R,1.000000X1.100000*%
%ADD13R,0.590000X0.630000*%
%ADD14R,0.900000X0.700000*%
%ADD15R,0.700000X0.900000*%
%ADD16C,1.879600*%
%ADD17R,0.850000X0.800000*%
%ADD18R,0.600000X0.540000*%
%ADD19R,1.500000X1.500000*%
%ADD20R,1.400000X0.800000*%
%ADD21R,1.400000X0.400000*%
%ADD22R,0.400000X1.400000*%
%ADD23R,1.000000X0.400000*%
%ADD24C,0.055000*%
%ADD25C,1.308000*%
%ADD26C,2.250000*%
%ADD27R,0.550000X1.200000*%
%ADD28R,1.500000X1.300000*%
%ADD29R,0.600000X1.100000*%
%ADD30R,0.830000X0.630000*%
%ADD31R,0.700000X0.600000*%
%ADD32R,0.600000X0.700000*%
%ADD33C,0.756400*%
%ADD34C,0.203200*%
%ADD35C,0.200000*%
%ADD36C,0.609600*%
%ADD37C,0.254000*%
%ADD38C,0.152400*%

G36*
X399406Y31766D02*
X399406Y31766D01*
X399525Y31773D01*
X399563Y31786D01*
X399604Y31791D01*
X399714Y31834D01*
X399827Y31871D01*
X399862Y31893D01*
X399899Y31908D01*
X399995Y31977D01*
X400096Y32041D01*
X400124Y32071D01*
X400157Y32094D01*
X400233Y32186D01*
X400314Y32273D01*
X400334Y32308D01*
X400359Y32339D01*
X400410Y32447D01*
X400468Y32551D01*
X400478Y32591D01*
X400495Y32627D01*
X400517Y32744D01*
X400547Y32859D01*
X400551Y32919D01*
X400555Y32939D01*
X400553Y32960D01*
X400557Y33020D01*
X400557Y254508D01*
X400542Y254626D01*
X400535Y254745D01*
X400522Y254783D01*
X400517Y254824D01*
X400474Y254934D01*
X400437Y255047D01*
X400415Y255082D01*
X400400Y255119D01*
X400331Y255215D01*
X400267Y255316D01*
X400237Y255344D01*
X400214Y255377D01*
X400122Y255453D01*
X400035Y255534D01*
X400000Y255554D01*
X399969Y255579D01*
X399861Y255630D01*
X399757Y255688D01*
X399717Y255698D01*
X399681Y255715D01*
X399564Y255737D01*
X399449Y255767D01*
X399389Y255771D01*
X399369Y255775D01*
X399348Y255773D01*
X399288Y255777D01*
X277738Y255777D01*
X277600Y255760D01*
X277461Y255747D01*
X277442Y255740D01*
X277422Y255737D01*
X277293Y255686D01*
X277162Y255639D01*
X277145Y255628D01*
X277127Y255620D01*
X277014Y255539D01*
X276899Y255461D01*
X276886Y255445D01*
X276869Y255434D01*
X276781Y255326D01*
X276688Y255222D01*
X276679Y255204D01*
X276666Y255189D01*
X276607Y255063D01*
X276544Y254939D01*
X276539Y254919D01*
X276531Y254901D01*
X276505Y254765D01*
X276474Y254629D01*
X276475Y254608D01*
X276471Y254589D01*
X276480Y254450D01*
X276484Y254311D01*
X276490Y254291D01*
X276491Y254271D01*
X276534Y254139D01*
X276572Y254005D01*
X276583Y253988D01*
X276589Y253969D01*
X276663Y253851D01*
X276734Y253731D01*
X276752Y253710D01*
X276759Y253700D01*
X276774Y253686D01*
X276840Y253611D01*
X300716Y229734D01*
X300795Y229674D01*
X300867Y229606D01*
X300920Y229577D01*
X300968Y229540D01*
X301059Y229500D01*
X301145Y229452D01*
X301204Y229437D01*
X301259Y229413D01*
X301357Y229398D01*
X301453Y229373D01*
X301553Y229367D01*
X301574Y229363D01*
X301586Y229365D01*
X301614Y229363D01*
X340528Y229363D01*
X342834Y227056D01*
X352715Y217176D01*
X352738Y217158D01*
X352757Y217136D01*
X352863Y217061D01*
X352966Y216981D01*
X352993Y216970D01*
X353017Y216953D01*
X353138Y216907D01*
X353258Y216855D01*
X353287Y216850D01*
X353314Y216840D01*
X353443Y216825D01*
X353572Y216805D01*
X353601Y216808D01*
X353631Y216805D01*
X353759Y216823D01*
X353888Y216835D01*
X353916Y216845D01*
X353945Y216849D01*
X354098Y216901D01*
X359787Y219258D01*
X366653Y219258D01*
X372342Y216901D01*
X372371Y216893D01*
X372397Y216880D01*
X372524Y216851D01*
X372649Y216817D01*
X372679Y216817D01*
X372707Y216810D01*
X372837Y216814D01*
X372967Y216812D01*
X372996Y216819D01*
X373025Y216820D01*
X373150Y216856D01*
X373276Y216886D01*
X373302Y216900D01*
X373331Y216908D01*
X373442Y216974D01*
X373557Y217035D01*
X373579Y217055D01*
X373605Y217070D01*
X373725Y217176D01*
X374785Y218236D01*
X374786Y218236D01*
X377092Y220543D01*
X383254Y220543D01*
X383352Y220555D01*
X383452Y220558D01*
X383510Y220575D01*
X383570Y220583D01*
X383662Y220619D01*
X383757Y220647D01*
X383809Y220677D01*
X383866Y220700D01*
X383946Y220758D01*
X384031Y220808D01*
X384106Y220874D01*
X384123Y220886D01*
X384131Y220896D01*
X384152Y220914D01*
X385660Y222423D01*
X395644Y222423D01*
X396835Y221232D01*
X396835Y213248D01*
X395644Y212057D01*
X385660Y212057D01*
X384152Y213566D01*
X384074Y213626D01*
X384001Y213694D01*
X383948Y213723D01*
X383901Y213760D01*
X383810Y213800D01*
X383723Y213848D01*
X383664Y213863D01*
X383609Y213887D01*
X383511Y213902D01*
X383415Y213927D01*
X383315Y213933D01*
X383295Y213937D01*
X383282Y213935D01*
X383254Y213937D01*
X380354Y213937D01*
X380256Y213925D01*
X380157Y213922D01*
X380098Y213905D01*
X380038Y213897D01*
X379946Y213861D01*
X379851Y213833D01*
X379799Y213803D01*
X379743Y213780D01*
X379663Y213722D01*
X379577Y213672D01*
X379502Y213606D01*
X379485Y213594D01*
X379477Y213584D01*
X379456Y213566D01*
X378396Y212505D01*
X378378Y212482D01*
X378356Y212463D01*
X378281Y212357D01*
X378201Y212254D01*
X378190Y212227D01*
X378173Y212203D01*
X378126Y212081D01*
X378075Y211962D01*
X378070Y211933D01*
X378060Y211906D01*
X378045Y211777D01*
X378025Y211648D01*
X378028Y211619D01*
X378025Y211589D01*
X378043Y211461D01*
X378055Y211332D01*
X378065Y211304D01*
X378069Y211275D01*
X378121Y211122D01*
X380478Y205433D01*
X380478Y198567D01*
X377850Y192224D01*
X372996Y187370D01*
X369280Y185831D01*
X369220Y185796D01*
X369155Y185770D01*
X369082Y185718D01*
X369004Y185673D01*
X368954Y185625D01*
X368897Y185584D01*
X368840Y185514D01*
X368776Y185452D01*
X368739Y185392D01*
X368695Y185339D01*
X368656Y185257D01*
X368609Y185181D01*
X368589Y185114D01*
X368559Y185051D01*
X368542Y184963D01*
X368516Y184877D01*
X368512Y184807D01*
X368499Y184738D01*
X368505Y184649D01*
X368501Y184559D01*
X368515Y184491D01*
X368519Y184421D01*
X368547Y184336D01*
X368565Y184248D01*
X368596Y184185D01*
X368617Y184119D01*
X368665Y184043D01*
X368705Y183962D01*
X368750Y183909D01*
X368787Y183850D01*
X368853Y183788D01*
X368911Y183720D01*
X368968Y183680D01*
X369019Y183632D01*
X369097Y183589D01*
X369171Y183537D01*
X369236Y183512D01*
X369297Y183478D01*
X369384Y183456D01*
X369468Y183424D01*
X369538Y183416D01*
X369605Y183399D01*
X369766Y183389D01*
X385460Y183389D01*
X385558Y183401D01*
X385657Y183404D01*
X385715Y183421D01*
X385775Y183429D01*
X385867Y183465D01*
X385962Y183493D01*
X386015Y183523D01*
X386071Y183546D01*
X386151Y183604D01*
X386236Y183654D01*
X386312Y183720D01*
X386328Y183732D01*
X386336Y183742D01*
X386357Y183760D01*
X387866Y185270D01*
X389889Y186107D01*
X389950Y186142D01*
X390015Y186168D01*
X390056Y186198D01*
X390071Y186195D01*
X390186Y186165D01*
X390246Y186161D01*
X390266Y186157D01*
X390287Y186159D01*
X390347Y186155D01*
X390957Y186155D01*
X391075Y186170D01*
X391194Y186177D01*
X391232Y186190D01*
X391273Y186195D01*
X391383Y186238D01*
X391496Y186275D01*
X391531Y186297D01*
X391568Y186312D01*
X391664Y186381D01*
X391765Y186445D01*
X391793Y186475D01*
X391826Y186498D01*
X391878Y186562D01*
X391890Y186548D01*
X391938Y186472D01*
X391989Y186424D01*
X392032Y186370D01*
X392104Y186315D01*
X392170Y186254D01*
X392231Y186220D01*
X392286Y186178D01*
X392431Y186107D01*
X394454Y185270D01*
X396090Y183634D01*
X396975Y181497D01*
X396975Y179183D01*
X396090Y177046D01*
X394454Y175410D01*
X392317Y174525D01*
X390003Y174525D01*
X387866Y175410D01*
X386357Y176920D01*
X386279Y176980D01*
X386207Y177048D01*
X386154Y177077D01*
X386106Y177114D01*
X386015Y177154D01*
X385928Y177202D01*
X385870Y177217D01*
X385814Y177241D01*
X385716Y177256D01*
X385620Y177281D01*
X385520Y177287D01*
X385500Y177291D01*
X385488Y177289D01*
X385460Y177291D01*
X368426Y177291D01*
X368308Y177276D01*
X368189Y177269D01*
X368151Y177256D01*
X368110Y177251D01*
X368000Y177208D01*
X367887Y177171D01*
X367852Y177149D01*
X367815Y177134D01*
X367719Y177065D01*
X367618Y177001D01*
X367590Y176971D01*
X367557Y176948D01*
X367481Y176856D01*
X367400Y176769D01*
X367380Y176734D01*
X367355Y176703D01*
X367304Y176595D01*
X367246Y176491D01*
X367236Y176451D01*
X367219Y176415D01*
X367197Y176298D01*
X367167Y176183D01*
X367163Y176123D01*
X367159Y176103D01*
X367161Y176082D01*
X367157Y176022D01*
X367157Y175998D01*
X365966Y174807D01*
X358282Y174807D01*
X358022Y175068D01*
X357927Y175141D01*
X357838Y175220D01*
X357802Y175238D01*
X357770Y175263D01*
X357661Y175310D01*
X357555Y175364D01*
X357516Y175373D01*
X357478Y175389D01*
X357361Y175408D01*
X357245Y175434D01*
X357204Y175433D01*
X357164Y175439D01*
X357046Y175428D01*
X356927Y175424D01*
X356888Y175413D01*
X356848Y175409D01*
X356736Y175369D01*
X356621Y175336D01*
X356586Y175315D01*
X356548Y175302D01*
X356450Y175235D01*
X356347Y175174D01*
X356302Y175134D01*
X356285Y175123D01*
X356272Y175108D01*
X356227Y175068D01*
X355966Y174807D01*
X348516Y174807D01*
X348398Y174792D01*
X348279Y174785D01*
X348241Y174772D01*
X348200Y174767D01*
X348090Y174724D01*
X347977Y174687D01*
X347942Y174665D01*
X347905Y174650D01*
X347809Y174581D01*
X347708Y174517D01*
X347680Y174487D01*
X347647Y174464D01*
X347571Y174372D01*
X347490Y174285D01*
X347470Y174250D01*
X347445Y174219D01*
X347394Y174111D01*
X347336Y174007D01*
X347326Y173967D01*
X347309Y173931D01*
X347287Y173814D01*
X347257Y173699D01*
X347253Y173639D01*
X347249Y173619D01*
X347251Y173598D01*
X347247Y173538D01*
X347247Y170678D01*
X347259Y170579D01*
X347262Y170480D01*
X347279Y170422D01*
X347287Y170362D01*
X347323Y170270D01*
X347351Y170175D01*
X347381Y170123D01*
X347404Y170066D01*
X347462Y169986D01*
X347512Y169901D01*
X347578Y169826D01*
X347590Y169809D01*
X347600Y169801D01*
X347618Y169780D01*
X352779Y164620D01*
X352779Y155420D01*
X348210Y150851D01*
X348125Y150742D01*
X348036Y150635D01*
X348028Y150616D01*
X348015Y150600D01*
X347960Y150472D01*
X347901Y150347D01*
X347897Y150327D01*
X347889Y150308D01*
X347867Y150170D01*
X347841Y150034D01*
X347842Y150014D01*
X347839Y149994D01*
X347852Y149855D01*
X347861Y149717D01*
X347867Y149698D01*
X347869Y149678D01*
X347916Y149546D01*
X347959Y149415D01*
X347970Y149397D01*
X347976Y149378D01*
X348054Y149263D01*
X348129Y149146D01*
X348144Y149132D01*
X348155Y149115D01*
X348259Y149023D01*
X348360Y148928D01*
X348378Y148918D01*
X348393Y148905D01*
X348518Y148841D01*
X348639Y148774D01*
X348659Y148769D01*
X348677Y148760D01*
X348812Y148730D01*
X348947Y148695D01*
X348975Y148693D01*
X348987Y148690D01*
X349007Y148691D01*
X349108Y148685D01*
X353322Y148685D01*
X353969Y148512D01*
X354548Y148177D01*
X355021Y147704D01*
X355356Y147125D01*
X355529Y146478D01*
X355529Y144393D01*
X348968Y144393D01*
X348850Y144378D01*
X348731Y144371D01*
X348693Y144358D01*
X348653Y144353D01*
X348542Y144310D01*
X348429Y144273D01*
X348395Y144251D01*
X348357Y144236D01*
X348261Y144167D01*
X348160Y144103D01*
X348132Y144073D01*
X348100Y144050D01*
X348024Y143958D01*
X347942Y143871D01*
X347923Y143836D01*
X347897Y143805D01*
X347846Y143697D01*
X347789Y143593D01*
X347779Y143553D01*
X347761Y143517D01*
X347739Y143400D01*
X347709Y143285D01*
X347705Y143225D01*
X347702Y143205D01*
X347703Y143184D01*
X347699Y143124D01*
X347699Y142164D01*
X347714Y142046D01*
X347721Y141927D01*
X347734Y141889D01*
X347739Y141848D01*
X347783Y141738D01*
X347819Y141625D01*
X347841Y141590D01*
X347856Y141553D01*
X347926Y141456D01*
X347989Y141356D01*
X348019Y141328D01*
X348043Y141295D01*
X348134Y141219D01*
X348221Y141138D01*
X348256Y141118D01*
X348288Y141093D01*
X348395Y141042D01*
X348500Y140984D01*
X348539Y140974D01*
X348575Y140957D01*
X348692Y140935D01*
X348808Y140905D01*
X348868Y140901D01*
X348888Y140897D01*
X348908Y140899D01*
X348968Y140895D01*
X355529Y140895D01*
X355529Y138810D01*
X355356Y138163D01*
X355021Y137584D01*
X354548Y137111D01*
X354299Y136967D01*
X354199Y136891D01*
X354095Y136821D01*
X354073Y136795D01*
X354046Y136775D01*
X353968Y136676D01*
X353884Y136582D01*
X353869Y136552D01*
X353848Y136526D01*
X353797Y136411D01*
X353740Y136299D01*
X353732Y136266D01*
X353719Y136235D01*
X353698Y136111D01*
X353670Y135989D01*
X353671Y135955D01*
X353666Y135922D01*
X353676Y135796D01*
X353680Y135671D01*
X353689Y135638D01*
X353692Y135605D01*
X353733Y135486D01*
X353768Y135365D01*
X353785Y135336D01*
X353796Y135304D01*
X353866Y135200D01*
X353930Y135091D01*
X353962Y135055D01*
X353972Y135039D01*
X353988Y135025D01*
X354036Y134970D01*
X355050Y133956D01*
X355056Y133941D01*
X355061Y133900D01*
X355104Y133790D01*
X355141Y133677D01*
X355163Y133642D01*
X355178Y133605D01*
X355247Y133509D01*
X355311Y133408D01*
X355341Y133380D01*
X355364Y133347D01*
X355456Y133271D01*
X355543Y133190D01*
X355578Y133170D01*
X355609Y133145D01*
X355717Y133094D01*
X355821Y133036D01*
X355861Y133026D01*
X355897Y133009D01*
X356014Y132987D01*
X356129Y132957D01*
X356189Y132953D01*
X356209Y132949D01*
X356230Y132951D01*
X356290Y132947D01*
X357458Y132947D01*
X357576Y132962D01*
X357695Y132969D01*
X357733Y132982D01*
X357774Y132987D01*
X357884Y133030D01*
X357997Y133067D01*
X358032Y133089D01*
X358069Y133104D01*
X358165Y133173D01*
X358266Y133237D01*
X358294Y133267D01*
X358327Y133290D01*
X358403Y133382D01*
X358484Y133469D01*
X358504Y133504D01*
X358529Y133535D01*
X358580Y133643D01*
X358638Y133747D01*
X358648Y133787D01*
X358665Y133823D01*
X358687Y133940D01*
X358717Y134055D01*
X358721Y134115D01*
X358725Y134135D01*
X358723Y134156D01*
X358727Y134216D01*
X358727Y135002D01*
X359712Y135986D01*
X359789Y136086D01*
X359871Y136181D01*
X359886Y136211D01*
X359907Y136238D01*
X359957Y136353D01*
X360013Y136466D01*
X360020Y136499D01*
X360033Y136530D01*
X360053Y136654D01*
X360079Y136777D01*
X360078Y136810D01*
X360083Y136844D01*
X360071Y136969D01*
X360066Y137094D01*
X360056Y137127D01*
X360053Y137160D01*
X360011Y137279D01*
X359974Y137399D01*
X359957Y137428D01*
X359946Y137460D01*
X359875Y137564D01*
X359810Y137671D01*
X359786Y137695D01*
X359767Y137723D01*
X359673Y137806D01*
X359583Y137894D01*
X359542Y137921D01*
X359529Y137933D01*
X359509Y137943D01*
X359449Y137983D01*
X359200Y138127D01*
X358727Y138600D01*
X358392Y139179D01*
X358219Y139826D01*
X358219Y143161D01*
X364530Y143161D01*
X364648Y143176D01*
X364767Y143183D01*
X364805Y143195D01*
X364845Y143201D01*
X364956Y143244D01*
X365069Y143281D01*
X365103Y143303D01*
X365141Y143318D01*
X365237Y143387D01*
X365338Y143451D01*
X365366Y143481D01*
X365398Y143504D01*
X365474Y143596D01*
X365556Y143683D01*
X365575Y143718D01*
X365601Y143749D01*
X365652Y143857D01*
X365709Y143961D01*
X365719Y144001D01*
X365737Y144037D01*
X365757Y144144D01*
X365761Y144114D01*
X365805Y144004D01*
X365841Y143891D01*
X365863Y143856D01*
X365878Y143819D01*
X365948Y143722D01*
X366011Y143622D01*
X366041Y143594D01*
X366065Y143561D01*
X366156Y143485D01*
X366243Y143404D01*
X366278Y143384D01*
X366310Y143359D01*
X366417Y143308D01*
X366522Y143250D01*
X366561Y143240D01*
X366597Y143223D01*
X366714Y143201D01*
X366830Y143171D01*
X366890Y143167D01*
X366910Y143163D01*
X366930Y143165D01*
X366990Y143161D01*
X373301Y143161D01*
X373301Y139826D01*
X373128Y139179D01*
X372793Y138600D01*
X372320Y138127D01*
X372071Y137983D01*
X371971Y137907D01*
X371867Y137837D01*
X371845Y137811D01*
X371818Y137791D01*
X371740Y137692D01*
X371656Y137598D01*
X371641Y137568D01*
X371620Y137542D01*
X371569Y137427D01*
X371512Y137315D01*
X371504Y137282D01*
X371491Y137251D01*
X371470Y137127D01*
X371442Y137005D01*
X371443Y136971D01*
X371438Y136938D01*
X371448Y136812D01*
X371452Y136687D01*
X371461Y136654D01*
X371464Y136621D01*
X371505Y136502D01*
X371540Y136381D01*
X371557Y136352D01*
X371568Y136320D01*
X371638Y136216D01*
X371702Y136107D01*
X371734Y136071D01*
X371744Y136055D01*
X371760Y136041D01*
X371808Y135986D01*
X372920Y134874D01*
X372998Y134814D01*
X373071Y134746D01*
X373124Y134717D01*
X373171Y134680D01*
X373262Y134640D01*
X373349Y134592D01*
X373408Y134577D01*
X373463Y134553D01*
X373561Y134538D01*
X373657Y134513D01*
X373757Y134507D01*
X373777Y134503D01*
X373790Y134505D01*
X373818Y134503D01*
X375278Y134503D01*
X375396Y134518D01*
X375515Y134525D01*
X375553Y134538D01*
X375594Y134543D01*
X375704Y134586D01*
X375817Y134623D01*
X375852Y134645D01*
X375889Y134660D01*
X375985Y134729D01*
X376086Y134793D01*
X376114Y134823D01*
X376147Y134846D01*
X376223Y134938D01*
X376304Y135025D01*
X376324Y135060D01*
X376349Y135091D01*
X376400Y135199D01*
X376458Y135303D01*
X376468Y135343D01*
X376485Y135379D01*
X376507Y135496D01*
X376537Y135611D01*
X376541Y135671D01*
X376545Y135691D01*
X376543Y135712D01*
X376547Y135772D01*
X376547Y138567D01*
X376601Y138627D01*
X376619Y138663D01*
X376644Y138695D01*
X376691Y138804D01*
X376745Y138911D01*
X376754Y138950D01*
X376770Y138986D01*
X376789Y139104D01*
X376815Y139221D01*
X376813Y139261D01*
X376820Y139300D01*
X376809Y139419D01*
X376805Y139539D01*
X376794Y139577D01*
X376790Y139617D01*
X376750Y139729D01*
X376716Y139844D01*
X376696Y139879D01*
X376682Y139916D01*
X376635Y139986D01*
X376630Y139995D01*
X376212Y140719D01*
X376039Y141366D01*
X376039Y145661D01*
X384810Y145661D01*
X384928Y145676D01*
X385047Y145683D01*
X385085Y145696D01*
X385125Y145701D01*
X385236Y145744D01*
X385349Y145781D01*
X385384Y145803D01*
X385421Y145818D01*
X385517Y145888D01*
X385618Y145951D01*
X385646Y145981D01*
X385678Y146005D01*
X385754Y146096D01*
X385836Y146183D01*
X385855Y146218D01*
X385881Y146249D01*
X385932Y146357D01*
X385989Y146461D01*
X386000Y146501D01*
X386017Y146537D01*
X386039Y146654D01*
X386069Y146769D01*
X386073Y146830D01*
X386077Y146850D01*
X386075Y146870D01*
X386079Y146930D01*
X386079Y148201D01*
X386081Y148201D01*
X386081Y146930D01*
X386096Y146812D01*
X386103Y146693D01*
X386116Y146655D01*
X386121Y146615D01*
X386165Y146504D01*
X386201Y146391D01*
X386223Y146356D01*
X386238Y146319D01*
X386308Y146223D01*
X386371Y146122D01*
X386401Y146094D01*
X386425Y146061D01*
X386516Y145986D01*
X386603Y145904D01*
X386638Y145884D01*
X386670Y145859D01*
X386777Y145808D01*
X386881Y145750D01*
X386921Y145740D01*
X386957Y145723D01*
X387074Y145701D01*
X387189Y145671D01*
X387250Y145667D01*
X387270Y145663D01*
X387290Y145665D01*
X387350Y145661D01*
X396121Y145661D01*
X396121Y141366D01*
X395948Y140719D01*
X395572Y140069D01*
X395560Y140055D01*
X395541Y140019D01*
X395517Y139988D01*
X395469Y139878D01*
X395415Y139772D01*
X395406Y139733D01*
X395390Y139696D01*
X395372Y139578D01*
X395345Y139461D01*
X395347Y139422D01*
X395340Y139382D01*
X395351Y139263D01*
X395355Y139143D01*
X395366Y139105D01*
X395370Y139065D01*
X395410Y138953D01*
X395443Y138838D01*
X395464Y138804D01*
X395477Y138766D01*
X395544Y138667D01*
X395605Y138564D01*
X395613Y138555D01*
X395613Y123858D01*
X394422Y122667D01*
X388112Y122667D01*
X387994Y122652D01*
X387875Y122645D01*
X387837Y122632D01*
X387796Y122627D01*
X387686Y122584D01*
X387573Y122547D01*
X387538Y122525D01*
X387501Y122510D01*
X387405Y122441D01*
X387304Y122377D01*
X387276Y122347D01*
X387243Y122324D01*
X387167Y122232D01*
X387086Y122145D01*
X387066Y122110D01*
X387041Y122079D01*
X386990Y121971D01*
X386932Y121867D01*
X386922Y121827D01*
X386905Y121791D01*
X386883Y121674D01*
X386853Y121559D01*
X386849Y121499D01*
X386845Y121479D01*
X386847Y121458D01*
X386843Y121398D01*
X386843Y112693D01*
X386846Y112664D01*
X386844Y112635D01*
X386866Y112507D01*
X386883Y112378D01*
X386893Y112350D01*
X386898Y112321D01*
X386952Y112203D01*
X387000Y112082D01*
X387017Y112058D01*
X387029Y112031D01*
X387110Y111930D01*
X387186Y111825D01*
X387209Y111806D01*
X387228Y111783D01*
X387331Y111705D01*
X387431Y111622D01*
X387458Y111609D01*
X387482Y111592D01*
X387626Y111521D01*
X388288Y111247D01*
X390647Y108888D01*
X391923Y105807D01*
X391923Y102473D01*
X390647Y99392D01*
X388288Y97033D01*
X385207Y95757D01*
X381873Y95757D01*
X378792Y97033D01*
X376433Y99392D01*
X375775Y100982D01*
X375740Y101043D01*
X375714Y101108D01*
X375662Y101180D01*
X375617Y101258D01*
X375569Y101309D01*
X375528Y101365D01*
X375458Y101422D01*
X375396Y101487D01*
X375336Y101523D01*
X375283Y101568D01*
X375201Y101606D01*
X375125Y101653D01*
X375058Y101674D01*
X374995Y101703D01*
X374907Y101720D01*
X374821Y101747D01*
X374751Y101750D01*
X374682Y101763D01*
X374593Y101758D01*
X374503Y101762D01*
X374435Y101748D01*
X374365Y101743D01*
X374280Y101716D01*
X374192Y101698D01*
X374129Y101667D01*
X374063Y101645D01*
X373987Y101597D01*
X373906Y101558D01*
X373853Y101513D01*
X373794Y101475D01*
X373732Y101410D01*
X373664Y101352D01*
X373624Y101294D01*
X373576Y101244D01*
X373533Y101165D01*
X373481Y101091D01*
X373456Y101026D01*
X373422Y100965D01*
X373400Y100878D01*
X373368Y100794D01*
X373360Y100725D01*
X373343Y100657D01*
X373333Y100496D01*
X373333Y99303D01*
X373300Y99266D01*
X373282Y99230D01*
X373257Y99198D01*
X373210Y99089D01*
X373156Y98983D01*
X373147Y98944D01*
X373131Y98906D01*
X373112Y98789D01*
X373086Y98673D01*
X373087Y98632D01*
X373081Y98592D01*
X373092Y98474D01*
X373096Y98355D01*
X373107Y98316D01*
X373111Y98276D01*
X373151Y98164D01*
X373184Y98049D01*
X373205Y98015D01*
X373218Y97976D01*
X373285Y97878D01*
X373333Y97798D01*
X373333Y90690D01*
X372142Y89499D01*
X364458Y89499D01*
X363146Y90812D01*
X363067Y90872D01*
X362995Y90940D01*
X362942Y90969D01*
X362894Y91006D01*
X362804Y91046D01*
X362717Y91094D01*
X362658Y91109D01*
X362603Y91133D01*
X362505Y91148D01*
X362409Y91173D01*
X362309Y91179D01*
X362289Y91183D01*
X362276Y91181D01*
X362248Y91183D01*
X360676Y91183D01*
X360626Y91222D01*
X360519Y91311D01*
X360500Y91319D01*
X360484Y91332D01*
X360356Y91387D01*
X360231Y91446D01*
X360211Y91450D01*
X360192Y91458D01*
X360055Y91480D01*
X359918Y91506D01*
X359898Y91505D01*
X359878Y91508D01*
X359740Y91495D01*
X359601Y91486D01*
X359582Y91480D01*
X359562Y91478D01*
X359431Y91431D01*
X359299Y91388D01*
X359281Y91378D01*
X359262Y91371D01*
X359147Y91293D01*
X359030Y91218D01*
X359016Y91203D01*
X358999Y91192D01*
X358907Y91088D01*
X358812Y90987D01*
X358802Y90969D01*
X358789Y90954D01*
X358726Y90830D01*
X358658Y90708D01*
X358653Y90688D01*
X358644Y90670D01*
X358614Y90535D01*
X358579Y90400D01*
X358577Y90372D01*
X358574Y90360D01*
X358575Y90340D01*
X358569Y90239D01*
X358569Y86963D01*
X352258Y86963D01*
X352140Y86948D01*
X352021Y86941D01*
X351983Y86928D01*
X351943Y86923D01*
X351832Y86880D01*
X351719Y86843D01*
X351685Y86821D01*
X351647Y86806D01*
X351551Y86737D01*
X351450Y86673D01*
X351422Y86643D01*
X351390Y86620D01*
X351314Y86528D01*
X351232Y86441D01*
X351213Y86406D01*
X351187Y86375D01*
X351136Y86267D01*
X351079Y86163D01*
X351069Y86123D01*
X351051Y86087D01*
X351031Y85980D01*
X351027Y86010D01*
X350983Y86120D01*
X350947Y86233D01*
X350925Y86268D01*
X350910Y86305D01*
X350840Y86401D01*
X350777Y86502D01*
X350747Y86530D01*
X350723Y86563D01*
X350632Y86639D01*
X350545Y86720D01*
X350510Y86740D01*
X350478Y86765D01*
X350371Y86816D01*
X350266Y86874D01*
X350227Y86884D01*
X350191Y86901D01*
X350074Y86923D01*
X349958Y86953D01*
X349898Y86957D01*
X349878Y86961D01*
X349858Y86959D01*
X349798Y86963D01*
X343487Y86963D01*
X343487Y90298D01*
X343660Y90945D01*
X343995Y91524D01*
X344468Y91997D01*
X344717Y92141D01*
X344817Y92217D01*
X344921Y92287D01*
X344943Y92313D01*
X344970Y92333D01*
X345048Y92432D01*
X345132Y92526D01*
X345147Y92556D01*
X345168Y92582D01*
X345219Y92697D01*
X345276Y92809D01*
X345284Y92842D01*
X345297Y92873D01*
X345318Y92997D01*
X345346Y93119D01*
X345345Y93153D01*
X345350Y93186D01*
X345340Y93312D01*
X345336Y93437D01*
X345327Y93470D01*
X345324Y93503D01*
X345283Y93622D01*
X345248Y93743D01*
X345231Y93772D01*
X345220Y93804D01*
X345150Y93908D01*
X345086Y94017D01*
X345054Y94053D01*
X345044Y94069D01*
X345028Y94083D01*
X344980Y94138D01*
X343995Y95122D01*
X343995Y103659D01*
X343983Y103758D01*
X343980Y103857D01*
X343963Y103915D01*
X343955Y103975D01*
X343919Y104067D01*
X343891Y104162D01*
X343861Y104214D01*
X343838Y104271D01*
X343780Y104351D01*
X343730Y104436D01*
X343664Y104511D01*
X343652Y104528D01*
X343642Y104536D01*
X343624Y104557D01*
X341679Y106501D01*
X341570Y106586D01*
X341463Y106675D01*
X341444Y106683D01*
X341428Y106696D01*
X341300Y106751D01*
X341175Y106810D01*
X341155Y106814D01*
X341136Y106822D01*
X340998Y106844D01*
X340862Y106870D01*
X340842Y106869D01*
X340822Y106872D01*
X340683Y106859D01*
X340545Y106850D01*
X340526Y106844D01*
X340506Y106842D01*
X340374Y106795D01*
X340243Y106752D01*
X340225Y106742D01*
X340206Y106735D01*
X340091Y106657D01*
X339974Y106582D01*
X339960Y106567D01*
X339943Y106556D01*
X339851Y106452D01*
X339756Y106351D01*
X339746Y106333D01*
X339733Y106318D01*
X339669Y106194D01*
X339602Y106072D01*
X339597Y106053D01*
X339588Y106034D01*
X339558Y105899D01*
X339523Y105764D01*
X339521Y105736D01*
X339518Y105724D01*
X339519Y105704D01*
X339513Y105603D01*
X339513Y104703D01*
X339510Y104697D01*
X339456Y104591D01*
X339447Y104551D01*
X339431Y104514D01*
X339412Y104397D01*
X339386Y104280D01*
X339387Y104240D01*
X339381Y104200D01*
X339392Y104082D01*
X339396Y103963D01*
X339407Y103924D01*
X339411Y103884D01*
X339451Y103771D01*
X339484Y103657D01*
X339505Y103622D01*
X339513Y103600D01*
X339513Y97703D01*
X339510Y97697D01*
X339456Y97591D01*
X339447Y97551D01*
X339431Y97514D01*
X339412Y97397D01*
X339386Y97280D01*
X339387Y97240D01*
X339381Y97200D01*
X339392Y97082D01*
X339396Y96963D01*
X339407Y96924D01*
X339411Y96884D01*
X339451Y96771D01*
X339484Y96657D01*
X339505Y96622D01*
X339513Y96600D01*
X339513Y90703D01*
X339510Y90697D01*
X339456Y90591D01*
X339447Y90551D01*
X339431Y90514D01*
X339412Y90397D01*
X339386Y90280D01*
X339387Y90240D01*
X339381Y90200D01*
X339392Y90082D01*
X339396Y89963D01*
X339407Y89924D01*
X339411Y89884D01*
X339451Y89771D01*
X339484Y89657D01*
X339505Y89622D01*
X339513Y89600D01*
X339513Y83703D01*
X339510Y83697D01*
X339456Y83591D01*
X339447Y83551D01*
X339431Y83514D01*
X339412Y83397D01*
X339386Y83280D01*
X339387Y83240D01*
X339381Y83200D01*
X339392Y83082D01*
X339396Y82963D01*
X339407Y82924D01*
X339411Y82884D01*
X339451Y82771D01*
X339484Y82657D01*
X339505Y82622D01*
X339513Y82600D01*
X339513Y76703D01*
X339510Y76697D01*
X339456Y76591D01*
X339447Y76551D01*
X339431Y76514D01*
X339412Y76397D01*
X339386Y76280D01*
X339387Y76240D01*
X339381Y76200D01*
X339392Y76082D01*
X339396Y75963D01*
X339407Y75924D01*
X339411Y75884D01*
X339451Y75771D01*
X339484Y75657D01*
X339505Y75622D01*
X339513Y75600D01*
X339513Y69703D01*
X339510Y69697D01*
X339456Y69591D01*
X339447Y69551D01*
X339431Y69514D01*
X339412Y69397D01*
X339386Y69280D01*
X339387Y69240D01*
X339381Y69200D01*
X339392Y69082D01*
X339396Y68963D01*
X339407Y68924D01*
X339411Y68884D01*
X339451Y68771D01*
X339484Y68657D01*
X339505Y68622D01*
X339513Y68600D01*
X339513Y62818D01*
X338322Y61627D01*
X322638Y61627D01*
X321447Y62818D01*
X321447Y68617D01*
X321450Y68623D01*
X321504Y68729D01*
X321513Y68768D01*
X321529Y68805D01*
X321548Y68923D01*
X321574Y69039D01*
X321573Y69080D01*
X321579Y69120D01*
X321568Y69238D01*
X321564Y69357D01*
X321553Y69396D01*
X321549Y69436D01*
X321509Y69548D01*
X321476Y69663D01*
X321455Y69697D01*
X321447Y69720D01*
X321447Y75617D01*
X321450Y75623D01*
X321504Y75729D01*
X321513Y75768D01*
X321529Y75805D01*
X321548Y75923D01*
X321574Y76039D01*
X321573Y76080D01*
X321579Y76120D01*
X321568Y76238D01*
X321564Y76357D01*
X321553Y76396D01*
X321549Y76436D01*
X321509Y76548D01*
X321476Y76663D01*
X321455Y76697D01*
X321447Y76720D01*
X321447Y82617D01*
X321450Y82623D01*
X321504Y82729D01*
X321513Y82768D01*
X321529Y82805D01*
X321548Y82923D01*
X321574Y83039D01*
X321573Y83080D01*
X321579Y83120D01*
X321568Y83238D01*
X321564Y83357D01*
X321553Y83396D01*
X321549Y83436D01*
X321509Y83548D01*
X321476Y83663D01*
X321455Y83697D01*
X321447Y83720D01*
X321447Y89617D01*
X321450Y89623D01*
X321504Y89729D01*
X321513Y89768D01*
X321529Y89805D01*
X321548Y89923D01*
X321574Y90039D01*
X321573Y90080D01*
X321579Y90120D01*
X321568Y90238D01*
X321564Y90357D01*
X321553Y90396D01*
X321549Y90436D01*
X321509Y90548D01*
X321476Y90663D01*
X321455Y90697D01*
X321447Y90720D01*
X321447Y96617D01*
X321450Y96623D01*
X321504Y96729D01*
X321513Y96768D01*
X321529Y96805D01*
X321548Y96923D01*
X321574Y97039D01*
X321573Y97080D01*
X321579Y97120D01*
X321568Y97238D01*
X321564Y97357D01*
X321553Y97396D01*
X321549Y97436D01*
X321509Y97548D01*
X321476Y97663D01*
X321455Y97697D01*
X321447Y97720D01*
X321447Y103617D01*
X321450Y103623D01*
X321504Y103729D01*
X321513Y103768D01*
X321529Y103805D01*
X321548Y103923D01*
X321574Y104039D01*
X321573Y104080D01*
X321579Y104120D01*
X321568Y104238D01*
X321564Y104357D01*
X321553Y104396D01*
X321549Y104436D01*
X321509Y104548D01*
X321476Y104663D01*
X321455Y104697D01*
X321447Y104720D01*
X321447Y110617D01*
X321450Y110623D01*
X321504Y110729D01*
X321513Y110768D01*
X321529Y110805D01*
X321548Y110923D01*
X321574Y111039D01*
X321573Y111080D01*
X321579Y111120D01*
X321568Y111238D01*
X321564Y111357D01*
X321553Y111396D01*
X321549Y111436D01*
X321509Y111548D01*
X321476Y111663D01*
X321455Y111697D01*
X321447Y111720D01*
X321447Y117617D01*
X321450Y117623D01*
X321504Y117729D01*
X321513Y117768D01*
X321529Y117805D01*
X321548Y117923D01*
X321574Y118039D01*
X321573Y118080D01*
X321579Y118120D01*
X321568Y118238D01*
X321564Y118357D01*
X321553Y118396D01*
X321549Y118436D01*
X321509Y118548D01*
X321476Y118663D01*
X321455Y118697D01*
X321447Y118720D01*
X321447Y124617D01*
X321450Y124623D01*
X321504Y124729D01*
X321513Y124768D01*
X321529Y124805D01*
X321548Y124923D01*
X321574Y125039D01*
X321573Y125080D01*
X321579Y125120D01*
X321568Y125238D01*
X321564Y125357D01*
X321553Y125396D01*
X321549Y125436D01*
X321509Y125548D01*
X321476Y125663D01*
X321455Y125697D01*
X321447Y125720D01*
X321447Y131502D01*
X322638Y132693D01*
X329316Y132693D01*
X329414Y132705D01*
X329513Y132708D01*
X329572Y132725D01*
X329632Y132733D01*
X329724Y132769D01*
X329819Y132797D01*
X329871Y132827D01*
X329927Y132850D01*
X330007Y132908D01*
X330074Y132947D01*
X334772Y132947D01*
X334890Y132962D01*
X335009Y132969D01*
X335047Y132982D01*
X335088Y132987D01*
X335198Y133030D01*
X335311Y133067D01*
X335346Y133089D01*
X335383Y133104D01*
X335479Y133173D01*
X335580Y133237D01*
X335608Y133267D01*
X335641Y133290D01*
X335717Y133382D01*
X335798Y133469D01*
X335818Y133504D01*
X335843Y133535D01*
X335894Y133643D01*
X335952Y133747D01*
X335962Y133787D01*
X335979Y133823D01*
X336001Y133940D01*
X336031Y134055D01*
X336035Y134115D01*
X336039Y134135D01*
X336037Y134156D01*
X336041Y134216D01*
X336041Y148024D01*
X338347Y150330D01*
X338348Y150331D01*
X345802Y157784D01*
X345862Y157863D01*
X345930Y157935D01*
X345952Y157974D01*
X345969Y157995D01*
X345976Y158009D01*
X345996Y158036D01*
X346036Y158127D01*
X346084Y158213D01*
X346098Y158268D01*
X346105Y158283D01*
X346106Y158288D01*
X346123Y158328D01*
X346138Y158426D01*
X346163Y158521D01*
X346169Y158621D01*
X346173Y158642D01*
X346171Y158654D01*
X346173Y158682D01*
X346173Y161358D01*
X346161Y161456D01*
X346158Y161555D01*
X346141Y161614D01*
X346133Y161674D01*
X346097Y161766D01*
X346069Y161861D01*
X346039Y161913D01*
X346016Y161969D01*
X345958Y162049D01*
X345908Y162135D01*
X345842Y162210D01*
X345830Y162227D01*
X345820Y162234D01*
X345802Y162256D01*
X340641Y167416D01*
X340641Y195154D01*
X340629Y195252D01*
X340626Y195351D01*
X340609Y195409D01*
X340601Y195469D01*
X340565Y195561D01*
X340537Y195656D01*
X340507Y195708D01*
X340484Y195765D01*
X340426Y195845D01*
X340376Y195930D01*
X340310Y196006D01*
X340298Y196022D01*
X340288Y196030D01*
X340270Y196051D01*
X329573Y206748D01*
X329495Y206808D01*
X329423Y206876D01*
X329370Y206905D01*
X329322Y206942D01*
X329231Y206982D01*
X329144Y207030D01*
X329086Y207045D01*
X329030Y207069D01*
X328932Y207084D01*
X328836Y207109D01*
X328736Y207115D01*
X328716Y207119D01*
X328704Y207117D01*
X328676Y207119D01*
X319028Y207119D01*
X318999Y207116D01*
X318969Y207118D01*
X318841Y207096D01*
X318712Y207079D01*
X318685Y207069D01*
X318656Y207064D01*
X318537Y207010D01*
X318417Y206962D01*
X318393Y206945D01*
X318366Y206933D01*
X318264Y206852D01*
X318159Y206776D01*
X318140Y206753D01*
X318117Y206734D01*
X318039Y206631D01*
X317956Y206531D01*
X317944Y206504D01*
X317926Y206480D01*
X317855Y206336D01*
X317031Y204345D01*
X313815Y201129D01*
X309614Y199389D01*
X305066Y199389D01*
X300865Y201129D01*
X297649Y204345D01*
X295909Y208546D01*
X295909Y213094D01*
X296592Y214743D01*
X296600Y214771D01*
X296614Y214798D01*
X296642Y214924D01*
X296676Y215050D01*
X296677Y215079D01*
X296683Y215108D01*
X296679Y215238D01*
X296681Y215368D01*
X296675Y215396D01*
X296674Y215426D01*
X296638Y215551D01*
X296607Y215677D01*
X296593Y215703D01*
X296585Y215731D01*
X296519Y215843D01*
X296459Y215958D01*
X296439Y215980D01*
X296424Y216005D01*
X296317Y216126D01*
X293655Y218788D01*
X293600Y218831D01*
X293551Y218881D01*
X293475Y218928D01*
X293404Y218983D01*
X293340Y219011D01*
X293280Y219047D01*
X293194Y219074D01*
X293112Y219110D01*
X293043Y219121D01*
X292976Y219141D01*
X292887Y219145D01*
X292798Y219159D01*
X292728Y219153D01*
X292659Y219156D01*
X292571Y219138D01*
X292481Y219130D01*
X292415Y219106D01*
X292347Y219092D01*
X292267Y219053D01*
X292182Y219022D01*
X292124Y218983D01*
X292061Y218952D01*
X291993Y218894D01*
X291919Y218843D01*
X291872Y218791D01*
X291819Y218746D01*
X291768Y218672D01*
X291708Y218605D01*
X291676Y218543D01*
X291636Y218486D01*
X291604Y218402D01*
X291564Y218322D01*
X291548Y218254D01*
X291524Y218188D01*
X291514Y218099D01*
X291494Y218012D01*
X291496Y217942D01*
X291488Y217872D01*
X291501Y217783D01*
X291504Y217694D01*
X291523Y217627D01*
X291533Y217557D01*
X291585Y217405D01*
X293371Y213094D01*
X293371Y208546D01*
X291631Y204345D01*
X288873Y201587D01*
X288788Y201478D01*
X288699Y201371D01*
X288690Y201352D01*
X288678Y201336D01*
X288623Y201208D01*
X288564Y201083D01*
X288560Y201063D01*
X288552Y201044D01*
X288530Y200906D01*
X288504Y200770D01*
X288505Y200750D01*
X288502Y200730D01*
X288515Y200591D01*
X288524Y200453D01*
X288530Y200434D01*
X288532Y200414D01*
X288579Y200282D01*
X288622Y200151D01*
X288632Y200133D01*
X288639Y200114D01*
X288717Y199999D01*
X288792Y199882D01*
X288806Y199868D01*
X288818Y199851D01*
X288922Y199759D01*
X289023Y199664D01*
X289041Y199654D01*
X289056Y199641D01*
X289180Y199577D01*
X289302Y199510D01*
X289321Y199505D01*
X289339Y199496D01*
X289475Y199466D01*
X289610Y199431D01*
X289638Y199429D01*
X289650Y199426D01*
X289670Y199427D01*
X289770Y199421D01*
X289814Y199421D01*
X290461Y199248D01*
X291040Y198913D01*
X291513Y198440D01*
X291848Y197861D01*
X292021Y197214D01*
X292021Y193879D01*
X285710Y193879D01*
X285592Y193864D01*
X285473Y193857D01*
X285435Y193844D01*
X285395Y193839D01*
X285284Y193796D01*
X285171Y193759D01*
X285137Y193737D01*
X285099Y193722D01*
X285003Y193653D01*
X284902Y193589D01*
X284874Y193559D01*
X284842Y193536D01*
X284766Y193444D01*
X284684Y193357D01*
X284665Y193322D01*
X284639Y193291D01*
X284588Y193183D01*
X284531Y193079D01*
X284521Y193039D01*
X284503Y193003D01*
X284483Y192896D01*
X284479Y192926D01*
X284435Y193036D01*
X284399Y193149D01*
X284377Y193184D01*
X284362Y193221D01*
X284292Y193317D01*
X284229Y193418D01*
X284199Y193446D01*
X284175Y193479D01*
X284084Y193555D01*
X283997Y193636D01*
X283962Y193656D01*
X283930Y193681D01*
X283823Y193732D01*
X283718Y193790D01*
X283679Y193800D01*
X283643Y193817D01*
X283526Y193839D01*
X283410Y193869D01*
X283350Y193873D01*
X283330Y193877D01*
X283310Y193875D01*
X283250Y193879D01*
X276939Y193879D01*
X276939Y197214D01*
X277112Y197861D01*
X277458Y198460D01*
X277492Y198491D01*
X277553Y198582D01*
X277571Y198607D01*
X277575Y198611D01*
X277575Y198612D01*
X277620Y198669D01*
X277640Y198715D01*
X277667Y198756D01*
X277703Y198860D01*
X277746Y198961D01*
X277754Y199010D01*
X277770Y199057D01*
X277779Y199167D01*
X277796Y199275D01*
X277791Y199325D01*
X277795Y199374D01*
X277777Y199483D01*
X277766Y199592D01*
X277750Y199639D01*
X277741Y199688D01*
X277696Y199788D01*
X277659Y199891D01*
X277631Y199932D01*
X277610Y199978D01*
X277542Y200063D01*
X277480Y200154D01*
X277443Y200187D01*
X277412Y200226D01*
X277324Y200292D01*
X277242Y200365D01*
X277198Y200387D01*
X277158Y200417D01*
X277013Y200488D01*
X275465Y201129D01*
X272249Y204345D01*
X270509Y208546D01*
X270509Y213094D01*
X272249Y217295D01*
X272497Y217542D01*
X272582Y217652D01*
X272671Y217759D01*
X272680Y217778D01*
X272692Y217794D01*
X272747Y217921D01*
X272806Y218047D01*
X272810Y218067D01*
X272818Y218086D01*
X272840Y218223D01*
X272866Y218360D01*
X272865Y218380D01*
X272868Y218400D01*
X272855Y218539D01*
X272846Y218677D01*
X272840Y218696D01*
X272838Y218716D01*
X272791Y218848D01*
X272748Y218979D01*
X272738Y218996D01*
X272731Y219016D01*
X272653Y219131D01*
X272578Y219248D01*
X272564Y219262D01*
X272552Y219279D01*
X272448Y219371D01*
X272347Y219466D01*
X272329Y219476D01*
X272314Y219489D01*
X272190Y219553D01*
X272068Y219620D01*
X272049Y219625D01*
X272031Y219634D01*
X271894Y219664D01*
X271760Y219699D01*
X271732Y219701D01*
X271720Y219704D01*
X271700Y219703D01*
X271600Y219709D01*
X266880Y219709D01*
X266743Y219692D01*
X266604Y219679D01*
X266585Y219672D01*
X266565Y219669D01*
X266435Y219618D01*
X266305Y219571D01*
X266288Y219560D01*
X266269Y219552D01*
X266157Y219471D01*
X266042Y219393D01*
X266028Y219377D01*
X266012Y219366D01*
X265923Y219259D01*
X265831Y219154D01*
X265822Y219136D01*
X265809Y219121D01*
X265750Y218995D01*
X265687Y218871D01*
X265682Y218851D01*
X265674Y218833D01*
X265647Y218697D01*
X265617Y218561D01*
X265618Y218540D01*
X265614Y218521D01*
X265622Y218382D01*
X265627Y218243D01*
X265632Y218223D01*
X265634Y218203D01*
X265676Y218071D01*
X265715Y217937D01*
X265725Y217920D01*
X265732Y217901D01*
X265806Y217783D01*
X265877Y217663D01*
X265895Y217642D01*
X265902Y217632D01*
X265917Y217618D01*
X265983Y217542D01*
X266231Y217295D01*
X267971Y213094D01*
X267971Y208546D01*
X266231Y204345D01*
X263015Y201129D01*
X258814Y199389D01*
X255778Y199389D01*
X255660Y199374D01*
X255541Y199367D01*
X255503Y199354D01*
X255462Y199349D01*
X255352Y199306D01*
X255239Y199269D01*
X255204Y199247D01*
X255167Y199232D01*
X255071Y199163D01*
X254970Y199099D01*
X254942Y199069D01*
X254909Y199046D01*
X254833Y198954D01*
X254752Y198867D01*
X254732Y198832D01*
X254707Y198801D01*
X254656Y198693D01*
X254598Y198589D01*
X254588Y198549D01*
X254571Y198513D01*
X254549Y198396D01*
X254519Y198281D01*
X254515Y198221D01*
X254511Y198201D01*
X254513Y198180D01*
X254509Y198120D01*
X254509Y189237D01*
X244946Y179675D01*
X244886Y179597D01*
X244818Y179525D01*
X244789Y179472D01*
X244752Y179424D01*
X244712Y179333D01*
X244664Y179246D01*
X244649Y179187D01*
X244625Y179132D01*
X244610Y179034D01*
X244585Y178938D01*
X244579Y178838D01*
X244575Y178818D01*
X244577Y178805D01*
X244575Y178777D01*
X244575Y176643D01*
X243690Y174506D01*
X242054Y172870D01*
X239917Y171985D01*
X237603Y171985D01*
X235466Y172870D01*
X233830Y174506D01*
X232945Y176643D01*
X232945Y178336D01*
X232930Y178454D01*
X232923Y178573D01*
X232910Y178611D01*
X232905Y178652D01*
X232862Y178762D01*
X232825Y178875D01*
X232803Y178910D01*
X232788Y178947D01*
X232719Y179043D01*
X232655Y179144D01*
X232625Y179172D01*
X232602Y179205D01*
X232510Y179281D01*
X232423Y179362D01*
X232388Y179382D01*
X232357Y179407D01*
X232249Y179458D01*
X232145Y179516D01*
X232105Y179526D01*
X232069Y179543D01*
X231952Y179565D01*
X231837Y179595D01*
X231777Y179599D01*
X231757Y179603D01*
X231736Y179601D01*
X231676Y179605D01*
X229983Y179605D01*
X227846Y180490D01*
X226210Y182126D01*
X225325Y184263D01*
X225325Y186577D01*
X226210Y188714D01*
X227846Y190350D01*
X229983Y191235D01*
X232297Y191235D01*
X232477Y191160D01*
X232505Y191152D01*
X232531Y191139D01*
X232658Y191111D01*
X232783Y191076D01*
X232813Y191076D01*
X232842Y191069D01*
X232971Y191073D01*
X233101Y191071D01*
X233130Y191078D01*
X233160Y191079D01*
X233284Y191115D01*
X233411Y191145D01*
X233437Y191159D01*
X233465Y191167D01*
X233577Y191233D01*
X233692Y191294D01*
X233714Y191314D01*
X233739Y191329D01*
X233860Y191435D01*
X237146Y194721D01*
X237206Y194799D01*
X237274Y194871D01*
X237303Y194924D01*
X237340Y194972D01*
X237380Y195063D01*
X237428Y195150D01*
X237443Y195209D01*
X237467Y195264D01*
X237482Y195362D01*
X237507Y195458D01*
X237513Y195558D01*
X237517Y195578D01*
X237515Y195591D01*
X237517Y195619D01*
X237517Y197753D01*
X237732Y198272D01*
X237740Y198301D01*
X237754Y198328D01*
X237782Y198454D01*
X237816Y198579D01*
X237817Y198609D01*
X237823Y198638D01*
X237819Y198767D01*
X237821Y198897D01*
X237814Y198926D01*
X237814Y198956D01*
X237778Y199080D01*
X237747Y199206D01*
X237733Y199233D01*
X237725Y199261D01*
X237659Y199373D01*
X237599Y199487D01*
X237578Y199509D01*
X237563Y199535D01*
X237472Y199627D01*
X237385Y199723D01*
X237360Y199739D01*
X237339Y199760D01*
X237227Y199826D01*
X237119Y199897D01*
X237091Y199907D01*
X237065Y199922D01*
X236941Y199959D01*
X236818Y200001D01*
X236788Y200003D01*
X236760Y200011D01*
X236630Y200016D01*
X236501Y200026D01*
X236472Y200021D01*
X236442Y200022D01*
X236316Y199994D01*
X236188Y199971D01*
X236160Y199959D01*
X236131Y199953D01*
X235984Y199889D01*
X235723Y199756D01*
X233936Y199175D01*
X233679Y199135D01*
X233679Y209550D01*
X233664Y209668D01*
X233657Y209787D01*
X233644Y209825D01*
X233639Y209865D01*
X233596Y209976D01*
X233559Y210089D01*
X233537Y210123D01*
X233522Y210161D01*
X233452Y210257D01*
X233389Y210358D01*
X233359Y210386D01*
X233335Y210418D01*
X233244Y210494D01*
X233157Y210576D01*
X233122Y210595D01*
X233091Y210621D01*
X232983Y210672D01*
X232879Y210729D01*
X232839Y210740D01*
X232803Y210757D01*
X232686Y210779D01*
X232571Y210809D01*
X232510Y210813D01*
X232490Y210817D01*
X232470Y210815D01*
X232410Y210819D01*
X229870Y210819D01*
X229752Y210804D01*
X229633Y210797D01*
X229595Y210784D01*
X229554Y210779D01*
X229444Y210735D01*
X229331Y210699D01*
X229296Y210677D01*
X229259Y210662D01*
X229163Y210592D01*
X229062Y210529D01*
X229034Y210499D01*
X229001Y210475D01*
X228926Y210384D01*
X228844Y210297D01*
X228824Y210262D01*
X228799Y210230D01*
X228748Y210123D01*
X228690Y210018D01*
X228680Y209979D01*
X228663Y209943D01*
X228641Y209826D01*
X228611Y209711D01*
X228607Y209650D01*
X228603Y209630D01*
X228605Y209610D01*
X228601Y209550D01*
X228601Y199135D01*
X228344Y199175D01*
X226557Y199756D01*
X224883Y200609D01*
X223362Y201714D01*
X222624Y202452D01*
X222515Y202537D01*
X222408Y202626D01*
X222389Y202634D01*
X222373Y202647D01*
X222245Y202702D01*
X222120Y202761D01*
X222100Y202765D01*
X222081Y202773D01*
X221943Y202795D01*
X221807Y202821D01*
X221787Y202820D01*
X221767Y202823D01*
X221628Y202810D01*
X221490Y202801D01*
X221471Y202795D01*
X221451Y202793D01*
X221320Y202746D01*
X221188Y202703D01*
X221170Y202692D01*
X221151Y202685D01*
X221037Y202607D01*
X220919Y202533D01*
X220905Y202518D01*
X220888Y202507D01*
X220796Y202403D01*
X220701Y202301D01*
X220691Y202283D01*
X220678Y202268D01*
X220615Y202145D01*
X220547Y202023D01*
X220542Y202003D01*
X220533Y201985D01*
X220503Y201849D01*
X220468Y201715D01*
X220466Y201687D01*
X220463Y201675D01*
X220464Y201654D01*
X220458Y201554D01*
X220458Y189123D01*
X218962Y187627D01*
X218932Y187588D01*
X218895Y187555D01*
X218835Y187463D01*
X218767Y187376D01*
X218748Y187331D01*
X218720Y187289D01*
X218685Y187185D01*
X218641Y187084D01*
X218633Y187035D01*
X218617Y186988D01*
X218608Y186879D01*
X218591Y186770D01*
X218596Y186721D01*
X218592Y186671D01*
X218611Y186563D01*
X218621Y186454D01*
X218638Y186407D01*
X218646Y186358D01*
X218691Y186258D01*
X218729Y186154D01*
X218757Y186113D01*
X218777Y186068D01*
X218845Y185982D01*
X218907Y185891D01*
X218945Y185858D01*
X218975Y185820D01*
X219063Y185754D01*
X219146Y185681D01*
X219190Y185658D01*
X219230Y185628D01*
X219374Y185557D01*
X219736Y185408D01*
X221372Y183772D01*
X222257Y181635D01*
X222257Y179321D01*
X221372Y177184D01*
X220844Y176657D01*
X220784Y176579D01*
X220716Y176507D01*
X220687Y176454D01*
X220650Y176406D01*
X220610Y176315D01*
X220562Y176228D01*
X220547Y176170D01*
X220523Y176114D01*
X220508Y176016D01*
X220483Y175920D01*
X220477Y175820D01*
X220473Y175800D01*
X220475Y175788D01*
X220473Y175760D01*
X220473Y173862D01*
X220488Y173744D01*
X220495Y173625D01*
X220508Y173587D01*
X220513Y173546D01*
X220556Y173436D01*
X220593Y173323D01*
X220615Y173288D01*
X220630Y173251D01*
X220699Y173155D01*
X220763Y173054D01*
X220793Y173026D01*
X220816Y172993D01*
X220908Y172917D01*
X220995Y172836D01*
X221030Y172816D01*
X221061Y172791D01*
X221169Y172740D01*
X221273Y172682D01*
X221313Y172672D01*
X221349Y172655D01*
X221466Y172633D01*
X221581Y172603D01*
X221641Y172599D01*
X221661Y172595D01*
X221682Y172597D01*
X221742Y172593D01*
X221766Y172593D01*
X222957Y171402D01*
X222957Y163718D01*
X222696Y163458D01*
X222623Y163363D01*
X222544Y163274D01*
X222526Y163238D01*
X222501Y163206D01*
X222454Y163097D01*
X222400Y162991D01*
X222391Y162952D01*
X222375Y162914D01*
X222356Y162796D01*
X222330Y162681D01*
X222331Y162640D01*
X222325Y162600D01*
X222336Y162482D01*
X222340Y162363D01*
X222351Y162324D01*
X222355Y162284D01*
X222395Y162172D01*
X222428Y162057D01*
X222449Y162022D01*
X222462Y161984D01*
X222529Y161886D01*
X222590Y161783D01*
X222630Y161738D01*
X222641Y161721D01*
X222656Y161708D01*
X222696Y161663D01*
X222957Y161402D01*
X222957Y158309D01*
X222969Y158210D01*
X222972Y158111D01*
X222989Y158053D01*
X222997Y157993D01*
X223033Y157901D01*
X223061Y157806D01*
X223091Y157754D01*
X223114Y157697D01*
X223172Y157617D01*
X223222Y157532D01*
X223288Y157456D01*
X223300Y157440D01*
X223310Y157432D01*
X223328Y157411D01*
X235773Y144967D01*
X235882Y144882D01*
X235989Y144793D01*
X236008Y144785D01*
X236024Y144772D01*
X236152Y144717D01*
X236277Y144658D01*
X236297Y144654D01*
X236316Y144646D01*
X236454Y144624D01*
X236590Y144598D01*
X236610Y144599D01*
X236630Y144596D01*
X236769Y144609D01*
X236907Y144618D01*
X236926Y144624D01*
X236946Y144626D01*
X237078Y144673D01*
X237209Y144716D01*
X237227Y144726D01*
X237246Y144733D01*
X237361Y144811D01*
X237478Y144886D01*
X237492Y144901D01*
X237509Y144912D01*
X237601Y145016D01*
X237696Y145117D01*
X237706Y145135D01*
X237719Y145150D01*
X237783Y145274D01*
X237850Y145396D01*
X237855Y145415D01*
X237864Y145434D01*
X237894Y145569D01*
X237929Y145704D01*
X237931Y145732D01*
X237934Y145744D01*
X237933Y145764D01*
X237939Y145865D01*
X237939Y148391D01*
X242480Y148391D01*
X242598Y148406D01*
X242717Y148413D01*
X242755Y148425D01*
X242795Y148430D01*
X242906Y148474D01*
X243019Y148511D01*
X243053Y148533D01*
X243091Y148547D01*
X243187Y148617D01*
X243288Y148681D01*
X243288Y148682D01*
X243316Y148711D01*
X243348Y148734D01*
X243349Y148735D01*
X243425Y148827D01*
X243506Y148913D01*
X243526Y148949D01*
X243552Y148980D01*
X243602Y149087D01*
X243660Y149192D01*
X243670Y149231D01*
X243687Y149267D01*
X243709Y149384D01*
X243739Y149500D01*
X243743Y149560D01*
X243747Y149580D01*
X243746Y149600D01*
X243749Y149660D01*
X243749Y159201D01*
X244814Y159201D01*
X245461Y159028D01*
X245746Y158863D01*
X245831Y158827D01*
X245912Y158782D01*
X245977Y158766D01*
X246039Y158740D01*
X246131Y158726D01*
X246220Y158703D01*
X246337Y158696D01*
X246354Y158693D01*
X246362Y158694D01*
X246381Y158693D01*
X252437Y158693D01*
X252443Y158690D01*
X252549Y158636D01*
X252589Y158627D01*
X252626Y158611D01*
X252743Y158592D01*
X252860Y158566D01*
X252900Y158567D01*
X252940Y158561D01*
X253058Y158572D01*
X253177Y158576D01*
X253216Y158587D01*
X253256Y158591D01*
X253369Y158631D01*
X253483Y158664D01*
X253518Y158685D01*
X253540Y158693D01*
X259437Y158693D01*
X259443Y158690D01*
X259549Y158636D01*
X259589Y158627D01*
X259626Y158611D01*
X259743Y158592D01*
X259860Y158566D01*
X259900Y158567D01*
X259940Y158561D01*
X260058Y158572D01*
X260177Y158576D01*
X260216Y158587D01*
X260256Y158591D01*
X260369Y158631D01*
X260483Y158664D01*
X260518Y158685D01*
X260540Y158693D01*
X266437Y158693D01*
X266443Y158690D01*
X266549Y158636D01*
X266589Y158627D01*
X266626Y158611D01*
X266743Y158592D01*
X266860Y158566D01*
X266900Y158567D01*
X266940Y158561D01*
X267058Y158572D01*
X267177Y158576D01*
X267216Y158587D01*
X267256Y158591D01*
X267369Y158631D01*
X267483Y158664D01*
X267518Y158685D01*
X267540Y158693D01*
X270268Y158693D01*
X270318Y158699D01*
X270367Y158697D01*
X270475Y158719D01*
X270584Y158733D01*
X270630Y158751D01*
X270679Y158761D01*
X270778Y158809D01*
X270880Y158850D01*
X270920Y158879D01*
X270965Y158901D01*
X271048Y158972D01*
X271137Y159036D01*
X271169Y159075D01*
X271207Y159107D01*
X271270Y159197D01*
X271340Y159281D01*
X271361Y159326D01*
X271390Y159367D01*
X271429Y159470D01*
X271475Y159569D01*
X271485Y159618D01*
X271502Y159664D01*
X271515Y159774D01*
X271535Y159881D01*
X271532Y159931D01*
X271538Y159980D01*
X271522Y160089D01*
X271515Y160199D01*
X271500Y160246D01*
X271493Y160295D01*
X271441Y160448D01*
X271045Y161403D01*
X271045Y163717D01*
X271930Y165854D01*
X272057Y165980D01*
X272142Y166090D01*
X272231Y166197D01*
X272240Y166216D01*
X272252Y166232D01*
X272308Y166360D01*
X272367Y166485D01*
X272370Y166505D01*
X272379Y166524D01*
X272400Y166661D01*
X272426Y166798D01*
X272425Y166818D01*
X272428Y166838D01*
X272415Y166976D01*
X272407Y167115D01*
X272400Y167134D01*
X272399Y167154D01*
X272351Y167285D01*
X272309Y167417D01*
X272298Y167435D01*
X272291Y167454D01*
X272213Y167569D01*
X272139Y167686D01*
X272124Y167700D01*
X272112Y167717D01*
X272008Y167809D01*
X271907Y167904D01*
X271889Y167914D01*
X271874Y167927D01*
X271750Y167990D01*
X271628Y168058D01*
X271609Y168063D01*
X271591Y168072D01*
X271455Y168102D01*
X271320Y168137D01*
X271292Y168139D01*
X271280Y168142D01*
X271260Y168141D01*
X271160Y168147D01*
X270343Y168147D01*
X270321Y168153D01*
X270266Y168177D01*
X270168Y168192D01*
X270072Y168217D01*
X269972Y168223D01*
X269952Y168227D01*
X269939Y168225D01*
X269911Y168227D01*
X268930Y168227D01*
X268812Y168212D01*
X268693Y168205D01*
X268655Y168192D01*
X268614Y168187D01*
X268504Y168144D01*
X268391Y168107D01*
X268356Y168085D01*
X268319Y168070D01*
X268223Y168001D01*
X268122Y167937D01*
X268094Y167907D01*
X268061Y167884D01*
X267985Y167792D01*
X267904Y167705D01*
X267884Y167670D01*
X267859Y167639D01*
X267853Y167626D01*
X266470Y166243D01*
X257786Y166243D01*
X256595Y167434D01*
X256595Y175143D01*
X256649Y175203D01*
X256667Y175239D01*
X256692Y175271D01*
X256739Y175380D01*
X256793Y175487D01*
X256802Y175526D01*
X256818Y175562D01*
X256837Y175680D01*
X256863Y175797D01*
X256861Y175837D01*
X256868Y175876D01*
X256857Y175995D01*
X256853Y176115D01*
X256842Y176153D01*
X256838Y176193D01*
X256798Y176305D01*
X256764Y176420D01*
X256744Y176455D01*
X256730Y176492D01*
X256683Y176562D01*
X256678Y176571D01*
X256260Y177295D01*
X256087Y177942D01*
X256087Y179777D01*
X261898Y179777D01*
X262016Y179792D01*
X262135Y179799D01*
X262142Y179801D01*
X262198Y179787D01*
X262258Y179783D01*
X262278Y179779D01*
X262298Y179781D01*
X262358Y179777D01*
X268169Y179777D01*
X268169Y177942D01*
X267996Y177295D01*
X267620Y176645D01*
X267608Y176631D01*
X267589Y176595D01*
X267565Y176564D01*
X267517Y176454D01*
X267463Y176348D01*
X267454Y176309D01*
X267438Y176272D01*
X267420Y176154D01*
X267393Y176037D01*
X267395Y175998D01*
X267388Y175958D01*
X267399Y175839D01*
X267403Y175719D01*
X267414Y175681D01*
X267418Y175641D01*
X267458Y175529D01*
X267491Y175414D01*
X267512Y175380D01*
X267525Y175342D01*
X267592Y175243D01*
X267653Y175140D01*
X267692Y175096D01*
X267704Y175079D01*
X267719Y175065D01*
X267759Y175019D01*
X267875Y174904D01*
X267887Y174887D01*
X267951Y174786D01*
X267981Y174758D01*
X268004Y174725D01*
X268096Y174649D01*
X268183Y174568D01*
X268218Y174548D01*
X268249Y174523D01*
X268357Y174472D01*
X268461Y174414D01*
X268501Y174404D01*
X268537Y174387D01*
X268654Y174365D01*
X268769Y174335D01*
X268829Y174331D01*
X268849Y174327D01*
X268870Y174329D01*
X268930Y174325D01*
X273137Y174325D01*
X273159Y174319D01*
X273214Y174295D01*
X273312Y174280D01*
X273408Y174255D01*
X273508Y174249D01*
X273528Y174245D01*
X273541Y174247D01*
X273569Y174245D01*
X276178Y174245D01*
X276296Y174260D01*
X276415Y174267D01*
X276453Y174280D01*
X276494Y174285D01*
X276604Y174328D01*
X276717Y174365D01*
X276752Y174387D01*
X276789Y174402D01*
X276885Y174471D01*
X276986Y174535D01*
X277014Y174565D01*
X277047Y174588D01*
X277123Y174680D01*
X277204Y174767D01*
X277224Y174802D01*
X277249Y174833D01*
X277300Y174941D01*
X277358Y175045D01*
X277368Y175085D01*
X277385Y175121D01*
X277407Y175238D01*
X277437Y175353D01*
X277441Y175413D01*
X277445Y175433D01*
X277443Y175454D01*
X277447Y175514D01*
X277447Y180722D01*
X278432Y181706D01*
X278509Y181806D01*
X278591Y181901D01*
X278606Y181931D01*
X278627Y181958D01*
X278677Y182073D01*
X278733Y182186D01*
X278740Y182219D01*
X278753Y182250D01*
X278773Y182374D01*
X278799Y182497D01*
X278798Y182530D01*
X278803Y182564D01*
X278791Y182689D01*
X278786Y182814D01*
X278776Y182847D01*
X278773Y182880D01*
X278731Y182999D01*
X278694Y183119D01*
X278677Y183148D01*
X278666Y183180D01*
X278595Y183284D01*
X278530Y183391D01*
X278506Y183415D01*
X278487Y183443D01*
X278393Y183526D01*
X278303Y183614D01*
X278262Y183641D01*
X278249Y183653D01*
X278229Y183663D01*
X278169Y183703D01*
X277920Y183847D01*
X277447Y184320D01*
X277112Y184899D01*
X276939Y185546D01*
X276939Y188881D01*
X283250Y188881D01*
X283368Y188896D01*
X283487Y188903D01*
X283525Y188915D01*
X283565Y188921D01*
X283676Y188964D01*
X283789Y189001D01*
X283823Y189023D01*
X283861Y189038D01*
X283957Y189107D01*
X284058Y189171D01*
X284086Y189201D01*
X284118Y189224D01*
X284194Y189316D01*
X284276Y189403D01*
X284295Y189438D01*
X284321Y189469D01*
X284372Y189577D01*
X284429Y189681D01*
X284439Y189721D01*
X284457Y189757D01*
X284477Y189864D01*
X284481Y189834D01*
X284525Y189724D01*
X284561Y189611D01*
X284583Y189576D01*
X284598Y189539D01*
X284668Y189442D01*
X284731Y189342D01*
X284761Y189314D01*
X284785Y189281D01*
X284876Y189205D01*
X284963Y189124D01*
X284998Y189104D01*
X285030Y189079D01*
X285137Y189028D01*
X285242Y188970D01*
X285281Y188960D01*
X285317Y188943D01*
X285434Y188921D01*
X285550Y188891D01*
X285610Y188887D01*
X285630Y188883D01*
X285650Y188885D01*
X285710Y188881D01*
X292021Y188881D01*
X292021Y185546D01*
X291848Y184899D01*
X291513Y184320D01*
X291040Y183847D01*
X290791Y183703D01*
X290691Y183627D01*
X290587Y183557D01*
X290565Y183531D01*
X290538Y183511D01*
X290460Y183412D01*
X290376Y183318D01*
X290361Y183288D01*
X290340Y183262D01*
X290289Y183147D01*
X290232Y183035D01*
X290224Y183002D01*
X290211Y182971D01*
X290190Y182847D01*
X290162Y182725D01*
X290163Y182691D01*
X290158Y182658D01*
X290168Y182532D01*
X290172Y182407D01*
X290181Y182374D01*
X290184Y182341D01*
X290225Y182222D01*
X290260Y182101D01*
X290277Y182072D01*
X290288Y182040D01*
X290358Y181936D01*
X290422Y181827D01*
X290454Y181791D01*
X290464Y181775D01*
X290480Y181761D01*
X290528Y181706D01*
X291513Y180722D01*
X291513Y172185D01*
X291525Y172086D01*
X291528Y171987D01*
X291545Y171929D01*
X291553Y171869D01*
X291589Y171777D01*
X291617Y171682D01*
X291647Y171630D01*
X291670Y171573D01*
X291728Y171493D01*
X291778Y171408D01*
X291844Y171333D01*
X291856Y171316D01*
X291866Y171308D01*
X291884Y171287D01*
X293595Y169576D01*
X293673Y169516D01*
X293745Y169448D01*
X293798Y169419D01*
X293846Y169382D01*
X293937Y169342D01*
X294024Y169294D01*
X294083Y169279D01*
X294138Y169255D01*
X294236Y169240D01*
X294332Y169215D01*
X294432Y169209D01*
X294452Y169205D01*
X294465Y169207D01*
X294493Y169205D01*
X296801Y169205D01*
X296808Y169204D01*
X296826Y169205D01*
X296879Y169205D01*
X296922Y169210D01*
X297023Y169208D01*
X297074Y169220D01*
X297125Y169223D01*
X297188Y169244D01*
X297195Y169245D01*
X297213Y169252D01*
X297228Y169257D01*
X297333Y169282D01*
X297379Y169306D01*
X297427Y169321D01*
X297519Y169379D01*
X297614Y169429D01*
X297653Y169464D01*
X297696Y169492D01*
X297770Y169570D01*
X297850Y169643D01*
X297879Y169686D01*
X297914Y169723D01*
X297966Y169818D01*
X298026Y169908D01*
X298043Y169957D01*
X298068Y170002D01*
X298095Y170106D01*
X298130Y170208D01*
X298134Y170260D01*
X298147Y170310D01*
X298157Y170470D01*
X298157Y173664D01*
X299720Y175226D01*
X299780Y175305D01*
X299848Y175377D01*
X299877Y175430D01*
X299914Y175478D01*
X299954Y175568D01*
X300002Y175655D01*
X300017Y175714D01*
X300041Y175769D01*
X300056Y175867D01*
X300081Y175963D01*
X300087Y176063D01*
X300091Y176083D01*
X300089Y176096D01*
X300091Y176124D01*
X300091Y180847D01*
X305096Y185851D01*
X305156Y185929D01*
X305224Y186001D01*
X305253Y186054D01*
X305290Y186102D01*
X305330Y186193D01*
X305378Y186280D01*
X305393Y186339D01*
X305417Y186394D01*
X305432Y186492D01*
X305457Y186588D01*
X305463Y186688D01*
X305467Y186708D01*
X305465Y186721D01*
X305467Y186749D01*
X305467Y193286D01*
X306658Y194477D01*
X314342Y194477D01*
X315533Y193286D01*
X315533Y180602D01*
X314342Y179411D01*
X307805Y179411D01*
X307706Y179399D01*
X307607Y179396D01*
X307549Y179379D01*
X307489Y179371D01*
X307397Y179335D01*
X307302Y179307D01*
X307250Y179277D01*
X307193Y179254D01*
X307113Y179196D01*
X307028Y179146D01*
X306953Y179080D01*
X306936Y179068D01*
X306928Y179058D01*
X306907Y179040D01*
X306560Y178693D01*
X306500Y178615D01*
X306432Y178543D01*
X306403Y178490D01*
X306366Y178442D01*
X306326Y178351D01*
X306278Y178264D01*
X306263Y178205D01*
X306239Y178150D01*
X306224Y178052D01*
X306199Y177956D01*
X306193Y177856D01*
X306189Y177836D01*
X306191Y177823D01*
X306189Y177795D01*
X306189Y176463D01*
X306204Y176338D01*
X306214Y176213D01*
X306224Y176181D01*
X306229Y176148D01*
X306275Y176031D01*
X306315Y175911D01*
X306333Y175883D01*
X306346Y175852D01*
X306419Y175750D01*
X306488Y175645D01*
X306513Y175622D01*
X306532Y175594D01*
X306629Y175514D01*
X306722Y175429D01*
X306752Y175413D01*
X306777Y175392D01*
X306891Y175338D01*
X307002Y175279D01*
X307035Y175270D01*
X307065Y175256D01*
X307188Y175233D01*
X307311Y175202D01*
X307344Y175203D01*
X307377Y175196D01*
X307503Y175204D01*
X307629Y175205D01*
X307677Y175215D01*
X307695Y175216D01*
X307715Y175223D01*
X307787Y175237D01*
X308256Y175363D01*
X310066Y175363D01*
X310066Y169877D01*
X310081Y169759D01*
X310088Y169640D01*
X310100Y169602D01*
X310106Y169562D01*
X310149Y169451D01*
X310186Y169338D01*
X310208Y169304D01*
X310223Y169266D01*
X310292Y169170D01*
X310356Y169069D01*
X310386Y169041D01*
X310409Y169009D01*
X310501Y168933D01*
X310588Y168851D01*
X310623Y168832D01*
X310654Y168806D01*
X310677Y168795D01*
X310703Y168759D01*
X310766Y168659D01*
X310796Y168631D01*
X310820Y168598D01*
X310911Y168522D01*
X310998Y168441D01*
X311033Y168421D01*
X311065Y168396D01*
X311172Y168345D01*
X311277Y168287D01*
X311316Y168277D01*
X311352Y168260D01*
X311469Y168238D01*
X311585Y168208D01*
X311645Y168204D01*
X311665Y168200D01*
X311685Y168202D01*
X311745Y168198D01*
X323255Y168198D01*
X323373Y168213D01*
X323492Y168220D01*
X323530Y168232D01*
X323570Y168238D01*
X323681Y168281D01*
X323794Y168318D01*
X323828Y168340D01*
X323866Y168355D01*
X323962Y168424D01*
X324063Y168488D01*
X324091Y168518D01*
X324123Y168541D01*
X324199Y168633D01*
X324281Y168720D01*
X324300Y168755D01*
X324326Y168786D01*
X324337Y168809D01*
X324372Y168835D01*
X324473Y168898D01*
X324501Y168928D01*
X324534Y168952D01*
X324610Y169043D01*
X324691Y169130D01*
X324711Y169165D01*
X324736Y169197D01*
X324787Y169304D01*
X324845Y169409D01*
X324855Y169448D01*
X324872Y169484D01*
X324894Y169601D01*
X324924Y169717D01*
X324928Y169777D01*
X324932Y169797D01*
X324930Y169817D01*
X324934Y169877D01*
X324934Y175363D01*
X326744Y175363D01*
X327213Y175237D01*
X327338Y175220D01*
X327462Y175196D01*
X327495Y175198D01*
X327529Y175194D01*
X327654Y175208D01*
X327779Y175216D01*
X327811Y175226D01*
X327844Y175230D01*
X327962Y175275D01*
X328081Y175314D01*
X328110Y175332D01*
X328141Y175344D01*
X328244Y175417D01*
X328350Y175484D01*
X328373Y175509D01*
X328401Y175528D01*
X328482Y175624D01*
X328568Y175716D01*
X328584Y175745D01*
X328606Y175771D01*
X328661Y175884D01*
X328722Y175994D01*
X328730Y176027D01*
X328745Y176057D01*
X328770Y176181D01*
X328801Y176302D01*
X328804Y176351D01*
X328808Y176369D01*
X328807Y176391D01*
X328811Y176463D01*
X328811Y177795D01*
X328799Y177894D01*
X328796Y177993D01*
X328779Y178051D01*
X328771Y178111D01*
X328735Y178203D01*
X328707Y178298D01*
X328677Y178350D01*
X328654Y178407D01*
X328596Y178487D01*
X328546Y178572D01*
X328480Y178647D01*
X328468Y178664D01*
X328458Y178672D01*
X328440Y178693D01*
X328093Y179040D01*
X328015Y179100D01*
X327943Y179168D01*
X327890Y179197D01*
X327842Y179234D01*
X327751Y179274D01*
X327664Y179322D01*
X327605Y179337D01*
X327550Y179361D01*
X327452Y179376D01*
X327356Y179401D01*
X327256Y179407D01*
X327236Y179411D01*
X327223Y179409D01*
X327195Y179411D01*
X320658Y179411D01*
X319467Y180602D01*
X319467Y193286D01*
X320658Y194477D01*
X328342Y194477D01*
X329533Y193286D01*
X329533Y186749D01*
X329545Y186650D01*
X329548Y186551D01*
X329565Y186493D01*
X329573Y186433D01*
X329609Y186341D01*
X329637Y186246D01*
X329667Y186194D01*
X329690Y186137D01*
X329748Y186057D01*
X329798Y185972D01*
X329864Y185897D01*
X329876Y185880D01*
X329886Y185872D01*
X329904Y185851D01*
X334909Y180847D01*
X334909Y176124D01*
X334921Y176026D01*
X334924Y175927D01*
X334941Y175868D01*
X334949Y175808D01*
X334985Y175716D01*
X335013Y175621D01*
X335043Y175569D01*
X335066Y175513D01*
X335124Y175432D01*
X335174Y175347D01*
X335240Y175272D01*
X335252Y175255D01*
X335262Y175247D01*
X335280Y175226D01*
X336843Y173664D01*
X336843Y165680D01*
X335652Y164489D01*
X333005Y164489D01*
X332906Y164477D01*
X332807Y164474D01*
X332749Y164457D01*
X332689Y164449D01*
X332597Y164413D01*
X332502Y164385D01*
X332450Y164355D01*
X332393Y164332D01*
X332313Y164274D01*
X332228Y164224D01*
X332152Y164158D01*
X332136Y164146D01*
X332128Y164136D01*
X332107Y164118D01*
X329081Y161092D01*
X329004Y160992D01*
X328922Y160897D01*
X328907Y160867D01*
X328886Y160840D01*
X328836Y160725D01*
X328780Y160612D01*
X328773Y160579D01*
X328760Y160548D01*
X328740Y160424D01*
X328714Y160301D01*
X328715Y160268D01*
X328710Y160234D01*
X328722Y160109D01*
X328727Y159984D01*
X328737Y159951D01*
X328740Y159918D01*
X328782Y159799D01*
X328819Y159679D01*
X328836Y159650D01*
X328847Y159618D01*
X328918Y159514D01*
X328983Y159407D01*
X329007Y159383D01*
X329026Y159355D01*
X329120Y159272D01*
X329210Y159184D01*
X329251Y159157D01*
X329264Y159145D01*
X329284Y159135D01*
X329344Y159095D01*
X330040Y158693D01*
X330513Y158220D01*
X330848Y157641D01*
X331021Y156994D01*
X331021Y150929D01*
X327749Y150929D01*
X327749Y156696D01*
X327748Y156706D01*
X327749Y156716D01*
X327728Y156862D01*
X327710Y157011D01*
X327706Y157021D01*
X327704Y157031D01*
X327647Y157169D01*
X327593Y157307D01*
X327587Y157315D01*
X327583Y157324D01*
X327493Y157444D01*
X327406Y157564D01*
X327398Y157571D01*
X327392Y157579D01*
X327276Y157672D01*
X327161Y157767D01*
X327152Y157771D01*
X327144Y157778D01*
X327007Y157839D01*
X326873Y157903D01*
X326863Y157904D01*
X326854Y157909D01*
X326706Y157934D01*
X326561Y157962D01*
X326551Y157962D01*
X326541Y157963D01*
X326391Y157952D01*
X326243Y157943D01*
X326234Y157939D01*
X326223Y157939D01*
X326082Y157890D01*
X325941Y157845D01*
X325932Y157839D01*
X325923Y157836D01*
X325798Y157754D01*
X325672Y157674D01*
X325665Y157667D01*
X325657Y157661D01*
X325541Y157549D01*
X325501Y157493D01*
X325454Y157443D01*
X325454Y157442D01*
X325410Y157363D01*
X325358Y157289D01*
X325334Y157224D01*
X325300Y157164D01*
X325278Y157076D01*
X325246Y156991D01*
X325238Y156923D01*
X325221Y156856D01*
X325211Y156695D01*
X325211Y149660D01*
X325211Y140119D01*
X324146Y140119D01*
X323499Y140292D01*
X323214Y140457D01*
X323129Y140493D01*
X323048Y140538D01*
X322983Y140554D01*
X322921Y140580D01*
X322829Y140594D01*
X322740Y140617D01*
X322623Y140624D01*
X322606Y140627D01*
X322598Y140626D01*
X322579Y140627D01*
X316523Y140627D01*
X316517Y140630D01*
X316411Y140684D01*
X316372Y140693D01*
X316335Y140709D01*
X316217Y140728D01*
X316101Y140754D01*
X316060Y140753D01*
X316020Y140759D01*
X315902Y140748D01*
X315783Y140744D01*
X315744Y140733D01*
X315704Y140729D01*
X315592Y140689D01*
X315477Y140656D01*
X315443Y140635D01*
X315420Y140627D01*
X309523Y140627D01*
X309517Y140630D01*
X309411Y140684D01*
X309372Y140693D01*
X309335Y140709D01*
X309217Y140728D01*
X309101Y140754D01*
X309060Y140753D01*
X309020Y140759D01*
X308902Y140748D01*
X308783Y140744D01*
X308744Y140733D01*
X308704Y140729D01*
X308592Y140689D01*
X308477Y140656D01*
X308443Y140635D01*
X308420Y140627D01*
X302523Y140627D01*
X302517Y140630D01*
X302411Y140684D01*
X302372Y140693D01*
X302335Y140709D01*
X302217Y140728D01*
X302101Y140754D01*
X302060Y140753D01*
X302020Y140759D01*
X301902Y140748D01*
X301783Y140744D01*
X301744Y140733D01*
X301704Y140729D01*
X301592Y140689D01*
X301477Y140656D01*
X301443Y140635D01*
X301420Y140627D01*
X295523Y140627D01*
X295517Y140630D01*
X295411Y140684D01*
X295372Y140693D01*
X295335Y140709D01*
X295217Y140728D01*
X295101Y140754D01*
X295060Y140753D01*
X295020Y140759D01*
X294902Y140748D01*
X294783Y140744D01*
X294744Y140733D01*
X294704Y140729D01*
X294592Y140689D01*
X294477Y140656D01*
X294443Y140635D01*
X294420Y140627D01*
X288523Y140627D01*
X288517Y140630D01*
X288411Y140684D01*
X288372Y140693D01*
X288335Y140709D01*
X288217Y140728D01*
X288101Y140754D01*
X288060Y140753D01*
X288020Y140759D01*
X287902Y140748D01*
X287783Y140744D01*
X287744Y140733D01*
X287704Y140729D01*
X287592Y140689D01*
X287477Y140656D01*
X287443Y140635D01*
X287420Y140627D01*
X281523Y140627D01*
X281517Y140630D01*
X281411Y140684D01*
X281372Y140693D01*
X281335Y140709D01*
X281217Y140728D01*
X281101Y140754D01*
X281060Y140753D01*
X281020Y140759D01*
X280902Y140748D01*
X280783Y140744D01*
X280744Y140733D01*
X280704Y140729D01*
X280592Y140689D01*
X280477Y140656D01*
X280443Y140635D01*
X280420Y140627D01*
X274523Y140627D01*
X274517Y140630D01*
X274411Y140684D01*
X274372Y140693D01*
X274335Y140709D01*
X274217Y140728D01*
X274101Y140754D01*
X274060Y140753D01*
X274020Y140759D01*
X273902Y140748D01*
X273783Y140744D01*
X273744Y140733D01*
X273704Y140729D01*
X273592Y140689D01*
X273477Y140656D01*
X273443Y140635D01*
X273420Y140627D01*
X267523Y140627D01*
X267517Y140630D01*
X267411Y140684D01*
X267372Y140693D01*
X267335Y140709D01*
X267217Y140728D01*
X267101Y140754D01*
X267060Y140753D01*
X267020Y140759D01*
X266902Y140748D01*
X266783Y140744D01*
X266744Y140733D01*
X266704Y140729D01*
X266592Y140689D01*
X266477Y140656D01*
X266443Y140635D01*
X266420Y140627D01*
X260523Y140627D01*
X260517Y140630D01*
X260411Y140684D01*
X260372Y140693D01*
X260335Y140709D01*
X260217Y140728D01*
X260101Y140754D01*
X260060Y140753D01*
X260020Y140759D01*
X259902Y140748D01*
X259783Y140744D01*
X259744Y140733D01*
X259704Y140729D01*
X259592Y140689D01*
X259477Y140656D01*
X259443Y140635D01*
X259420Y140627D01*
X253523Y140627D01*
X253517Y140630D01*
X253411Y140684D01*
X253372Y140693D01*
X253335Y140709D01*
X253217Y140728D01*
X253101Y140754D01*
X253060Y140753D01*
X253020Y140759D01*
X252902Y140748D01*
X252783Y140744D01*
X252744Y140733D01*
X252704Y140729D01*
X252592Y140689D01*
X252477Y140656D01*
X252443Y140635D01*
X252420Y140627D01*
X248452Y140627D01*
X248314Y140610D01*
X248175Y140597D01*
X248156Y140590D01*
X248136Y140587D01*
X248007Y140536D01*
X247876Y140489D01*
X247859Y140478D01*
X247840Y140470D01*
X247728Y140389D01*
X247613Y140311D01*
X247600Y140295D01*
X247583Y140284D01*
X247494Y140176D01*
X247402Y140072D01*
X247393Y140054D01*
X247380Y140039D01*
X247321Y139913D01*
X247258Y139789D01*
X247253Y139769D01*
X247245Y139751D01*
X247219Y139615D01*
X247188Y139479D01*
X247189Y139458D01*
X247185Y139439D01*
X247194Y139300D01*
X247198Y139161D01*
X247203Y139141D01*
X247205Y139121D01*
X247248Y138989D01*
X247286Y138855D01*
X247297Y138838D01*
X247303Y138819D01*
X247377Y138701D01*
X247448Y138581D01*
X247466Y138560D01*
X247473Y138550D01*
X247488Y138536D01*
X247513Y138508D01*
X247513Y132703D01*
X247510Y132697D01*
X247456Y132591D01*
X247447Y132552D01*
X247431Y132515D01*
X247412Y132397D01*
X247386Y132281D01*
X247387Y132240D01*
X247381Y132200D01*
X247392Y132082D01*
X247396Y131963D01*
X247407Y131924D01*
X247411Y131884D01*
X247451Y131772D01*
X247484Y131657D01*
X247505Y131623D01*
X247513Y131600D01*
X247513Y125703D01*
X247510Y125697D01*
X247456Y125591D01*
X247447Y125552D01*
X247431Y125515D01*
X247412Y125397D01*
X247386Y125281D01*
X247387Y125240D01*
X247381Y125200D01*
X247392Y125082D01*
X247396Y124963D01*
X247407Y124924D01*
X247411Y124884D01*
X247451Y124772D01*
X247484Y124657D01*
X247505Y124623D01*
X247513Y124600D01*
X247513Y118703D01*
X247510Y118697D01*
X247456Y118591D01*
X247447Y118552D01*
X247431Y118515D01*
X247412Y118397D01*
X247386Y118281D01*
X247387Y118240D01*
X247381Y118200D01*
X247392Y118082D01*
X247396Y117963D01*
X247407Y117924D01*
X247411Y117884D01*
X247451Y117772D01*
X247484Y117657D01*
X247505Y117623D01*
X247513Y117600D01*
X247513Y111703D01*
X247510Y111697D01*
X247456Y111591D01*
X247447Y111552D01*
X247431Y111515D01*
X247412Y111397D01*
X247386Y111281D01*
X247387Y111240D01*
X247381Y111200D01*
X247392Y111082D01*
X247396Y110963D01*
X247407Y110924D01*
X247411Y110884D01*
X247451Y110772D01*
X247484Y110657D01*
X247505Y110623D01*
X247513Y110600D01*
X247513Y104703D01*
X247510Y104697D01*
X247456Y104591D01*
X247447Y104551D01*
X247431Y104514D01*
X247412Y104397D01*
X247386Y104280D01*
X247387Y104240D01*
X247381Y104200D01*
X247392Y104082D01*
X247396Y103963D01*
X247407Y103924D01*
X247411Y103884D01*
X247451Y103771D01*
X247484Y103657D01*
X247505Y103622D01*
X247513Y103600D01*
X247513Y97703D01*
X247510Y97697D01*
X247456Y97591D01*
X247447Y97552D01*
X247431Y97515D01*
X247412Y97397D01*
X247386Y97281D01*
X247387Y97240D01*
X247381Y97200D01*
X247392Y97082D01*
X247396Y96963D01*
X247407Y96924D01*
X247411Y96884D01*
X247451Y96772D01*
X247484Y96657D01*
X247505Y96623D01*
X247513Y96600D01*
X247513Y90703D01*
X247510Y90697D01*
X247456Y90591D01*
X247447Y90552D01*
X247431Y90515D01*
X247412Y90397D01*
X247386Y90281D01*
X247387Y90240D01*
X247381Y90200D01*
X247392Y90082D01*
X247396Y89963D01*
X247407Y89924D01*
X247411Y89884D01*
X247451Y89772D01*
X247484Y89657D01*
X247505Y89623D01*
X247513Y89600D01*
X247513Y83703D01*
X247510Y83697D01*
X247456Y83591D01*
X247447Y83552D01*
X247431Y83515D01*
X247412Y83397D01*
X247386Y83281D01*
X247387Y83240D01*
X247381Y83200D01*
X247392Y83082D01*
X247396Y82963D01*
X247407Y82924D01*
X247411Y82884D01*
X247451Y82772D01*
X247484Y82657D01*
X247505Y82623D01*
X247513Y82600D01*
X247513Y76703D01*
X247510Y76697D01*
X247456Y76591D01*
X247447Y76552D01*
X247431Y76515D01*
X247412Y76397D01*
X247386Y76281D01*
X247387Y76240D01*
X247381Y76200D01*
X247392Y76082D01*
X247396Y75963D01*
X247407Y75924D01*
X247411Y75884D01*
X247451Y75772D01*
X247484Y75657D01*
X247505Y75623D01*
X247513Y75600D01*
X247513Y69703D01*
X247510Y69697D01*
X247456Y69591D01*
X247447Y69552D01*
X247431Y69515D01*
X247412Y69397D01*
X247386Y69281D01*
X247387Y69240D01*
X247381Y69200D01*
X247392Y69082D01*
X247396Y68963D01*
X247407Y68924D01*
X247411Y68884D01*
X247451Y68772D01*
X247484Y68657D01*
X247505Y68623D01*
X247513Y68600D01*
X247513Y66262D01*
X247528Y66144D01*
X247535Y66025D01*
X247548Y65987D01*
X247553Y65946D01*
X247596Y65836D01*
X247633Y65723D01*
X247655Y65688D01*
X247670Y65651D01*
X247739Y65555D01*
X247803Y65454D01*
X247833Y65426D01*
X247856Y65393D01*
X247948Y65317D01*
X248035Y65236D01*
X248070Y65216D01*
X248101Y65191D01*
X248209Y65140D01*
X248313Y65082D01*
X248353Y65072D01*
X248389Y65055D01*
X248506Y65033D01*
X248621Y65003D01*
X248681Y64999D01*
X248701Y64995D01*
X248722Y64997D01*
X248782Y64993D01*
X290485Y64993D01*
X290500Y64985D01*
X290548Y64948D01*
X290639Y64908D01*
X290725Y64860D01*
X290784Y64845D01*
X290840Y64821D01*
X290872Y64816D01*
X290907Y64726D01*
X290935Y64631D01*
X290965Y64579D01*
X290988Y64523D01*
X291046Y64443D01*
X291096Y64357D01*
X291162Y64282D01*
X291174Y64265D01*
X291184Y64258D01*
X291203Y64236D01*
X291813Y63626D01*
X291813Y35597D01*
X291828Y35479D01*
X291835Y35360D01*
X291848Y35322D01*
X291853Y35281D01*
X291896Y35171D01*
X291933Y35058D01*
X291955Y35023D01*
X291970Y34986D01*
X292039Y34890D01*
X292103Y34789D01*
X292133Y34761D01*
X292156Y34728D01*
X292248Y34652D01*
X292335Y34571D01*
X292370Y34551D01*
X292401Y34526D01*
X292509Y34475D01*
X292613Y34417D01*
X292653Y34407D01*
X292689Y34390D01*
X292806Y34368D01*
X292921Y34338D01*
X292981Y34334D01*
X293001Y34330D01*
X293022Y34332D01*
X293082Y34328D01*
X329750Y34328D01*
X329868Y34343D01*
X329987Y34350D01*
X330025Y34363D01*
X330065Y34368D01*
X330176Y34411D01*
X330289Y34448D01*
X330323Y34470D01*
X330361Y34485D01*
X330457Y34554D01*
X330474Y34565D01*
X330498Y34551D01*
X330530Y34526D01*
X330637Y34475D01*
X330742Y34417D01*
X330781Y34407D01*
X330817Y34390D01*
X330934Y34368D01*
X331050Y34338D01*
X331110Y34334D01*
X331130Y34330D01*
X331150Y34332D01*
X331210Y34328D01*
X338585Y34328D01*
X338880Y34032D01*
X338959Y33972D01*
X339031Y33904D01*
X339084Y33875D01*
X339132Y33838D01*
X339223Y33798D01*
X339309Y33750D01*
X339368Y33735D01*
X339423Y33711D01*
X339521Y33696D01*
X339617Y33671D01*
X339717Y33665D01*
X339738Y33661D01*
X339750Y33662D01*
X339778Y33661D01*
X340021Y33661D01*
X340021Y33418D01*
X340033Y33320D01*
X340036Y33220D01*
X340053Y33162D01*
X340061Y33102D01*
X340097Y33010D01*
X340125Y32915D01*
X340155Y32863D01*
X340167Y32834D01*
X340170Y32783D01*
X340183Y32745D01*
X340188Y32704D01*
X340231Y32594D01*
X340268Y32481D01*
X340290Y32446D01*
X340305Y32409D01*
X340374Y32313D01*
X340438Y32212D01*
X340468Y32184D01*
X340491Y32151D01*
X340583Y32075D01*
X340670Y31994D01*
X340705Y31974D01*
X340736Y31949D01*
X340844Y31898D01*
X340948Y31840D01*
X340988Y31830D01*
X341024Y31813D01*
X341141Y31791D01*
X341256Y31761D01*
X341316Y31757D01*
X341336Y31753D01*
X341357Y31755D01*
X341417Y31751D01*
X399288Y31751D01*
X399406Y31766D01*
G37*
G36*
X159570Y132720D02*
X159570Y132720D01*
X159709Y132724D01*
X159729Y132729D01*
X159749Y132731D01*
X159881Y132774D01*
X160015Y132812D01*
X160032Y132823D01*
X160051Y132829D01*
X160169Y132903D01*
X160226Y132937D01*
X161268Y132937D01*
X161366Y132949D01*
X161465Y132952D01*
X161524Y132969D01*
X161584Y132977D01*
X161676Y133013D01*
X161771Y133041D01*
X161823Y133071D01*
X161879Y133094D01*
X161959Y133152D01*
X162045Y133202D01*
X162120Y133268D01*
X162137Y133280D01*
X162145Y133290D01*
X162166Y133308D01*
X165677Y136820D01*
X165762Y136929D01*
X165851Y137036D01*
X165859Y137055D01*
X165872Y137071D01*
X165927Y137199D01*
X165986Y137324D01*
X165990Y137344D01*
X165998Y137363D01*
X166020Y137501D01*
X166046Y137637D01*
X166045Y137657D01*
X166048Y137677D01*
X166035Y137816D01*
X166026Y137954D01*
X166020Y137973D01*
X166018Y137993D01*
X165971Y138125D01*
X165928Y138256D01*
X165917Y138274D01*
X165910Y138293D01*
X165832Y138408D01*
X165758Y138525D01*
X165743Y138539D01*
X165732Y138556D01*
X165628Y138648D01*
X165526Y138743D01*
X165509Y138753D01*
X165493Y138766D01*
X165370Y138829D01*
X165248Y138897D01*
X165228Y138902D01*
X165210Y138911D01*
X165074Y138941D01*
X164940Y138976D01*
X164912Y138978D01*
X164900Y138981D01*
X164879Y138980D01*
X164779Y138986D01*
X162168Y138986D01*
X160977Y140177D01*
X160977Y153861D01*
X162168Y155052D01*
X169352Y155052D01*
X170543Y153861D01*
X170543Y144750D01*
X170560Y144612D01*
X170573Y144473D01*
X170580Y144454D01*
X170583Y144434D01*
X170634Y144305D01*
X170681Y144174D01*
X170692Y144157D01*
X170700Y144139D01*
X170781Y144026D01*
X170859Y143911D01*
X170875Y143898D01*
X170886Y143881D01*
X170994Y143792D01*
X171098Y143700D01*
X171116Y143691D01*
X171131Y143678D01*
X171257Y143619D01*
X171381Y143556D01*
X171401Y143551D01*
X171419Y143543D01*
X171555Y143517D01*
X171691Y143486D01*
X171712Y143487D01*
X171731Y143483D01*
X171870Y143492D01*
X172009Y143496D01*
X172029Y143502D01*
X172049Y143503D01*
X172181Y143546D01*
X172315Y143584D01*
X172332Y143595D01*
X172351Y143601D01*
X172469Y143675D01*
X172589Y143746D01*
X172610Y143764D01*
X172620Y143771D01*
X172634Y143786D01*
X172709Y143852D01*
X179380Y150523D01*
X179415Y150548D01*
X179516Y150612D01*
X179544Y150642D01*
X179577Y150665D01*
X179653Y150757D01*
X179734Y150844D01*
X179754Y150879D01*
X179779Y150910D01*
X179830Y151018D01*
X179888Y151122D01*
X179898Y151162D01*
X179915Y151198D01*
X179937Y151315D01*
X179967Y151430D01*
X179971Y151490D01*
X179975Y151510D01*
X179973Y151531D01*
X179977Y151591D01*
X179977Y153861D01*
X181168Y155052D01*
X188352Y155052D01*
X189543Y153861D01*
X189543Y151892D01*
X189558Y151774D01*
X189565Y151655D01*
X189578Y151617D01*
X189583Y151576D01*
X189626Y151466D01*
X189663Y151353D01*
X189685Y151318D01*
X189700Y151281D01*
X189769Y151185D01*
X189833Y151084D01*
X189863Y151056D01*
X189886Y151023D01*
X189978Y150947D01*
X190065Y150866D01*
X190100Y150846D01*
X190131Y150821D01*
X190239Y150770D01*
X190343Y150712D01*
X190383Y150702D01*
X190419Y150685D01*
X190536Y150663D01*
X190651Y150633D01*
X190711Y150629D01*
X190731Y150625D01*
X190752Y150627D01*
X190812Y150623D01*
X193374Y150623D01*
X193492Y150638D01*
X193611Y150645D01*
X193649Y150658D01*
X193690Y150663D01*
X193800Y150706D01*
X193913Y150743D01*
X193948Y150765D01*
X193985Y150780D01*
X194081Y150849D01*
X194182Y150913D01*
X194210Y150943D01*
X194243Y150966D01*
X194319Y151058D01*
X194400Y151145D01*
X194420Y151180D01*
X194445Y151211D01*
X194496Y151319D01*
X194554Y151423D01*
X194564Y151463D01*
X194581Y151499D01*
X194603Y151616D01*
X194633Y151731D01*
X194637Y151791D01*
X194641Y151811D01*
X194639Y151832D01*
X194643Y151892D01*
X194643Y155322D01*
X195628Y156306D01*
X195705Y156406D01*
X195787Y156501D01*
X195802Y156531D01*
X195823Y156558D01*
X195873Y156673D01*
X195929Y156786D01*
X195936Y156819D01*
X195949Y156850D01*
X195969Y156974D01*
X195995Y157097D01*
X195994Y157130D01*
X195999Y157164D01*
X195987Y157289D01*
X195982Y157414D01*
X195972Y157447D01*
X195969Y157480D01*
X195927Y157599D01*
X195890Y157719D01*
X195873Y157748D01*
X195862Y157780D01*
X195791Y157884D01*
X195726Y157991D01*
X195702Y158015D01*
X195683Y158043D01*
X195589Y158126D01*
X195499Y158214D01*
X195458Y158241D01*
X195445Y158253D01*
X195425Y158263D01*
X195365Y158303D01*
X195116Y158447D01*
X194643Y158920D01*
X194308Y159499D01*
X194135Y160146D01*
X194135Y163481D01*
X200446Y163481D01*
X200564Y163496D01*
X200683Y163503D01*
X200721Y163515D01*
X200761Y163521D01*
X200872Y163564D01*
X200985Y163601D01*
X201019Y163623D01*
X201057Y163638D01*
X201153Y163707D01*
X201254Y163771D01*
X201282Y163801D01*
X201314Y163824D01*
X201390Y163916D01*
X201472Y164003D01*
X201491Y164038D01*
X201517Y164069D01*
X201568Y164177D01*
X201625Y164281D01*
X201635Y164321D01*
X201653Y164357D01*
X201675Y164474D01*
X201705Y164589D01*
X201709Y164649D01*
X201712Y164669D01*
X201711Y164690D01*
X201715Y164750D01*
X201715Y165941D01*
X202906Y165941D01*
X203024Y165956D01*
X203143Y165963D01*
X203181Y165976D01*
X203222Y165981D01*
X203332Y166025D01*
X203445Y166061D01*
X203480Y166083D01*
X203517Y166098D01*
X203613Y166168D01*
X203714Y166231D01*
X203742Y166261D01*
X203775Y166285D01*
X203851Y166376D01*
X203932Y166463D01*
X203952Y166498D01*
X203977Y166530D01*
X204028Y166637D01*
X204086Y166742D01*
X204096Y166781D01*
X204113Y166817D01*
X204135Y166934D01*
X204165Y167050D01*
X204169Y167110D01*
X204173Y167130D01*
X204171Y167150D01*
X204175Y167210D01*
X204175Y174021D01*
X205294Y174021D01*
X205412Y174036D01*
X205531Y174043D01*
X205569Y174056D01*
X205610Y174061D01*
X205720Y174104D01*
X205833Y174141D01*
X205868Y174163D01*
X205905Y174178D01*
X206001Y174247D01*
X206102Y174311D01*
X206130Y174341D01*
X206163Y174364D01*
X206239Y174456D01*
X206320Y174543D01*
X206340Y174578D01*
X206365Y174609D01*
X206416Y174717D01*
X206474Y174821D01*
X206484Y174861D01*
X206501Y174897D01*
X206523Y175014D01*
X206553Y175129D01*
X206557Y175189D01*
X206561Y175209D01*
X206559Y175230D01*
X206563Y175290D01*
X206563Y184918D01*
X206557Y184968D01*
X206559Y185017D01*
X206537Y185125D01*
X206523Y185234D01*
X206505Y185280D01*
X206495Y185329D01*
X206447Y185427D01*
X206406Y185529D01*
X206377Y185570D01*
X206355Y185614D01*
X206284Y185698D01*
X206220Y185787D01*
X206181Y185818D01*
X206149Y185856D01*
X206059Y185919D01*
X205975Y185990D01*
X205930Y186011D01*
X205889Y186039D01*
X205786Y186078D01*
X205687Y186125D01*
X205638Y186134D01*
X205592Y186152D01*
X205482Y186164D01*
X205375Y186185D01*
X205325Y186182D01*
X205276Y186187D01*
X205167Y186172D01*
X205057Y186165D01*
X205010Y186150D01*
X204961Y186143D01*
X204808Y186091D01*
X201553Y184742D01*
X194687Y184742D01*
X188344Y187370D01*
X184539Y191174D01*
X184430Y191260D01*
X184323Y191348D01*
X184304Y191357D01*
X184288Y191369D01*
X184160Y191425D01*
X184035Y191484D01*
X184015Y191488D01*
X183996Y191496D01*
X183858Y191518D01*
X183722Y191544D01*
X183702Y191542D01*
X183682Y191546D01*
X183543Y191532D01*
X183405Y191524D01*
X183386Y191518D01*
X183366Y191516D01*
X183234Y191469D01*
X183103Y191426D01*
X183085Y191415D01*
X183066Y191408D01*
X182951Y191330D01*
X182834Y191256D01*
X182820Y191241D01*
X182803Y191230D01*
X182711Y191125D01*
X182616Y191024D01*
X182606Y191006D01*
X182593Y190991D01*
X182529Y190867D01*
X182462Y190746D01*
X182457Y190726D01*
X182448Y190708D01*
X182418Y190572D01*
X182383Y190438D01*
X182381Y190410D01*
X182378Y190398D01*
X182379Y190377D01*
X182373Y190277D01*
X182373Y188584D01*
X182385Y188486D01*
X182388Y188387D01*
X182405Y188328D01*
X182413Y188268D01*
X182449Y188176D01*
X182477Y188081D01*
X182507Y188029D01*
X182530Y187973D01*
X182588Y187892D01*
X182638Y187807D01*
X182704Y187732D01*
X182716Y187715D01*
X182726Y187707D01*
X182744Y187686D01*
X185756Y184674D01*
X188063Y182368D01*
X188063Y181869D01*
X188075Y181771D01*
X188078Y181672D01*
X188095Y181613D01*
X188103Y181553D01*
X188139Y181461D01*
X188167Y181366D01*
X188197Y181314D01*
X188220Y181258D01*
X188278Y181177D01*
X188328Y181092D01*
X188394Y181017D01*
X188406Y181000D01*
X188416Y180992D01*
X188434Y180971D01*
X189543Y179863D01*
X189543Y166179D01*
X188352Y164988D01*
X181143Y164988D01*
X181083Y165042D01*
X181047Y165060D01*
X181015Y165085D01*
X180906Y165132D01*
X180799Y165186D01*
X180760Y165195D01*
X180724Y165211D01*
X180606Y165230D01*
X180489Y165256D01*
X180449Y165254D01*
X180410Y165261D01*
X180291Y165250D01*
X180171Y165246D01*
X180133Y165235D01*
X180093Y165231D01*
X179981Y165191D01*
X179866Y165157D01*
X179831Y165137D01*
X179794Y165123D01*
X179724Y165076D01*
X179715Y165071D01*
X178991Y164653D01*
X178344Y164480D01*
X176634Y164480D01*
X176634Y172916D01*
X176619Y173034D01*
X176612Y173153D01*
X176599Y173191D01*
X176594Y173231D01*
X176551Y173342D01*
X176514Y173455D01*
X176492Y173489D01*
X176477Y173527D01*
X176408Y173623D01*
X176344Y173724D01*
X176314Y173752D01*
X176291Y173784D01*
X176199Y173860D01*
X176112Y173942D01*
X176077Y173961D01*
X176046Y173987D01*
X175938Y174038D01*
X175834Y174095D01*
X175794Y174105D01*
X175758Y174123D01*
X175641Y174145D01*
X175526Y174175D01*
X175466Y174179D01*
X175446Y174182D01*
X175425Y174181D01*
X175365Y174185D01*
X175155Y174185D01*
X175037Y174170D01*
X174918Y174163D01*
X174880Y174150D01*
X174839Y174145D01*
X174729Y174101D01*
X174616Y174065D01*
X174581Y174043D01*
X174544Y174028D01*
X174447Y173958D01*
X174347Y173895D01*
X174319Y173865D01*
X174286Y173841D01*
X174210Y173750D01*
X174129Y173663D01*
X174109Y173628D01*
X174084Y173596D01*
X174033Y173489D01*
X173975Y173384D01*
X173965Y173345D01*
X173948Y173309D01*
X173926Y173192D01*
X173896Y173076D01*
X173892Y173016D01*
X173888Y172996D01*
X173890Y172976D01*
X173886Y172916D01*
X173886Y164480D01*
X172176Y164480D01*
X171529Y164653D01*
X170879Y165029D01*
X170865Y165041D01*
X170829Y165060D01*
X170798Y165084D01*
X170688Y165132D01*
X170582Y165186D01*
X170543Y165195D01*
X170506Y165211D01*
X170388Y165229D01*
X170271Y165256D01*
X170232Y165254D01*
X170192Y165261D01*
X170073Y165250D01*
X169953Y165246D01*
X169915Y165235D01*
X169875Y165231D01*
X169763Y165191D01*
X169648Y165158D01*
X169614Y165137D01*
X169576Y165124D01*
X169477Y165057D01*
X169374Y164996D01*
X169365Y164988D01*
X162168Y164988D01*
X160977Y166179D01*
X160977Y179863D01*
X162086Y180971D01*
X162146Y181050D01*
X162214Y181122D01*
X162243Y181175D01*
X162280Y181223D01*
X162320Y181313D01*
X162368Y181400D01*
X162383Y181459D01*
X162407Y181514D01*
X162422Y181612D01*
X162447Y181708D01*
X162453Y181808D01*
X162457Y181828D01*
X162455Y181841D01*
X162457Y181869D01*
X162457Y186568D01*
X162776Y186886D01*
X162836Y186965D01*
X162904Y187037D01*
X162933Y187090D01*
X162970Y187138D01*
X163010Y187229D01*
X163058Y187315D01*
X163073Y187374D01*
X163097Y187429D01*
X163112Y187527D01*
X163137Y187623D01*
X163143Y187723D01*
X163147Y187744D01*
X163145Y187756D01*
X163147Y187784D01*
X163147Y195962D01*
X164132Y196946D01*
X164209Y197046D01*
X164291Y197141D01*
X164306Y197171D01*
X164327Y197198D01*
X164377Y197313D01*
X164433Y197426D01*
X164440Y197459D01*
X164453Y197490D01*
X164473Y197614D01*
X164499Y197737D01*
X164498Y197770D01*
X164503Y197804D01*
X164491Y197929D01*
X164486Y198054D01*
X164476Y198087D01*
X164473Y198120D01*
X164431Y198239D01*
X164394Y198359D01*
X164377Y198388D01*
X164366Y198420D01*
X164295Y198524D01*
X164230Y198631D01*
X164206Y198655D01*
X164187Y198683D01*
X164093Y198766D01*
X164003Y198854D01*
X163962Y198881D01*
X163949Y198893D01*
X163929Y198903D01*
X163869Y198943D01*
X163620Y199087D01*
X163147Y199560D01*
X162812Y200139D01*
X162639Y200786D01*
X162639Y204121D01*
X168950Y204121D01*
X169068Y204136D01*
X169187Y204143D01*
X169225Y204155D01*
X169265Y204161D01*
X169376Y204204D01*
X169489Y204241D01*
X169523Y204263D01*
X169561Y204278D01*
X169657Y204347D01*
X169758Y204411D01*
X169786Y204441D01*
X169818Y204464D01*
X169894Y204556D01*
X169976Y204643D01*
X169995Y204678D01*
X170021Y204709D01*
X170072Y204817D01*
X170129Y204921D01*
X170139Y204961D01*
X170157Y204997D01*
X170179Y205114D01*
X170209Y205229D01*
X170213Y205289D01*
X170216Y205309D01*
X170215Y205330D01*
X170219Y205390D01*
X170219Y206581D01*
X171410Y206581D01*
X171528Y206596D01*
X171647Y206603D01*
X171685Y206616D01*
X171726Y206621D01*
X171836Y206665D01*
X171949Y206701D01*
X171984Y206723D01*
X172021Y206738D01*
X172117Y206808D01*
X172218Y206871D01*
X172246Y206901D01*
X172279Y206925D01*
X172355Y207016D01*
X172436Y207103D01*
X172456Y207138D01*
X172481Y207170D01*
X172532Y207277D01*
X172590Y207382D01*
X172600Y207421D01*
X172617Y207457D01*
X172639Y207574D01*
X172669Y207690D01*
X172673Y207750D01*
X172677Y207770D01*
X172675Y207790D01*
X172679Y207850D01*
X172679Y214661D01*
X174498Y214661D01*
X174616Y214676D01*
X174735Y214683D01*
X174773Y214696D01*
X174814Y214701D01*
X174924Y214744D01*
X175037Y214781D01*
X175072Y214803D01*
X175109Y214818D01*
X175205Y214887D01*
X175306Y214951D01*
X175334Y214981D01*
X175367Y215004D01*
X175443Y215096D01*
X175524Y215183D01*
X175544Y215218D01*
X175569Y215249D01*
X175620Y215357D01*
X175678Y215461D01*
X175688Y215501D01*
X175705Y215537D01*
X175727Y215654D01*
X175757Y215769D01*
X175761Y215829D01*
X175765Y215849D01*
X175763Y215870D01*
X175767Y215930D01*
X175767Y223618D01*
X176681Y224532D01*
X176724Y224587D01*
X176774Y224636D01*
X176821Y224712D01*
X176876Y224783D01*
X176904Y224848D01*
X176941Y224907D01*
X176967Y224993D01*
X177003Y225075D01*
X177014Y225144D01*
X177034Y225211D01*
X177038Y225300D01*
X177053Y225389D01*
X177046Y225459D01*
X177049Y225529D01*
X177031Y225616D01*
X177023Y225706D01*
X176999Y225772D01*
X176985Y225840D01*
X176946Y225921D01*
X176915Y226005D01*
X176876Y226063D01*
X176845Y226126D01*
X176787Y226194D01*
X176737Y226268D01*
X176684Y226315D01*
X176639Y226368D01*
X176565Y226419D01*
X176498Y226479D01*
X176436Y226511D01*
X176379Y226551D01*
X176295Y226583D01*
X176215Y226624D01*
X176147Y226639D01*
X176082Y226664D01*
X175992Y226674D01*
X175905Y226693D01*
X175835Y226691D01*
X175765Y226699D01*
X175676Y226686D01*
X175587Y226684D01*
X175520Y226664D01*
X175451Y226654D01*
X175298Y226602D01*
X172582Y225477D01*
X167298Y225477D01*
X162416Y227499D01*
X160409Y229506D01*
X160300Y229591D01*
X160193Y229680D01*
X160174Y229688D01*
X160158Y229701D01*
X160030Y229756D01*
X159905Y229815D01*
X159885Y229819D01*
X159866Y229827D01*
X159728Y229849D01*
X159592Y229875D01*
X159572Y229874D01*
X159552Y229877D01*
X159413Y229864D01*
X159275Y229855D01*
X159256Y229849D01*
X159236Y229847D01*
X159104Y229800D01*
X158973Y229757D01*
X158955Y229747D01*
X158936Y229740D01*
X158821Y229662D01*
X158704Y229587D01*
X158690Y229572D01*
X158673Y229561D01*
X158581Y229457D01*
X158486Y229356D01*
X158476Y229338D01*
X158463Y229323D01*
X158399Y229199D01*
X158332Y229077D01*
X158327Y229057D01*
X158318Y229039D01*
X158288Y228904D01*
X158253Y228769D01*
X158251Y228741D01*
X158248Y228729D01*
X158249Y228709D01*
X158243Y228608D01*
X158243Y133978D01*
X158260Y133840D01*
X158273Y133701D01*
X158280Y133682D01*
X158283Y133662D01*
X158334Y133533D01*
X158381Y133402D01*
X158392Y133385D01*
X158400Y133366D01*
X158481Y133254D01*
X158559Y133139D01*
X158575Y133125D01*
X158586Y133109D01*
X158694Y133020D01*
X158798Y132928D01*
X158816Y132919D01*
X158831Y132906D01*
X158957Y132847D01*
X159081Y132784D01*
X159101Y132779D01*
X159119Y132771D01*
X159256Y132745D01*
X159391Y132714D01*
X159412Y132715D01*
X159431Y132711D01*
X159570Y132720D01*
G37*
G36*
X227661Y31766D02*
X227661Y31766D01*
X227780Y31773D01*
X227818Y31786D01*
X227859Y31791D01*
X227969Y31834D01*
X228082Y31871D01*
X228117Y31893D01*
X228154Y31908D01*
X228250Y31978D01*
X228351Y32041D01*
X228379Y32071D01*
X228412Y32094D01*
X228488Y32186D01*
X228569Y32273D01*
X228589Y32308D01*
X228614Y32339D01*
X228665Y32447D01*
X228723Y32551D01*
X228733Y32591D01*
X228750Y32627D01*
X228772Y32744D01*
X228802Y32859D01*
X228802Y32863D01*
X228850Y32949D01*
X228865Y33008D01*
X228889Y33063D01*
X228904Y33161D01*
X228929Y33257D01*
X228935Y33357D01*
X228939Y33377D01*
X228937Y33389D01*
X228939Y33418D01*
X228939Y33661D01*
X229182Y33661D01*
X229280Y33673D01*
X229379Y33676D01*
X229438Y33693D01*
X229498Y33701D01*
X229590Y33737D01*
X229685Y33765D01*
X229737Y33795D01*
X229793Y33818D01*
X229873Y33876D01*
X229959Y33926D01*
X230034Y33992D01*
X230051Y34004D01*
X230059Y34014D01*
X230080Y34032D01*
X230375Y34328D01*
X237750Y34328D01*
X237868Y34343D01*
X237987Y34350D01*
X238025Y34363D01*
X238065Y34368D01*
X238176Y34411D01*
X238289Y34448D01*
X238323Y34470D01*
X238361Y34485D01*
X238457Y34554D01*
X238558Y34618D01*
X238586Y34648D01*
X238618Y34671D01*
X238694Y34763D01*
X238776Y34850D01*
X238795Y34885D01*
X238821Y34916D01*
X238872Y35024D01*
X238929Y35128D01*
X238939Y35168D01*
X238957Y35204D01*
X238979Y35321D01*
X239009Y35436D01*
X239013Y35496D01*
X239016Y35516D01*
X239015Y35537D01*
X239019Y35597D01*
X239019Y36390D01*
X239004Y36508D01*
X238997Y36627D01*
X238984Y36665D01*
X238979Y36706D01*
X238935Y36816D01*
X238899Y36929D01*
X238877Y36964D01*
X238862Y37001D01*
X238792Y37097D01*
X238729Y37198D01*
X238699Y37226D01*
X238675Y37259D01*
X238584Y37335D01*
X238497Y37416D01*
X238462Y37436D01*
X238430Y37461D01*
X238323Y37512D01*
X238218Y37570D01*
X238179Y37580D01*
X238143Y37597D01*
X238026Y37619D01*
X237910Y37649D01*
X237850Y37653D01*
X237830Y37657D01*
X237810Y37655D01*
X237750Y37659D01*
X228939Y37659D01*
X228939Y39994D01*
X229112Y40641D01*
X229277Y40926D01*
X229313Y41011D01*
X229358Y41092D01*
X229374Y41157D01*
X229400Y41219D01*
X229414Y41311D01*
X229437Y41400D01*
X229444Y41517D01*
X229447Y41534D01*
X229446Y41542D01*
X229447Y41561D01*
X229447Y44010D01*
X229441Y44059D01*
X229443Y44109D01*
X229421Y44216D01*
X229407Y44325D01*
X229389Y44371D01*
X229379Y44420D01*
X229331Y44519D01*
X229290Y44621D01*
X229261Y44661D01*
X229239Y44706D01*
X229168Y44789D01*
X229104Y44878D01*
X229065Y44910D01*
X229033Y44948D01*
X228943Y45011D01*
X228859Y45081D01*
X228814Y45102D01*
X228773Y45131D01*
X228670Y45170D01*
X228571Y45217D01*
X228522Y45226D01*
X228476Y45244D01*
X228366Y45256D01*
X228259Y45276D01*
X228209Y45273D01*
X228160Y45279D01*
X228051Y45263D01*
X227941Y45257D01*
X227894Y45241D01*
X227845Y45234D01*
X227692Y45182D01*
X227217Y44985D01*
X224903Y44985D01*
X222766Y45870D01*
X221130Y47506D01*
X220245Y49643D01*
X220245Y51957D01*
X221130Y54094D01*
X222766Y55730D01*
X224137Y56297D01*
X224181Y56322D01*
X224227Y56339D01*
X224318Y56401D01*
X224414Y56455D01*
X224449Y56490D01*
X224491Y56518D01*
X224563Y56600D01*
X224642Y56676D01*
X224668Y56719D01*
X224701Y56756D01*
X224751Y56854D01*
X224808Y56947D01*
X224823Y56995D01*
X224846Y57039D01*
X224870Y57147D01*
X224902Y57251D01*
X224904Y57301D01*
X224915Y57350D01*
X224912Y57459D01*
X224917Y57569D01*
X224907Y57618D01*
X224906Y57667D01*
X224875Y57773D01*
X224853Y57880D01*
X224831Y57925D01*
X224817Y57973D01*
X224761Y58068D01*
X224713Y58166D01*
X224681Y58204D01*
X224656Y58247D01*
X224549Y58368D01*
X224153Y58764D01*
X224075Y58825D01*
X224003Y58892D01*
X223950Y58922D01*
X223902Y58959D01*
X223811Y58998D01*
X223724Y59046D01*
X223665Y59061D01*
X223610Y59085D01*
X223512Y59101D01*
X223416Y59125D01*
X223316Y59132D01*
X223296Y59135D01*
X223283Y59134D01*
X223255Y59136D01*
X221121Y59136D01*
X218984Y60021D01*
X217348Y61657D01*
X216463Y63794D01*
X216463Y66107D01*
X217348Y68244D01*
X218984Y69880D01*
X221121Y70765D01*
X223435Y70765D01*
X225572Y69880D01*
X227301Y68151D01*
X227395Y68078D01*
X227484Y67999D01*
X227520Y67980D01*
X227552Y67956D01*
X227662Y67908D01*
X227768Y67854D01*
X227807Y67845D01*
X227844Y67829D01*
X227962Y67811D01*
X228078Y67785D01*
X228118Y67786D01*
X228158Y67780D01*
X228277Y67791D01*
X228396Y67794D01*
X228435Y67806D01*
X228475Y67809D01*
X228587Y67850D01*
X228701Y67883D01*
X228736Y67903D01*
X228774Y67917D01*
X228873Y67984D01*
X228975Y68044D01*
X229020Y68084D01*
X229037Y68096D01*
X229051Y68111D01*
X229096Y68151D01*
X229208Y68263D01*
X229281Y68357D01*
X229360Y68446D01*
X229378Y68482D01*
X229403Y68514D01*
X229450Y68623D01*
X229504Y68729D01*
X229513Y68769D01*
X229529Y68806D01*
X229548Y68923D01*
X229574Y69040D01*
X229573Y69080D01*
X229579Y69120D01*
X229568Y69238D01*
X229564Y69357D01*
X229553Y69396D01*
X229549Y69437D01*
X229509Y69548D01*
X229476Y69663D01*
X229455Y69698D01*
X229447Y69720D01*
X229447Y75617D01*
X229450Y75623D01*
X229504Y75729D01*
X229513Y75769D01*
X229529Y75806D01*
X229548Y75923D01*
X229574Y76040D01*
X229573Y76080D01*
X229579Y76120D01*
X229568Y76238D01*
X229564Y76357D01*
X229553Y76396D01*
X229549Y76436D01*
X229509Y76549D01*
X229476Y76663D01*
X229455Y76698D01*
X229447Y76720D01*
X229447Y82617D01*
X229450Y82623D01*
X229504Y82729D01*
X229513Y82769D01*
X229529Y82806D01*
X229548Y82923D01*
X229574Y83040D01*
X229573Y83080D01*
X229579Y83120D01*
X229568Y83238D01*
X229564Y83357D01*
X229553Y83396D01*
X229549Y83436D01*
X229509Y83549D01*
X229476Y83663D01*
X229455Y83698D01*
X229447Y83720D01*
X229447Y89617D01*
X229450Y89623D01*
X229504Y89729D01*
X229513Y89768D01*
X229529Y89806D01*
X229548Y89923D01*
X229574Y90039D01*
X229573Y90080D01*
X229579Y90120D01*
X229568Y90238D01*
X229564Y90357D01*
X229553Y90396D01*
X229549Y90436D01*
X229509Y90549D01*
X229476Y90663D01*
X229455Y90698D01*
X229442Y90736D01*
X229375Y90834D01*
X229314Y90937D01*
X229274Y90982D01*
X229263Y90999D01*
X229248Y91012D01*
X229208Y91058D01*
X229166Y91099D01*
X229072Y91172D01*
X228983Y91251D01*
X228947Y91269D01*
X228915Y91294D01*
X228806Y91341D01*
X228700Y91395D01*
X228661Y91404D01*
X228623Y91420D01*
X228506Y91439D01*
X228390Y91465D01*
X228349Y91464D01*
X228309Y91470D01*
X228191Y91459D01*
X228072Y91455D01*
X228033Y91444D01*
X227993Y91440D01*
X227880Y91400D01*
X227766Y91367D01*
X227731Y91346D01*
X227693Y91333D01*
X227595Y91266D01*
X227492Y91205D01*
X227447Y91165D01*
X227430Y91154D01*
X227417Y91139D01*
X227371Y91099D01*
X221157Y84885D01*
X221139Y84861D01*
X221117Y84842D01*
X221042Y84736D01*
X220962Y84633D01*
X220950Y84606D01*
X220934Y84582D01*
X220888Y84461D01*
X220836Y84341D01*
X220831Y84312D01*
X220821Y84285D01*
X220806Y84156D01*
X220786Y84027D01*
X220789Y83998D01*
X220786Y83969D01*
X220804Y83840D01*
X220816Y83711D01*
X220826Y83683D01*
X220830Y83654D01*
X220882Y83501D01*
X221743Y81423D01*
X221743Y78089D01*
X220467Y75008D01*
X218108Y72649D01*
X215027Y71373D01*
X211693Y71373D01*
X208612Y72649D01*
X206253Y75008D01*
X204977Y78089D01*
X204977Y81423D01*
X206253Y84504D01*
X208612Y86863D01*
X211693Y88139D01*
X215168Y88139D01*
X215179Y88136D01*
X215259Y88139D01*
X215280Y88139D01*
X215286Y88140D01*
X215309Y88140D01*
X215438Y88138D01*
X215467Y88145D01*
X215497Y88146D01*
X215621Y88182D01*
X215747Y88212D01*
X215774Y88226D01*
X215802Y88234D01*
X215914Y88300D01*
X216028Y88360D01*
X216050Y88381D01*
X216076Y88396D01*
X216197Y88502D01*
X216983Y89289D01*
X217069Y89398D01*
X217157Y89505D01*
X217166Y89524D01*
X217178Y89540D01*
X217234Y89667D01*
X217293Y89793D01*
X217297Y89813D01*
X217305Y89832D01*
X217327Y89970D01*
X217353Y90106D01*
X217351Y90126D01*
X217354Y90146D01*
X217341Y90285D01*
X217333Y90423D01*
X217327Y90442D01*
X217325Y90462D01*
X217277Y90594D01*
X217235Y90725D01*
X217224Y90743D01*
X217217Y90762D01*
X217139Y90877D01*
X217065Y90994D01*
X217050Y91008D01*
X217038Y91025D01*
X216934Y91117D01*
X216833Y91212D01*
X216815Y91222D01*
X216800Y91235D01*
X216676Y91298D01*
X216554Y91366D01*
X216535Y91371D01*
X216517Y91380D01*
X216381Y91410D01*
X216247Y91445D01*
X216218Y91447D01*
X216207Y91450D01*
X216186Y91449D01*
X216086Y91455D01*
X206610Y91455D01*
X206512Y91443D01*
X206413Y91440D01*
X206355Y91423D01*
X206294Y91415D01*
X206202Y91379D01*
X206107Y91351D01*
X206055Y91321D01*
X205999Y91298D01*
X205919Y91240D01*
X205833Y91190D01*
X205758Y91124D01*
X205741Y91112D01*
X205734Y91102D01*
X205712Y91084D01*
X199436Y84808D01*
X199376Y84729D01*
X199308Y84657D01*
X199279Y84604D01*
X199242Y84556D01*
X199202Y84465D01*
X199154Y84379D01*
X199139Y84320D01*
X199115Y84264D01*
X199100Y84166D01*
X199075Y84071D01*
X199069Y83971D01*
X199065Y83950D01*
X199067Y83938D01*
X199065Y83910D01*
X199065Y83438D01*
X198080Y82454D01*
X198003Y82354D01*
X197921Y82259D01*
X197906Y82229D01*
X197885Y82202D01*
X197835Y82087D01*
X197779Y81974D01*
X197772Y81941D01*
X197759Y81910D01*
X197739Y81786D01*
X197713Y81663D01*
X197714Y81630D01*
X197709Y81596D01*
X197721Y81471D01*
X197726Y81346D01*
X197736Y81313D01*
X197739Y81280D01*
X197781Y81161D01*
X197818Y81041D01*
X197835Y81012D01*
X197846Y80980D01*
X197917Y80876D01*
X197982Y80769D01*
X198006Y80745D01*
X198025Y80717D01*
X198119Y80634D01*
X198209Y80546D01*
X198250Y80519D01*
X198263Y80507D01*
X198283Y80497D01*
X198343Y80457D01*
X198592Y80313D01*
X199065Y79840D01*
X199400Y79261D01*
X199573Y78614D01*
X199573Y76529D01*
X193012Y76529D01*
X192894Y76514D01*
X192775Y76507D01*
X192737Y76494D01*
X192697Y76489D01*
X192586Y76446D01*
X192538Y76430D01*
X192520Y76440D01*
X192481Y76450D01*
X192445Y76467D01*
X192328Y76489D01*
X192212Y76519D01*
X192152Y76523D01*
X192132Y76527D01*
X192112Y76525D01*
X192052Y76529D01*
X185491Y76529D01*
X185491Y78614D01*
X185664Y79261D01*
X185999Y79840D01*
X186472Y80313D01*
X186721Y80457D01*
X186821Y80533D01*
X186925Y80603D01*
X186947Y80629D01*
X186974Y80649D01*
X187052Y80748D01*
X187136Y80842D01*
X187151Y80872D01*
X187172Y80898D01*
X187223Y81013D01*
X187280Y81125D01*
X187288Y81158D01*
X187301Y81189D01*
X187322Y81313D01*
X187350Y81435D01*
X187349Y81469D01*
X187354Y81502D01*
X187344Y81628D01*
X187340Y81753D01*
X187331Y81786D01*
X187328Y81819D01*
X187287Y81938D01*
X187252Y82059D01*
X187235Y82088D01*
X187224Y82120D01*
X187154Y82224D01*
X187090Y82333D01*
X187058Y82369D01*
X187048Y82385D01*
X187032Y82399D01*
X186984Y82454D01*
X186411Y83026D01*
X186302Y83111D01*
X186195Y83200D01*
X186176Y83208D01*
X186160Y83221D01*
X186032Y83276D01*
X185907Y83335D01*
X185887Y83339D01*
X185868Y83347D01*
X185730Y83369D01*
X185594Y83395D01*
X185574Y83394D01*
X185554Y83397D01*
X185415Y83384D01*
X185277Y83375D01*
X185258Y83369D01*
X185238Y83367D01*
X185106Y83320D01*
X184975Y83277D01*
X184957Y83266D01*
X184938Y83260D01*
X184823Y83181D01*
X184706Y83107D01*
X184692Y83092D01*
X184675Y83081D01*
X184583Y82977D01*
X184488Y82875D01*
X184478Y82858D01*
X184465Y82843D01*
X184401Y82719D01*
X184334Y82597D01*
X184329Y82577D01*
X184320Y82559D01*
X184290Y82423D01*
X184255Y82289D01*
X184253Y82261D01*
X184250Y82249D01*
X184251Y82229D01*
X184245Y82128D01*
X184245Y82034D01*
X183054Y80843D01*
X180982Y80843D01*
X180864Y80828D01*
X180745Y80821D01*
X180707Y80808D01*
X180666Y80803D01*
X180556Y80760D01*
X180443Y80723D01*
X180408Y80701D01*
X180371Y80686D01*
X180275Y80617D01*
X180174Y80553D01*
X180146Y80523D01*
X180113Y80500D01*
X180037Y80408D01*
X179956Y80321D01*
X179936Y80286D01*
X179911Y80255D01*
X179860Y80147D01*
X179802Y80043D01*
X179792Y80003D01*
X179775Y79967D01*
X179753Y79850D01*
X179723Y79735D01*
X179719Y79675D01*
X179715Y79655D01*
X179717Y79634D01*
X179713Y79574D01*
X179713Y65038D01*
X178522Y63847D01*
X173454Y63847D01*
X173336Y63832D01*
X173217Y63825D01*
X173179Y63812D01*
X173138Y63807D01*
X173028Y63764D01*
X172915Y63727D01*
X172880Y63705D01*
X172843Y63690D01*
X172747Y63621D01*
X172646Y63557D01*
X172618Y63527D01*
X172585Y63504D01*
X172509Y63412D01*
X172428Y63325D01*
X172408Y63290D01*
X172383Y63259D01*
X172332Y63151D01*
X172274Y63047D01*
X172264Y63007D01*
X172247Y62971D01*
X172225Y62854D01*
X172195Y62739D01*
X172191Y62679D01*
X172187Y62659D01*
X172189Y62638D01*
X172185Y62578D01*
X172185Y61580D01*
X172197Y61482D01*
X172200Y61383D01*
X172217Y61325D01*
X172225Y61265D01*
X172261Y61173D01*
X172289Y61078D01*
X172319Y61025D01*
X172342Y60969D01*
X172400Y60889D01*
X172450Y60804D01*
X172516Y60728D01*
X172528Y60712D01*
X172538Y60704D01*
X172556Y60683D01*
X174066Y59174D01*
X174951Y57037D01*
X174951Y54723D01*
X174066Y52586D01*
X172430Y50951D01*
X172218Y50863D01*
X172157Y50828D01*
X172092Y50802D01*
X172019Y50750D01*
X171941Y50705D01*
X171891Y50657D01*
X171835Y50616D01*
X171777Y50546D01*
X171713Y50484D01*
X171676Y50424D01*
X171632Y50371D01*
X171594Y50289D01*
X171547Y50213D01*
X171526Y50146D01*
X171496Y50083D01*
X171480Y49995D01*
X171453Y49909D01*
X171450Y49839D01*
X171437Y49770D01*
X171442Y49681D01*
X171438Y49591D01*
X171452Y49523D01*
X171456Y49453D01*
X171484Y49368D01*
X171502Y49280D01*
X171533Y49217D01*
X171554Y49151D01*
X171602Y49075D01*
X171642Y48994D01*
X171687Y48941D01*
X171725Y48882D01*
X171790Y48820D01*
X171848Y48752D01*
X171905Y48712D01*
X171956Y48664D01*
X172035Y48621D01*
X172108Y48569D01*
X172174Y48544D01*
X172235Y48510D01*
X172322Y48488D01*
X172406Y48456D01*
X172475Y48448D01*
X172543Y48431D01*
X172703Y48421D01*
X178014Y48421D01*
X178661Y48248D01*
X178958Y48076D01*
X179081Y48024D01*
X179200Y47968D01*
X179227Y47963D01*
X179252Y47952D01*
X179383Y47933D01*
X179513Y47908D01*
X179539Y47910D01*
X179566Y47906D01*
X179698Y47920D01*
X179830Y47928D01*
X179856Y47936D01*
X179882Y47939D01*
X180006Y47985D01*
X180132Y48026D01*
X180155Y48040D01*
X180181Y48050D01*
X180289Y48125D01*
X180401Y48196D01*
X180420Y48216D01*
X180442Y48231D01*
X180528Y48331D01*
X180619Y48428D01*
X180632Y48451D01*
X180650Y48472D01*
X180709Y48591D01*
X180773Y48706D01*
X180779Y48732D01*
X180791Y48757D01*
X180819Y48887D01*
X180852Y49014D01*
X180854Y49052D01*
X180858Y49068D01*
X180857Y49090D01*
X180862Y49175D01*
X180862Y55433D01*
X183490Y61776D01*
X188316Y66602D01*
X188398Y66707D01*
X188483Y66808D01*
X188495Y66832D01*
X188511Y66854D01*
X188564Y66975D01*
X188622Y67094D01*
X188627Y67121D01*
X188638Y67146D01*
X188658Y67276D01*
X188685Y67406D01*
X188683Y67433D01*
X188687Y67460D01*
X188675Y67592D01*
X188668Y67724D01*
X188660Y67749D01*
X188658Y67776D01*
X188613Y67901D01*
X188573Y68027D01*
X188559Y68050D01*
X188550Y68076D01*
X188476Y68185D01*
X188406Y68298D01*
X188387Y68316D01*
X188371Y68339D01*
X188272Y68426D01*
X188177Y68518D01*
X188153Y68531D01*
X188133Y68549D01*
X188015Y68609D01*
X187900Y68674D01*
X187864Y68687D01*
X187850Y68694D01*
X187829Y68699D01*
X187747Y68726D01*
X187051Y68912D01*
X186472Y69247D01*
X185999Y69720D01*
X185664Y70299D01*
X185491Y70946D01*
X185491Y73031D01*
X190783Y73031D01*
X190783Y69540D01*
X190789Y69491D01*
X190787Y69441D01*
X190809Y69334D01*
X190823Y69224D01*
X190841Y69178D01*
X190851Y69130D01*
X190899Y69031D01*
X190940Y68929D01*
X190969Y68889D01*
X190991Y68844D01*
X191062Y68760D01*
X191126Y68671D01*
X191165Y68640D01*
X191197Y68602D01*
X191287Y68539D01*
X191371Y68469D01*
X191416Y68447D01*
X191457Y68419D01*
X191560Y68380D01*
X191659Y68333D01*
X191708Y68324D01*
X191754Y68306D01*
X191864Y68294D01*
X191971Y68273D01*
X192021Y68276D01*
X192070Y68271D01*
X192179Y68286D01*
X192289Y68293D01*
X192336Y68308D01*
X192385Y68315D01*
X192538Y68367D01*
X193498Y68765D01*
X193523Y68780D01*
X193551Y68789D01*
X193661Y68858D01*
X193774Y68923D01*
X193795Y68943D01*
X193820Y68959D01*
X193909Y69054D01*
X194002Y69144D01*
X194018Y69169D01*
X194038Y69191D01*
X194101Y69304D01*
X194169Y69415D01*
X194177Y69443D01*
X194192Y69469D01*
X194224Y69595D01*
X194262Y69719D01*
X194264Y69748D01*
X194271Y69777D01*
X194281Y69938D01*
X194281Y73031D01*
X199573Y73031D01*
X199573Y70946D01*
X199549Y70856D01*
X199531Y70731D01*
X199508Y70607D01*
X199510Y70574D01*
X199505Y70540D01*
X199520Y70415D01*
X199528Y70290D01*
X199538Y70258D01*
X199542Y70225D01*
X199587Y70107D01*
X199626Y69988D01*
X199644Y69959D01*
X199656Y69928D01*
X199729Y69825D01*
X199796Y69719D01*
X199820Y69696D01*
X199840Y69668D01*
X199936Y69587D01*
X200027Y69501D01*
X200057Y69485D01*
X200083Y69463D01*
X200196Y69408D01*
X200306Y69347D01*
X200339Y69339D01*
X200369Y69324D01*
X200492Y69299D01*
X200614Y69268D01*
X200663Y69265D01*
X200681Y69261D01*
X200702Y69262D01*
X200775Y69258D01*
X201553Y69258D01*
X207896Y66630D01*
X212750Y61776D01*
X215378Y55433D01*
X215378Y48567D01*
X212750Y42224D01*
X207896Y37370D01*
X201553Y34742D01*
X194687Y34742D01*
X188344Y37370D01*
X183490Y42224D01*
X182663Y44221D01*
X182628Y44281D01*
X182602Y44346D01*
X182550Y44419D01*
X182505Y44497D01*
X182457Y44547D01*
X182416Y44604D01*
X182346Y44661D01*
X182284Y44725D01*
X182224Y44762D01*
X182171Y44806D01*
X182089Y44845D01*
X182013Y44892D01*
X181946Y44912D01*
X181883Y44942D01*
X181795Y44959D01*
X181709Y44985D01*
X181639Y44989D01*
X181570Y45002D01*
X181481Y44996D01*
X181391Y45001D01*
X181323Y44986D01*
X181253Y44982D01*
X181168Y44954D01*
X181080Y44936D01*
X181017Y44906D01*
X180951Y44884D01*
X180875Y44836D01*
X180794Y44796D01*
X180741Y44751D01*
X180682Y44714D01*
X180620Y44648D01*
X180552Y44590D01*
X180512Y44533D01*
X180464Y44482D01*
X180421Y44404D01*
X180369Y44330D01*
X180344Y44265D01*
X180310Y44204D01*
X180288Y44117D01*
X180256Y44033D01*
X180248Y43963D01*
X180231Y43896D01*
X180221Y43735D01*
X180221Y40919D01*
X171450Y40919D01*
X171332Y40904D01*
X171213Y40897D01*
X171175Y40884D01*
X171135Y40879D01*
X171024Y40835D01*
X170911Y40799D01*
X170876Y40777D01*
X170839Y40762D01*
X170743Y40692D01*
X170642Y40629D01*
X170614Y40599D01*
X170582Y40575D01*
X170506Y40484D01*
X170424Y40397D01*
X170405Y40362D01*
X170379Y40330D01*
X170328Y40223D01*
X170271Y40119D01*
X170260Y40079D01*
X170243Y40043D01*
X170221Y39926D01*
X170191Y39811D01*
X170187Y39750D01*
X170183Y39730D01*
X170185Y39710D01*
X170181Y39650D01*
X170181Y37110D01*
X170196Y36992D01*
X170203Y36873D01*
X170216Y36835D01*
X170221Y36795D01*
X170265Y36684D01*
X170301Y36571D01*
X170323Y36536D01*
X170338Y36499D01*
X170408Y36403D01*
X170471Y36302D01*
X170501Y36274D01*
X170525Y36241D01*
X170616Y36166D01*
X170703Y36084D01*
X170738Y36064D01*
X170770Y36039D01*
X170877Y35988D01*
X170981Y35930D01*
X171021Y35920D01*
X171057Y35903D01*
X171174Y35881D01*
X171289Y35851D01*
X171350Y35847D01*
X171370Y35843D01*
X171390Y35845D01*
X171450Y35841D01*
X180221Y35841D01*
X180221Y33020D01*
X180236Y32902D01*
X180243Y32783D01*
X180256Y32745D01*
X180261Y32704D01*
X180304Y32594D01*
X180341Y32481D01*
X180363Y32446D01*
X180378Y32409D01*
X180447Y32313D01*
X180511Y32212D01*
X180541Y32184D01*
X180564Y32151D01*
X180656Y32076D01*
X180743Y31994D01*
X180778Y31974D01*
X180809Y31949D01*
X180917Y31898D01*
X181021Y31840D01*
X181061Y31830D01*
X181097Y31813D01*
X181214Y31791D01*
X181329Y31761D01*
X181389Y31757D01*
X181409Y31753D01*
X181430Y31755D01*
X181490Y31751D01*
X227543Y31751D01*
X227661Y31766D01*
G37*
%LPC*%
G36*
X359787Y34742D02*
X359787Y34742D01*
X353444Y37370D01*
X348590Y42224D01*
X345962Y48567D01*
X345962Y55433D01*
X348590Y61776D01*
X353444Y66630D01*
X359787Y69258D01*
X366653Y69258D01*
X372996Y66630D01*
X377850Y61776D01*
X380478Y55433D01*
X380478Y48567D01*
X377850Y42224D01*
X372996Y37370D01*
X366653Y34742D01*
X359787Y34742D01*
G37*
%LPD*%
G36*
X165350Y85642D02*
X165350Y85642D01*
X165469Y85649D01*
X165507Y85661D01*
X165547Y85667D01*
X165658Y85710D01*
X165771Y85747D01*
X165805Y85769D01*
X165843Y85784D01*
X165939Y85853D01*
X166040Y85917D01*
X166068Y85947D01*
X166100Y85970D01*
X166176Y86062D01*
X166258Y86149D01*
X166277Y86184D01*
X166303Y86215D01*
X166354Y86323D01*
X166411Y86427D01*
X166421Y86467D01*
X166439Y86503D01*
X166461Y86620D01*
X166467Y86622D01*
X166508Y86627D01*
X166618Y86671D01*
X166731Y86707D01*
X166766Y86729D01*
X166803Y86744D01*
X166899Y86814D01*
X167000Y86877D01*
X167028Y86907D01*
X167061Y86931D01*
X167137Y87022D01*
X167218Y87109D01*
X167238Y87144D01*
X167263Y87176D01*
X167314Y87283D01*
X167372Y87388D01*
X167382Y87427D01*
X167399Y87463D01*
X167421Y87580D01*
X167451Y87696D01*
X167455Y87756D01*
X167459Y87776D01*
X167457Y87796D01*
X167461Y87856D01*
X167461Y94417D01*
X169546Y94417D01*
X170193Y94244D01*
X170772Y93909D01*
X171245Y93436D01*
X171389Y93187D01*
X171465Y93087D01*
X171535Y92983D01*
X171561Y92961D01*
X171581Y92934D01*
X171680Y92856D01*
X171774Y92772D01*
X171804Y92757D01*
X171830Y92736D01*
X171945Y92685D01*
X172057Y92628D01*
X172090Y92620D01*
X172121Y92607D01*
X172245Y92586D01*
X172367Y92558D01*
X172401Y92559D01*
X172434Y92554D01*
X172560Y92564D01*
X172685Y92568D01*
X172718Y92577D01*
X172751Y92580D01*
X172870Y92621D01*
X172991Y92656D01*
X173020Y92673D01*
X173052Y92684D01*
X173156Y92754D01*
X173265Y92818D01*
X173301Y92850D01*
X173317Y92860D01*
X173331Y92876D01*
X173386Y92924D01*
X174370Y93909D01*
X174410Y93909D01*
X174528Y93924D01*
X174647Y93931D01*
X174685Y93944D01*
X174726Y93949D01*
X174836Y93992D01*
X174949Y94029D01*
X174984Y94051D01*
X175021Y94066D01*
X175117Y94135D01*
X175218Y94199D01*
X175246Y94229D01*
X175279Y94252D01*
X175355Y94344D01*
X175436Y94431D01*
X175456Y94466D01*
X175481Y94497D01*
X175532Y94605D01*
X175590Y94709D01*
X175600Y94749D01*
X175617Y94785D01*
X175639Y94902D01*
X175669Y95017D01*
X175673Y95077D01*
X175677Y95097D01*
X175675Y95118D01*
X175676Y95130D01*
X175677Y95133D01*
X175677Y95135D01*
X175679Y95178D01*
X175679Y97244D01*
X175667Y97342D01*
X175664Y97441D01*
X175647Y97499D01*
X175639Y97559D01*
X175603Y97651D01*
X175575Y97746D01*
X175545Y97799D01*
X175522Y97855D01*
X175464Y97935D01*
X175414Y98020D01*
X175348Y98096D01*
X175336Y98112D01*
X175326Y98120D01*
X175308Y98141D01*
X170357Y103091D01*
X170357Y107094D01*
X170342Y107212D01*
X170335Y107331D01*
X170322Y107369D01*
X170317Y107410D01*
X170274Y107520D01*
X170237Y107633D01*
X170215Y107668D01*
X170200Y107705D01*
X170131Y107801D01*
X170067Y107902D01*
X170037Y107930D01*
X170014Y107963D01*
X169922Y108039D01*
X169835Y108120D01*
X169800Y108140D01*
X169769Y108165D01*
X169661Y108216D01*
X169557Y108274D01*
X169517Y108284D01*
X169481Y108301D01*
X169364Y108323D01*
X169249Y108353D01*
X169189Y108357D01*
X169169Y108361D01*
X169148Y108359D01*
X169088Y108363D01*
X167357Y108363D01*
X167357Y113924D01*
X167342Y114042D01*
X167335Y114161D01*
X167322Y114199D01*
X167317Y114239D01*
X167274Y114350D01*
X167237Y114463D01*
X167215Y114497D01*
X167200Y114535D01*
X167131Y114631D01*
X167067Y114732D01*
X167037Y114760D01*
X167014Y114792D01*
X166922Y114868D01*
X166835Y114950D01*
X166800Y114969D01*
X166769Y114995D01*
X166661Y115046D01*
X166557Y115103D01*
X166517Y115113D01*
X166481Y115131D01*
X166364Y115153D01*
X166249Y115183D01*
X166189Y115187D01*
X166169Y115190D01*
X166148Y115189D01*
X166088Y115193D01*
X165128Y115193D01*
X165010Y115178D01*
X164891Y115171D01*
X164853Y115158D01*
X164812Y115153D01*
X164702Y115109D01*
X164589Y115073D01*
X164554Y115051D01*
X164517Y115036D01*
X164420Y114966D01*
X164320Y114903D01*
X164292Y114873D01*
X164259Y114849D01*
X164183Y114758D01*
X164102Y114671D01*
X164082Y114636D01*
X164057Y114604D01*
X164006Y114497D01*
X163948Y114392D01*
X163938Y114353D01*
X163921Y114317D01*
X163899Y114200D01*
X163869Y114084D01*
X163865Y114024D01*
X163861Y114004D01*
X163863Y113984D01*
X163859Y113924D01*
X163859Y108363D01*
X160774Y108363D01*
X160107Y108542D01*
X160025Y108577D01*
X159905Y108633D01*
X159878Y108638D01*
X159854Y108648D01*
X159722Y108668D01*
X159592Y108693D01*
X159566Y108691D01*
X159539Y108695D01*
X159407Y108681D01*
X159275Y108673D01*
X159250Y108665D01*
X159223Y108662D01*
X159098Y108616D01*
X158973Y108575D01*
X158950Y108561D01*
X158925Y108551D01*
X158816Y108476D01*
X158704Y108405D01*
X158685Y108385D01*
X158663Y108370D01*
X158577Y108270D01*
X158486Y108173D01*
X158473Y108150D01*
X158455Y108129D01*
X158396Y108011D01*
X158332Y107895D01*
X158326Y107869D01*
X158314Y107845D01*
X158286Y107715D01*
X158253Y107587D01*
X158251Y107549D01*
X158247Y107534D01*
X158248Y107512D01*
X158243Y107426D01*
X158243Y94564D01*
X158260Y94426D01*
X158273Y94288D01*
X158280Y94269D01*
X158283Y94249D01*
X158334Y94119D01*
X158381Y93988D01*
X158392Y93972D01*
X158400Y93953D01*
X158481Y93840D01*
X158559Y93725D01*
X158575Y93712D01*
X158586Y93696D01*
X158694Y93607D01*
X158798Y93515D01*
X158816Y93506D01*
X158831Y93493D01*
X158957Y93434D01*
X159081Y93370D01*
X159101Y93366D01*
X159119Y93357D01*
X159255Y93331D01*
X159391Y93301D01*
X159412Y93301D01*
X159431Y93297D01*
X159570Y93306D01*
X159709Y93310D01*
X159729Y93316D01*
X159749Y93317D01*
X159881Y93360D01*
X160015Y93399D01*
X160032Y93409D01*
X160051Y93415D01*
X160169Y93490D01*
X160289Y93560D01*
X160310Y93579D01*
X160320Y93585D01*
X160334Y93600D01*
X160410Y93667D01*
X160652Y93909D01*
X161231Y94244D01*
X161878Y94417D01*
X163963Y94417D01*
X163963Y89125D01*
X159512Y89125D01*
X159394Y89110D01*
X159275Y89103D01*
X159237Y89090D01*
X159196Y89085D01*
X159086Y89042D01*
X158973Y89005D01*
X158938Y88983D01*
X158901Y88968D01*
X158805Y88899D01*
X158704Y88835D01*
X158676Y88805D01*
X158643Y88782D01*
X158567Y88690D01*
X158486Y88603D01*
X158466Y88568D01*
X158441Y88537D01*
X158390Y88429D01*
X158332Y88325D01*
X158322Y88285D01*
X158305Y88249D01*
X158283Y88132D01*
X158253Y88017D01*
X158249Y87957D01*
X158245Y87937D01*
X158247Y87916D01*
X158243Y87856D01*
X158243Y86896D01*
X158258Y86778D01*
X158265Y86659D01*
X158278Y86621D01*
X158283Y86580D01*
X158326Y86470D01*
X158363Y86357D01*
X158385Y86322D01*
X158400Y86285D01*
X158469Y86188D01*
X158533Y86088D01*
X158563Y86060D01*
X158586Y86027D01*
X158678Y85951D01*
X158765Y85870D01*
X158800Y85850D01*
X158831Y85825D01*
X158939Y85774D01*
X159043Y85716D01*
X159083Y85706D01*
X159119Y85689D01*
X159236Y85667D01*
X159351Y85637D01*
X159411Y85633D01*
X159431Y85629D01*
X159452Y85631D01*
X159512Y85627D01*
X165232Y85627D01*
X165350Y85642D01*
G37*
G36*
X214724Y97533D02*
X214724Y97533D01*
X214823Y97536D01*
X214881Y97553D01*
X214942Y97561D01*
X215034Y97597D01*
X215129Y97625D01*
X215181Y97655D01*
X215237Y97678D01*
X215317Y97736D01*
X215403Y97786D01*
X215478Y97852D01*
X215495Y97864D01*
X215502Y97874D01*
X215524Y97892D01*
X217355Y99724D01*
X217428Y99818D01*
X217506Y99907D01*
X217525Y99943D01*
X217550Y99975D01*
X217597Y100084D01*
X217651Y100190D01*
X217660Y100230D01*
X217676Y100267D01*
X217695Y100385D01*
X217721Y100500D01*
X217719Y100541D01*
X217726Y100581D01*
X217715Y100699D01*
X217711Y100818D01*
X217700Y100857D01*
X217696Y100897D01*
X217656Y101009D01*
X217623Y101124D01*
X217602Y101159D01*
X217588Y101197D01*
X217522Y101295D01*
X217461Y101398D01*
X217421Y101443D01*
X217410Y101460D01*
X217394Y101473D01*
X217355Y101519D01*
X216971Y101902D01*
X216971Y103211D01*
X216954Y103349D01*
X216941Y103488D01*
X216934Y103507D01*
X216931Y103527D01*
X216880Y103656D01*
X216833Y103787D01*
X216822Y103804D01*
X216814Y103823D01*
X216733Y103935D01*
X216655Y104050D01*
X216639Y104064D01*
X216628Y104080D01*
X216520Y104169D01*
X216416Y104261D01*
X216398Y104270D01*
X216383Y104283D01*
X216257Y104342D01*
X216133Y104405D01*
X216113Y104410D01*
X216095Y104418D01*
X215958Y104444D01*
X215823Y104475D01*
X215802Y104474D01*
X215783Y104478D01*
X215644Y104469D01*
X215505Y104465D01*
X215485Y104460D01*
X215465Y104458D01*
X215333Y104416D01*
X215199Y104377D01*
X215182Y104367D01*
X215163Y104360D01*
X215045Y104286D01*
X214925Y104215D01*
X214904Y104197D01*
X214894Y104190D01*
X214880Y104175D01*
X214805Y104109D01*
X213895Y103199D01*
X209474Y103199D01*
X209356Y103184D01*
X209237Y103177D01*
X209199Y103164D01*
X209158Y103159D01*
X209048Y103116D01*
X208935Y103079D01*
X208900Y103057D01*
X208863Y103042D01*
X208767Y102973D01*
X208666Y102909D01*
X208638Y102879D01*
X208605Y102856D01*
X208529Y102764D01*
X208448Y102677D01*
X208428Y102642D01*
X208403Y102611D01*
X208352Y102503D01*
X208294Y102399D01*
X208284Y102359D01*
X208267Y102323D01*
X208245Y102206D01*
X208231Y102151D01*
X204966Y102151D01*
X204848Y102136D01*
X204729Y102129D01*
X204691Y102117D01*
X204650Y102112D01*
X204540Y102068D01*
X204427Y102031D01*
X204392Y102009D01*
X204355Y101995D01*
X204259Y101925D01*
X204158Y101861D01*
X204130Y101831D01*
X204097Y101808D01*
X204021Y101716D01*
X203940Y101629D01*
X203920Y101594D01*
X203895Y101563D01*
X203844Y101455D01*
X203786Y101351D01*
X203776Y101312D01*
X203759Y101275D01*
X203737Y101158D01*
X203707Y101043D01*
X203703Y100983D01*
X203699Y100963D01*
X203699Y100962D01*
X203701Y100942D01*
X203697Y100882D01*
X203712Y100764D01*
X203719Y100645D01*
X203732Y100606D01*
X203737Y100566D01*
X203780Y100456D01*
X203817Y100342D01*
X203839Y100308D01*
X203854Y100271D01*
X203923Y100174D01*
X203987Y100074D01*
X204017Y100046D01*
X204040Y100013D01*
X204132Y99937D01*
X204219Y99856D01*
X204254Y99836D01*
X204285Y99810D01*
X204393Y99760D01*
X204497Y99702D01*
X204537Y99692D01*
X204573Y99675D01*
X204690Y99653D01*
X204805Y99623D01*
X204865Y99619D01*
X204885Y99615D01*
X204906Y99616D01*
X204966Y99613D01*
X208205Y99613D01*
X208205Y98790D01*
X208220Y98672D01*
X208227Y98553D01*
X208240Y98515D01*
X208245Y98474D01*
X208288Y98364D01*
X208325Y98251D01*
X208347Y98216D01*
X208362Y98179D01*
X208431Y98083D01*
X208495Y97982D01*
X208525Y97954D01*
X208548Y97921D01*
X208640Y97845D01*
X208727Y97764D01*
X208762Y97744D01*
X208793Y97719D01*
X208901Y97668D01*
X209005Y97610D01*
X209045Y97600D01*
X209081Y97583D01*
X209198Y97561D01*
X209313Y97531D01*
X209373Y97527D01*
X209393Y97523D01*
X209414Y97525D01*
X209474Y97521D01*
X214626Y97521D01*
X214724Y97533D01*
G37*
%LPC*%
G36*
X388619Y150739D02*
X388619Y150739D01*
X388619Y157241D01*
X393914Y157241D01*
X394561Y157068D01*
X395140Y156733D01*
X395613Y156260D01*
X395948Y155681D01*
X396121Y155034D01*
X396121Y150739D01*
X388619Y150739D01*
G37*
%LPD*%
%LPC*%
G36*
X376039Y150739D02*
X376039Y150739D01*
X376039Y155034D01*
X376212Y155681D01*
X376547Y156260D01*
X377020Y156733D01*
X377599Y157068D01*
X378246Y157241D01*
X383541Y157241D01*
X383541Y150739D01*
X376039Y150739D01*
G37*
%LPD*%
%LPC*%
G36*
X313014Y171146D02*
X313014Y171146D01*
X313014Y175363D01*
X314824Y175363D01*
X315471Y175190D01*
X316050Y174855D01*
X316603Y174303D01*
X316697Y174230D01*
X316786Y174151D01*
X316822Y174133D01*
X316854Y174108D01*
X316963Y174060D01*
X317069Y174006D01*
X317108Y173997D01*
X317146Y173981D01*
X317263Y173963D01*
X317379Y173937D01*
X317420Y173938D01*
X317460Y173931D01*
X317578Y173943D01*
X317697Y173946D01*
X317736Y173958D01*
X317776Y173961D01*
X317888Y174002D01*
X318003Y174035D01*
X318038Y174055D01*
X318076Y174069D01*
X318174Y174136D01*
X318277Y174196D01*
X318322Y174236D01*
X318339Y174247D01*
X318352Y174263D01*
X318398Y174303D01*
X318950Y174855D01*
X319529Y175190D01*
X320176Y175363D01*
X321986Y175363D01*
X321986Y171146D01*
X313014Y171146D01*
G37*
%LPD*%
%LPC*%
G36*
X332479Y37659D02*
X332479Y37659D01*
X332479Y42201D01*
X337814Y42201D01*
X338461Y42028D01*
X339040Y41693D01*
X339513Y41220D01*
X339848Y40641D01*
X340021Y39994D01*
X340021Y37659D01*
X332479Y37659D01*
G37*
%LPD*%
%LPC*%
G36*
X320939Y37659D02*
X320939Y37659D01*
X320939Y39994D01*
X321112Y40641D01*
X321447Y41220D01*
X321920Y41693D01*
X322499Y42028D01*
X323146Y42201D01*
X328481Y42201D01*
X328481Y37659D01*
X320939Y37659D01*
G37*
%LPD*%
%LPC*%
G36*
X368259Y148159D02*
X368259Y148159D01*
X368259Y153701D01*
X371094Y153701D01*
X371741Y153528D01*
X372320Y153193D01*
X372793Y152720D01*
X373128Y152141D01*
X373301Y151494D01*
X373301Y148159D01*
X368259Y148159D01*
G37*
%LPD*%
%LPC*%
G36*
X353527Y76423D02*
X353527Y76423D01*
X353527Y81965D01*
X358569Y81965D01*
X358569Y78630D01*
X358396Y77983D01*
X358061Y77404D01*
X357588Y76931D01*
X357009Y76596D01*
X356362Y76423D01*
X353527Y76423D01*
G37*
%LPD*%
%LPC*%
G36*
X162639Y209119D02*
X162639Y209119D01*
X162639Y212454D01*
X162812Y213101D01*
X163147Y213680D01*
X163620Y214153D01*
X164199Y214488D01*
X164846Y214661D01*
X167681Y214661D01*
X167681Y209119D01*
X162639Y209119D01*
G37*
%LPD*%
%LPC*%
G36*
X194135Y168479D02*
X194135Y168479D01*
X194135Y171814D01*
X194308Y172461D01*
X194643Y173040D01*
X195116Y173513D01*
X195695Y173848D01*
X196342Y174021D01*
X199177Y174021D01*
X199177Y168479D01*
X194135Y168479D01*
G37*
%LPD*%
%LPC*%
G36*
X358219Y148159D02*
X358219Y148159D01*
X358219Y151494D01*
X358392Y152141D01*
X358727Y152720D01*
X359200Y153193D01*
X359779Y153528D01*
X360426Y153701D01*
X363261Y153701D01*
X363261Y148159D01*
X358219Y148159D01*
G37*
%LPD*%
%LPC*%
G36*
X345694Y76423D02*
X345694Y76423D01*
X345047Y76596D01*
X344468Y76931D01*
X343995Y77404D01*
X343660Y77983D01*
X343487Y78630D01*
X343487Y81965D01*
X348529Y81965D01*
X348529Y76423D01*
X345694Y76423D01*
G37*
%LPD*%
%LPC*%
G36*
X327749Y140119D02*
X327749Y140119D01*
X327749Y148391D01*
X331021Y148391D01*
X331021Y142326D01*
X330848Y141679D01*
X330513Y141100D01*
X330040Y140627D01*
X329461Y140292D01*
X328814Y140119D01*
X327749Y140119D01*
G37*
%LPD*%
%LPC*%
G36*
X237939Y150929D02*
X237939Y150929D01*
X237939Y156994D01*
X238112Y157641D01*
X238447Y158220D01*
X238920Y158693D01*
X239499Y159028D01*
X240146Y159201D01*
X241211Y159201D01*
X241211Y150929D01*
X237939Y150929D01*
G37*
%LPD*%
%LPC*%
G36*
X392226Y192666D02*
X392226Y192666D01*
X397343Y192666D01*
X397343Y190756D01*
X397170Y190109D01*
X396835Y189530D01*
X396362Y189057D01*
X395783Y188722D01*
X395136Y188549D01*
X392917Y188549D01*
X392847Y188541D01*
X392778Y188542D01*
X392690Y188521D01*
X392601Y188509D01*
X392536Y188484D01*
X392468Y188467D01*
X392389Y188425D01*
X392305Y188392D01*
X392249Y188351D01*
X392226Y188339D01*
X392226Y192666D01*
G37*
%LPD*%
%LPC*%
G36*
X392226Y195814D02*
X392226Y195814D01*
X392226Y199931D01*
X395136Y199931D01*
X395783Y199758D01*
X396362Y199423D01*
X396835Y198950D01*
X397170Y198371D01*
X397343Y197724D01*
X397343Y195814D01*
X392226Y195814D01*
G37*
%LPD*%
%LPC*%
G36*
X383961Y195814D02*
X383961Y195814D01*
X383961Y197724D01*
X384134Y198371D01*
X384469Y198950D01*
X384942Y199423D01*
X385521Y199758D01*
X386168Y199931D01*
X389078Y199931D01*
X389078Y195814D01*
X383961Y195814D01*
G37*
%LPD*%
%LPC*%
G36*
X386168Y188549D02*
X386168Y188549D01*
X385521Y188722D01*
X384942Y189057D01*
X384469Y189530D01*
X384134Y190109D01*
X383961Y190756D01*
X383961Y192666D01*
X389078Y192666D01*
X389078Y188549D01*
X386168Y188549D01*
G37*
%LPD*%
%LPC*%
G36*
X263627Y182775D02*
X263627Y182775D01*
X263627Y186817D01*
X265962Y186817D01*
X266609Y186644D01*
X267188Y186309D01*
X267661Y185836D01*
X267996Y185257D01*
X268169Y184610D01*
X268169Y182775D01*
X263627Y182775D01*
G37*
%LPD*%
%LPC*%
G36*
X256087Y182775D02*
X256087Y182775D01*
X256087Y184610D01*
X256260Y185257D01*
X256595Y185836D01*
X257068Y186309D01*
X257647Y186644D01*
X258294Y186817D01*
X260629Y186817D01*
X260629Y182775D01*
X256087Y182775D01*
G37*
%LPD*%
D10*
X383540Y104140D03*
D11*
X198120Y52000D03*
X198120Y202000D03*
X363220Y202000D03*
X363220Y52000D03*
D12*
X284480Y174380D03*
X284480Y191380D03*
D13*
X323460Y169672D03*
X331860Y169672D03*
X311540Y169672D03*
X303140Y169672D03*
D14*
X165608Y114404D03*
X165608Y127404D03*
X192532Y74780D03*
X192532Y87780D03*
D15*
X165712Y87376D03*
X178712Y87376D03*
D12*
X365760Y145660D03*
X365760Y128660D03*
D16*
X231140Y210820D03*
X256540Y210820D03*
X281940Y210820D03*
X307340Y210820D03*
D17*
X370220Y114300D03*
X356220Y114300D03*
D18*
X368300Y102872D03*
X368300Y94232D03*
D19*
X170180Y38380D03*
X170180Y73380D03*
D20*
X330480Y35660D03*
D21*
X330480Y65660D03*
X330480Y72660D03*
X330480Y79660D03*
X330480Y86660D03*
X330480Y93660D03*
X330480Y100660D03*
X330480Y107660D03*
X330480Y114660D03*
X330480Y121660D03*
X330480Y128660D03*
D22*
X326480Y149660D03*
X319480Y149660D03*
X312480Y149660D03*
X305480Y149660D03*
X298480Y149660D03*
X291480Y149660D03*
X284480Y149660D03*
X277480Y149660D03*
X270480Y149660D03*
X263480Y149660D03*
X256480Y149660D03*
X249480Y149660D03*
X242480Y149660D03*
D21*
X238480Y128660D03*
X238480Y121660D03*
X238480Y114660D03*
X238480Y107660D03*
X238480Y100660D03*
X238480Y93660D03*
X238480Y86660D03*
X238480Y79660D03*
X238480Y72660D03*
X238480Y65660D03*
X238480Y58660D03*
X238480Y51660D03*
X238480Y44660D03*
D20*
X238480Y35660D03*
D23*
X255480Y41160D03*
X255480Y55160D03*
D21*
X238480Y135660D03*
D24*
X203739Y134707D02*
X203739Y128857D01*
X203739Y134707D02*
X205389Y134707D01*
X205389Y128857D01*
X203739Y128857D01*
X203739Y129379D02*
X205389Y129379D01*
X205389Y129901D02*
X203739Y129901D01*
X203739Y130423D02*
X205389Y130423D01*
X205389Y130945D02*
X203739Y130945D01*
X203739Y131467D02*
X205389Y131467D01*
X205389Y131989D02*
X203739Y131989D01*
X203739Y132511D02*
X205389Y132511D01*
X205389Y133033D02*
X203739Y133033D01*
X203739Y133555D02*
X205389Y133555D01*
X205389Y134077D02*
X203739Y134077D01*
X203739Y134599D02*
X205389Y134599D01*
X199739Y134707D02*
X199739Y128857D01*
X199739Y134707D02*
X201389Y134707D01*
X201389Y128857D01*
X199739Y128857D01*
X199739Y129379D02*
X201389Y129379D01*
X201389Y129901D02*
X199739Y129901D01*
X199739Y130423D02*
X201389Y130423D01*
X201389Y130945D02*
X199739Y130945D01*
X199739Y131467D02*
X201389Y131467D01*
X201389Y131989D02*
X199739Y131989D01*
X199739Y132511D02*
X201389Y132511D01*
X201389Y133033D02*
X199739Y133033D01*
X199739Y133555D02*
X201389Y133555D01*
X201389Y134077D02*
X199739Y134077D01*
X199739Y134599D02*
X201389Y134599D01*
X195739Y134707D02*
X195739Y128857D01*
X195739Y134707D02*
X197389Y134707D01*
X197389Y128857D01*
X195739Y128857D01*
X195739Y129379D02*
X197389Y129379D01*
X197389Y129901D02*
X195739Y129901D01*
X195739Y130423D02*
X197389Y130423D01*
X197389Y130945D02*
X195739Y130945D01*
X195739Y131467D02*
X197389Y131467D01*
X197389Y131989D02*
X195739Y131989D01*
X195739Y132511D02*
X197389Y132511D01*
X197389Y133033D02*
X195739Y133033D01*
X195739Y133555D02*
X197389Y133555D01*
X197389Y134077D02*
X195739Y134077D01*
X195739Y134599D02*
X197389Y134599D01*
X191739Y134707D02*
X191739Y128857D01*
X191739Y134707D02*
X193389Y134707D01*
X193389Y128857D01*
X191739Y128857D01*
X191739Y129379D02*
X193389Y129379D01*
X193389Y129901D02*
X191739Y129901D01*
X191739Y130423D02*
X193389Y130423D01*
X193389Y130945D02*
X191739Y130945D01*
X191739Y131467D02*
X193389Y131467D01*
X193389Y131989D02*
X191739Y131989D01*
X191739Y132511D02*
X193389Y132511D01*
X193389Y133033D02*
X191739Y133033D01*
X191739Y133555D02*
X193389Y133555D01*
X193389Y134077D02*
X191739Y134077D01*
X191739Y134599D02*
X193389Y134599D01*
X187739Y134707D02*
X187739Y128857D01*
X187739Y134707D02*
X189389Y134707D01*
X189389Y128857D01*
X187739Y128857D01*
X187739Y129379D02*
X189389Y129379D01*
X189389Y129901D02*
X187739Y129901D01*
X187739Y130423D02*
X189389Y130423D01*
X189389Y130945D02*
X187739Y130945D01*
X187739Y131467D02*
X189389Y131467D01*
X189389Y131989D02*
X187739Y131989D01*
X187739Y132511D02*
X189389Y132511D01*
X189389Y133033D02*
X187739Y133033D01*
X187739Y133555D02*
X189389Y133555D01*
X189389Y134077D02*
X187739Y134077D01*
X187739Y134599D02*
X189389Y134599D01*
X183739Y134707D02*
X183739Y128857D01*
X183739Y134707D02*
X185389Y134707D01*
X185389Y128857D01*
X183739Y128857D01*
X183739Y129379D02*
X185389Y129379D01*
X185389Y129901D02*
X183739Y129901D01*
X183739Y130423D02*
X185389Y130423D01*
X185389Y130945D02*
X183739Y130945D01*
X183739Y131467D02*
X185389Y131467D01*
X185389Y131989D02*
X183739Y131989D01*
X183739Y132511D02*
X185389Y132511D01*
X185389Y133033D02*
X183739Y133033D01*
X183739Y133555D02*
X185389Y133555D01*
X185389Y134077D02*
X183739Y134077D01*
X183739Y134599D02*
X185389Y134599D01*
X182039Y125507D02*
X176189Y125507D01*
X176189Y127157D01*
X182039Y127157D01*
X182039Y125507D01*
X182039Y126029D02*
X176189Y126029D01*
X176189Y126551D02*
X182039Y126551D01*
X182039Y127073D02*
X176189Y127073D01*
X176189Y121507D02*
X182039Y121507D01*
X176189Y121507D02*
X176189Y123157D01*
X182039Y123157D01*
X182039Y121507D01*
X182039Y122029D02*
X176189Y122029D01*
X176189Y122551D02*
X182039Y122551D01*
X182039Y123073D02*
X176189Y123073D01*
X176189Y117507D02*
X182039Y117507D01*
X176189Y117507D02*
X176189Y119157D01*
X182039Y119157D01*
X182039Y117507D01*
X182039Y118029D02*
X176189Y118029D01*
X176189Y118551D02*
X182039Y118551D01*
X182039Y119073D02*
X176189Y119073D01*
X176189Y113507D02*
X182039Y113507D01*
X176189Y113507D02*
X176189Y115157D01*
X182039Y115157D01*
X182039Y113507D01*
X182039Y114029D02*
X176189Y114029D01*
X176189Y114551D02*
X182039Y114551D01*
X182039Y115073D02*
X176189Y115073D01*
X176189Y109507D02*
X182039Y109507D01*
X176189Y109507D02*
X176189Y111157D01*
X182039Y111157D01*
X182039Y109507D01*
X182039Y110029D02*
X176189Y110029D01*
X176189Y110551D02*
X182039Y110551D01*
X182039Y111073D02*
X176189Y111073D01*
X176189Y105507D02*
X182039Y105507D01*
X176189Y105507D02*
X176189Y107157D01*
X182039Y107157D01*
X182039Y105507D01*
X182039Y106029D02*
X176189Y106029D01*
X176189Y106551D02*
X182039Y106551D01*
X182039Y107073D02*
X176189Y107073D01*
X185389Y103807D02*
X185389Y97957D01*
X183739Y97957D01*
X183739Y103807D01*
X185389Y103807D01*
X185389Y98479D02*
X183739Y98479D01*
X183739Y99001D02*
X185389Y99001D01*
X185389Y99523D02*
X183739Y99523D01*
X183739Y100045D02*
X185389Y100045D01*
X185389Y100567D02*
X183739Y100567D01*
X183739Y101089D02*
X185389Y101089D01*
X185389Y101611D02*
X183739Y101611D01*
X183739Y102133D02*
X185389Y102133D01*
X185389Y102655D02*
X183739Y102655D01*
X183739Y103177D02*
X185389Y103177D01*
X185389Y103699D02*
X183739Y103699D01*
X189389Y103807D02*
X189389Y97957D01*
X187739Y97957D01*
X187739Y103807D01*
X189389Y103807D01*
X189389Y98479D02*
X187739Y98479D01*
X187739Y99001D02*
X189389Y99001D01*
X189389Y99523D02*
X187739Y99523D01*
X187739Y100045D02*
X189389Y100045D01*
X189389Y100567D02*
X187739Y100567D01*
X187739Y101089D02*
X189389Y101089D01*
X189389Y101611D02*
X187739Y101611D01*
X187739Y102133D02*
X189389Y102133D01*
X189389Y102655D02*
X187739Y102655D01*
X187739Y103177D02*
X189389Y103177D01*
X189389Y103699D02*
X187739Y103699D01*
X193389Y103807D02*
X193389Y97957D01*
X191739Y97957D01*
X191739Y103807D01*
X193389Y103807D01*
X193389Y98479D02*
X191739Y98479D01*
X191739Y99001D02*
X193389Y99001D01*
X193389Y99523D02*
X191739Y99523D01*
X191739Y100045D02*
X193389Y100045D01*
X193389Y100567D02*
X191739Y100567D01*
X191739Y101089D02*
X193389Y101089D01*
X193389Y101611D02*
X191739Y101611D01*
X191739Y102133D02*
X193389Y102133D01*
X193389Y102655D02*
X191739Y102655D01*
X191739Y103177D02*
X193389Y103177D01*
X193389Y103699D02*
X191739Y103699D01*
X197389Y103807D02*
X197389Y97957D01*
X195739Y97957D01*
X195739Y103807D01*
X197389Y103807D01*
X197389Y98479D02*
X195739Y98479D01*
X195739Y99001D02*
X197389Y99001D01*
X197389Y99523D02*
X195739Y99523D01*
X195739Y100045D02*
X197389Y100045D01*
X197389Y100567D02*
X195739Y100567D01*
X195739Y101089D02*
X197389Y101089D01*
X197389Y101611D02*
X195739Y101611D01*
X195739Y102133D02*
X197389Y102133D01*
X197389Y102655D02*
X195739Y102655D01*
X195739Y103177D02*
X197389Y103177D01*
X197389Y103699D02*
X195739Y103699D01*
X201389Y103807D02*
X201389Y97957D01*
X199739Y97957D01*
X199739Y103807D01*
X201389Y103807D01*
X201389Y98479D02*
X199739Y98479D01*
X199739Y99001D02*
X201389Y99001D01*
X201389Y99523D02*
X199739Y99523D01*
X199739Y100045D02*
X201389Y100045D01*
X201389Y100567D02*
X199739Y100567D01*
X199739Y101089D02*
X201389Y101089D01*
X201389Y101611D02*
X199739Y101611D01*
X199739Y102133D02*
X201389Y102133D01*
X201389Y102655D02*
X199739Y102655D01*
X199739Y103177D02*
X201389Y103177D01*
X201389Y103699D02*
X199739Y103699D01*
X205389Y103807D02*
X205389Y97957D01*
X203739Y97957D01*
X203739Y103807D01*
X205389Y103807D01*
X205389Y98479D02*
X203739Y98479D01*
X203739Y99001D02*
X205389Y99001D01*
X205389Y99523D02*
X203739Y99523D01*
X203739Y100045D02*
X205389Y100045D01*
X205389Y100567D02*
X203739Y100567D01*
X203739Y101089D02*
X205389Y101089D01*
X205389Y101611D02*
X203739Y101611D01*
X203739Y102133D02*
X205389Y102133D01*
X205389Y102655D02*
X203739Y102655D01*
X203739Y103177D02*
X205389Y103177D01*
X205389Y103699D02*
X203739Y103699D01*
X207089Y107157D02*
X212939Y107157D01*
X212939Y105507D01*
X207089Y105507D01*
X207089Y107157D01*
X207089Y106029D02*
X212939Y106029D01*
X212939Y106551D02*
X207089Y106551D01*
X207089Y107073D02*
X212939Y107073D01*
X212939Y111157D02*
X207089Y111157D01*
X212939Y111157D02*
X212939Y109507D01*
X207089Y109507D01*
X207089Y111157D01*
X207089Y110029D02*
X212939Y110029D01*
X212939Y110551D02*
X207089Y110551D01*
X207089Y111073D02*
X212939Y111073D01*
X212939Y115157D02*
X207089Y115157D01*
X212939Y115157D02*
X212939Y113507D01*
X207089Y113507D01*
X207089Y115157D01*
X207089Y114029D02*
X212939Y114029D01*
X212939Y114551D02*
X207089Y114551D01*
X207089Y115073D02*
X212939Y115073D01*
X212939Y119157D02*
X207089Y119157D01*
X212939Y119157D02*
X212939Y117507D01*
X207089Y117507D01*
X207089Y119157D01*
X207089Y118029D02*
X212939Y118029D01*
X212939Y118551D02*
X207089Y118551D01*
X207089Y119073D02*
X212939Y119073D01*
X212939Y123157D02*
X207089Y123157D01*
X212939Y123157D02*
X212939Y121507D01*
X207089Y121507D01*
X207089Y123157D01*
X207089Y122029D02*
X212939Y122029D01*
X212939Y122551D02*
X207089Y122551D01*
X207089Y123073D02*
X212939Y123073D01*
X212939Y127157D02*
X207089Y127157D01*
X212939Y127157D02*
X212939Y125507D01*
X207089Y125507D01*
X207089Y127157D01*
X207089Y126029D02*
X212939Y126029D01*
X212939Y126551D02*
X207089Y126551D01*
X207089Y127073D02*
X212939Y127073D01*
D10*
X213360Y79756D03*
D25*
X218440Y238760D03*
X198440Y238760D03*
X238440Y238760D03*
D26*
X169940Y238760D03*
X266940Y238760D03*
D27*
X184760Y173021D03*
X175260Y173021D03*
X165760Y173021D03*
X165760Y147019D03*
X184760Y147019D03*
D12*
X170180Y206620D03*
X170180Y189620D03*
X201676Y165980D03*
X201676Y148980D03*
D28*
X386080Y148200D03*
X386080Y131200D03*
D29*
X310500Y186944D03*
X324500Y186944D03*
D30*
X390652Y217240D03*
X390652Y194240D03*
D14*
X348488Y129644D03*
X348488Y142644D03*
D31*
X262128Y181276D03*
X262128Y171276D03*
D32*
X362124Y180340D03*
X352124Y180340D03*
D31*
X217424Y167560D03*
X217424Y157560D03*
D12*
X351028Y84464D03*
X351028Y101464D03*
D31*
X222504Y115744D03*
X222504Y105744D03*
X221996Y133176D03*
X221996Y143176D03*
D33*
X342900Y35560D03*
X314960Y38100D03*
X314960Y50800D03*
X340360Y48260D03*
X299720Y50800D03*
X299720Y38100D03*
X294640Y68580D03*
X309880Y68580D03*
X276860Y68580D03*
X256540Y68580D03*
X256540Y86360D03*
X256540Y106680D03*
X256540Y124460D03*
X274320Y124460D03*
X292100Y124460D03*
X309880Y124460D03*
X309880Y106680D03*
X309880Y88900D03*
X292100Y88900D03*
X274320Y88900D03*
X274320Y106680D03*
X292100Y106680D03*
X234188Y162052D03*
X245364Y162052D03*
X226060Y35560D03*
X215900Y35560D03*
X332740Y160020D03*
X342392Y160020D03*
D34*
X170180Y38380D02*
X169050Y39510D01*
X160140Y48420D01*
D35*
X232664Y162052D02*
X234188Y162052D01*
X232664Y162052D02*
X224940Y169776D01*
X224940Y171494D01*
X182984Y63997D02*
X180371Y61384D01*
X180371Y50831D01*
X169050Y39510D01*
X170180Y38380D02*
X186639Y38380D01*
X190768Y34251D01*
X205472Y34251D01*
X206781Y35560D01*
X215900Y35560D01*
X226060Y35560D01*
X226160Y35660D01*
X238480Y35660D01*
X330580Y35560D02*
X342900Y35560D01*
X330580Y35560D02*
X330480Y35660D01*
X342900Y35560D02*
X342900Y45720D01*
X340360Y48260D01*
X340360Y60960D01*
X353060Y73660D01*
X326480Y149660D02*
X326480Y153760D01*
X332740Y160020D01*
X326480Y149660D02*
X326480Y141060D01*
X309880Y124460D01*
X274320Y124460D02*
X256540Y124460D01*
X256540Y68580D02*
X276860Y68580D01*
X294640Y68580D01*
X292100Y88900D02*
X309880Y88900D01*
X292100Y88900D02*
X274320Y88900D01*
X256540Y86360D02*
X256540Y68580D01*
X256540Y106680D02*
X256540Y124460D01*
X274320Y124460D02*
X274320Y106680D01*
X292100Y106680D01*
X243404Y171494D02*
X224940Y171494D01*
X275004Y181904D02*
X284480Y191380D01*
X253814Y181904D02*
X243404Y171494D01*
D36*
X311540Y169672D02*
X317500Y169672D01*
X323460Y169672D01*
D37*
X365760Y145660D02*
X368300Y148200D01*
X386080Y148200D01*
X175260Y164227D02*
X161853Y164227D01*
X160216Y165864D01*
X160216Y206756D01*
X175260Y164227D02*
X175260Y160020D01*
X175260Y164227D02*
X175260Y173021D01*
X386080Y148200D02*
X388484Y145796D01*
X394716Y145796D01*
X396374Y123543D02*
X395732Y122901D01*
X395732Y91948D01*
X396374Y144138D02*
X394716Y145796D01*
X396374Y144138D02*
X396374Y123543D01*
X395732Y91948D02*
X388112Y84328D01*
D38*
X242480Y149660D02*
X242480Y153760D01*
X234188Y162052D01*
D33*
X323088Y198628D03*
D37*
X323088Y197983D01*
X318706Y193601D01*
X318706Y170878D02*
X317500Y169672D01*
X318706Y170878D02*
X318706Y193601D01*
D38*
X291728Y198628D02*
X284480Y191380D01*
X291728Y198628D02*
X323088Y198628D01*
D37*
X390652Y194240D02*
X390652Y190148D01*
X397736Y183064D01*
X397736Y159856D01*
X386080Y148200D01*
X362744Y142644D02*
X348488Y142644D01*
X362744Y142644D02*
X365760Y145660D01*
D34*
X261500Y181904D02*
X253814Y181904D01*
X261500Y181904D02*
X262128Y181276D01*
X262756Y181904D01*
X275004Y181904D01*
X353060Y82432D02*
X353060Y73660D01*
X353060Y82432D02*
X351028Y84464D01*
X387976Y84464D01*
X388112Y84328D01*
D33*
X177800Y159512D03*
X162560Y217424D03*
D37*
X175768Y159512D02*
X177800Y159512D01*
X175768Y159512D02*
X175260Y160020D01*
X160216Y206756D02*
X160216Y215080D01*
X162560Y217424D01*
X160352Y206620D02*
X170180Y206620D01*
X160352Y206620D02*
X160216Y206756D01*
D33*
X186436Y159512D03*
D37*
X177800Y159512D01*
D34*
X186436Y159512D02*
X192904Y165980D01*
X201676Y165980D01*
X231140Y202184D02*
X231140Y210820D01*
X224028Y172406D02*
X224940Y171494D01*
X224028Y195072D02*
X231140Y202184D01*
X224028Y195072D02*
X224028Y172406D01*
X160140Y83028D02*
X160140Y48420D01*
X209654Y109972D02*
X210014Y110332D01*
X192532Y73545D02*
X182984Y63997D01*
X192532Y73545D02*
X192532Y74780D01*
D35*
X165608Y114404D02*
X169536Y118332D01*
X179114Y118332D01*
X184838Y116316D02*
X184838Y112348D01*
X184838Y116316D02*
X182690Y118464D01*
X179214Y110432D02*
X179114Y110332D01*
X179246Y118464D02*
X182690Y118464D01*
X179246Y118464D02*
X179114Y118332D01*
X179214Y110432D02*
X182922Y110432D01*
X184838Y112348D01*
X204564Y104074D02*
X204564Y100882D01*
X204564Y104074D02*
X204290Y104348D01*
X204290Y106680D01*
X204290Y108316D01*
X205930Y109956D01*
X209638Y109956D01*
X209654Y109972D01*
X186450Y106832D02*
X185864Y107418D01*
X185864Y107490D02*
X182922Y110432D01*
X185864Y107490D02*
X185864Y107418D01*
X204138Y106832D02*
X204290Y106680D01*
X204138Y106832D02*
X186450Y106832D01*
X165712Y101092D02*
X165712Y87376D01*
X165712Y101092D02*
X165712Y114300D01*
X165608Y114404D01*
X164488Y87376D02*
X160140Y83028D01*
X164488Y87376D02*
X165712Y87376D01*
D33*
X162052Y101092D03*
D35*
X165712Y101092D01*
D34*
X365220Y128120D02*
X365760Y128660D01*
D37*
X307340Y210820D02*
X306294Y210820D01*
X294102Y223012D01*
X226090Y223012D02*
X217155Y214077D01*
X226090Y223012D02*
X294102Y223012D01*
X349476Y163252D02*
X349476Y156788D01*
X307738Y210422D02*
X307340Y210820D01*
X307738Y210422D02*
X330569Y210422D01*
X343944Y168784D02*
X349476Y163252D01*
X349476Y156788D02*
X339344Y146656D01*
X343944Y197047D02*
X330569Y210422D01*
X343944Y197047D02*
X343944Y168784D01*
X368300Y131200D02*
X365760Y128660D01*
X368300Y131200D02*
X386080Y131200D01*
X383540Y128660D02*
X383540Y104140D01*
X383540Y128660D02*
X386080Y131200D01*
X184760Y147019D02*
X184760Y147320D01*
X330480Y128660D02*
X331464Y129644D01*
X339344Y129644D01*
X348488Y129644D01*
X339344Y129644D02*
X339344Y146656D01*
X348488Y129644D02*
X363696Y129644D01*
X365220Y128120D01*
X201676Y148980D02*
X200016Y147320D01*
X184760Y147320D01*
X209866Y183202D02*
X217155Y190491D01*
X202116Y149420D02*
X201676Y148980D01*
X202116Y149420D02*
X209866Y157170D01*
X209866Y183202D01*
X217155Y190491D02*
X217155Y214077D01*
D34*
X214456Y143176D02*
X221996Y143176D01*
X208212Y149420D02*
X202116Y149420D01*
X208212Y149420D02*
X214456Y143176D01*
X192532Y89183D02*
X192532Y87780D01*
D37*
X165608Y127404D02*
X165608Y132080D01*
X180547Y147019D02*
X184760Y147019D01*
X180547Y147019D02*
X165608Y132080D01*
D35*
X186450Y125832D02*
X202678Y125832D01*
X204290Y120348D02*
X206438Y118200D01*
X209882Y118200D02*
X210014Y118332D01*
X209882Y118200D02*
X206438Y118200D01*
X182950Y122332D02*
X179114Y122332D01*
X182950Y122332D02*
X186450Y125832D01*
X202678Y125832D02*
X204290Y124220D01*
X204290Y120348D01*
X184564Y100882D02*
X184940Y100506D01*
X184940Y94766D01*
X190523Y89183D02*
X192532Y89183D01*
X190523Y89183D02*
X184940Y94766D01*
X218028Y110220D02*
X222504Y105744D01*
X218028Y110220D02*
X217959Y110220D01*
X215738Y116316D02*
X213590Y118464D01*
X210146Y118464D01*
X210014Y118332D01*
X215738Y112441D02*
X217959Y110220D01*
X215738Y112441D02*
X215738Y116316D01*
X179114Y122332D02*
X178738Y122708D01*
X175030Y122708D01*
X170334Y127404D02*
X165608Y127404D01*
X170334Y127404D02*
X175030Y122708D01*
X204828Y94488D02*
X216408Y94488D01*
X222504Y100584D01*
X222504Y105744D01*
X204828Y94488D02*
X198120Y87780D01*
X192532Y87780D01*
X213360Y81376D02*
X213360Y79756D01*
X213360Y81376D02*
X232644Y100660D01*
X238480Y100660D01*
D34*
X319480Y149660D02*
X319480Y155802D01*
X331860Y168182D02*
X331860Y169672D01*
X331860Y168182D02*
X319480Y155802D01*
X331860Y169672D02*
X331860Y179584D01*
X324500Y186944D01*
X312480Y157008D02*
X312480Y149660D01*
X303140Y166348D02*
X303140Y169672D01*
X303140Y166348D02*
X312480Y157008D01*
X303140Y169672D02*
X303140Y179584D01*
X310500Y186944D01*
X238480Y58660D02*
X228568Y58660D01*
X222278Y64950D01*
D33*
X222278Y64950D03*
X231140Y185420D03*
D34*
X232156Y185420D02*
X243332Y196596D01*
X232156Y185420D02*
X231140Y185420D01*
D33*
X243332Y196596D03*
D34*
X238480Y51660D02*
X237620Y50800D01*
X226060Y50800D01*
D33*
X226060Y50800D03*
X238760Y177800D03*
D34*
X251460Y190500D02*
X251460Y200660D01*
X251460Y190500D02*
X238760Y177800D01*
X256540Y205740D02*
X256540Y210820D01*
X256540Y205740D02*
X251460Y200660D01*
X330480Y121660D02*
X343160Y121660D01*
X350520Y114300D01*
X356220Y114300D01*
X368300Y112380D02*
X368300Y102872D01*
X368300Y112380D02*
X370220Y114300D01*
X368300Y94232D02*
X361952Y94232D01*
X354720Y101464D02*
X351028Y101464D01*
X354720Y101464D02*
X361952Y94232D01*
X337832Y114660D02*
X330480Y114660D01*
X337832Y114660D02*
X351028Y101464D01*
X222504Y122332D02*
X210014Y122332D01*
X222504Y122332D02*
X233268Y122332D01*
X233940Y121660D02*
X238480Y121660D01*
X233940Y121660D02*
X233268Y122332D01*
X222504Y122332D02*
X222504Y115744D01*
X229404Y128660D02*
X238480Y128660D01*
X229404Y128660D02*
X227076Y126332D01*
X221488Y126332D01*
X210014Y126332D01*
X221488Y126332D02*
X221996Y126840D01*
X221996Y133176D01*
D37*
X218440Y238760D02*
X233680Y254000D01*
X339160Y226060D02*
X363220Y202000D01*
X299720Y226060D02*
X271780Y254000D01*
X299720Y226060D02*
X339160Y226060D01*
X271780Y254000D02*
X233680Y254000D01*
D34*
X354720Y193500D02*
X363220Y202000D01*
D37*
X378460Y217240D01*
X390652Y217240D01*
D34*
X352124Y190904D02*
X352124Y180340D01*
X352124Y190904D02*
X363220Y202000D01*
D33*
X216442Y180478D03*
X169136Y55880D03*
D34*
X169136Y72336D01*
X170180Y73380D01*
X217424Y167560D02*
X217424Y179496D01*
X216442Y180478D01*
X238480Y137948D02*
X238480Y135660D01*
X238480Y137948D02*
X218868Y157560D01*
X217424Y157560D01*
X276860Y150280D02*
X277480Y149660D01*
X276860Y150280D02*
X276860Y162560D01*
D33*
X276860Y162560D03*
D35*
X179114Y114332D02*
X178738Y113956D01*
X175030Y113956D01*
X173390Y112316D01*
X178712Y99026D02*
X178712Y87376D01*
X173390Y104348D02*
X173390Y112316D01*
X173390Y104348D02*
X178712Y99026D01*
D37*
X184760Y181000D02*
X179070Y186690D01*
X179070Y222250D01*
X184760Y181000D02*
X184760Y173021D01*
X195580Y238760D02*
X198440Y238760D01*
X195580Y238760D02*
X179070Y222250D01*
X165760Y185200D02*
X165760Y173021D01*
X165760Y185200D02*
X170180Y189620D01*
X176140Y189620D01*
X179070Y186690D01*
D34*
X284480Y174380D02*
X295470Y163390D01*
X296300Y162560D01*
X299720Y162560D01*
X305480Y156800D01*
X305480Y149660D01*
D33*
X391160Y180340D03*
X295470Y163390D03*
D34*
X362124Y180340D02*
X391160Y180340D01*
X271700Y171276D02*
X262128Y171276D01*
X271700Y171276D02*
X271780Y171196D01*
X281296Y171196D01*
X284480Y174380D01*
M02*
