G04 EAGLE Gerber RS-274X export*
G75*
%MOMM*%
%FSLAX34Y34*%
%LPD*%
%INSilkscreen Top*%
%IPPOS*%
%AMOC8*
5,1,8,0,0,1.08239X$1,22.5*%
G01*
%ADD10C,0.101600*%
%ADD11C,0.076200*%
%ADD12C,0.127000*%
%ADD13C,0.050800*%
%ADD14C,0.200000*%
%ADD15R,0.325000X0.425000*%
%ADD16R,0.350000X0.350000*%
%ADD17C,0.254000*%
%ADD18C,0.203200*%
%ADD19C,0.150000*%


D10*
X270877Y187960D02*
X268280Y187960D01*
X268181Y187962D01*
X268081Y187968D01*
X267982Y187977D01*
X267884Y187990D01*
X267786Y188007D01*
X267688Y188028D01*
X267592Y188053D01*
X267497Y188081D01*
X267403Y188113D01*
X267310Y188148D01*
X267218Y188187D01*
X267128Y188230D01*
X267040Y188275D01*
X266953Y188325D01*
X266869Y188377D01*
X266786Y188433D01*
X266706Y188491D01*
X266628Y188553D01*
X266553Y188618D01*
X266480Y188686D01*
X266410Y188756D01*
X266342Y188829D01*
X266277Y188904D01*
X266215Y188982D01*
X266157Y189062D01*
X266101Y189145D01*
X266049Y189229D01*
X265999Y189316D01*
X265954Y189404D01*
X265911Y189494D01*
X265872Y189586D01*
X265837Y189679D01*
X265805Y189773D01*
X265777Y189868D01*
X265752Y189964D01*
X265731Y190062D01*
X265714Y190160D01*
X265701Y190258D01*
X265692Y190357D01*
X265686Y190457D01*
X265684Y190556D01*
X265684Y197048D01*
X265686Y197147D01*
X265692Y197247D01*
X265701Y197346D01*
X265714Y197444D01*
X265731Y197542D01*
X265752Y197640D01*
X265777Y197736D01*
X265805Y197831D01*
X265837Y197925D01*
X265872Y198018D01*
X265911Y198110D01*
X265954Y198200D01*
X265999Y198288D01*
X266049Y198375D01*
X266101Y198459D01*
X266157Y198542D01*
X266215Y198622D01*
X266277Y198700D01*
X266342Y198775D01*
X266410Y198848D01*
X266480Y198918D01*
X266553Y198986D01*
X266628Y199051D01*
X266706Y199113D01*
X266786Y199171D01*
X266869Y199227D01*
X266953Y199279D01*
X267040Y199329D01*
X267128Y199374D01*
X267218Y199417D01*
X267310Y199456D01*
X267402Y199491D01*
X267497Y199523D01*
X267592Y199551D01*
X267688Y199576D01*
X267786Y199597D01*
X267884Y199614D01*
X267982Y199627D01*
X268081Y199636D01*
X268181Y199642D01*
X268280Y199644D01*
X270877Y199644D01*
X249936Y199644D02*
X249936Y187960D01*
X249936Y199644D02*
X253182Y199644D01*
X253295Y199642D01*
X253408Y199636D01*
X253521Y199626D01*
X253634Y199612D01*
X253746Y199595D01*
X253857Y199573D01*
X253967Y199548D01*
X254077Y199518D01*
X254185Y199485D01*
X254292Y199448D01*
X254398Y199408D01*
X254502Y199363D01*
X254605Y199315D01*
X254706Y199264D01*
X254805Y199209D01*
X254902Y199151D01*
X254997Y199089D01*
X255090Y199024D01*
X255180Y198956D01*
X255268Y198885D01*
X255354Y198810D01*
X255437Y198733D01*
X255517Y198653D01*
X255594Y198570D01*
X255669Y198484D01*
X255740Y198396D01*
X255808Y198306D01*
X255873Y198213D01*
X255935Y198118D01*
X255993Y198021D01*
X256048Y197922D01*
X256099Y197821D01*
X256147Y197718D01*
X256192Y197614D01*
X256232Y197508D01*
X256269Y197401D01*
X256302Y197293D01*
X256332Y197183D01*
X256357Y197073D01*
X256379Y196962D01*
X256396Y196850D01*
X256410Y196737D01*
X256420Y196624D01*
X256426Y196511D01*
X256428Y196398D01*
X256427Y196398D02*
X256427Y191206D01*
X256428Y191206D02*
X256426Y191093D01*
X256420Y190980D01*
X256410Y190867D01*
X256396Y190754D01*
X256379Y190642D01*
X256357Y190531D01*
X256332Y190421D01*
X256302Y190311D01*
X256269Y190203D01*
X256232Y190096D01*
X256192Y189990D01*
X256147Y189886D01*
X256099Y189783D01*
X256048Y189682D01*
X255993Y189583D01*
X255935Y189486D01*
X255873Y189391D01*
X255808Y189298D01*
X255740Y189208D01*
X255669Y189120D01*
X255594Y189034D01*
X255517Y188951D01*
X255437Y188871D01*
X255354Y188794D01*
X255268Y188719D01*
X255180Y188648D01*
X255090Y188580D01*
X254997Y188515D01*
X254902Y188453D01*
X254805Y188395D01*
X254706Y188340D01*
X254605Y188289D01*
X254502Y188241D01*
X254398Y188196D01*
X254292Y188156D01*
X254185Y188119D01*
X254077Y188086D01*
X253967Y188056D01*
X253857Y188031D01*
X253746Y188009D01*
X253634Y187992D01*
X253521Y187978D01*
X253408Y187968D01*
X253295Y187962D01*
X253182Y187960D01*
X249936Y187960D01*
D11*
X229602Y180264D02*
X229602Y178697D01*
X229602Y180264D02*
X234823Y180264D01*
X234823Y177131D01*
X234821Y177042D01*
X234815Y176954D01*
X234806Y176866D01*
X234793Y176778D01*
X234776Y176691D01*
X234756Y176605D01*
X234731Y176520D01*
X234704Y176435D01*
X234672Y176352D01*
X234638Y176271D01*
X234599Y176191D01*
X234558Y176113D01*
X234513Y176036D01*
X234465Y175962D01*
X234414Y175889D01*
X234360Y175819D01*
X234302Y175752D01*
X234242Y175686D01*
X234180Y175624D01*
X234114Y175564D01*
X234047Y175506D01*
X233977Y175452D01*
X233904Y175401D01*
X233830Y175353D01*
X233753Y175308D01*
X233675Y175267D01*
X233595Y175228D01*
X233514Y175194D01*
X233431Y175162D01*
X233346Y175135D01*
X233261Y175110D01*
X233175Y175090D01*
X233088Y175073D01*
X233000Y175060D01*
X232912Y175051D01*
X232824Y175045D01*
X232735Y175043D01*
X227513Y175043D01*
X227513Y175042D02*
X227422Y175044D01*
X227331Y175050D01*
X227240Y175060D01*
X227150Y175074D01*
X227061Y175092D01*
X226972Y175113D01*
X226885Y175139D01*
X226799Y175168D01*
X226714Y175201D01*
X226630Y175238D01*
X226548Y175278D01*
X226469Y175322D01*
X226391Y175369D01*
X226315Y175420D01*
X226241Y175474D01*
X226170Y175531D01*
X226102Y175591D01*
X226036Y175654D01*
X225973Y175720D01*
X225913Y175788D01*
X225856Y175859D01*
X225802Y175933D01*
X225751Y176009D01*
X225704Y176086D01*
X225660Y176166D01*
X225620Y176248D01*
X225583Y176332D01*
X225550Y176416D01*
X225521Y176503D01*
X225495Y176590D01*
X225474Y176679D01*
X225456Y176768D01*
X225442Y176858D01*
X225432Y176949D01*
X225426Y177040D01*
X225424Y177131D01*
X225425Y177131D02*
X225425Y180264D01*
X225425Y184796D02*
X234823Y184796D01*
X234823Y190017D02*
X225425Y184796D01*
X225425Y190017D02*
X234823Y190017D01*
X234823Y194550D02*
X225425Y194550D01*
X225425Y197160D01*
X225427Y197260D01*
X225433Y197360D01*
X225442Y197459D01*
X225456Y197559D01*
X225473Y197657D01*
X225494Y197755D01*
X225518Y197852D01*
X225547Y197948D01*
X225579Y198043D01*
X225614Y198136D01*
X225653Y198228D01*
X225696Y198319D01*
X225742Y198407D01*
X225792Y198494D01*
X225844Y198579D01*
X225900Y198662D01*
X225959Y198743D01*
X226022Y198821D01*
X226087Y198897D01*
X226155Y198971D01*
X226225Y199041D01*
X226299Y199109D01*
X226375Y199174D01*
X226453Y199237D01*
X226534Y199296D01*
X226617Y199352D01*
X226702Y199404D01*
X226789Y199454D01*
X226877Y199500D01*
X226968Y199543D01*
X227060Y199582D01*
X227153Y199617D01*
X227248Y199649D01*
X227344Y199678D01*
X227441Y199702D01*
X227539Y199723D01*
X227637Y199740D01*
X227737Y199754D01*
X227836Y199763D01*
X227936Y199769D01*
X228036Y199771D01*
X232212Y199771D01*
X232312Y199769D01*
X232412Y199763D01*
X232511Y199754D01*
X232611Y199740D01*
X232709Y199723D01*
X232807Y199702D01*
X232904Y199678D01*
X233000Y199649D01*
X233095Y199617D01*
X233188Y199582D01*
X233280Y199543D01*
X233371Y199500D01*
X233459Y199454D01*
X233546Y199404D01*
X233631Y199352D01*
X233714Y199296D01*
X233795Y199237D01*
X233873Y199174D01*
X233949Y199109D01*
X234023Y199041D01*
X234093Y198971D01*
X234161Y198897D01*
X234226Y198821D01*
X234289Y198743D01*
X234348Y198662D01*
X234404Y198579D01*
X234456Y198494D01*
X234506Y198407D01*
X234552Y198319D01*
X234595Y198228D01*
X234634Y198136D01*
X234669Y198043D01*
X234701Y197948D01*
X234730Y197852D01*
X234754Y197755D01*
X234775Y197657D01*
X234792Y197559D01*
X234806Y197459D01*
X234815Y197360D01*
X234821Y197260D01*
X234823Y197160D01*
X234823Y194550D01*
D12*
X298831Y236855D02*
X298831Y252349D01*
X303135Y252349D01*
X303265Y252347D01*
X303395Y252341D01*
X303525Y252331D01*
X303654Y252318D01*
X303783Y252300D01*
X303911Y252279D01*
X304038Y252253D01*
X304165Y252224D01*
X304291Y252191D01*
X304415Y252154D01*
X304539Y252114D01*
X304661Y252069D01*
X304782Y252021D01*
X304901Y251970D01*
X305019Y251915D01*
X305135Y251856D01*
X305249Y251794D01*
X305362Y251728D01*
X305472Y251659D01*
X305580Y251587D01*
X305686Y251512D01*
X305789Y251433D01*
X305890Y251351D01*
X305989Y251267D01*
X306085Y251179D01*
X306178Y251088D01*
X306269Y250995D01*
X306357Y250899D01*
X306441Y250800D01*
X306523Y250699D01*
X306602Y250596D01*
X306677Y250490D01*
X306749Y250382D01*
X306818Y250272D01*
X306884Y250159D01*
X306946Y250045D01*
X307005Y249929D01*
X307060Y249811D01*
X307111Y249692D01*
X307159Y249571D01*
X307204Y249449D01*
X307244Y249325D01*
X307281Y249201D01*
X307314Y249075D01*
X307343Y248948D01*
X307369Y248821D01*
X307390Y248693D01*
X307408Y248564D01*
X307421Y248435D01*
X307431Y248305D01*
X307437Y248175D01*
X307439Y248045D01*
X307437Y247915D01*
X307431Y247785D01*
X307421Y247655D01*
X307408Y247526D01*
X307390Y247397D01*
X307369Y247269D01*
X307343Y247142D01*
X307314Y247015D01*
X307281Y246889D01*
X307244Y246765D01*
X307204Y246641D01*
X307159Y246519D01*
X307111Y246398D01*
X307060Y246279D01*
X307005Y246161D01*
X306946Y246045D01*
X306884Y245931D01*
X306818Y245818D01*
X306749Y245708D01*
X306677Y245600D01*
X306602Y245494D01*
X306523Y245391D01*
X306441Y245290D01*
X306357Y245191D01*
X306269Y245095D01*
X306178Y245002D01*
X306085Y244911D01*
X305989Y244823D01*
X305890Y244739D01*
X305789Y244657D01*
X305686Y244578D01*
X305580Y244503D01*
X305472Y244431D01*
X305362Y244362D01*
X305249Y244296D01*
X305135Y244234D01*
X305019Y244175D01*
X304901Y244120D01*
X304782Y244069D01*
X304661Y244021D01*
X304539Y243976D01*
X304415Y243936D01*
X304291Y243899D01*
X304165Y243866D01*
X304038Y243837D01*
X303911Y243811D01*
X303783Y243790D01*
X303654Y243772D01*
X303525Y243759D01*
X303395Y243749D01*
X303265Y243743D01*
X303135Y243741D01*
X298831Y243741D01*
X303996Y243741D02*
X307439Y236855D01*
X316063Y236855D02*
X320367Y236855D01*
X316063Y236855D02*
X315964Y236857D01*
X315865Y236863D01*
X315767Y236872D01*
X315669Y236885D01*
X315571Y236902D01*
X315475Y236923D01*
X315379Y236947D01*
X315284Y236975D01*
X315190Y237007D01*
X315098Y237042D01*
X315007Y237081D01*
X314917Y237123D01*
X314830Y237169D01*
X314744Y237218D01*
X314660Y237270D01*
X314578Y237325D01*
X314498Y237384D01*
X314420Y237445D01*
X314345Y237509D01*
X314273Y237577D01*
X314203Y237647D01*
X314135Y237719D01*
X314071Y237794D01*
X314010Y237872D01*
X313951Y237952D01*
X313896Y238034D01*
X313844Y238118D01*
X313795Y238204D01*
X313749Y238291D01*
X313707Y238381D01*
X313668Y238472D01*
X313633Y238564D01*
X313601Y238658D01*
X313573Y238753D01*
X313549Y238849D01*
X313528Y238945D01*
X313511Y239043D01*
X313498Y239141D01*
X313489Y239239D01*
X313483Y239338D01*
X313481Y239437D01*
X313481Y243741D01*
X313483Y243857D01*
X313489Y243973D01*
X313499Y244089D01*
X313512Y244205D01*
X313530Y244320D01*
X313551Y244434D01*
X313577Y244548D01*
X313606Y244660D01*
X313639Y244772D01*
X313676Y244882D01*
X313716Y244991D01*
X313760Y245099D01*
X313808Y245205D01*
X313859Y245309D01*
X313914Y245412D01*
X313972Y245513D01*
X314033Y245611D01*
X314098Y245708D01*
X314166Y245802D01*
X314237Y245894D01*
X314312Y245984D01*
X314389Y246071D01*
X314469Y246155D01*
X314552Y246236D01*
X314638Y246315D01*
X314726Y246391D01*
X314817Y246464D01*
X314910Y246533D01*
X315005Y246600D01*
X315103Y246663D01*
X315203Y246723D01*
X315304Y246779D01*
X315408Y246832D01*
X315513Y246882D01*
X315620Y246927D01*
X315728Y246970D01*
X315838Y247008D01*
X315949Y247043D01*
X316061Y247074D01*
X316174Y247101D01*
X316288Y247125D01*
X316403Y247144D01*
X316518Y247160D01*
X316634Y247172D01*
X316750Y247180D01*
X316866Y247184D01*
X316982Y247184D01*
X317098Y247180D01*
X317214Y247172D01*
X317330Y247160D01*
X317445Y247144D01*
X317560Y247125D01*
X317674Y247101D01*
X317787Y247074D01*
X317899Y247043D01*
X318010Y247008D01*
X318120Y246970D01*
X318228Y246927D01*
X318335Y246882D01*
X318440Y246832D01*
X318544Y246779D01*
X318646Y246723D01*
X318745Y246663D01*
X318843Y246600D01*
X318938Y246533D01*
X319031Y246464D01*
X319122Y246391D01*
X319210Y246315D01*
X319296Y246236D01*
X319379Y246155D01*
X319459Y246071D01*
X319536Y245984D01*
X319611Y245894D01*
X319682Y245802D01*
X319750Y245708D01*
X319815Y245611D01*
X319876Y245513D01*
X319934Y245412D01*
X319989Y245309D01*
X320040Y245205D01*
X320088Y245099D01*
X320132Y244991D01*
X320172Y244882D01*
X320209Y244772D01*
X320242Y244660D01*
X320271Y244548D01*
X320297Y244434D01*
X320318Y244320D01*
X320336Y244205D01*
X320349Y244089D01*
X320359Y243973D01*
X320365Y243857D01*
X320367Y243741D01*
X320367Y242020D01*
X313481Y242020D01*
X327656Y242880D02*
X331960Y241159D01*
X327656Y242881D02*
X327570Y242917D01*
X327485Y242958D01*
X327402Y243001D01*
X327321Y243049D01*
X327242Y243099D01*
X327165Y243153D01*
X327090Y243210D01*
X327018Y243270D01*
X326949Y243334D01*
X326882Y243400D01*
X326818Y243468D01*
X326757Y243540D01*
X326700Y243614D01*
X326645Y243690D01*
X326593Y243768D01*
X326545Y243849D01*
X326501Y243931D01*
X326459Y244016D01*
X326422Y244102D01*
X326388Y244189D01*
X326358Y244278D01*
X326331Y244368D01*
X326308Y244459D01*
X326289Y244551D01*
X326275Y244644D01*
X326263Y244737D01*
X326256Y244831D01*
X326253Y244924D01*
X326254Y245018D01*
X326259Y245112D01*
X326267Y245205D01*
X326280Y245298D01*
X326296Y245391D01*
X326317Y245482D01*
X326341Y245573D01*
X326369Y245663D01*
X326401Y245751D01*
X326436Y245838D01*
X326475Y245923D01*
X326517Y246007D01*
X326564Y246089D01*
X326613Y246168D01*
X326666Y246246D01*
X326722Y246321D01*
X326781Y246394D01*
X326843Y246465D01*
X326908Y246532D01*
X326976Y246597D01*
X327046Y246659D01*
X327119Y246718D01*
X327195Y246774D01*
X327272Y246827D01*
X327352Y246876D01*
X327434Y246922D01*
X327518Y246964D01*
X327603Y247003D01*
X327690Y247039D01*
X327778Y247070D01*
X327868Y247098D01*
X327959Y247122D01*
X328050Y247142D01*
X328143Y247159D01*
X328236Y247171D01*
X328329Y247180D01*
X328423Y247184D01*
X328517Y247185D01*
X328517Y247184D02*
X328752Y247178D01*
X328986Y247166D01*
X329221Y247149D01*
X329455Y247125D01*
X329688Y247097D01*
X329920Y247062D01*
X330152Y247022D01*
X330383Y246977D01*
X330612Y246926D01*
X330840Y246870D01*
X331067Y246808D01*
X331292Y246740D01*
X331516Y246667D01*
X331737Y246589D01*
X331957Y246506D01*
X332175Y246417D01*
X332390Y246323D01*
X331960Y241159D02*
X332046Y241123D01*
X332131Y241082D01*
X332214Y241039D01*
X332295Y240991D01*
X332374Y240941D01*
X332451Y240887D01*
X332526Y240830D01*
X332598Y240770D01*
X332667Y240706D01*
X332734Y240640D01*
X332798Y240572D01*
X332859Y240500D01*
X332916Y240426D01*
X332971Y240350D01*
X333023Y240272D01*
X333071Y240191D01*
X333115Y240109D01*
X333157Y240024D01*
X333194Y239938D01*
X333228Y239851D01*
X333258Y239762D01*
X333285Y239672D01*
X333308Y239581D01*
X333327Y239489D01*
X333341Y239396D01*
X333353Y239303D01*
X333360Y239209D01*
X333363Y239116D01*
X333362Y239022D01*
X333357Y238928D01*
X333349Y238835D01*
X333336Y238742D01*
X333320Y238649D01*
X333299Y238558D01*
X333275Y238467D01*
X333247Y238377D01*
X333215Y238289D01*
X333180Y238202D01*
X333141Y238117D01*
X333099Y238033D01*
X333052Y237951D01*
X333003Y237872D01*
X332950Y237794D01*
X332894Y237719D01*
X332835Y237646D01*
X332773Y237575D01*
X332708Y237508D01*
X332640Y237443D01*
X332570Y237381D01*
X332497Y237322D01*
X332421Y237266D01*
X332344Y237213D01*
X332264Y237164D01*
X332182Y237118D01*
X332098Y237076D01*
X332013Y237037D01*
X331926Y237001D01*
X331838Y236970D01*
X331748Y236942D01*
X331657Y236918D01*
X331566Y236898D01*
X331473Y236881D01*
X331380Y236869D01*
X331287Y236860D01*
X331193Y236856D01*
X331099Y236855D01*
X330753Y236865D01*
X330409Y236882D01*
X330064Y236907D01*
X329721Y236940D01*
X329378Y236982D01*
X329036Y237032D01*
X328696Y237089D01*
X328357Y237155D01*
X328019Y237229D01*
X327684Y237311D01*
X327351Y237400D01*
X327019Y237498D01*
X326691Y237603D01*
X326364Y237716D01*
X339812Y231690D02*
X339812Y247184D01*
X344116Y247184D01*
X344217Y247182D01*
X344319Y247176D01*
X344419Y247166D01*
X344520Y247152D01*
X344620Y247134D01*
X344719Y247113D01*
X344817Y247087D01*
X344914Y247058D01*
X345010Y247024D01*
X345104Y246987D01*
X345197Y246947D01*
X345288Y246903D01*
X345378Y246855D01*
X345465Y246804D01*
X345550Y246749D01*
X345634Y246691D01*
X345714Y246630D01*
X345793Y246565D01*
X345869Y246498D01*
X345942Y246428D01*
X346012Y246355D01*
X346079Y246279D01*
X346144Y246201D01*
X346205Y246120D01*
X346263Y246036D01*
X346318Y245951D01*
X346369Y245864D01*
X346417Y245774D01*
X346461Y245683D01*
X346501Y245590D01*
X346538Y245496D01*
X346572Y245400D01*
X346601Y245303D01*
X346627Y245205D01*
X346648Y245106D01*
X346666Y245006D01*
X346680Y244906D01*
X346690Y244805D01*
X346696Y244703D01*
X346698Y244602D01*
X346699Y244602D02*
X346699Y239437D01*
X346698Y239437D02*
X346696Y239338D01*
X346690Y239239D01*
X346681Y239141D01*
X346668Y239043D01*
X346651Y238945D01*
X346630Y238849D01*
X346606Y238753D01*
X346578Y238658D01*
X346546Y238564D01*
X346511Y238472D01*
X346472Y238381D01*
X346430Y238291D01*
X346384Y238204D01*
X346335Y238118D01*
X346283Y238034D01*
X346228Y237952D01*
X346169Y237872D01*
X346108Y237794D01*
X346044Y237719D01*
X345976Y237647D01*
X345906Y237577D01*
X345834Y237509D01*
X345759Y237445D01*
X345681Y237384D01*
X345601Y237325D01*
X345519Y237270D01*
X345435Y237218D01*
X345349Y237169D01*
X345262Y237123D01*
X345172Y237081D01*
X345081Y237042D01*
X344989Y237007D01*
X344895Y236975D01*
X344800Y236947D01*
X344704Y236923D01*
X344608Y236902D01*
X344510Y236885D01*
X344412Y236872D01*
X344314Y236863D01*
X344215Y236857D01*
X344116Y236855D01*
X339812Y236855D01*
X352602Y236855D02*
X352602Y247184D01*
X352172Y251488D02*
X352172Y252349D01*
X353032Y252349D01*
X353032Y251488D01*
X352172Y251488D01*
X359148Y247184D02*
X359148Y236855D01*
X359148Y247184D02*
X364312Y247184D01*
X364312Y245463D01*
X369606Y252349D02*
X369606Y236855D01*
X369606Y245463D02*
X378213Y245463D01*
X378213Y252349D02*
X378213Y236855D01*
X384837Y240298D02*
X384837Y243741D01*
X384839Y243857D01*
X384845Y243973D01*
X384855Y244089D01*
X384868Y244205D01*
X384886Y244320D01*
X384907Y244434D01*
X384933Y244548D01*
X384962Y244660D01*
X384995Y244772D01*
X385032Y244882D01*
X385072Y244991D01*
X385116Y245099D01*
X385164Y245205D01*
X385215Y245309D01*
X385270Y245412D01*
X385328Y245513D01*
X385389Y245611D01*
X385454Y245708D01*
X385522Y245802D01*
X385593Y245894D01*
X385668Y245984D01*
X385745Y246071D01*
X385825Y246155D01*
X385908Y246236D01*
X385994Y246315D01*
X386082Y246391D01*
X386173Y246464D01*
X386266Y246533D01*
X386361Y246600D01*
X386459Y246663D01*
X386559Y246723D01*
X386660Y246779D01*
X386764Y246832D01*
X386869Y246882D01*
X386976Y246927D01*
X387084Y246970D01*
X387194Y247008D01*
X387305Y247043D01*
X387417Y247074D01*
X387530Y247101D01*
X387644Y247125D01*
X387759Y247144D01*
X387874Y247160D01*
X387990Y247172D01*
X388106Y247180D01*
X388222Y247184D01*
X388338Y247184D01*
X388454Y247180D01*
X388570Y247172D01*
X388686Y247160D01*
X388801Y247144D01*
X388916Y247125D01*
X389030Y247101D01*
X389143Y247074D01*
X389255Y247043D01*
X389366Y247008D01*
X389476Y246970D01*
X389584Y246927D01*
X389691Y246882D01*
X389796Y246832D01*
X389900Y246779D01*
X390002Y246723D01*
X390101Y246663D01*
X390199Y246600D01*
X390294Y246533D01*
X390387Y246464D01*
X390478Y246391D01*
X390566Y246315D01*
X390652Y246236D01*
X390735Y246155D01*
X390815Y246071D01*
X390892Y245984D01*
X390967Y245894D01*
X391038Y245802D01*
X391106Y245708D01*
X391171Y245611D01*
X391232Y245513D01*
X391290Y245412D01*
X391345Y245309D01*
X391396Y245205D01*
X391444Y245099D01*
X391488Y244991D01*
X391528Y244882D01*
X391565Y244772D01*
X391598Y244660D01*
X391627Y244548D01*
X391653Y244434D01*
X391674Y244320D01*
X391692Y244205D01*
X391705Y244089D01*
X391715Y243973D01*
X391721Y243857D01*
X391723Y243741D01*
X391723Y240298D01*
X391721Y240182D01*
X391715Y240066D01*
X391705Y239950D01*
X391692Y239834D01*
X391674Y239719D01*
X391653Y239605D01*
X391627Y239491D01*
X391598Y239379D01*
X391565Y239267D01*
X391528Y239157D01*
X391488Y239048D01*
X391444Y238940D01*
X391396Y238834D01*
X391345Y238730D01*
X391290Y238627D01*
X391232Y238526D01*
X391171Y238428D01*
X391106Y238331D01*
X391038Y238237D01*
X390967Y238145D01*
X390892Y238055D01*
X390815Y237968D01*
X390735Y237884D01*
X390652Y237803D01*
X390566Y237724D01*
X390478Y237648D01*
X390387Y237575D01*
X390294Y237506D01*
X390199Y237439D01*
X390101Y237376D01*
X390002Y237316D01*
X389900Y237260D01*
X389796Y237207D01*
X389691Y237157D01*
X389584Y237112D01*
X389476Y237069D01*
X389366Y237031D01*
X389255Y236996D01*
X389143Y236965D01*
X389030Y236938D01*
X388916Y236914D01*
X388801Y236895D01*
X388686Y236879D01*
X388570Y236867D01*
X388454Y236859D01*
X388338Y236855D01*
X388222Y236855D01*
X388106Y236859D01*
X387990Y236867D01*
X387874Y236879D01*
X387759Y236895D01*
X387644Y236914D01*
X387530Y236938D01*
X387417Y236965D01*
X387305Y236996D01*
X387194Y237031D01*
X387084Y237069D01*
X386976Y237112D01*
X386869Y237157D01*
X386764Y237207D01*
X386660Y237260D01*
X386559Y237316D01*
X386459Y237376D01*
X386361Y237439D01*
X386266Y237506D01*
X386173Y237575D01*
X386082Y237648D01*
X385994Y237724D01*
X385908Y237803D01*
X385825Y237884D01*
X385745Y237968D01*
X385668Y238055D01*
X385593Y238145D01*
X385522Y238237D01*
X385454Y238331D01*
X385389Y238428D01*
X385328Y238526D01*
X385270Y238627D01*
X385215Y238730D01*
X385164Y238834D01*
X385116Y238940D01*
X385072Y239048D01*
X385032Y239157D01*
X384995Y239267D01*
X384962Y239379D01*
X384933Y239491D01*
X384907Y239605D01*
X384886Y239719D01*
X384868Y239834D01*
X384855Y239950D01*
X384845Y240066D01*
X384839Y240182D01*
X384837Y240298D01*
X389141Y251058D02*
X386558Y254071D01*
D13*
X377908Y96266D02*
X376356Y95024D01*
X377908Y96266D02*
X377908Y90678D01*
X376356Y90678D02*
X379460Y90678D01*
X381593Y90678D02*
X381593Y90988D01*
X381904Y90988D01*
X381904Y90678D01*
X381593Y90678D01*
X384037Y92230D02*
X384039Y92307D01*
X384045Y92385D01*
X384054Y92461D01*
X384068Y92538D01*
X384085Y92613D01*
X384106Y92687D01*
X384131Y92761D01*
X384159Y92833D01*
X384191Y92903D01*
X384226Y92972D01*
X384265Y93039D01*
X384307Y93104D01*
X384352Y93167D01*
X384400Y93228D01*
X384451Y93286D01*
X384505Y93341D01*
X384562Y93394D01*
X384621Y93443D01*
X384683Y93490D01*
X384747Y93534D01*
X384813Y93574D01*
X384881Y93611D01*
X384951Y93645D01*
X385022Y93675D01*
X385095Y93701D01*
X385169Y93724D01*
X385244Y93743D01*
X385319Y93758D01*
X385396Y93770D01*
X385473Y93778D01*
X385550Y93782D01*
X385628Y93782D01*
X385705Y93778D01*
X385782Y93770D01*
X385859Y93758D01*
X385934Y93743D01*
X386009Y93724D01*
X386083Y93701D01*
X386156Y93675D01*
X386227Y93645D01*
X386297Y93611D01*
X386365Y93574D01*
X386431Y93534D01*
X386495Y93490D01*
X386557Y93443D01*
X386616Y93394D01*
X386673Y93341D01*
X386727Y93286D01*
X386778Y93228D01*
X386826Y93167D01*
X386871Y93104D01*
X386913Y93039D01*
X386952Y92972D01*
X386987Y92903D01*
X387019Y92833D01*
X387047Y92761D01*
X387072Y92687D01*
X387093Y92613D01*
X387110Y92538D01*
X387124Y92461D01*
X387133Y92385D01*
X387139Y92307D01*
X387141Y92230D01*
X387139Y92153D01*
X387133Y92075D01*
X387124Y91999D01*
X387110Y91922D01*
X387093Y91847D01*
X387072Y91773D01*
X387047Y91699D01*
X387019Y91627D01*
X386987Y91557D01*
X386952Y91488D01*
X386913Y91421D01*
X386871Y91356D01*
X386826Y91293D01*
X386778Y91232D01*
X386727Y91174D01*
X386673Y91119D01*
X386616Y91066D01*
X386557Y91017D01*
X386495Y90970D01*
X386431Y90926D01*
X386365Y90886D01*
X386297Y90849D01*
X386227Y90815D01*
X386156Y90785D01*
X386083Y90759D01*
X386009Y90736D01*
X385934Y90717D01*
X385859Y90702D01*
X385782Y90690D01*
X385705Y90682D01*
X385628Y90678D01*
X385550Y90678D01*
X385473Y90682D01*
X385396Y90690D01*
X385319Y90702D01*
X385244Y90717D01*
X385169Y90736D01*
X385095Y90759D01*
X385022Y90785D01*
X384951Y90815D01*
X384881Y90849D01*
X384813Y90886D01*
X384747Y90926D01*
X384683Y90970D01*
X384621Y91017D01*
X384562Y91066D01*
X384505Y91119D01*
X384451Y91174D01*
X384400Y91232D01*
X384352Y91293D01*
X384307Y91356D01*
X384265Y91421D01*
X384226Y91488D01*
X384191Y91557D01*
X384159Y91627D01*
X384131Y91699D01*
X384106Y91773D01*
X384085Y91847D01*
X384068Y91922D01*
X384054Y91999D01*
X384045Y92075D01*
X384039Y92153D01*
X384037Y92230D01*
X384347Y95024D02*
X384349Y95094D01*
X384355Y95163D01*
X384365Y95232D01*
X384378Y95300D01*
X384396Y95368D01*
X384417Y95434D01*
X384442Y95499D01*
X384470Y95563D01*
X384502Y95625D01*
X384537Y95685D01*
X384576Y95743D01*
X384618Y95798D01*
X384663Y95852D01*
X384711Y95902D01*
X384761Y95950D01*
X384815Y95995D01*
X384870Y96037D01*
X384928Y96076D01*
X384988Y96111D01*
X385050Y96143D01*
X385114Y96171D01*
X385179Y96196D01*
X385245Y96217D01*
X385313Y96235D01*
X385381Y96248D01*
X385450Y96258D01*
X385519Y96264D01*
X385589Y96266D01*
X385659Y96264D01*
X385728Y96258D01*
X385797Y96248D01*
X385865Y96235D01*
X385933Y96217D01*
X385999Y96196D01*
X386064Y96171D01*
X386128Y96143D01*
X386190Y96111D01*
X386250Y96076D01*
X386308Y96037D01*
X386363Y95995D01*
X386417Y95950D01*
X386467Y95902D01*
X386515Y95852D01*
X386560Y95798D01*
X386602Y95743D01*
X386641Y95685D01*
X386676Y95625D01*
X386708Y95563D01*
X386736Y95499D01*
X386761Y95434D01*
X386782Y95368D01*
X386800Y95300D01*
X386813Y95232D01*
X386823Y95163D01*
X386829Y95094D01*
X386831Y95024D01*
X386829Y94954D01*
X386823Y94885D01*
X386813Y94816D01*
X386800Y94748D01*
X386782Y94680D01*
X386761Y94614D01*
X386736Y94549D01*
X386708Y94485D01*
X386676Y94423D01*
X386641Y94363D01*
X386602Y94305D01*
X386560Y94250D01*
X386515Y94196D01*
X386467Y94146D01*
X386417Y94098D01*
X386363Y94053D01*
X386308Y94011D01*
X386250Y93972D01*
X386190Y93937D01*
X386128Y93905D01*
X386064Y93877D01*
X385999Y93852D01*
X385933Y93831D01*
X385865Y93813D01*
X385797Y93800D01*
X385728Y93790D01*
X385659Y93784D01*
X385589Y93782D01*
X385519Y93784D01*
X385450Y93790D01*
X385381Y93800D01*
X385313Y93813D01*
X385245Y93831D01*
X385179Y93852D01*
X385114Y93877D01*
X385050Y93905D01*
X384988Y93937D01*
X384928Y93972D01*
X384870Y94011D01*
X384815Y94053D01*
X384761Y94098D01*
X384711Y94146D01*
X384663Y94196D01*
X384618Y94250D01*
X384576Y94305D01*
X384537Y94363D01*
X384502Y94423D01*
X384470Y94485D01*
X384442Y94549D01*
X384417Y94614D01*
X384396Y94680D01*
X384378Y94748D01*
X384365Y94816D01*
X384355Y94885D01*
X384349Y94954D01*
X384347Y95024D01*
X389213Y96266D02*
X391075Y90678D01*
X392938Y96266D01*
X204718Y93218D02*
X204718Y89182D01*
X204719Y89182D02*
X204721Y89105D01*
X204727Y89027D01*
X204736Y88951D01*
X204750Y88874D01*
X204767Y88799D01*
X204788Y88725D01*
X204813Y88651D01*
X204841Y88579D01*
X204873Y88509D01*
X204908Y88440D01*
X204947Y88373D01*
X204989Y88308D01*
X205034Y88245D01*
X205082Y88184D01*
X205133Y88126D01*
X205187Y88071D01*
X205244Y88018D01*
X205303Y87969D01*
X205365Y87922D01*
X205429Y87878D01*
X205495Y87838D01*
X205563Y87801D01*
X205633Y87767D01*
X205704Y87737D01*
X205777Y87711D01*
X205851Y87688D01*
X205926Y87669D01*
X206001Y87654D01*
X206078Y87642D01*
X206155Y87634D01*
X206232Y87630D01*
X206310Y87630D01*
X206387Y87634D01*
X206464Y87642D01*
X206541Y87654D01*
X206616Y87669D01*
X206691Y87688D01*
X206765Y87711D01*
X206838Y87737D01*
X206909Y87767D01*
X206979Y87801D01*
X207047Y87838D01*
X207113Y87878D01*
X207177Y87922D01*
X207239Y87969D01*
X207298Y88018D01*
X207355Y88071D01*
X207409Y88126D01*
X207460Y88184D01*
X207508Y88245D01*
X207553Y88308D01*
X207595Y88373D01*
X207634Y88440D01*
X207669Y88509D01*
X207701Y88579D01*
X207729Y88651D01*
X207754Y88725D01*
X207775Y88799D01*
X207792Y88874D01*
X207806Y88951D01*
X207815Y89027D01*
X207821Y89105D01*
X207823Y89182D01*
X207823Y93218D01*
X211940Y93218D02*
X210077Y87630D01*
X213803Y87630D02*
X211940Y93218D01*
X213337Y89027D02*
X210543Y89027D01*
X216093Y87630D02*
X216093Y93218D01*
X217645Y93218D01*
X217722Y93216D01*
X217800Y93210D01*
X217876Y93201D01*
X217953Y93187D01*
X218028Y93170D01*
X218102Y93149D01*
X218176Y93124D01*
X218248Y93096D01*
X218318Y93064D01*
X218387Y93029D01*
X218454Y92990D01*
X218519Y92948D01*
X218582Y92903D01*
X218643Y92855D01*
X218701Y92804D01*
X218756Y92750D01*
X218809Y92693D01*
X218858Y92634D01*
X218905Y92572D01*
X218949Y92508D01*
X218989Y92442D01*
X219026Y92374D01*
X219060Y92304D01*
X219090Y92233D01*
X219116Y92160D01*
X219139Y92086D01*
X219158Y92011D01*
X219173Y91936D01*
X219185Y91859D01*
X219193Y91782D01*
X219197Y91705D01*
X219197Y91627D01*
X219193Y91550D01*
X219185Y91473D01*
X219173Y91396D01*
X219158Y91321D01*
X219139Y91246D01*
X219116Y91172D01*
X219090Y91099D01*
X219060Y91028D01*
X219026Y90958D01*
X218989Y90890D01*
X218949Y90824D01*
X218905Y90760D01*
X218858Y90698D01*
X218809Y90639D01*
X218756Y90582D01*
X218701Y90528D01*
X218643Y90477D01*
X218582Y90429D01*
X218519Y90384D01*
X218454Y90342D01*
X218387Y90303D01*
X218318Y90268D01*
X218248Y90236D01*
X218176Y90208D01*
X218102Y90183D01*
X218028Y90162D01*
X217953Y90145D01*
X217876Y90131D01*
X217800Y90122D01*
X217722Y90116D01*
X217645Y90114D01*
X216093Y90114D01*
X217956Y90114D02*
X219197Y87630D01*
X222730Y87630D02*
X222730Y93218D01*
X221178Y93218D02*
X224282Y93218D01*
D11*
X318386Y213431D02*
X320997Y215519D01*
X320997Y206121D01*
X323607Y206121D02*
X318386Y206121D01*
X327137Y206121D02*
X327137Y206643D01*
X327659Y206643D01*
X327659Y206121D01*
X327137Y206121D01*
X331187Y208732D02*
X331189Y208833D01*
X331195Y208934D01*
X331205Y209035D01*
X331218Y209135D01*
X331236Y209235D01*
X331257Y209334D01*
X331283Y209432D01*
X331312Y209529D01*
X331344Y209625D01*
X331381Y209719D01*
X331421Y209812D01*
X331465Y209904D01*
X331512Y209993D01*
X331563Y210081D01*
X331617Y210167D01*
X331674Y210250D01*
X331734Y210332D01*
X331798Y210410D01*
X331864Y210487D01*
X331934Y210560D01*
X332006Y210631D01*
X332081Y210699D01*
X332159Y210764D01*
X332239Y210826D01*
X332321Y210885D01*
X332406Y210941D01*
X332493Y210993D01*
X332581Y211042D01*
X332672Y211088D01*
X332764Y211129D01*
X332858Y211168D01*
X332953Y211202D01*
X333049Y211233D01*
X333147Y211260D01*
X333245Y211284D01*
X333345Y211303D01*
X333445Y211319D01*
X333545Y211331D01*
X333646Y211339D01*
X333747Y211343D01*
X333849Y211343D01*
X333950Y211339D01*
X334051Y211331D01*
X334151Y211319D01*
X334251Y211303D01*
X334351Y211284D01*
X334449Y211260D01*
X334547Y211233D01*
X334643Y211202D01*
X334738Y211168D01*
X334832Y211129D01*
X334924Y211088D01*
X335015Y211042D01*
X335104Y210993D01*
X335190Y210941D01*
X335275Y210885D01*
X335357Y210826D01*
X335437Y210764D01*
X335515Y210699D01*
X335590Y210631D01*
X335662Y210560D01*
X335732Y210487D01*
X335798Y210410D01*
X335862Y210332D01*
X335922Y210250D01*
X335979Y210167D01*
X336033Y210081D01*
X336084Y209993D01*
X336131Y209904D01*
X336175Y209812D01*
X336215Y209719D01*
X336252Y209625D01*
X336284Y209529D01*
X336313Y209432D01*
X336339Y209334D01*
X336360Y209235D01*
X336378Y209135D01*
X336391Y209035D01*
X336401Y208934D01*
X336407Y208833D01*
X336409Y208732D01*
X336407Y208631D01*
X336401Y208530D01*
X336391Y208429D01*
X336378Y208329D01*
X336360Y208229D01*
X336339Y208130D01*
X336313Y208032D01*
X336284Y207935D01*
X336252Y207839D01*
X336215Y207745D01*
X336175Y207652D01*
X336131Y207560D01*
X336084Y207471D01*
X336033Y207383D01*
X335979Y207297D01*
X335922Y207214D01*
X335862Y207132D01*
X335798Y207054D01*
X335732Y206977D01*
X335662Y206904D01*
X335590Y206833D01*
X335515Y206765D01*
X335437Y206700D01*
X335357Y206638D01*
X335275Y206579D01*
X335190Y206523D01*
X335103Y206471D01*
X335015Y206422D01*
X334924Y206376D01*
X334832Y206335D01*
X334738Y206296D01*
X334643Y206262D01*
X334547Y206231D01*
X334449Y206204D01*
X334351Y206180D01*
X334251Y206161D01*
X334151Y206145D01*
X334051Y206133D01*
X333950Y206125D01*
X333849Y206121D01*
X333747Y206121D01*
X333646Y206125D01*
X333545Y206133D01*
X333445Y206145D01*
X333345Y206161D01*
X333245Y206180D01*
X333147Y206204D01*
X333049Y206231D01*
X332953Y206262D01*
X332858Y206296D01*
X332764Y206335D01*
X332672Y206376D01*
X332581Y206422D01*
X332493Y206471D01*
X332406Y206523D01*
X332321Y206579D01*
X332239Y206638D01*
X332159Y206700D01*
X332081Y206765D01*
X332006Y206833D01*
X331934Y206904D01*
X331864Y206977D01*
X331798Y207054D01*
X331734Y207132D01*
X331674Y207214D01*
X331617Y207297D01*
X331563Y207383D01*
X331512Y207471D01*
X331465Y207560D01*
X331421Y207652D01*
X331381Y207745D01*
X331344Y207839D01*
X331312Y207935D01*
X331283Y208032D01*
X331257Y208130D01*
X331236Y208229D01*
X331218Y208329D01*
X331205Y208429D01*
X331195Y208530D01*
X331189Y208631D01*
X331187Y208732D01*
X331710Y213431D02*
X331712Y213521D01*
X331718Y213610D01*
X331727Y213700D01*
X331741Y213789D01*
X331758Y213877D01*
X331779Y213964D01*
X331804Y214051D01*
X331833Y214136D01*
X331865Y214220D01*
X331900Y214302D01*
X331940Y214383D01*
X331982Y214462D01*
X332028Y214539D01*
X332078Y214614D01*
X332130Y214687D01*
X332186Y214758D01*
X332244Y214826D01*
X332306Y214891D01*
X332370Y214954D01*
X332437Y215014D01*
X332506Y215071D01*
X332578Y215125D01*
X332652Y215176D01*
X332728Y215224D01*
X332806Y215268D01*
X332886Y215309D01*
X332968Y215347D01*
X333051Y215381D01*
X333136Y215411D01*
X333222Y215438D01*
X333308Y215461D01*
X333396Y215480D01*
X333485Y215495D01*
X333574Y215507D01*
X333663Y215515D01*
X333753Y215519D01*
X333843Y215519D01*
X333933Y215515D01*
X334022Y215507D01*
X334111Y215495D01*
X334200Y215480D01*
X334288Y215461D01*
X334374Y215438D01*
X334460Y215411D01*
X334545Y215381D01*
X334628Y215347D01*
X334710Y215309D01*
X334790Y215268D01*
X334868Y215224D01*
X334944Y215176D01*
X335018Y215125D01*
X335090Y215071D01*
X335159Y215014D01*
X335226Y214954D01*
X335290Y214891D01*
X335352Y214826D01*
X335410Y214758D01*
X335466Y214687D01*
X335518Y214614D01*
X335568Y214539D01*
X335614Y214462D01*
X335656Y214383D01*
X335696Y214302D01*
X335731Y214220D01*
X335763Y214136D01*
X335792Y214051D01*
X335817Y213964D01*
X335838Y213877D01*
X335855Y213789D01*
X335869Y213700D01*
X335878Y213610D01*
X335884Y213521D01*
X335886Y213431D01*
X335884Y213341D01*
X335878Y213252D01*
X335869Y213162D01*
X335855Y213073D01*
X335838Y212985D01*
X335817Y212898D01*
X335792Y212811D01*
X335763Y212726D01*
X335731Y212642D01*
X335696Y212560D01*
X335656Y212479D01*
X335614Y212400D01*
X335568Y212323D01*
X335518Y212248D01*
X335466Y212175D01*
X335410Y212104D01*
X335352Y212036D01*
X335290Y211971D01*
X335226Y211908D01*
X335159Y211848D01*
X335090Y211791D01*
X335018Y211737D01*
X334944Y211686D01*
X334868Y211638D01*
X334790Y211594D01*
X334710Y211553D01*
X334628Y211515D01*
X334545Y211481D01*
X334460Y211451D01*
X334374Y211424D01*
X334288Y211401D01*
X334200Y211382D01*
X334111Y211367D01*
X334022Y211355D01*
X333933Y211347D01*
X333843Y211343D01*
X333753Y211343D01*
X333663Y211347D01*
X333574Y211355D01*
X333485Y211367D01*
X333396Y211382D01*
X333308Y211401D01*
X333222Y211424D01*
X333136Y211451D01*
X333051Y211481D01*
X332968Y211515D01*
X332886Y211553D01*
X332806Y211594D01*
X332728Y211638D01*
X332652Y211686D01*
X332578Y211737D01*
X332506Y211791D01*
X332437Y211848D01*
X332370Y211908D01*
X332306Y211971D01*
X332244Y212036D01*
X332186Y212104D01*
X332130Y212175D01*
X332078Y212248D01*
X332028Y212323D01*
X331982Y212400D01*
X331940Y212479D01*
X331900Y212560D01*
X331865Y212642D01*
X331833Y212726D01*
X331804Y212811D01*
X331779Y212898D01*
X331758Y212985D01*
X331741Y213073D01*
X331727Y213162D01*
X331718Y213252D01*
X331712Y213341D01*
X331710Y213431D01*
X339810Y215519D02*
X342942Y206121D01*
X346075Y215519D01*
D14*
X367300Y86552D02*
X367302Y86615D01*
X367308Y86677D01*
X367318Y86739D01*
X367331Y86801D01*
X367349Y86861D01*
X367370Y86920D01*
X367395Y86978D01*
X367424Y87034D01*
X367456Y87088D01*
X367491Y87140D01*
X367529Y87189D01*
X367571Y87237D01*
X367615Y87281D01*
X367663Y87323D01*
X367712Y87361D01*
X367764Y87396D01*
X367818Y87428D01*
X367874Y87457D01*
X367932Y87482D01*
X367991Y87503D01*
X368051Y87521D01*
X368113Y87534D01*
X368175Y87544D01*
X368237Y87550D01*
X368300Y87552D01*
X368363Y87550D01*
X368425Y87544D01*
X368487Y87534D01*
X368549Y87521D01*
X368609Y87503D01*
X368668Y87482D01*
X368726Y87457D01*
X368782Y87428D01*
X368836Y87396D01*
X368888Y87361D01*
X368937Y87323D01*
X368985Y87281D01*
X369029Y87237D01*
X369071Y87189D01*
X369109Y87140D01*
X369144Y87088D01*
X369176Y87034D01*
X369205Y86978D01*
X369230Y86920D01*
X369251Y86861D01*
X369269Y86801D01*
X369282Y86739D01*
X369292Y86677D01*
X369298Y86615D01*
X369300Y86552D01*
X369298Y86489D01*
X369292Y86427D01*
X369282Y86365D01*
X369269Y86303D01*
X369251Y86243D01*
X369230Y86184D01*
X369205Y86126D01*
X369176Y86070D01*
X369144Y86016D01*
X369109Y85964D01*
X369071Y85915D01*
X369029Y85867D01*
X368985Y85823D01*
X368937Y85781D01*
X368888Y85743D01*
X368836Y85708D01*
X368782Y85676D01*
X368726Y85647D01*
X368668Y85622D01*
X368609Y85601D01*
X368549Y85583D01*
X368487Y85570D01*
X368425Y85560D01*
X368363Y85554D01*
X368300Y85552D01*
X368237Y85554D01*
X368175Y85560D01*
X368113Y85570D01*
X368051Y85583D01*
X367991Y85601D01*
X367932Y85622D01*
X367874Y85647D01*
X367818Y85676D01*
X367764Y85708D01*
X367712Y85743D01*
X367663Y85781D01*
X367615Y85823D01*
X367571Y85867D01*
X367529Y85915D01*
X367491Y85964D01*
X367456Y86016D01*
X367424Y86070D01*
X367395Y86126D01*
X367370Y86184D01*
X367349Y86243D01*
X367331Y86303D01*
X367318Y86365D01*
X367308Y86427D01*
X367302Y86489D01*
X367300Y86552D01*
D15*
X177055Y50255D03*
X163305Y50255D03*
D16*
X170180Y54130D03*
D12*
X234480Y-6340D02*
X334480Y-6340D01*
X234480Y-6340D02*
X234480Y153660D01*
X334480Y153660D01*
X334480Y-6340D01*
X209564Y130632D02*
X209564Y131332D01*
X208864Y131332D01*
D14*
X203564Y140332D02*
X203566Y140395D01*
X203572Y140457D01*
X203582Y140519D01*
X203595Y140581D01*
X203613Y140641D01*
X203634Y140700D01*
X203659Y140758D01*
X203688Y140814D01*
X203720Y140868D01*
X203755Y140920D01*
X203793Y140969D01*
X203835Y141017D01*
X203879Y141061D01*
X203927Y141103D01*
X203976Y141141D01*
X204028Y141176D01*
X204082Y141208D01*
X204138Y141237D01*
X204196Y141262D01*
X204255Y141283D01*
X204315Y141301D01*
X204377Y141314D01*
X204439Y141324D01*
X204501Y141330D01*
X204564Y141332D01*
X204627Y141330D01*
X204689Y141324D01*
X204751Y141314D01*
X204813Y141301D01*
X204873Y141283D01*
X204932Y141262D01*
X204990Y141237D01*
X205046Y141208D01*
X205100Y141176D01*
X205152Y141141D01*
X205201Y141103D01*
X205249Y141061D01*
X205293Y141017D01*
X205335Y140969D01*
X205373Y140920D01*
X205408Y140868D01*
X205440Y140814D01*
X205469Y140758D01*
X205494Y140700D01*
X205515Y140641D01*
X205533Y140581D01*
X205546Y140519D01*
X205556Y140457D01*
X205562Y140395D01*
X205564Y140332D01*
X205562Y140269D01*
X205556Y140207D01*
X205546Y140145D01*
X205533Y140083D01*
X205515Y140023D01*
X205494Y139964D01*
X205469Y139906D01*
X205440Y139850D01*
X205408Y139796D01*
X205373Y139744D01*
X205335Y139695D01*
X205293Y139647D01*
X205249Y139603D01*
X205201Y139561D01*
X205152Y139523D01*
X205100Y139488D01*
X205046Y139456D01*
X204990Y139427D01*
X204932Y139402D01*
X204873Y139381D01*
X204813Y139363D01*
X204751Y139350D01*
X204689Y139340D01*
X204627Y139334D01*
X204564Y139332D01*
X204501Y139334D01*
X204439Y139340D01*
X204377Y139350D01*
X204315Y139363D01*
X204255Y139381D01*
X204196Y139402D01*
X204138Y139427D01*
X204082Y139456D01*
X204028Y139488D01*
X203976Y139523D01*
X203927Y139561D01*
X203879Y139603D01*
X203835Y139647D01*
X203793Y139695D01*
X203755Y139744D01*
X203720Y139796D01*
X203688Y139850D01*
X203659Y139906D01*
X203634Y139964D01*
X203613Y140023D01*
X203595Y140083D01*
X203582Y140145D01*
X203572Y140207D01*
X203566Y140269D01*
X203564Y140332D01*
D12*
X180264Y131332D02*
X179564Y131332D01*
X179564Y130632D01*
X179564Y102032D02*
X179564Y101332D01*
X180264Y101332D01*
X208864Y101332D02*
X209564Y101332D01*
X209564Y102032D01*
D17*
X191262Y170180D03*
D18*
X162560Y164314D02*
X162560Y155726D01*
X187960Y155726D02*
X187960Y164314D01*
X177944Y152932D02*
X172576Y152932D01*
D19*
X312500Y178944D02*
X322500Y178944D01*
X322500Y194944D02*
X312500Y194944D01*
D18*
X384402Y223440D02*
X396902Y223440D01*
X396902Y214740D02*
X396902Y196740D01*
X384402Y196740D02*
X384402Y214740D01*
M02*
