G04 EAGLE Gerber RS-274X export*
G75*
%MOMM*%
%FSLAX34Y34*%
%LPD*%
%INSoldermask Top*%
%IPPOS*%
%AMOC8*
5,1,8,0,0,1.08239X$1,22.5*%
G01*
%ADD10C,1.473200*%
%ADD11C,3.248200*%
%ADD12R,1.203200X1.303200*%
%ADD13R,0.793200X0.833200*%
%ADD14R,1.103200X0.903200*%
%ADD15R,0.903200X1.103200*%
%ADD16C,2.082800*%
%ADD17R,1.053200X1.003200*%
%ADD18R,0.803200X0.743200*%
%ADD19R,1.703200X1.703200*%
%ADD20R,1.603200X1.003200*%
%ADD21R,1.603200X0.603200*%
%ADD22R,0.603200X1.603200*%
%ADD23R,1.203200X0.603200*%
%ADD24C,0.258150*%
%ADD25C,1.511200*%
%ADD26C,2.453200*%
%ADD27R,0.753200X1.403200*%
%ADD28R,1.703200X1.503200*%
%ADD29R,0.803200X1.303200*%
%ADD30R,1.033200X0.833200*%
%ADD31R,0.903200X0.803200*%
%ADD32R,0.803200X0.903200*%


D10*
X383540Y104140D03*
D11*
X198120Y52000D03*
X198120Y202000D03*
X363220Y202000D03*
X363220Y52000D03*
D12*
X284480Y174380D03*
X284480Y191380D03*
D13*
X323460Y169672D03*
X331860Y169672D03*
X311540Y169672D03*
X303140Y169672D03*
D14*
X165608Y114404D03*
X165608Y127404D03*
X192532Y74780D03*
X192532Y87780D03*
D15*
X165712Y87376D03*
X178712Y87376D03*
D12*
X365760Y145660D03*
X365760Y128660D03*
D16*
X231140Y210820D03*
X256540Y210820D03*
X281940Y210820D03*
X307340Y210820D03*
D17*
X370220Y114300D03*
X356220Y114300D03*
D18*
X368300Y102872D03*
X368300Y94232D03*
D19*
X170180Y38380D03*
X170180Y73380D03*
D20*
X330480Y35660D03*
D21*
X330480Y65660D03*
X330480Y72660D03*
X330480Y79660D03*
X330480Y86660D03*
X330480Y93660D03*
X330480Y100660D03*
X330480Y107660D03*
X330480Y114660D03*
X330480Y121660D03*
X330480Y128660D03*
D22*
X326480Y149660D03*
X319480Y149660D03*
X312480Y149660D03*
X305480Y149660D03*
X298480Y149660D03*
X291480Y149660D03*
X284480Y149660D03*
X277480Y149660D03*
X270480Y149660D03*
X263480Y149660D03*
X256480Y149660D03*
X249480Y149660D03*
X242480Y149660D03*
D21*
X238480Y128660D03*
X238480Y121660D03*
X238480Y114660D03*
X238480Y107660D03*
X238480Y100660D03*
X238480Y93660D03*
X238480Y86660D03*
X238480Y79660D03*
X238480Y72660D03*
X238480Y65660D03*
X238480Y58660D03*
X238480Y51660D03*
X238480Y44660D03*
D20*
X238480Y35660D03*
D23*
X255480Y41160D03*
X255480Y55160D03*
D21*
X238480Y135660D03*
D24*
X203739Y134707D02*
X203739Y128857D01*
X203739Y134707D02*
X205389Y134707D01*
X205389Y128857D01*
X203739Y128857D01*
X203739Y131310D02*
X205389Y131310D01*
X205389Y133763D02*
X203739Y133763D01*
X199739Y134707D02*
X199739Y128857D01*
X199739Y134707D02*
X201389Y134707D01*
X201389Y128857D01*
X199739Y128857D01*
X199739Y131310D02*
X201389Y131310D01*
X201389Y133763D02*
X199739Y133763D01*
X195739Y134707D02*
X195739Y128857D01*
X195739Y134707D02*
X197389Y134707D01*
X197389Y128857D01*
X195739Y128857D01*
X195739Y131310D02*
X197389Y131310D01*
X197389Y133763D02*
X195739Y133763D01*
X191739Y134707D02*
X191739Y128857D01*
X191739Y134707D02*
X193389Y134707D01*
X193389Y128857D01*
X191739Y128857D01*
X191739Y131310D02*
X193389Y131310D01*
X193389Y133763D02*
X191739Y133763D01*
X187739Y134707D02*
X187739Y128857D01*
X187739Y134707D02*
X189389Y134707D01*
X189389Y128857D01*
X187739Y128857D01*
X187739Y131310D02*
X189389Y131310D01*
X189389Y133763D02*
X187739Y133763D01*
X183739Y134707D02*
X183739Y128857D01*
X183739Y134707D02*
X185389Y134707D01*
X185389Y128857D01*
X183739Y128857D01*
X183739Y131310D02*
X185389Y131310D01*
X185389Y133763D02*
X183739Y133763D01*
X182039Y125507D02*
X176189Y125507D01*
X176189Y127157D01*
X182039Y127157D01*
X182039Y125507D01*
X182039Y121507D02*
X176189Y121507D01*
X176189Y123157D01*
X182039Y123157D01*
X182039Y121507D01*
X182039Y117507D02*
X176189Y117507D01*
X176189Y119157D01*
X182039Y119157D01*
X182039Y117507D01*
X182039Y113507D02*
X176189Y113507D01*
X176189Y115157D01*
X182039Y115157D01*
X182039Y113507D01*
X182039Y109507D02*
X176189Y109507D01*
X176189Y111157D01*
X182039Y111157D01*
X182039Y109507D01*
X182039Y105507D02*
X176189Y105507D01*
X176189Y107157D01*
X182039Y107157D01*
X182039Y105507D01*
X185389Y103807D02*
X185389Y97957D01*
X183739Y97957D01*
X183739Y103807D01*
X185389Y103807D01*
X185389Y100410D02*
X183739Y100410D01*
X183739Y102863D02*
X185389Y102863D01*
X189389Y103807D02*
X189389Y97957D01*
X187739Y97957D01*
X187739Y103807D01*
X189389Y103807D01*
X189389Y100410D02*
X187739Y100410D01*
X187739Y102863D02*
X189389Y102863D01*
X193389Y103807D02*
X193389Y97957D01*
X191739Y97957D01*
X191739Y103807D01*
X193389Y103807D01*
X193389Y100410D02*
X191739Y100410D01*
X191739Y102863D02*
X193389Y102863D01*
X197389Y103807D02*
X197389Y97957D01*
X195739Y97957D01*
X195739Y103807D01*
X197389Y103807D01*
X197389Y100410D02*
X195739Y100410D01*
X195739Y102863D02*
X197389Y102863D01*
X201389Y103807D02*
X201389Y97957D01*
X199739Y97957D01*
X199739Y103807D01*
X201389Y103807D01*
X201389Y100410D02*
X199739Y100410D01*
X199739Y102863D02*
X201389Y102863D01*
X205389Y103807D02*
X205389Y97957D01*
X203739Y97957D01*
X203739Y103807D01*
X205389Y103807D01*
X205389Y100410D02*
X203739Y100410D01*
X203739Y102863D02*
X205389Y102863D01*
X207089Y107157D02*
X212939Y107157D01*
X212939Y105507D01*
X207089Y105507D01*
X207089Y107157D01*
X207089Y111157D02*
X212939Y111157D01*
X212939Y109507D01*
X207089Y109507D01*
X207089Y111157D01*
X207089Y115157D02*
X212939Y115157D01*
X212939Y113507D01*
X207089Y113507D01*
X207089Y115157D01*
X207089Y119157D02*
X212939Y119157D01*
X212939Y117507D01*
X207089Y117507D01*
X207089Y119157D01*
X207089Y123157D02*
X212939Y123157D01*
X212939Y121507D01*
X207089Y121507D01*
X207089Y123157D01*
X207089Y127157D02*
X212939Y127157D01*
X212939Y125507D01*
X207089Y125507D01*
X207089Y127157D01*
D10*
X213360Y79756D03*
D25*
X218440Y238760D03*
X198440Y238760D03*
X238440Y238760D03*
D26*
X169940Y238760D03*
X266940Y238760D03*
D27*
X184760Y173021D03*
X175260Y173021D03*
X165760Y173021D03*
X165760Y147019D03*
X184760Y147019D03*
D12*
X170180Y206620D03*
X170180Y189620D03*
X201676Y165980D03*
X201676Y148980D03*
D28*
X386080Y148200D03*
X386080Y131200D03*
D29*
X310500Y186944D03*
X324500Y186944D03*
D30*
X390652Y217240D03*
X390652Y194240D03*
D14*
X348488Y129644D03*
X348488Y142644D03*
D31*
X262128Y181276D03*
X262128Y171276D03*
D32*
X362124Y180340D03*
X352124Y180340D03*
D31*
X217424Y167560D03*
X217424Y157560D03*
D12*
X351028Y84464D03*
X351028Y101464D03*
D31*
X222504Y115744D03*
X222504Y105744D03*
X221996Y133176D03*
X221996Y143176D03*
M02*
