G04 EAGLE Gerber RS-274X export*
G75*
%MOMM*%
%FSLAX34Y34*%
%LPD*%
%INSolderpaste Top*%
%IPPOS*%
%AMOC8*
5,1,8,0,0,1.08239X$1,22.5*%
G01*
%ADD10R,1.000000X1.100000*%
%ADD11R,0.590000X0.630000*%
%ADD12R,0.900000X0.700000*%
%ADD13R,0.700000X0.900000*%
%ADD14R,0.850000X0.800000*%
%ADD15R,0.600000X0.540000*%
%ADD16R,1.500000X1.500000*%
%ADD17R,1.400000X0.800000*%
%ADD18R,1.400000X0.400000*%
%ADD19R,0.400000X1.400000*%
%ADD20R,1.000000X0.400000*%
%ADD21C,0.055000*%
%ADD22R,0.550000X1.200000*%
%ADD23R,1.500000X1.300000*%
%ADD24R,0.600000X1.100000*%
%ADD25R,0.830000X0.630000*%
%ADD26R,0.700000X0.600000*%
%ADD27R,0.600000X0.700000*%


D10*
X284480Y174380D03*
X284480Y191380D03*
D11*
X323460Y169672D03*
X331860Y169672D03*
X311540Y169672D03*
X303140Y169672D03*
D12*
X165608Y114404D03*
X165608Y127404D03*
X192532Y74780D03*
X192532Y87780D03*
D13*
X165712Y87376D03*
X178712Y87376D03*
D10*
X365760Y145660D03*
X365760Y128660D03*
D14*
X370220Y114300D03*
X356220Y114300D03*
D15*
X368300Y102872D03*
X368300Y94232D03*
D16*
X170180Y38380D03*
X170180Y73380D03*
D17*
X330480Y35660D03*
D18*
X330480Y65660D03*
X330480Y72660D03*
X330480Y79660D03*
X330480Y86660D03*
X330480Y93660D03*
X330480Y100660D03*
X330480Y107660D03*
X330480Y114660D03*
X330480Y121660D03*
X330480Y128660D03*
D19*
X326480Y149660D03*
X319480Y149660D03*
X312480Y149660D03*
X305480Y149660D03*
X298480Y149660D03*
X291480Y149660D03*
X284480Y149660D03*
X277480Y149660D03*
X270480Y149660D03*
X263480Y149660D03*
X256480Y149660D03*
X249480Y149660D03*
X242480Y149660D03*
D18*
X238480Y128660D03*
X238480Y121660D03*
X238480Y114660D03*
X238480Y107660D03*
X238480Y100660D03*
X238480Y93660D03*
X238480Y86660D03*
X238480Y79660D03*
X238480Y72660D03*
X238480Y65660D03*
X238480Y58660D03*
X238480Y51660D03*
X238480Y44660D03*
D17*
X238480Y35660D03*
D20*
X255480Y41160D03*
X255480Y55160D03*
D18*
X238480Y135660D03*
D21*
X203739Y134707D02*
X203739Y128857D01*
X203739Y134707D02*
X205389Y134707D01*
X205389Y128857D01*
X203739Y128857D01*
X203739Y129379D02*
X205389Y129379D01*
X205389Y129901D02*
X203739Y129901D01*
X203739Y130423D02*
X205389Y130423D01*
X205389Y130945D02*
X203739Y130945D01*
X203739Y131467D02*
X205389Y131467D01*
X205389Y131989D02*
X203739Y131989D01*
X203739Y132511D02*
X205389Y132511D01*
X205389Y133033D02*
X203739Y133033D01*
X203739Y133555D02*
X205389Y133555D01*
X205389Y134077D02*
X203739Y134077D01*
X203739Y134599D02*
X205389Y134599D01*
X199739Y134707D02*
X199739Y128857D01*
X199739Y134707D02*
X201389Y134707D01*
X201389Y128857D01*
X199739Y128857D01*
X199739Y129379D02*
X201389Y129379D01*
X201389Y129901D02*
X199739Y129901D01*
X199739Y130423D02*
X201389Y130423D01*
X201389Y130945D02*
X199739Y130945D01*
X199739Y131467D02*
X201389Y131467D01*
X201389Y131989D02*
X199739Y131989D01*
X199739Y132511D02*
X201389Y132511D01*
X201389Y133033D02*
X199739Y133033D01*
X199739Y133555D02*
X201389Y133555D01*
X201389Y134077D02*
X199739Y134077D01*
X199739Y134599D02*
X201389Y134599D01*
X195739Y134707D02*
X195739Y128857D01*
X195739Y134707D02*
X197389Y134707D01*
X197389Y128857D01*
X195739Y128857D01*
X195739Y129379D02*
X197389Y129379D01*
X197389Y129901D02*
X195739Y129901D01*
X195739Y130423D02*
X197389Y130423D01*
X197389Y130945D02*
X195739Y130945D01*
X195739Y131467D02*
X197389Y131467D01*
X197389Y131989D02*
X195739Y131989D01*
X195739Y132511D02*
X197389Y132511D01*
X197389Y133033D02*
X195739Y133033D01*
X195739Y133555D02*
X197389Y133555D01*
X197389Y134077D02*
X195739Y134077D01*
X195739Y134599D02*
X197389Y134599D01*
X191739Y134707D02*
X191739Y128857D01*
X191739Y134707D02*
X193389Y134707D01*
X193389Y128857D01*
X191739Y128857D01*
X191739Y129379D02*
X193389Y129379D01*
X193389Y129901D02*
X191739Y129901D01*
X191739Y130423D02*
X193389Y130423D01*
X193389Y130945D02*
X191739Y130945D01*
X191739Y131467D02*
X193389Y131467D01*
X193389Y131989D02*
X191739Y131989D01*
X191739Y132511D02*
X193389Y132511D01*
X193389Y133033D02*
X191739Y133033D01*
X191739Y133555D02*
X193389Y133555D01*
X193389Y134077D02*
X191739Y134077D01*
X191739Y134599D02*
X193389Y134599D01*
X187739Y134707D02*
X187739Y128857D01*
X187739Y134707D02*
X189389Y134707D01*
X189389Y128857D01*
X187739Y128857D01*
X187739Y129379D02*
X189389Y129379D01*
X189389Y129901D02*
X187739Y129901D01*
X187739Y130423D02*
X189389Y130423D01*
X189389Y130945D02*
X187739Y130945D01*
X187739Y131467D02*
X189389Y131467D01*
X189389Y131989D02*
X187739Y131989D01*
X187739Y132511D02*
X189389Y132511D01*
X189389Y133033D02*
X187739Y133033D01*
X187739Y133555D02*
X189389Y133555D01*
X189389Y134077D02*
X187739Y134077D01*
X187739Y134599D02*
X189389Y134599D01*
X183739Y134707D02*
X183739Y128857D01*
X183739Y134707D02*
X185389Y134707D01*
X185389Y128857D01*
X183739Y128857D01*
X183739Y129379D02*
X185389Y129379D01*
X185389Y129901D02*
X183739Y129901D01*
X183739Y130423D02*
X185389Y130423D01*
X185389Y130945D02*
X183739Y130945D01*
X183739Y131467D02*
X185389Y131467D01*
X185389Y131989D02*
X183739Y131989D01*
X183739Y132511D02*
X185389Y132511D01*
X185389Y133033D02*
X183739Y133033D01*
X183739Y133555D02*
X185389Y133555D01*
X185389Y134077D02*
X183739Y134077D01*
X183739Y134599D02*
X185389Y134599D01*
X182039Y125507D02*
X176189Y125507D01*
X176189Y127157D01*
X182039Y127157D01*
X182039Y125507D01*
X182039Y126029D02*
X176189Y126029D01*
X176189Y126551D02*
X182039Y126551D01*
X182039Y127073D02*
X176189Y127073D01*
X176189Y121507D02*
X182039Y121507D01*
X176189Y121507D02*
X176189Y123157D01*
X182039Y123157D01*
X182039Y121507D01*
X182039Y122029D02*
X176189Y122029D01*
X176189Y122551D02*
X182039Y122551D01*
X182039Y123073D02*
X176189Y123073D01*
X176189Y117507D02*
X182039Y117507D01*
X176189Y117507D02*
X176189Y119157D01*
X182039Y119157D01*
X182039Y117507D01*
X182039Y118029D02*
X176189Y118029D01*
X176189Y118551D02*
X182039Y118551D01*
X182039Y119073D02*
X176189Y119073D01*
X176189Y113507D02*
X182039Y113507D01*
X176189Y113507D02*
X176189Y115157D01*
X182039Y115157D01*
X182039Y113507D01*
X182039Y114029D02*
X176189Y114029D01*
X176189Y114551D02*
X182039Y114551D01*
X182039Y115073D02*
X176189Y115073D01*
X176189Y109507D02*
X182039Y109507D01*
X176189Y109507D02*
X176189Y111157D01*
X182039Y111157D01*
X182039Y109507D01*
X182039Y110029D02*
X176189Y110029D01*
X176189Y110551D02*
X182039Y110551D01*
X182039Y111073D02*
X176189Y111073D01*
X176189Y105507D02*
X182039Y105507D01*
X176189Y105507D02*
X176189Y107157D01*
X182039Y107157D01*
X182039Y105507D01*
X182039Y106029D02*
X176189Y106029D01*
X176189Y106551D02*
X182039Y106551D01*
X182039Y107073D02*
X176189Y107073D01*
X185389Y103807D02*
X185389Y97957D01*
X183739Y97957D01*
X183739Y103807D01*
X185389Y103807D01*
X185389Y98479D02*
X183739Y98479D01*
X183739Y99001D02*
X185389Y99001D01*
X185389Y99523D02*
X183739Y99523D01*
X183739Y100045D02*
X185389Y100045D01*
X185389Y100567D02*
X183739Y100567D01*
X183739Y101089D02*
X185389Y101089D01*
X185389Y101611D02*
X183739Y101611D01*
X183739Y102133D02*
X185389Y102133D01*
X185389Y102655D02*
X183739Y102655D01*
X183739Y103177D02*
X185389Y103177D01*
X185389Y103699D02*
X183739Y103699D01*
X189389Y103807D02*
X189389Y97957D01*
X187739Y97957D01*
X187739Y103807D01*
X189389Y103807D01*
X189389Y98479D02*
X187739Y98479D01*
X187739Y99001D02*
X189389Y99001D01*
X189389Y99523D02*
X187739Y99523D01*
X187739Y100045D02*
X189389Y100045D01*
X189389Y100567D02*
X187739Y100567D01*
X187739Y101089D02*
X189389Y101089D01*
X189389Y101611D02*
X187739Y101611D01*
X187739Y102133D02*
X189389Y102133D01*
X189389Y102655D02*
X187739Y102655D01*
X187739Y103177D02*
X189389Y103177D01*
X189389Y103699D02*
X187739Y103699D01*
X193389Y103807D02*
X193389Y97957D01*
X191739Y97957D01*
X191739Y103807D01*
X193389Y103807D01*
X193389Y98479D02*
X191739Y98479D01*
X191739Y99001D02*
X193389Y99001D01*
X193389Y99523D02*
X191739Y99523D01*
X191739Y100045D02*
X193389Y100045D01*
X193389Y100567D02*
X191739Y100567D01*
X191739Y101089D02*
X193389Y101089D01*
X193389Y101611D02*
X191739Y101611D01*
X191739Y102133D02*
X193389Y102133D01*
X193389Y102655D02*
X191739Y102655D01*
X191739Y103177D02*
X193389Y103177D01*
X193389Y103699D02*
X191739Y103699D01*
X197389Y103807D02*
X197389Y97957D01*
X195739Y97957D01*
X195739Y103807D01*
X197389Y103807D01*
X197389Y98479D02*
X195739Y98479D01*
X195739Y99001D02*
X197389Y99001D01*
X197389Y99523D02*
X195739Y99523D01*
X195739Y100045D02*
X197389Y100045D01*
X197389Y100567D02*
X195739Y100567D01*
X195739Y101089D02*
X197389Y101089D01*
X197389Y101611D02*
X195739Y101611D01*
X195739Y102133D02*
X197389Y102133D01*
X197389Y102655D02*
X195739Y102655D01*
X195739Y103177D02*
X197389Y103177D01*
X197389Y103699D02*
X195739Y103699D01*
X201389Y103807D02*
X201389Y97957D01*
X199739Y97957D01*
X199739Y103807D01*
X201389Y103807D01*
X201389Y98479D02*
X199739Y98479D01*
X199739Y99001D02*
X201389Y99001D01*
X201389Y99523D02*
X199739Y99523D01*
X199739Y100045D02*
X201389Y100045D01*
X201389Y100567D02*
X199739Y100567D01*
X199739Y101089D02*
X201389Y101089D01*
X201389Y101611D02*
X199739Y101611D01*
X199739Y102133D02*
X201389Y102133D01*
X201389Y102655D02*
X199739Y102655D01*
X199739Y103177D02*
X201389Y103177D01*
X201389Y103699D02*
X199739Y103699D01*
X205389Y103807D02*
X205389Y97957D01*
X203739Y97957D01*
X203739Y103807D01*
X205389Y103807D01*
X205389Y98479D02*
X203739Y98479D01*
X203739Y99001D02*
X205389Y99001D01*
X205389Y99523D02*
X203739Y99523D01*
X203739Y100045D02*
X205389Y100045D01*
X205389Y100567D02*
X203739Y100567D01*
X203739Y101089D02*
X205389Y101089D01*
X205389Y101611D02*
X203739Y101611D01*
X203739Y102133D02*
X205389Y102133D01*
X205389Y102655D02*
X203739Y102655D01*
X203739Y103177D02*
X205389Y103177D01*
X205389Y103699D02*
X203739Y103699D01*
X207089Y107157D02*
X212939Y107157D01*
X212939Y105507D01*
X207089Y105507D01*
X207089Y107157D01*
X207089Y106029D02*
X212939Y106029D01*
X212939Y106551D02*
X207089Y106551D01*
X207089Y107073D02*
X212939Y107073D01*
X212939Y111157D02*
X207089Y111157D01*
X212939Y111157D02*
X212939Y109507D01*
X207089Y109507D01*
X207089Y111157D01*
X207089Y110029D02*
X212939Y110029D01*
X212939Y110551D02*
X207089Y110551D01*
X207089Y111073D02*
X212939Y111073D01*
X212939Y115157D02*
X207089Y115157D01*
X212939Y115157D02*
X212939Y113507D01*
X207089Y113507D01*
X207089Y115157D01*
X207089Y114029D02*
X212939Y114029D01*
X212939Y114551D02*
X207089Y114551D01*
X207089Y115073D02*
X212939Y115073D01*
X212939Y119157D02*
X207089Y119157D01*
X212939Y119157D02*
X212939Y117507D01*
X207089Y117507D01*
X207089Y119157D01*
X207089Y118029D02*
X212939Y118029D01*
X212939Y118551D02*
X207089Y118551D01*
X207089Y119073D02*
X212939Y119073D01*
X212939Y123157D02*
X207089Y123157D01*
X212939Y123157D02*
X212939Y121507D01*
X207089Y121507D01*
X207089Y123157D01*
X207089Y122029D02*
X212939Y122029D01*
X212939Y122551D02*
X207089Y122551D01*
X207089Y123073D02*
X212939Y123073D01*
X212939Y127157D02*
X207089Y127157D01*
X212939Y127157D02*
X212939Y125507D01*
X207089Y125507D01*
X207089Y127157D01*
X207089Y126029D02*
X212939Y126029D01*
X212939Y126551D02*
X207089Y126551D01*
X207089Y127073D02*
X212939Y127073D01*
D22*
X184760Y173021D03*
X175260Y173021D03*
X165760Y173021D03*
X165760Y147019D03*
X184760Y147019D03*
D10*
X170180Y206620D03*
X170180Y189620D03*
X201676Y165980D03*
X201676Y148980D03*
D23*
X386080Y148200D03*
X386080Y131200D03*
D24*
X310500Y186944D03*
X324500Y186944D03*
D25*
X390652Y217240D03*
X390652Y194240D03*
D12*
X348488Y129644D03*
X348488Y142644D03*
D26*
X262128Y181276D03*
X262128Y171276D03*
D27*
X362124Y180340D03*
X352124Y180340D03*
D26*
X217424Y167560D03*
X217424Y157560D03*
D10*
X351028Y84464D03*
X351028Y101464D03*
D26*
X222504Y115744D03*
X222504Y105744D03*
X221996Y133176D03*
X221996Y143176D03*
M02*
