G04 EAGLE Gerber RS-274X export*
G75*
%MOMM*%
%FSLAX34Y34*%
%LPD*%
%INTop Copper*%
%IPPOS*%
%AMOC8*
5,1,8,0,0,1.08239X$1,22.5*%
G01*
%ADD10C,1.270000*%
%ADD11C,3.045000*%
%ADD12R,1.000000X1.100000*%
%ADD13R,0.590000X0.630000*%
%ADD14R,0.700000X0.900000*%
%ADD15R,0.939800X0.660400*%
%ADD16C,1.879600*%
%ADD17R,0.850000X0.800000*%
%ADD18R,0.600000X0.540000*%
%ADD19R,1.500000X1.500000*%
%ADD20R,1.400000X0.800000*%
%ADD21R,1.400000X0.400000*%
%ADD22R,0.400000X1.400000*%
%ADD23R,1.000000X0.400000*%
%ADD24C,0.055000*%
%ADD25C,1.308000*%
%ADD26C,2.250000*%
%ADD27R,0.550000X1.200000*%
%ADD28R,1.100000X1.000000*%
%ADD29R,1.500000X1.300000*%
%ADD30R,0.600000X1.100000*%
%ADD31R,0.830000X0.630000*%
%ADD32R,0.900000X0.700000*%
%ADD33R,0.700000X0.600000*%
%ADD34R,0.600000X0.700000*%
%ADD35C,0.203200*%
%ADD36C,0.756400*%
%ADD37C,0.200000*%
%ADD38C,0.609600*%
%ADD39C,0.254000*%
%ADD40C,0.152400*%

G36*
X399406Y31766D02*
X399406Y31766D01*
X399525Y31773D01*
X399563Y31786D01*
X399604Y31791D01*
X399714Y31834D01*
X399827Y31871D01*
X399862Y31893D01*
X399899Y31908D01*
X399995Y31977D01*
X400096Y32041D01*
X400124Y32071D01*
X400157Y32094D01*
X400233Y32186D01*
X400314Y32273D01*
X400334Y32308D01*
X400359Y32339D01*
X400410Y32447D01*
X400468Y32551D01*
X400478Y32591D01*
X400495Y32627D01*
X400517Y32744D01*
X400547Y32859D01*
X400551Y32919D01*
X400555Y32939D01*
X400553Y32960D01*
X400557Y33020D01*
X400557Y254508D01*
X400542Y254626D01*
X400535Y254745D01*
X400522Y254783D01*
X400517Y254824D01*
X400474Y254934D01*
X400437Y255047D01*
X400415Y255082D01*
X400400Y255119D01*
X400331Y255215D01*
X400267Y255316D01*
X400237Y255344D01*
X400214Y255377D01*
X400122Y255453D01*
X400035Y255534D01*
X400000Y255554D01*
X399969Y255579D01*
X399861Y255630D01*
X399757Y255688D01*
X399717Y255698D01*
X399681Y255715D01*
X399564Y255737D01*
X399449Y255767D01*
X399389Y255771D01*
X399369Y255775D01*
X399348Y255773D01*
X399288Y255777D01*
X277738Y255777D01*
X277600Y255760D01*
X277461Y255747D01*
X277442Y255740D01*
X277422Y255737D01*
X277293Y255686D01*
X277162Y255639D01*
X277145Y255628D01*
X277127Y255620D01*
X277014Y255539D01*
X276899Y255461D01*
X276886Y255445D01*
X276869Y255434D01*
X276781Y255326D01*
X276688Y255222D01*
X276679Y255204D01*
X276666Y255189D01*
X276607Y255063D01*
X276544Y254939D01*
X276539Y254919D01*
X276531Y254901D01*
X276505Y254765D01*
X276474Y254629D01*
X276475Y254608D01*
X276471Y254589D01*
X276480Y254450D01*
X276484Y254311D01*
X276490Y254291D01*
X276491Y254271D01*
X276534Y254139D01*
X276572Y254005D01*
X276583Y253988D01*
X276589Y253969D01*
X276663Y253851D01*
X276734Y253731D01*
X276752Y253710D01*
X276759Y253700D01*
X276774Y253686D01*
X276840Y253611D01*
X300716Y229734D01*
X300795Y229674D01*
X300867Y229606D01*
X300920Y229577D01*
X300968Y229540D01*
X301059Y229500D01*
X301145Y229452D01*
X301204Y229437D01*
X301259Y229413D01*
X301357Y229398D01*
X301453Y229373D01*
X301553Y229367D01*
X301574Y229363D01*
X301586Y229365D01*
X301614Y229363D01*
X340528Y229363D01*
X342834Y227057D01*
X342834Y227056D01*
X352715Y217176D01*
X352738Y217158D01*
X352757Y217136D01*
X352863Y217061D01*
X352966Y216981D01*
X352993Y216970D01*
X353017Y216953D01*
X353138Y216907D01*
X353258Y216855D01*
X353287Y216850D01*
X353314Y216840D01*
X353443Y216825D01*
X353572Y216805D01*
X353601Y216808D01*
X353631Y216805D01*
X353759Y216823D01*
X353888Y216835D01*
X353916Y216845D01*
X353945Y216849D01*
X354098Y216901D01*
X359787Y219258D01*
X366653Y219258D01*
X372342Y216901D01*
X372371Y216893D01*
X372397Y216880D01*
X372524Y216851D01*
X372649Y216817D01*
X372679Y216817D01*
X372707Y216810D01*
X372837Y216814D01*
X372967Y216812D01*
X372996Y216819D01*
X373025Y216820D01*
X373150Y216856D01*
X373276Y216886D01*
X373302Y216900D01*
X373331Y216908D01*
X373442Y216974D01*
X373557Y217035D01*
X373579Y217055D01*
X373605Y217070D01*
X373725Y217176D01*
X374785Y218236D01*
X374786Y218236D01*
X377092Y220543D01*
X383254Y220543D01*
X383352Y220555D01*
X383451Y220558D01*
X383510Y220575D01*
X383570Y220583D01*
X383662Y220619D01*
X383757Y220647D01*
X383809Y220677D01*
X383865Y220700D01*
X383946Y220758D01*
X384031Y220808D01*
X384106Y220874D01*
X384123Y220886D01*
X384131Y220896D01*
X384152Y220914D01*
X385660Y222423D01*
X395644Y222423D01*
X396835Y221232D01*
X396835Y213248D01*
X395644Y212057D01*
X385660Y212057D01*
X384152Y213566D01*
X384073Y213626D01*
X384001Y213694D01*
X383948Y213723D01*
X383900Y213760D01*
X383810Y213800D01*
X383723Y213848D01*
X383664Y213863D01*
X383609Y213887D01*
X383511Y213902D01*
X383415Y213927D01*
X383315Y213933D01*
X383295Y213937D01*
X383282Y213935D01*
X383254Y213937D01*
X380354Y213937D01*
X380256Y213925D01*
X380157Y213922D01*
X380098Y213905D01*
X380038Y213897D01*
X379946Y213861D01*
X379851Y213833D01*
X379799Y213803D01*
X379743Y213780D01*
X379663Y213722D01*
X379577Y213672D01*
X379502Y213606D01*
X379485Y213594D01*
X379477Y213584D01*
X379456Y213566D01*
X378396Y212505D01*
X378378Y212482D01*
X378356Y212463D01*
X378281Y212357D01*
X378201Y212254D01*
X378190Y212227D01*
X378173Y212203D01*
X378126Y212081D01*
X378075Y211962D01*
X378070Y211933D01*
X378060Y211906D01*
X378045Y211777D01*
X378025Y211648D01*
X378028Y211619D01*
X378025Y211589D01*
X378043Y211461D01*
X378055Y211332D01*
X378065Y211304D01*
X378069Y211275D01*
X378121Y211122D01*
X380478Y205433D01*
X380478Y198567D01*
X377850Y192224D01*
X372996Y187370D01*
X369280Y185831D01*
X369220Y185796D01*
X369155Y185770D01*
X369082Y185718D01*
X369004Y185673D01*
X368954Y185625D01*
X368897Y185584D01*
X368840Y185514D01*
X368776Y185452D01*
X368739Y185392D01*
X368695Y185339D01*
X368656Y185257D01*
X368609Y185181D01*
X368589Y185114D01*
X368559Y185051D01*
X368542Y184963D01*
X368516Y184877D01*
X368512Y184807D01*
X368499Y184738D01*
X368505Y184649D01*
X368501Y184559D01*
X368515Y184491D01*
X368519Y184421D01*
X368547Y184336D01*
X368565Y184248D01*
X368596Y184185D01*
X368617Y184119D01*
X368665Y184043D01*
X368705Y183962D01*
X368750Y183909D01*
X368787Y183850D01*
X368853Y183788D01*
X368911Y183720D01*
X368968Y183680D01*
X369019Y183632D01*
X369097Y183589D01*
X369171Y183537D01*
X369236Y183512D01*
X369297Y183478D01*
X369384Y183456D01*
X369468Y183424D01*
X369538Y183416D01*
X369605Y183399D01*
X369766Y183389D01*
X385460Y183389D01*
X385558Y183401D01*
X385657Y183404D01*
X385715Y183421D01*
X385775Y183429D01*
X385867Y183465D01*
X385962Y183493D01*
X386015Y183523D01*
X386071Y183546D01*
X386151Y183604D01*
X386236Y183654D01*
X386312Y183720D01*
X386328Y183732D01*
X386336Y183742D01*
X386357Y183760D01*
X387866Y185270D01*
X389889Y186107D01*
X389950Y186142D01*
X390015Y186168D01*
X390056Y186198D01*
X390071Y186195D01*
X390186Y186165D01*
X390246Y186161D01*
X390266Y186157D01*
X390287Y186159D01*
X390347Y186155D01*
X390957Y186155D01*
X391075Y186170D01*
X391194Y186177D01*
X391232Y186190D01*
X391273Y186195D01*
X391383Y186238D01*
X391496Y186275D01*
X391531Y186297D01*
X391568Y186312D01*
X391664Y186381D01*
X391765Y186445D01*
X391793Y186475D01*
X391826Y186498D01*
X391878Y186562D01*
X391890Y186548D01*
X391938Y186472D01*
X391989Y186424D01*
X392032Y186370D01*
X392104Y186315D01*
X392169Y186254D01*
X392231Y186220D01*
X392286Y186178D01*
X392431Y186107D01*
X394454Y185270D01*
X396090Y183634D01*
X396975Y181497D01*
X396975Y179183D01*
X396090Y177046D01*
X394454Y175410D01*
X392317Y174525D01*
X390003Y174525D01*
X387866Y175410D01*
X386357Y176920D01*
X386279Y176980D01*
X386207Y177048D01*
X386154Y177077D01*
X386106Y177114D01*
X386015Y177154D01*
X385928Y177202D01*
X385870Y177217D01*
X385814Y177241D01*
X385716Y177256D01*
X385620Y177281D01*
X385520Y177287D01*
X385500Y177291D01*
X385488Y177289D01*
X385460Y177291D01*
X368426Y177291D01*
X368308Y177276D01*
X368189Y177269D01*
X368151Y177256D01*
X368110Y177251D01*
X368000Y177208D01*
X367887Y177171D01*
X367852Y177149D01*
X367815Y177134D01*
X367719Y177065D01*
X367618Y177001D01*
X367590Y176971D01*
X367557Y176948D01*
X367481Y176856D01*
X367400Y176769D01*
X367380Y176734D01*
X367355Y176703D01*
X367304Y176595D01*
X367246Y176491D01*
X367236Y176451D01*
X367219Y176415D01*
X367197Y176298D01*
X367167Y176183D01*
X367163Y176123D01*
X367159Y176103D01*
X367161Y176082D01*
X367157Y176022D01*
X367157Y175998D01*
X365966Y174807D01*
X358282Y174807D01*
X358022Y175068D01*
X357927Y175141D01*
X357838Y175220D01*
X357802Y175238D01*
X357770Y175263D01*
X357661Y175310D01*
X357555Y175364D01*
X357516Y175373D01*
X357478Y175389D01*
X357361Y175408D01*
X357245Y175434D01*
X357204Y175433D01*
X357164Y175439D01*
X357046Y175428D01*
X356927Y175424D01*
X356888Y175413D01*
X356848Y175409D01*
X356736Y175369D01*
X356621Y175336D01*
X356586Y175315D01*
X356548Y175302D01*
X356450Y175235D01*
X356347Y175174D01*
X356302Y175134D01*
X356285Y175123D01*
X356272Y175108D01*
X356227Y175068D01*
X355966Y174807D01*
X348516Y174807D01*
X348398Y174792D01*
X348279Y174785D01*
X348241Y174772D01*
X348200Y174767D01*
X348090Y174724D01*
X347977Y174687D01*
X347942Y174665D01*
X347905Y174650D01*
X347809Y174581D01*
X347708Y174517D01*
X347680Y174487D01*
X347647Y174464D01*
X347571Y174372D01*
X347490Y174285D01*
X347470Y174250D01*
X347445Y174219D01*
X347394Y174111D01*
X347336Y174007D01*
X347326Y173967D01*
X347309Y173931D01*
X347287Y173814D01*
X347257Y173699D01*
X347253Y173639D01*
X347249Y173619D01*
X347251Y173598D01*
X347247Y173538D01*
X347247Y170678D01*
X347259Y170579D01*
X347262Y170480D01*
X347279Y170422D01*
X347287Y170362D01*
X347323Y170270D01*
X347351Y170175D01*
X347381Y170123D01*
X347404Y170066D01*
X347462Y169986D01*
X347512Y169901D01*
X347578Y169826D01*
X347590Y169809D01*
X347600Y169801D01*
X347618Y169780D01*
X352779Y164620D01*
X352779Y155420D01*
X348210Y150851D01*
X348125Y150742D01*
X348036Y150635D01*
X348028Y150616D01*
X348015Y150600D01*
X347960Y150472D01*
X347901Y150347D01*
X347897Y150327D01*
X347889Y150308D01*
X347867Y150170D01*
X347841Y150034D01*
X347842Y150014D01*
X347839Y149994D01*
X347852Y149855D01*
X347861Y149717D01*
X347867Y149698D01*
X347869Y149678D01*
X347916Y149546D01*
X347959Y149415D01*
X347970Y149397D01*
X347976Y149378D01*
X348054Y149263D01*
X348129Y149146D01*
X348144Y149132D01*
X348155Y149115D01*
X348259Y149023D01*
X348360Y148928D01*
X348378Y148918D01*
X348393Y148905D01*
X348518Y148841D01*
X348639Y148774D01*
X348659Y148769D01*
X348677Y148760D01*
X348812Y148730D01*
X348947Y148695D01*
X348975Y148693D01*
X348987Y148690D01*
X349007Y148691D01*
X349108Y148685D01*
X353322Y148685D01*
X353969Y148512D01*
X354548Y148177D01*
X355021Y147704D01*
X355356Y147125D01*
X355529Y146478D01*
X355529Y144393D01*
X348968Y144393D01*
X348850Y144378D01*
X348731Y144371D01*
X348693Y144358D01*
X348653Y144353D01*
X348542Y144310D01*
X348429Y144273D01*
X348395Y144251D01*
X348357Y144236D01*
X348261Y144167D01*
X348160Y144103D01*
X348132Y144073D01*
X348100Y144050D01*
X348024Y143958D01*
X347942Y143871D01*
X347923Y143836D01*
X347897Y143805D01*
X347846Y143697D01*
X347789Y143593D01*
X347779Y143553D01*
X347761Y143517D01*
X347739Y143400D01*
X347709Y143285D01*
X347705Y143225D01*
X347702Y143205D01*
X347703Y143184D01*
X347699Y143124D01*
X347699Y142164D01*
X347714Y142046D01*
X347721Y141927D01*
X347734Y141889D01*
X347739Y141848D01*
X347783Y141738D01*
X347819Y141625D01*
X347841Y141590D01*
X347856Y141553D01*
X347926Y141456D01*
X347989Y141356D01*
X348019Y141328D01*
X348043Y141295D01*
X348134Y141219D01*
X348221Y141138D01*
X348256Y141118D01*
X348288Y141093D01*
X348395Y141042D01*
X348500Y140984D01*
X348539Y140974D01*
X348575Y140957D01*
X348692Y140935D01*
X348808Y140905D01*
X348868Y140901D01*
X348888Y140897D01*
X348908Y140899D01*
X348968Y140895D01*
X355529Y140895D01*
X355529Y138810D01*
X355356Y138163D01*
X355021Y137584D01*
X354548Y137111D01*
X354299Y136967D01*
X354199Y136891D01*
X354095Y136821D01*
X354073Y136795D01*
X354046Y136775D01*
X353968Y136676D01*
X353884Y136582D01*
X353869Y136552D01*
X353848Y136526D01*
X353797Y136411D01*
X353740Y136299D01*
X353732Y136266D01*
X353719Y136235D01*
X353698Y136111D01*
X353670Y135989D01*
X353671Y135955D01*
X353666Y135922D01*
X353676Y135796D01*
X353680Y135671D01*
X353689Y135638D01*
X353692Y135605D01*
X353733Y135486D01*
X353768Y135365D01*
X353785Y135336D01*
X353796Y135304D01*
X353866Y135200D01*
X353930Y135091D01*
X353962Y135055D01*
X353972Y135039D01*
X353988Y135025D01*
X354036Y134970D01*
X355050Y133956D01*
X355056Y133941D01*
X355061Y133900D01*
X355104Y133790D01*
X355141Y133677D01*
X355163Y133642D01*
X355178Y133605D01*
X355247Y133509D01*
X355311Y133408D01*
X355341Y133380D01*
X355364Y133347D01*
X355456Y133271D01*
X355543Y133190D01*
X355578Y133170D01*
X355609Y133145D01*
X355717Y133094D01*
X355821Y133036D01*
X355861Y133026D01*
X355897Y133009D01*
X356014Y132987D01*
X356129Y132957D01*
X356189Y132953D01*
X356209Y132949D01*
X356230Y132951D01*
X356290Y132947D01*
X357458Y132947D01*
X357576Y132962D01*
X357695Y132969D01*
X357733Y132982D01*
X357774Y132987D01*
X357884Y133030D01*
X357997Y133067D01*
X358032Y133089D01*
X358069Y133104D01*
X358165Y133173D01*
X358266Y133237D01*
X358294Y133267D01*
X358327Y133290D01*
X358403Y133382D01*
X358484Y133469D01*
X358504Y133504D01*
X358529Y133535D01*
X358580Y133643D01*
X358638Y133747D01*
X358648Y133787D01*
X358665Y133823D01*
X358687Y133940D01*
X358717Y134055D01*
X358721Y134115D01*
X358725Y134135D01*
X358723Y134156D01*
X358727Y134216D01*
X358727Y135002D01*
X359712Y135986D01*
X359789Y136086D01*
X359871Y136181D01*
X359886Y136211D01*
X359907Y136238D01*
X359957Y136353D01*
X360013Y136466D01*
X360020Y136499D01*
X360033Y136530D01*
X360053Y136654D01*
X360079Y136777D01*
X360078Y136810D01*
X360083Y136844D01*
X360071Y136969D01*
X360066Y137094D01*
X360056Y137127D01*
X360053Y137160D01*
X360011Y137279D01*
X359974Y137399D01*
X359957Y137428D01*
X359946Y137460D01*
X359875Y137564D01*
X359810Y137671D01*
X359786Y137695D01*
X359767Y137723D01*
X359673Y137806D01*
X359583Y137894D01*
X359542Y137921D01*
X359529Y137933D01*
X359509Y137943D01*
X359449Y137983D01*
X359200Y138127D01*
X358727Y138600D01*
X358392Y139179D01*
X358219Y139826D01*
X358219Y143161D01*
X364530Y143161D01*
X364648Y143176D01*
X364767Y143183D01*
X364805Y143195D01*
X364845Y143201D01*
X364956Y143244D01*
X365069Y143281D01*
X365103Y143303D01*
X365141Y143318D01*
X365237Y143387D01*
X365338Y143451D01*
X365366Y143481D01*
X365398Y143504D01*
X365474Y143596D01*
X365556Y143683D01*
X365575Y143718D01*
X365601Y143749D01*
X365652Y143857D01*
X365709Y143961D01*
X365719Y144001D01*
X365737Y144037D01*
X365757Y144144D01*
X365761Y144114D01*
X365805Y144004D01*
X365841Y143891D01*
X365863Y143856D01*
X365878Y143819D01*
X365948Y143722D01*
X366011Y143622D01*
X366041Y143594D01*
X366065Y143561D01*
X366156Y143485D01*
X366243Y143404D01*
X366278Y143384D01*
X366310Y143359D01*
X366417Y143308D01*
X366522Y143250D01*
X366561Y143240D01*
X366597Y143223D01*
X366714Y143201D01*
X366830Y143171D01*
X366890Y143167D01*
X366910Y143163D01*
X366930Y143165D01*
X366990Y143161D01*
X373301Y143161D01*
X373301Y139826D01*
X373128Y139179D01*
X372793Y138600D01*
X372320Y138127D01*
X372071Y137983D01*
X371971Y137907D01*
X371867Y137837D01*
X371845Y137811D01*
X371818Y137791D01*
X371740Y137692D01*
X371656Y137598D01*
X371641Y137568D01*
X371620Y137542D01*
X371569Y137427D01*
X371512Y137315D01*
X371504Y137282D01*
X371491Y137251D01*
X371470Y137127D01*
X371442Y137005D01*
X371443Y136971D01*
X371438Y136938D01*
X371448Y136812D01*
X371452Y136687D01*
X371461Y136654D01*
X371464Y136621D01*
X371505Y136502D01*
X371540Y136381D01*
X371557Y136352D01*
X371568Y136320D01*
X371638Y136216D01*
X371702Y136107D01*
X371734Y136071D01*
X371744Y136055D01*
X371760Y136041D01*
X371808Y135986D01*
X372920Y134874D01*
X372998Y134814D01*
X373071Y134746D01*
X373124Y134717D01*
X373172Y134680D01*
X373262Y134640D01*
X373349Y134592D01*
X373408Y134577D01*
X373463Y134553D01*
X373561Y134538D01*
X373657Y134513D01*
X373757Y134507D01*
X373777Y134503D01*
X373790Y134505D01*
X373818Y134503D01*
X375278Y134503D01*
X375396Y134518D01*
X375515Y134525D01*
X375553Y134538D01*
X375594Y134543D01*
X375704Y134586D01*
X375817Y134623D01*
X375852Y134645D01*
X375889Y134660D01*
X375985Y134729D01*
X376086Y134793D01*
X376114Y134823D01*
X376147Y134846D01*
X376223Y134938D01*
X376304Y135025D01*
X376324Y135060D01*
X376349Y135091D01*
X376400Y135199D01*
X376458Y135303D01*
X376468Y135343D01*
X376485Y135379D01*
X376507Y135496D01*
X376537Y135611D01*
X376541Y135671D01*
X376545Y135691D01*
X376543Y135712D01*
X376547Y135772D01*
X376547Y138567D01*
X376601Y138627D01*
X376619Y138663D01*
X376644Y138695D01*
X376691Y138804D01*
X376745Y138911D01*
X376754Y138950D01*
X376770Y138986D01*
X376789Y139104D01*
X376815Y139221D01*
X376813Y139261D01*
X376820Y139300D01*
X376809Y139419D01*
X376805Y139539D01*
X376794Y139577D01*
X376790Y139617D01*
X376750Y139729D01*
X376716Y139844D01*
X376696Y139879D01*
X376682Y139916D01*
X376635Y139986D01*
X376630Y139995D01*
X376212Y140719D01*
X376039Y141366D01*
X376039Y145661D01*
X384810Y145661D01*
X384928Y145676D01*
X385047Y145683D01*
X385085Y145696D01*
X385125Y145701D01*
X385236Y145744D01*
X385349Y145781D01*
X385384Y145803D01*
X385421Y145818D01*
X385517Y145888D01*
X385618Y145951D01*
X385646Y145981D01*
X385678Y146005D01*
X385754Y146096D01*
X385836Y146183D01*
X385855Y146218D01*
X385881Y146249D01*
X385932Y146357D01*
X385989Y146461D01*
X386000Y146501D01*
X386017Y146537D01*
X386039Y146654D01*
X386069Y146769D01*
X386073Y146830D01*
X386077Y146850D01*
X386075Y146870D01*
X386079Y146930D01*
X386079Y148201D01*
X386081Y148201D01*
X386081Y146930D01*
X386096Y146812D01*
X386103Y146693D01*
X386116Y146655D01*
X386121Y146615D01*
X386165Y146504D01*
X386201Y146391D01*
X386223Y146356D01*
X386238Y146319D01*
X386308Y146223D01*
X386371Y146122D01*
X386401Y146094D01*
X386425Y146061D01*
X386516Y145986D01*
X386603Y145904D01*
X386638Y145884D01*
X386670Y145859D01*
X386777Y145808D01*
X386881Y145750D01*
X386921Y145740D01*
X386957Y145723D01*
X387074Y145701D01*
X387189Y145671D01*
X387250Y145667D01*
X387270Y145663D01*
X387290Y145665D01*
X387350Y145661D01*
X396121Y145661D01*
X396121Y141366D01*
X395948Y140719D01*
X395572Y140069D01*
X395560Y140055D01*
X395541Y140019D01*
X395517Y139988D01*
X395469Y139878D01*
X395415Y139772D01*
X395406Y139733D01*
X395390Y139696D01*
X395372Y139578D01*
X395345Y139461D01*
X395347Y139422D01*
X395340Y139382D01*
X395351Y139263D01*
X395355Y139143D01*
X395366Y139105D01*
X395370Y139065D01*
X395410Y138953D01*
X395443Y138838D01*
X395464Y138804D01*
X395477Y138766D01*
X395544Y138667D01*
X395605Y138564D01*
X395613Y138555D01*
X395613Y123858D01*
X394422Y122667D01*
X388112Y122667D01*
X387994Y122652D01*
X387875Y122645D01*
X387837Y122632D01*
X387796Y122627D01*
X387686Y122584D01*
X387573Y122547D01*
X387538Y122525D01*
X387501Y122510D01*
X387405Y122441D01*
X387304Y122377D01*
X387276Y122347D01*
X387243Y122324D01*
X387167Y122232D01*
X387086Y122145D01*
X387066Y122110D01*
X387041Y122079D01*
X386990Y121971D01*
X386932Y121867D01*
X386922Y121827D01*
X386905Y121791D01*
X386883Y121674D01*
X386853Y121559D01*
X386849Y121499D01*
X386845Y121479D01*
X386847Y121458D01*
X386843Y121398D01*
X386843Y112693D01*
X386846Y112664D01*
X386844Y112635D01*
X386866Y112507D01*
X386883Y112378D01*
X386893Y112350D01*
X386898Y112321D01*
X386952Y112203D01*
X387000Y112082D01*
X387017Y112058D01*
X387029Y112031D01*
X387110Y111930D01*
X387186Y111825D01*
X387209Y111806D01*
X387228Y111783D01*
X387331Y111705D01*
X387431Y111622D01*
X387458Y111609D01*
X387482Y111592D01*
X387626Y111521D01*
X388288Y111247D01*
X390647Y108888D01*
X391923Y105807D01*
X391923Y102473D01*
X390647Y99392D01*
X388288Y97033D01*
X385207Y95757D01*
X381873Y95757D01*
X378792Y97033D01*
X376433Y99392D01*
X375775Y100982D01*
X375740Y101043D01*
X375714Y101108D01*
X375662Y101180D01*
X375617Y101258D01*
X375569Y101309D01*
X375528Y101365D01*
X375458Y101422D01*
X375396Y101487D01*
X375336Y101523D01*
X375283Y101568D01*
X375201Y101606D01*
X375125Y101653D01*
X375058Y101674D01*
X374995Y101703D01*
X374907Y101720D01*
X374821Y101747D01*
X374751Y101750D01*
X374682Y101763D01*
X374593Y101758D01*
X374503Y101762D01*
X374435Y101748D01*
X374365Y101743D01*
X374280Y101716D01*
X374192Y101698D01*
X374129Y101667D01*
X374063Y101645D01*
X373987Y101597D01*
X373906Y101558D01*
X373853Y101513D01*
X373794Y101475D01*
X373732Y101410D01*
X373664Y101352D01*
X373624Y101294D01*
X373576Y101244D01*
X373533Y101165D01*
X373481Y101091D01*
X373456Y101026D01*
X373422Y100965D01*
X373400Y100878D01*
X373368Y100794D01*
X373360Y100725D01*
X373343Y100657D01*
X373333Y100496D01*
X373333Y99303D01*
X373300Y99266D01*
X373282Y99230D01*
X373257Y99198D01*
X373210Y99089D01*
X373156Y98983D01*
X373147Y98944D01*
X373131Y98906D01*
X373112Y98789D01*
X373086Y98673D01*
X373087Y98632D01*
X373081Y98592D01*
X373092Y98474D01*
X373096Y98355D01*
X373107Y98316D01*
X373111Y98276D01*
X373151Y98164D01*
X373184Y98049D01*
X373205Y98015D01*
X373218Y97976D01*
X373285Y97878D01*
X373333Y97798D01*
X373333Y90690D01*
X372142Y89499D01*
X364458Y89499D01*
X363267Y90690D01*
X363267Y91635D01*
X363255Y91734D01*
X363252Y91833D01*
X363235Y91891D01*
X363227Y91951D01*
X363191Y92043D01*
X363163Y92138D01*
X363133Y92190D01*
X363110Y92247D01*
X363052Y92327D01*
X363002Y92412D01*
X362936Y92487D01*
X362924Y92504D01*
X362914Y92512D01*
X362896Y92533D01*
X361304Y94125D01*
X361209Y94198D01*
X361120Y94277D01*
X361084Y94295D01*
X361052Y94320D01*
X360943Y94367D01*
X360837Y94421D01*
X360798Y94430D01*
X360760Y94446D01*
X360643Y94465D01*
X360527Y94491D01*
X360486Y94490D01*
X360446Y94496D01*
X360328Y94485D01*
X360209Y94481D01*
X360170Y94470D01*
X360130Y94466D01*
X360018Y94426D01*
X359903Y94393D01*
X359869Y94372D01*
X359830Y94359D01*
X359732Y94292D01*
X359629Y94231D01*
X359584Y94192D01*
X359567Y94180D01*
X359554Y94165D01*
X359509Y94125D01*
X358601Y93217D01*
X347519Y93217D01*
X346328Y94408D01*
X346328Y102696D01*
X347363Y103731D01*
X347436Y103825D01*
X347515Y103914D01*
X347533Y103950D01*
X347558Y103982D01*
X347605Y104091D01*
X347659Y104197D01*
X347668Y104237D01*
X347684Y104274D01*
X347703Y104391D01*
X347729Y104507D01*
X347728Y104548D01*
X347734Y104588D01*
X347723Y104706D01*
X347719Y104825D01*
X347708Y104864D01*
X347704Y104904D01*
X347664Y105017D01*
X347631Y105131D01*
X347610Y105166D01*
X347597Y105204D01*
X347530Y105302D01*
X347469Y105405D01*
X347429Y105450D01*
X347418Y105467D01*
X347403Y105480D01*
X347363Y105526D01*
X341679Y111209D01*
X341570Y111294D01*
X341463Y111383D01*
X341444Y111391D01*
X341428Y111404D01*
X341300Y111459D01*
X341175Y111518D01*
X341155Y111522D01*
X341136Y111530D01*
X340998Y111552D01*
X340862Y111578D01*
X340842Y111577D01*
X340822Y111580D01*
X340683Y111567D01*
X340545Y111558D01*
X340526Y111552D01*
X340506Y111550D01*
X340374Y111503D01*
X340243Y111460D01*
X340225Y111450D01*
X340206Y111443D01*
X340091Y111365D01*
X339974Y111290D01*
X339960Y111275D01*
X339943Y111264D01*
X339851Y111160D01*
X339756Y111059D01*
X339746Y111041D01*
X339733Y111026D01*
X339669Y110902D01*
X339602Y110780D01*
X339597Y110761D01*
X339588Y110742D01*
X339558Y110607D01*
X339523Y110472D01*
X339521Y110444D01*
X339518Y110432D01*
X339519Y110412D01*
X339513Y110311D01*
X339513Y104703D01*
X339510Y104697D01*
X339456Y104591D01*
X339447Y104551D01*
X339431Y104514D01*
X339412Y104397D01*
X339386Y104280D01*
X339387Y104240D01*
X339381Y104200D01*
X339392Y104082D01*
X339396Y103963D01*
X339407Y103924D01*
X339411Y103884D01*
X339451Y103771D01*
X339484Y103657D01*
X339505Y103622D01*
X339513Y103600D01*
X339513Y97703D01*
X339510Y97697D01*
X339456Y97591D01*
X339447Y97551D01*
X339431Y97514D01*
X339412Y97397D01*
X339386Y97280D01*
X339387Y97240D01*
X339381Y97200D01*
X339392Y97082D01*
X339396Y96963D01*
X339407Y96924D01*
X339411Y96884D01*
X339451Y96771D01*
X339484Y96657D01*
X339505Y96622D01*
X339513Y96600D01*
X339513Y90703D01*
X339510Y90697D01*
X339456Y90591D01*
X339447Y90551D01*
X339431Y90514D01*
X339412Y90397D01*
X339386Y90280D01*
X339387Y90240D01*
X339381Y90200D01*
X339392Y90082D01*
X339396Y89963D01*
X339407Y89924D01*
X339411Y89884D01*
X339451Y89771D01*
X339484Y89657D01*
X339505Y89622D01*
X339513Y89600D01*
X339513Y83703D01*
X339510Y83697D01*
X339456Y83591D01*
X339447Y83551D01*
X339431Y83514D01*
X339412Y83397D01*
X339386Y83280D01*
X339387Y83240D01*
X339381Y83200D01*
X339392Y83082D01*
X339396Y82963D01*
X339407Y82924D01*
X339411Y82884D01*
X339451Y82771D01*
X339484Y82657D01*
X339505Y82622D01*
X339513Y82600D01*
X339513Y76703D01*
X339510Y76697D01*
X339456Y76591D01*
X339447Y76551D01*
X339431Y76514D01*
X339412Y76397D01*
X339386Y76280D01*
X339387Y76240D01*
X339381Y76200D01*
X339392Y76082D01*
X339396Y75963D01*
X339407Y75924D01*
X339411Y75884D01*
X339451Y75771D01*
X339484Y75657D01*
X339505Y75622D01*
X339513Y75600D01*
X339513Y69703D01*
X339510Y69697D01*
X339456Y69591D01*
X339447Y69551D01*
X339431Y69514D01*
X339412Y69397D01*
X339386Y69280D01*
X339387Y69240D01*
X339381Y69200D01*
X339392Y69082D01*
X339396Y68963D01*
X339407Y68924D01*
X339411Y68884D01*
X339451Y68771D01*
X339484Y68657D01*
X339505Y68622D01*
X339513Y68600D01*
X339513Y62818D01*
X338322Y61627D01*
X322638Y61627D01*
X321447Y62818D01*
X321447Y68617D01*
X321450Y68623D01*
X321504Y68729D01*
X321513Y68768D01*
X321529Y68805D01*
X321548Y68923D01*
X321574Y69039D01*
X321573Y69080D01*
X321579Y69120D01*
X321568Y69238D01*
X321564Y69357D01*
X321553Y69396D01*
X321549Y69436D01*
X321509Y69548D01*
X321476Y69663D01*
X321455Y69697D01*
X321447Y69720D01*
X321447Y75617D01*
X321450Y75623D01*
X321504Y75729D01*
X321513Y75768D01*
X321529Y75805D01*
X321548Y75923D01*
X321574Y76039D01*
X321573Y76080D01*
X321579Y76120D01*
X321568Y76238D01*
X321564Y76357D01*
X321553Y76396D01*
X321549Y76436D01*
X321509Y76548D01*
X321476Y76663D01*
X321455Y76697D01*
X321447Y76720D01*
X321447Y82617D01*
X321450Y82623D01*
X321504Y82729D01*
X321513Y82768D01*
X321529Y82805D01*
X321548Y82923D01*
X321574Y83039D01*
X321573Y83080D01*
X321579Y83120D01*
X321568Y83238D01*
X321564Y83357D01*
X321553Y83396D01*
X321549Y83436D01*
X321509Y83548D01*
X321476Y83663D01*
X321455Y83697D01*
X321447Y83720D01*
X321447Y89617D01*
X321450Y89623D01*
X321504Y89729D01*
X321513Y89768D01*
X321529Y89805D01*
X321548Y89923D01*
X321574Y90039D01*
X321573Y90080D01*
X321579Y90120D01*
X321568Y90238D01*
X321564Y90357D01*
X321553Y90396D01*
X321549Y90436D01*
X321509Y90548D01*
X321476Y90663D01*
X321455Y90697D01*
X321447Y90720D01*
X321447Y96617D01*
X321450Y96623D01*
X321504Y96729D01*
X321513Y96768D01*
X321529Y96805D01*
X321548Y96923D01*
X321574Y97039D01*
X321573Y97080D01*
X321579Y97120D01*
X321568Y97238D01*
X321564Y97357D01*
X321553Y97396D01*
X321549Y97436D01*
X321509Y97548D01*
X321476Y97663D01*
X321455Y97697D01*
X321447Y97720D01*
X321447Y103617D01*
X321450Y103623D01*
X321504Y103729D01*
X321513Y103768D01*
X321529Y103805D01*
X321548Y103923D01*
X321574Y104039D01*
X321573Y104080D01*
X321579Y104120D01*
X321568Y104238D01*
X321564Y104357D01*
X321553Y104396D01*
X321549Y104436D01*
X321509Y104548D01*
X321476Y104663D01*
X321455Y104697D01*
X321447Y104720D01*
X321447Y110617D01*
X321450Y110623D01*
X321504Y110729D01*
X321513Y110768D01*
X321529Y110805D01*
X321548Y110923D01*
X321574Y111039D01*
X321573Y111080D01*
X321579Y111120D01*
X321568Y111238D01*
X321564Y111357D01*
X321553Y111396D01*
X321549Y111436D01*
X321509Y111548D01*
X321476Y111663D01*
X321455Y111697D01*
X321447Y111720D01*
X321447Y117617D01*
X321450Y117623D01*
X321504Y117729D01*
X321513Y117768D01*
X321529Y117805D01*
X321548Y117923D01*
X321574Y118039D01*
X321573Y118080D01*
X321579Y118120D01*
X321568Y118238D01*
X321564Y118357D01*
X321553Y118396D01*
X321549Y118436D01*
X321509Y118548D01*
X321476Y118663D01*
X321455Y118697D01*
X321447Y118720D01*
X321447Y124617D01*
X321450Y124623D01*
X321504Y124729D01*
X321513Y124768D01*
X321529Y124805D01*
X321548Y124923D01*
X321574Y125039D01*
X321573Y125080D01*
X321579Y125120D01*
X321568Y125238D01*
X321564Y125357D01*
X321553Y125396D01*
X321549Y125436D01*
X321509Y125548D01*
X321476Y125663D01*
X321455Y125697D01*
X321447Y125720D01*
X321447Y131502D01*
X322638Y132693D01*
X329316Y132693D01*
X329414Y132705D01*
X329513Y132708D01*
X329572Y132725D01*
X329632Y132733D01*
X329724Y132769D01*
X329819Y132797D01*
X329871Y132827D01*
X329927Y132850D01*
X330007Y132908D01*
X330074Y132947D01*
X334772Y132947D01*
X334890Y132962D01*
X335009Y132969D01*
X335047Y132982D01*
X335088Y132987D01*
X335198Y133030D01*
X335311Y133067D01*
X335346Y133089D01*
X335383Y133104D01*
X335479Y133173D01*
X335580Y133237D01*
X335608Y133267D01*
X335641Y133290D01*
X335717Y133382D01*
X335798Y133469D01*
X335818Y133504D01*
X335843Y133535D01*
X335894Y133643D01*
X335952Y133747D01*
X335962Y133787D01*
X335979Y133823D01*
X336001Y133940D01*
X336031Y134055D01*
X336035Y134115D01*
X336039Y134135D01*
X336037Y134156D01*
X336041Y134216D01*
X336041Y148024D01*
X345802Y157784D01*
X345862Y157863D01*
X345930Y157935D01*
X345952Y157974D01*
X345969Y157995D01*
X345976Y158009D01*
X345996Y158036D01*
X346036Y158127D01*
X346084Y158213D01*
X346098Y158268D01*
X346105Y158283D01*
X346106Y158288D01*
X346123Y158328D01*
X346138Y158426D01*
X346163Y158521D01*
X346169Y158621D01*
X346173Y158642D01*
X346171Y158654D01*
X346173Y158682D01*
X346173Y161358D01*
X346161Y161456D01*
X346158Y161555D01*
X346141Y161614D01*
X346133Y161674D01*
X346097Y161766D01*
X346069Y161861D01*
X346039Y161913D01*
X346016Y161969D01*
X345958Y162049D01*
X345908Y162135D01*
X345842Y162210D01*
X345830Y162227D01*
X345820Y162234D01*
X345802Y162256D01*
X340641Y167416D01*
X340641Y200234D01*
X340629Y200331D01*
X340626Y200431D01*
X340609Y200489D01*
X340601Y200549D01*
X340565Y200641D01*
X340537Y200736D01*
X340507Y200788D01*
X340484Y200845D01*
X340426Y200925D01*
X340376Y201010D01*
X340310Y201086D01*
X340298Y201102D01*
X340288Y201110D01*
X340270Y201131D01*
X334653Y206748D01*
X334575Y206808D01*
X334503Y206876D01*
X334450Y206905D01*
X334402Y206942D01*
X334311Y206982D01*
X334224Y207030D01*
X334166Y207045D01*
X334110Y207069D01*
X334012Y207084D01*
X333916Y207109D01*
X333816Y207115D01*
X333796Y207119D01*
X333784Y207117D01*
X333756Y207119D01*
X319028Y207119D01*
X318999Y207116D01*
X318969Y207118D01*
X318841Y207096D01*
X318712Y207079D01*
X318685Y207069D01*
X318656Y207064D01*
X318537Y207010D01*
X318417Y206962D01*
X318393Y206945D01*
X318366Y206933D01*
X318264Y206852D01*
X318159Y206776D01*
X318140Y206753D01*
X318117Y206734D01*
X318039Y206631D01*
X317956Y206531D01*
X317944Y206504D01*
X317926Y206480D01*
X317855Y206336D01*
X317031Y204345D01*
X313815Y201129D01*
X309614Y199389D01*
X305066Y199389D01*
X300865Y201129D01*
X297649Y204345D01*
X295909Y208546D01*
X295909Y208896D01*
X295897Y208995D01*
X295894Y209094D01*
X295877Y209152D01*
X295869Y209212D01*
X295833Y209304D01*
X295805Y209399D01*
X295775Y209451D01*
X295752Y209508D01*
X295694Y209588D01*
X295644Y209673D01*
X295578Y209748D01*
X295568Y209762D01*
X295566Y209765D01*
X295556Y209773D01*
X295538Y209794D01*
X295537Y209794D01*
X295428Y209879D01*
X295321Y209968D01*
X295302Y209976D01*
X295286Y209989D01*
X295158Y210044D01*
X295033Y210103D01*
X295013Y210107D01*
X294994Y210115D01*
X294856Y210137D01*
X294720Y210163D01*
X294700Y210162D01*
X294680Y210165D01*
X294541Y210152D01*
X294403Y210143D01*
X294384Y210137D01*
X294364Y210135D01*
X294232Y210088D01*
X294101Y210045D01*
X294083Y210034D01*
X294064Y210028D01*
X293949Y209949D01*
X293832Y209875D01*
X293818Y209860D01*
X293801Y209849D01*
X293709Y209745D01*
X293614Y209644D01*
X293604Y209626D01*
X293591Y209611D01*
X293527Y209487D01*
X293460Y209365D01*
X293455Y209345D01*
X293446Y209327D01*
X293416Y209192D01*
X293381Y209057D01*
X293379Y209029D01*
X293376Y209017D01*
X293377Y208997D01*
X293371Y208896D01*
X293371Y208546D01*
X291631Y204345D01*
X288873Y201587D01*
X288788Y201478D01*
X288699Y201371D01*
X288690Y201352D01*
X288678Y201336D01*
X288623Y201208D01*
X288564Y201083D01*
X288560Y201063D01*
X288552Y201044D01*
X288530Y200906D01*
X288504Y200770D01*
X288505Y200750D01*
X288502Y200730D01*
X288515Y200591D01*
X288524Y200453D01*
X288530Y200434D01*
X288532Y200414D01*
X288579Y200282D01*
X288622Y200151D01*
X288632Y200133D01*
X288639Y200114D01*
X288717Y199999D01*
X288792Y199882D01*
X288806Y199868D01*
X288818Y199851D01*
X288922Y199759D01*
X289023Y199664D01*
X289041Y199654D01*
X289056Y199641D01*
X289180Y199577D01*
X289302Y199510D01*
X289321Y199505D01*
X289339Y199496D01*
X289475Y199466D01*
X289610Y199431D01*
X289638Y199429D01*
X289650Y199426D01*
X289670Y199427D01*
X289770Y199421D01*
X289814Y199421D01*
X290461Y199248D01*
X291040Y198913D01*
X291513Y198440D01*
X291848Y197861D01*
X292021Y197214D01*
X292021Y193879D01*
X285710Y193879D01*
X285592Y193864D01*
X285473Y193857D01*
X285435Y193844D01*
X285395Y193839D01*
X285284Y193796D01*
X285171Y193759D01*
X285137Y193737D01*
X285099Y193722D01*
X285003Y193653D01*
X284902Y193589D01*
X284874Y193559D01*
X284842Y193536D01*
X284766Y193444D01*
X284684Y193357D01*
X284665Y193322D01*
X284639Y193291D01*
X284588Y193183D01*
X284531Y193079D01*
X284521Y193039D01*
X284503Y193003D01*
X284483Y192896D01*
X284479Y192926D01*
X284435Y193036D01*
X284399Y193149D01*
X284377Y193184D01*
X284362Y193221D01*
X284292Y193317D01*
X284229Y193418D01*
X284199Y193446D01*
X284175Y193479D01*
X284084Y193555D01*
X283997Y193636D01*
X283962Y193656D01*
X283930Y193681D01*
X283823Y193732D01*
X283718Y193790D01*
X283679Y193800D01*
X283643Y193817D01*
X283526Y193839D01*
X283410Y193869D01*
X283350Y193873D01*
X283330Y193877D01*
X283310Y193875D01*
X283250Y193879D01*
X276939Y193879D01*
X276939Y197214D01*
X277112Y197861D01*
X277458Y198460D01*
X277492Y198491D01*
X277553Y198582D01*
X277571Y198607D01*
X277575Y198611D01*
X277575Y198612D01*
X277620Y198669D01*
X277640Y198715D01*
X277667Y198756D01*
X277703Y198860D01*
X277746Y198961D01*
X277754Y199010D01*
X277770Y199057D01*
X277779Y199167D01*
X277796Y199275D01*
X277791Y199325D01*
X277795Y199374D01*
X277777Y199483D01*
X277766Y199592D01*
X277750Y199639D01*
X277741Y199688D01*
X277696Y199788D01*
X277659Y199891D01*
X277631Y199932D01*
X277610Y199978D01*
X277542Y200063D01*
X277480Y200154D01*
X277443Y200187D01*
X277412Y200226D01*
X277324Y200292D01*
X277242Y200365D01*
X277198Y200387D01*
X277158Y200417D01*
X277013Y200488D01*
X275465Y201129D01*
X272249Y204345D01*
X270509Y208546D01*
X270509Y213094D01*
X272249Y217295D01*
X272497Y217542D01*
X272582Y217652D01*
X272671Y217759D01*
X272680Y217778D01*
X272692Y217794D01*
X272747Y217921D01*
X272806Y218047D01*
X272810Y218067D01*
X272818Y218086D01*
X272840Y218223D01*
X272866Y218360D01*
X272865Y218380D01*
X272868Y218400D01*
X272855Y218539D01*
X272846Y218677D01*
X272840Y218696D01*
X272838Y218716D01*
X272791Y218848D01*
X272748Y218979D01*
X272738Y218996D01*
X272731Y219016D01*
X272653Y219131D01*
X272578Y219248D01*
X272564Y219262D01*
X272552Y219279D01*
X272448Y219371D01*
X272347Y219466D01*
X272329Y219476D01*
X272314Y219489D01*
X272190Y219553D01*
X272068Y219620D01*
X272049Y219625D01*
X272031Y219634D01*
X271894Y219664D01*
X271760Y219699D01*
X271732Y219701D01*
X271720Y219704D01*
X271700Y219703D01*
X271600Y219709D01*
X266880Y219709D01*
X266743Y219692D01*
X266604Y219679D01*
X266585Y219672D01*
X266565Y219669D01*
X266435Y219618D01*
X266305Y219571D01*
X266288Y219560D01*
X266269Y219552D01*
X266157Y219471D01*
X266042Y219393D01*
X266028Y219377D01*
X266012Y219366D01*
X265923Y219259D01*
X265831Y219154D01*
X265822Y219136D01*
X265809Y219121D01*
X265750Y218995D01*
X265687Y218871D01*
X265682Y218851D01*
X265674Y218833D01*
X265647Y218697D01*
X265617Y218561D01*
X265618Y218540D01*
X265614Y218521D01*
X265622Y218382D01*
X265627Y218243D01*
X265632Y218223D01*
X265634Y218203D01*
X265676Y218071D01*
X265715Y217937D01*
X265725Y217920D01*
X265732Y217901D01*
X265806Y217783D01*
X265877Y217663D01*
X265895Y217642D01*
X265902Y217632D01*
X265917Y217618D01*
X265983Y217542D01*
X266231Y217295D01*
X267971Y213094D01*
X267971Y208546D01*
X266231Y204345D01*
X263015Y201129D01*
X258814Y199389D01*
X255778Y199389D01*
X255660Y199374D01*
X255541Y199367D01*
X255503Y199354D01*
X255462Y199349D01*
X255352Y199306D01*
X255239Y199269D01*
X255204Y199247D01*
X255167Y199232D01*
X255071Y199163D01*
X254970Y199099D01*
X254942Y199069D01*
X254909Y199046D01*
X254833Y198954D01*
X254752Y198867D01*
X254732Y198832D01*
X254707Y198801D01*
X254656Y198693D01*
X254598Y198589D01*
X254588Y198549D01*
X254571Y198513D01*
X254549Y198396D01*
X254519Y198281D01*
X254515Y198221D01*
X254511Y198201D01*
X254513Y198180D01*
X254509Y198120D01*
X254509Y189237D01*
X244946Y179675D01*
X244886Y179597D01*
X244818Y179525D01*
X244789Y179472D01*
X244752Y179424D01*
X244712Y179333D01*
X244664Y179246D01*
X244649Y179187D01*
X244625Y179132D01*
X244610Y179034D01*
X244585Y178938D01*
X244579Y178838D01*
X244575Y178818D01*
X244577Y178805D01*
X244575Y178777D01*
X244575Y176643D01*
X243690Y174506D01*
X242054Y172870D01*
X239917Y171985D01*
X237603Y171985D01*
X235466Y172870D01*
X233830Y174506D01*
X232945Y176643D01*
X232945Y178336D01*
X232930Y178454D01*
X232923Y178573D01*
X232910Y178611D01*
X232905Y178652D01*
X232862Y178762D01*
X232825Y178875D01*
X232803Y178910D01*
X232788Y178947D01*
X232719Y179043D01*
X232655Y179144D01*
X232625Y179172D01*
X232602Y179205D01*
X232510Y179281D01*
X232423Y179362D01*
X232388Y179382D01*
X232357Y179407D01*
X232249Y179458D01*
X232145Y179516D01*
X232105Y179526D01*
X232069Y179543D01*
X231952Y179565D01*
X231837Y179595D01*
X231777Y179599D01*
X231757Y179603D01*
X231736Y179601D01*
X231676Y179605D01*
X229983Y179605D01*
X227846Y180490D01*
X226210Y182126D01*
X225325Y184263D01*
X225325Y186577D01*
X226210Y188714D01*
X227846Y190350D01*
X229983Y191235D01*
X232297Y191235D01*
X232477Y191160D01*
X232505Y191152D01*
X232531Y191139D01*
X232658Y191111D01*
X232783Y191076D01*
X232813Y191076D01*
X232842Y191069D01*
X232971Y191073D01*
X233101Y191071D01*
X233130Y191078D01*
X233160Y191079D01*
X233284Y191115D01*
X233411Y191145D01*
X233437Y191159D01*
X233465Y191167D01*
X233577Y191233D01*
X233692Y191294D01*
X233714Y191314D01*
X233739Y191329D01*
X233860Y191435D01*
X237146Y194721D01*
X237206Y194799D01*
X237274Y194871D01*
X237303Y194924D01*
X237340Y194972D01*
X237380Y195063D01*
X237428Y195150D01*
X237443Y195209D01*
X237467Y195264D01*
X237482Y195362D01*
X237507Y195458D01*
X237513Y195558D01*
X237517Y195578D01*
X237515Y195591D01*
X237517Y195619D01*
X237517Y197753D01*
X237732Y198272D01*
X237740Y198301D01*
X237754Y198328D01*
X237782Y198454D01*
X237816Y198579D01*
X237817Y198609D01*
X237823Y198638D01*
X237819Y198767D01*
X237821Y198897D01*
X237814Y198926D01*
X237814Y198956D01*
X237778Y199080D01*
X237747Y199206D01*
X237733Y199233D01*
X237725Y199261D01*
X237659Y199373D01*
X237599Y199487D01*
X237578Y199509D01*
X237563Y199535D01*
X237472Y199627D01*
X237385Y199723D01*
X237360Y199739D01*
X237339Y199760D01*
X237227Y199826D01*
X237119Y199897D01*
X237091Y199907D01*
X237065Y199922D01*
X236941Y199959D01*
X236818Y200001D01*
X236788Y200003D01*
X236760Y200011D01*
X236630Y200016D01*
X236501Y200026D01*
X236472Y200021D01*
X236442Y200022D01*
X236316Y199994D01*
X236188Y199971D01*
X236160Y199959D01*
X236131Y199953D01*
X235984Y199889D01*
X235723Y199756D01*
X233936Y199175D01*
X233679Y199135D01*
X233679Y209550D01*
X233664Y209668D01*
X233657Y209787D01*
X233644Y209825D01*
X233639Y209865D01*
X233596Y209976D01*
X233559Y210089D01*
X233537Y210123D01*
X233522Y210161D01*
X233452Y210257D01*
X233389Y210358D01*
X233359Y210386D01*
X233335Y210418D01*
X233244Y210494D01*
X233157Y210576D01*
X233122Y210595D01*
X233091Y210621D01*
X232983Y210672D01*
X232879Y210729D01*
X232839Y210740D01*
X232803Y210757D01*
X232686Y210779D01*
X232571Y210809D01*
X232510Y210813D01*
X232490Y210817D01*
X232470Y210815D01*
X232410Y210819D01*
X229870Y210819D01*
X229752Y210804D01*
X229633Y210797D01*
X229595Y210784D01*
X229554Y210779D01*
X229444Y210735D01*
X229331Y210699D01*
X229296Y210677D01*
X229259Y210662D01*
X229163Y210592D01*
X229062Y210529D01*
X229034Y210499D01*
X229001Y210475D01*
X228926Y210384D01*
X228844Y210297D01*
X228824Y210262D01*
X228799Y210230D01*
X228748Y210123D01*
X228690Y210018D01*
X228680Y209979D01*
X228663Y209943D01*
X228641Y209826D01*
X228611Y209711D01*
X228607Y209650D01*
X228603Y209630D01*
X228605Y209610D01*
X228601Y209550D01*
X228601Y199135D01*
X228344Y199175D01*
X226557Y199756D01*
X224883Y200609D01*
X223362Y201714D01*
X222624Y202452D01*
X222515Y202537D01*
X222408Y202626D01*
X222389Y202634D01*
X222373Y202647D01*
X222245Y202702D01*
X222120Y202761D01*
X222100Y202765D01*
X222081Y202773D01*
X221943Y202795D01*
X221807Y202821D01*
X221787Y202820D01*
X221767Y202823D01*
X221628Y202810D01*
X221490Y202801D01*
X221471Y202795D01*
X221451Y202793D01*
X221320Y202746D01*
X221188Y202703D01*
X221170Y202692D01*
X221151Y202685D01*
X221037Y202607D01*
X220919Y202533D01*
X220905Y202518D01*
X220888Y202507D01*
X220796Y202403D01*
X220701Y202301D01*
X220691Y202283D01*
X220678Y202268D01*
X220615Y202145D01*
X220547Y202023D01*
X220542Y202003D01*
X220533Y201985D01*
X220503Y201849D01*
X220468Y201715D01*
X220466Y201687D01*
X220463Y201675D01*
X220464Y201654D01*
X220458Y201554D01*
X220458Y191403D01*
X217350Y188295D01*
X217320Y188256D01*
X217283Y188223D01*
X217223Y188131D01*
X217155Y188044D01*
X217135Y187998D01*
X217108Y187957D01*
X217072Y187853D01*
X217029Y187752D01*
X217021Y187703D01*
X217005Y187656D01*
X216996Y187547D01*
X216979Y187438D01*
X216984Y187388D01*
X216980Y187339D01*
X216998Y187231D01*
X217009Y187121D01*
X217026Y187075D01*
X217034Y187026D01*
X217079Y186926D01*
X217116Y186822D01*
X217144Y186781D01*
X217165Y186736D01*
X217233Y186650D01*
X217295Y186559D01*
X217332Y186526D01*
X217363Y186487D01*
X217451Y186421D01*
X217533Y186349D01*
X217578Y186326D01*
X217617Y186296D01*
X217762Y186225D01*
X219736Y185408D01*
X221372Y183772D01*
X222257Y181635D01*
X222257Y179321D01*
X221351Y177134D01*
X221334Y177115D01*
X221316Y177079D01*
X221291Y177047D01*
X221244Y176938D01*
X221189Y176832D01*
X221180Y176792D01*
X221164Y176756D01*
X221146Y176638D01*
X221120Y176522D01*
X221121Y176481D01*
X221115Y176442D01*
X221126Y176323D01*
X221129Y176204D01*
X221141Y176165D01*
X221144Y176125D01*
X221185Y176013D01*
X221218Y175898D01*
X221238Y175863D01*
X221252Y175826D01*
X221319Y175727D01*
X221379Y175624D01*
X221419Y175579D01*
X221430Y175562D01*
X221446Y175549D01*
X221486Y175503D01*
X221773Y175216D01*
X222108Y174637D01*
X222281Y173990D01*
X222281Y171155D01*
X215470Y171155D01*
X215352Y171140D01*
X215233Y171133D01*
X215195Y171120D01*
X215155Y171115D01*
X215044Y171072D01*
X214931Y171035D01*
X214897Y171013D01*
X214859Y170998D01*
X214763Y170929D01*
X214662Y170865D01*
X214634Y170835D01*
X214602Y170812D01*
X214526Y170720D01*
X214444Y170633D01*
X214425Y170598D01*
X214399Y170567D01*
X214348Y170459D01*
X214291Y170355D01*
X214281Y170315D01*
X214263Y170279D01*
X214241Y170162D01*
X214211Y170047D01*
X214207Y169987D01*
X214204Y169967D01*
X214205Y169946D01*
X214201Y169886D01*
X214201Y168695D01*
X213010Y168695D01*
X212892Y168680D01*
X212773Y168673D01*
X212735Y168660D01*
X212694Y168655D01*
X212584Y168611D01*
X212471Y168575D01*
X212436Y168553D01*
X212399Y168538D01*
X212302Y168468D01*
X212202Y168405D01*
X212174Y168375D01*
X212141Y168351D01*
X212065Y168260D01*
X211984Y168173D01*
X211964Y168138D01*
X211939Y168106D01*
X211888Y167999D01*
X211830Y167894D01*
X211820Y167855D01*
X211803Y167819D01*
X211781Y167702D01*
X211751Y167586D01*
X211747Y167526D01*
X211743Y167506D01*
X211745Y167486D01*
X211741Y167426D01*
X211741Y161115D01*
X210518Y161115D01*
X210400Y161100D01*
X210281Y161093D01*
X210243Y161080D01*
X210202Y161075D01*
X210092Y161032D01*
X209979Y160995D01*
X209944Y160973D01*
X209907Y160958D01*
X209811Y160889D01*
X209710Y160825D01*
X209682Y160795D01*
X209649Y160772D01*
X209573Y160680D01*
X209492Y160593D01*
X209472Y160558D01*
X209447Y160527D01*
X209396Y160419D01*
X209338Y160315D01*
X209328Y160275D01*
X209311Y160239D01*
X209289Y160122D01*
X209259Y160007D01*
X209255Y159947D01*
X209251Y159927D01*
X209253Y159906D01*
X209249Y159846D01*
X209249Y155646D01*
X209264Y155528D01*
X209271Y155409D01*
X209284Y155371D01*
X209289Y155330D01*
X209332Y155220D01*
X209369Y155107D01*
X209391Y155072D01*
X209406Y155035D01*
X209475Y154939D01*
X209539Y154838D01*
X209569Y154810D01*
X209592Y154777D01*
X209684Y154701D01*
X209771Y154620D01*
X209806Y154600D01*
X209837Y154575D01*
X209945Y154524D01*
X210049Y154466D01*
X210089Y154456D01*
X210125Y154439D01*
X210242Y154417D01*
X210357Y154387D01*
X210417Y154383D01*
X210437Y154379D01*
X210458Y154381D01*
X210518Y154377D01*
X212202Y154377D01*
X212462Y154116D01*
X212557Y154043D01*
X212646Y153964D01*
X212682Y153946D01*
X212714Y153921D01*
X212823Y153874D01*
X212929Y153820D01*
X212968Y153811D01*
X213006Y153795D01*
X213123Y153776D01*
X213239Y153750D01*
X213280Y153751D01*
X213320Y153745D01*
X213438Y153756D01*
X213557Y153760D01*
X213596Y153771D01*
X213636Y153775D01*
X213748Y153815D01*
X213863Y153848D01*
X213898Y153869D01*
X213936Y153882D01*
X214034Y153949D01*
X214137Y154010D01*
X214182Y154050D01*
X214199Y154061D01*
X214212Y154076D01*
X214257Y154116D01*
X214518Y154377D01*
X222202Y154377D01*
X223393Y153186D01*
X223393Y146697D01*
X223405Y146598D01*
X223408Y146499D01*
X223425Y146441D01*
X223433Y146381D01*
X223469Y146289D01*
X223497Y146194D01*
X223527Y146142D01*
X223550Y146085D01*
X223608Y146005D01*
X223658Y145920D01*
X223724Y145845D01*
X223736Y145828D01*
X223746Y145820D01*
X223764Y145799D01*
X229499Y140064D01*
X229577Y140004D01*
X229649Y139936D01*
X229702Y139907D01*
X229750Y139870D01*
X229841Y139830D01*
X229928Y139782D01*
X229987Y139767D01*
X230042Y139743D01*
X230140Y139728D01*
X230236Y139703D01*
X230336Y139697D01*
X230356Y139693D01*
X230369Y139695D01*
X230397Y139693D01*
X237061Y139693D01*
X237192Y139709D01*
X237324Y139720D01*
X237350Y139729D01*
X237377Y139733D01*
X237499Y139781D01*
X237625Y139825D01*
X237647Y139840D01*
X237672Y139850D01*
X237779Y139927D01*
X237890Y140001D01*
X237908Y140021D01*
X237930Y140036D01*
X238014Y140138D01*
X238103Y140237D01*
X238115Y140261D01*
X238132Y140281D01*
X238189Y140401D01*
X238250Y140519D01*
X238256Y140545D01*
X238268Y140569D01*
X238293Y140699D01*
X238323Y140828D01*
X238323Y140855D01*
X238328Y140881D01*
X238319Y141013D01*
X238317Y141146D01*
X238310Y141172D01*
X238308Y141199D01*
X238267Y141325D01*
X238232Y141452D01*
X238215Y141487D01*
X238210Y141501D01*
X238198Y141520D01*
X238160Y141597D01*
X238112Y141679D01*
X237939Y142326D01*
X237939Y148391D01*
X242480Y148391D01*
X242598Y148406D01*
X242717Y148413D01*
X242755Y148425D01*
X242795Y148430D01*
X242906Y148474D01*
X243019Y148511D01*
X243053Y148533D01*
X243091Y148547D01*
X243187Y148617D01*
X243288Y148681D01*
X243288Y148682D01*
X243316Y148711D01*
X243348Y148734D01*
X243349Y148735D01*
X243425Y148827D01*
X243506Y148913D01*
X243526Y148949D01*
X243552Y148980D01*
X243602Y149087D01*
X243660Y149192D01*
X243670Y149231D01*
X243687Y149267D01*
X243709Y149384D01*
X243739Y149500D01*
X243743Y149560D01*
X243747Y149580D01*
X243746Y149600D01*
X243749Y149660D01*
X243749Y159201D01*
X244814Y159201D01*
X245461Y159028D01*
X245746Y158863D01*
X245831Y158827D01*
X245912Y158782D01*
X245977Y158766D01*
X246039Y158740D01*
X246131Y158726D01*
X246220Y158703D01*
X246337Y158696D01*
X246354Y158693D01*
X246362Y158694D01*
X246381Y158693D01*
X252437Y158693D01*
X252443Y158690D01*
X252549Y158636D01*
X252589Y158627D01*
X252626Y158611D01*
X252743Y158592D01*
X252860Y158566D01*
X252900Y158567D01*
X252940Y158561D01*
X253058Y158572D01*
X253177Y158576D01*
X253216Y158587D01*
X253256Y158591D01*
X253369Y158631D01*
X253483Y158664D01*
X253518Y158685D01*
X253540Y158693D01*
X259437Y158693D01*
X259443Y158690D01*
X259549Y158636D01*
X259589Y158627D01*
X259626Y158611D01*
X259743Y158592D01*
X259860Y158566D01*
X259900Y158567D01*
X259940Y158561D01*
X260058Y158572D01*
X260177Y158576D01*
X260216Y158587D01*
X260256Y158591D01*
X260369Y158631D01*
X260483Y158664D01*
X260518Y158685D01*
X260540Y158693D01*
X266437Y158693D01*
X266443Y158690D01*
X266549Y158636D01*
X266589Y158627D01*
X266626Y158611D01*
X266743Y158592D01*
X266860Y158566D01*
X266900Y158567D01*
X266940Y158561D01*
X267058Y158572D01*
X267177Y158576D01*
X267216Y158587D01*
X267256Y158591D01*
X267369Y158631D01*
X267483Y158664D01*
X267518Y158685D01*
X267540Y158693D01*
X270268Y158693D01*
X270318Y158699D01*
X270367Y158697D01*
X270475Y158719D01*
X270584Y158733D01*
X270630Y158751D01*
X270679Y158761D01*
X270778Y158809D01*
X270880Y158850D01*
X270920Y158879D01*
X270965Y158901D01*
X271048Y158972D01*
X271137Y159036D01*
X271169Y159075D01*
X271207Y159107D01*
X271270Y159197D01*
X271340Y159281D01*
X271361Y159326D01*
X271390Y159367D01*
X271429Y159470D01*
X271475Y159569D01*
X271485Y159618D01*
X271502Y159664D01*
X271515Y159774D01*
X271535Y159881D01*
X271532Y159931D01*
X271538Y159980D01*
X271522Y160089D01*
X271515Y160199D01*
X271500Y160246D01*
X271493Y160295D01*
X271441Y160448D01*
X271045Y161403D01*
X271045Y163717D01*
X271930Y165854D01*
X272057Y165980D01*
X272142Y166090D01*
X272231Y166197D01*
X272240Y166216D01*
X272252Y166232D01*
X272308Y166360D01*
X272367Y166485D01*
X272370Y166505D01*
X272379Y166524D01*
X272400Y166661D01*
X272426Y166798D01*
X272425Y166818D01*
X272428Y166838D01*
X272415Y166976D01*
X272407Y167115D01*
X272400Y167134D01*
X272399Y167154D01*
X272351Y167285D01*
X272309Y167417D01*
X272298Y167435D01*
X272291Y167454D01*
X272213Y167569D01*
X272139Y167686D01*
X272124Y167700D01*
X272112Y167717D01*
X272008Y167809D01*
X271907Y167904D01*
X271889Y167914D01*
X271874Y167927D01*
X271750Y167990D01*
X271628Y168058D01*
X271609Y168063D01*
X271591Y168072D01*
X271455Y168102D01*
X271320Y168137D01*
X271292Y168139D01*
X271280Y168142D01*
X271260Y168141D01*
X271160Y168147D01*
X270343Y168147D01*
X270321Y168153D01*
X270266Y168177D01*
X270168Y168192D01*
X270072Y168217D01*
X269972Y168223D01*
X269952Y168227D01*
X269939Y168225D01*
X269911Y168227D01*
X268930Y168227D01*
X268812Y168212D01*
X268693Y168205D01*
X268655Y168192D01*
X268614Y168187D01*
X268504Y168144D01*
X268391Y168107D01*
X268356Y168085D01*
X268319Y168070D01*
X268223Y168001D01*
X268122Y167937D01*
X268094Y167907D01*
X268061Y167884D01*
X267985Y167792D01*
X267904Y167705D01*
X267884Y167670D01*
X267859Y167639D01*
X267853Y167626D01*
X266470Y166243D01*
X257786Y166243D01*
X256595Y167434D01*
X256595Y175143D01*
X256649Y175203D01*
X256667Y175239D01*
X256692Y175271D01*
X256739Y175380D01*
X256793Y175487D01*
X256802Y175526D01*
X256818Y175562D01*
X256837Y175680D01*
X256863Y175797D01*
X256861Y175837D01*
X256868Y175876D01*
X256857Y175995D01*
X256853Y176115D01*
X256842Y176153D01*
X256838Y176193D01*
X256798Y176305D01*
X256764Y176420D01*
X256744Y176455D01*
X256730Y176492D01*
X256683Y176562D01*
X256678Y176571D01*
X256260Y177295D01*
X256087Y177942D01*
X256087Y179777D01*
X261898Y179777D01*
X262016Y179792D01*
X262135Y179799D01*
X262142Y179801D01*
X262198Y179787D01*
X262258Y179783D01*
X262278Y179779D01*
X262298Y179781D01*
X262358Y179777D01*
X268169Y179777D01*
X268169Y177942D01*
X267996Y177295D01*
X267620Y176645D01*
X267608Y176631D01*
X267589Y176595D01*
X267565Y176564D01*
X267517Y176454D01*
X267463Y176348D01*
X267454Y176309D01*
X267438Y176272D01*
X267420Y176154D01*
X267393Y176037D01*
X267395Y175998D01*
X267388Y175958D01*
X267399Y175839D01*
X267403Y175719D01*
X267414Y175681D01*
X267418Y175641D01*
X267458Y175529D01*
X267491Y175414D01*
X267512Y175380D01*
X267525Y175342D01*
X267592Y175243D01*
X267653Y175140D01*
X267692Y175096D01*
X267704Y175079D01*
X267719Y175065D01*
X267759Y175019D01*
X267875Y174904D01*
X267887Y174887D01*
X267951Y174786D01*
X267981Y174758D01*
X268004Y174725D01*
X268096Y174649D01*
X268183Y174568D01*
X268218Y174548D01*
X268249Y174523D01*
X268357Y174472D01*
X268461Y174414D01*
X268501Y174404D01*
X268537Y174387D01*
X268654Y174365D01*
X268769Y174335D01*
X268829Y174331D01*
X268849Y174327D01*
X268870Y174329D01*
X268930Y174325D01*
X273137Y174325D01*
X273159Y174319D01*
X273214Y174295D01*
X273312Y174280D01*
X273408Y174255D01*
X273508Y174249D01*
X273528Y174245D01*
X273541Y174247D01*
X273569Y174245D01*
X276178Y174245D01*
X276296Y174260D01*
X276415Y174267D01*
X276453Y174280D01*
X276494Y174285D01*
X276604Y174328D01*
X276717Y174365D01*
X276752Y174387D01*
X276789Y174402D01*
X276885Y174471D01*
X276986Y174535D01*
X277014Y174565D01*
X277047Y174588D01*
X277123Y174680D01*
X277204Y174767D01*
X277224Y174802D01*
X277249Y174833D01*
X277300Y174941D01*
X277358Y175045D01*
X277368Y175085D01*
X277385Y175121D01*
X277407Y175238D01*
X277437Y175353D01*
X277441Y175413D01*
X277445Y175433D01*
X277443Y175454D01*
X277447Y175514D01*
X277447Y180722D01*
X278432Y181706D01*
X278509Y181806D01*
X278591Y181901D01*
X278606Y181931D01*
X278627Y181958D01*
X278677Y182073D01*
X278733Y182186D01*
X278740Y182219D01*
X278753Y182250D01*
X278773Y182374D01*
X278799Y182497D01*
X278798Y182530D01*
X278803Y182564D01*
X278791Y182689D01*
X278786Y182814D01*
X278776Y182847D01*
X278773Y182880D01*
X278731Y182999D01*
X278694Y183119D01*
X278677Y183148D01*
X278666Y183180D01*
X278595Y183284D01*
X278530Y183391D01*
X278506Y183415D01*
X278487Y183443D01*
X278393Y183526D01*
X278303Y183614D01*
X278262Y183641D01*
X278249Y183653D01*
X278229Y183663D01*
X278169Y183703D01*
X277920Y183847D01*
X277447Y184320D01*
X277112Y184899D01*
X276939Y185546D01*
X276939Y188881D01*
X283250Y188881D01*
X283368Y188896D01*
X283487Y188903D01*
X283525Y188915D01*
X283565Y188921D01*
X283676Y188964D01*
X283789Y189001D01*
X283823Y189023D01*
X283861Y189038D01*
X283957Y189107D01*
X284058Y189171D01*
X284086Y189201D01*
X284118Y189224D01*
X284194Y189316D01*
X284276Y189403D01*
X284295Y189438D01*
X284321Y189469D01*
X284372Y189577D01*
X284429Y189681D01*
X284439Y189721D01*
X284457Y189757D01*
X284477Y189864D01*
X284481Y189834D01*
X284525Y189724D01*
X284561Y189611D01*
X284583Y189576D01*
X284598Y189539D01*
X284668Y189442D01*
X284731Y189342D01*
X284761Y189314D01*
X284785Y189281D01*
X284876Y189205D01*
X284963Y189124D01*
X284998Y189104D01*
X285030Y189079D01*
X285137Y189028D01*
X285242Y188970D01*
X285281Y188960D01*
X285317Y188943D01*
X285434Y188921D01*
X285550Y188891D01*
X285610Y188887D01*
X285630Y188883D01*
X285650Y188885D01*
X285710Y188881D01*
X292021Y188881D01*
X292021Y185546D01*
X291848Y184899D01*
X291513Y184320D01*
X291040Y183847D01*
X290791Y183703D01*
X290691Y183627D01*
X290587Y183557D01*
X290565Y183531D01*
X290538Y183511D01*
X290460Y183412D01*
X290376Y183318D01*
X290361Y183288D01*
X290340Y183262D01*
X290289Y183147D01*
X290232Y183035D01*
X290224Y183002D01*
X290211Y182971D01*
X290190Y182847D01*
X290162Y182725D01*
X290163Y182691D01*
X290158Y182658D01*
X290168Y182532D01*
X290172Y182407D01*
X290181Y182374D01*
X290184Y182341D01*
X290225Y182222D01*
X290260Y182101D01*
X290277Y182072D01*
X290288Y182040D01*
X290358Y181936D01*
X290422Y181827D01*
X290454Y181791D01*
X290464Y181775D01*
X290480Y181761D01*
X290528Y181706D01*
X291513Y180722D01*
X291513Y172185D01*
X291525Y172086D01*
X291528Y171987D01*
X291545Y171929D01*
X291553Y171869D01*
X291589Y171777D01*
X291617Y171682D01*
X291647Y171630D01*
X291670Y171573D01*
X291728Y171493D01*
X291778Y171408D01*
X291844Y171332D01*
X291856Y171316D01*
X291866Y171308D01*
X291884Y171287D01*
X293595Y169576D01*
X293673Y169516D01*
X293745Y169448D01*
X293798Y169419D01*
X293846Y169382D01*
X293937Y169342D01*
X294024Y169294D01*
X294082Y169279D01*
X294138Y169255D01*
X294236Y169240D01*
X294332Y169215D01*
X294432Y169209D01*
X294452Y169205D01*
X294465Y169207D01*
X294493Y169205D01*
X296801Y169205D01*
X296808Y169204D01*
X296826Y169205D01*
X296879Y169205D01*
X296922Y169210D01*
X297023Y169208D01*
X297074Y169220D01*
X297125Y169223D01*
X297188Y169244D01*
X297195Y169245D01*
X297213Y169252D01*
X297228Y169257D01*
X297333Y169282D01*
X297379Y169306D01*
X297427Y169321D01*
X297519Y169379D01*
X297614Y169429D01*
X297653Y169464D01*
X297696Y169492D01*
X297770Y169570D01*
X297850Y169643D01*
X297879Y169686D01*
X297914Y169723D01*
X297966Y169818D01*
X298026Y169908D01*
X298043Y169957D01*
X298068Y170002D01*
X298095Y170106D01*
X298130Y170208D01*
X298134Y170260D01*
X298147Y170310D01*
X298157Y170470D01*
X298157Y173664D01*
X299720Y175226D01*
X299780Y175305D01*
X299848Y175377D01*
X299877Y175430D01*
X299914Y175478D01*
X299954Y175568D01*
X300002Y175655D01*
X300017Y175714D01*
X300041Y175769D01*
X300056Y175867D01*
X300081Y175963D01*
X300087Y176063D01*
X300091Y176083D01*
X300089Y176096D01*
X300091Y176124D01*
X300091Y180847D01*
X305096Y185851D01*
X305156Y185929D01*
X305224Y186001D01*
X305253Y186054D01*
X305290Y186102D01*
X305330Y186193D01*
X305378Y186280D01*
X305393Y186338D01*
X305417Y186394D01*
X305432Y186492D01*
X305457Y186588D01*
X305463Y186688D01*
X305467Y186708D01*
X305465Y186721D01*
X305467Y186749D01*
X305467Y193286D01*
X306658Y194477D01*
X314342Y194477D01*
X315533Y193286D01*
X315533Y180602D01*
X314342Y179411D01*
X307805Y179411D01*
X307706Y179399D01*
X307607Y179396D01*
X307549Y179379D01*
X307489Y179371D01*
X307397Y179335D01*
X307302Y179307D01*
X307250Y179277D01*
X307193Y179254D01*
X307113Y179196D01*
X307028Y179146D01*
X306953Y179080D01*
X306936Y179068D01*
X306928Y179058D01*
X306907Y179039D01*
X306560Y178693D01*
X306500Y178615D01*
X306432Y178543D01*
X306403Y178489D01*
X306366Y178442D01*
X306326Y178351D01*
X306278Y178264D01*
X306263Y178205D01*
X306239Y178150D01*
X306224Y178052D01*
X306199Y177956D01*
X306193Y177856D01*
X306189Y177836D01*
X306191Y177823D01*
X306189Y177795D01*
X306189Y176463D01*
X306204Y176338D01*
X306214Y176213D01*
X306224Y176181D01*
X306229Y176148D01*
X306275Y176031D01*
X306315Y175911D01*
X306333Y175883D01*
X306346Y175852D01*
X306419Y175750D01*
X306488Y175645D01*
X306513Y175622D01*
X306532Y175594D01*
X306629Y175514D01*
X306722Y175429D01*
X306752Y175413D01*
X306777Y175392D01*
X306891Y175338D01*
X307002Y175279D01*
X307035Y175270D01*
X307065Y175256D01*
X307188Y175233D01*
X307311Y175202D01*
X307344Y175203D01*
X307377Y175196D01*
X307503Y175204D01*
X307629Y175205D01*
X307677Y175215D01*
X307695Y175216D01*
X307715Y175223D01*
X307787Y175237D01*
X308256Y175363D01*
X310066Y175363D01*
X310066Y169877D01*
X310081Y169759D01*
X310088Y169640D01*
X310100Y169602D01*
X310106Y169562D01*
X310149Y169451D01*
X310186Y169338D01*
X310208Y169304D01*
X310223Y169266D01*
X310292Y169170D01*
X310356Y169069D01*
X310386Y169041D01*
X310409Y169009D01*
X310501Y168933D01*
X310588Y168851D01*
X310623Y168832D01*
X310654Y168806D01*
X310677Y168795D01*
X310703Y168759D01*
X310766Y168659D01*
X310796Y168631D01*
X310820Y168598D01*
X310911Y168522D01*
X310998Y168441D01*
X311033Y168421D01*
X311065Y168396D01*
X311172Y168345D01*
X311277Y168287D01*
X311316Y168277D01*
X311352Y168260D01*
X311469Y168238D01*
X311585Y168208D01*
X311645Y168204D01*
X311665Y168200D01*
X311685Y168202D01*
X311745Y168198D01*
X323255Y168198D01*
X323373Y168213D01*
X323492Y168220D01*
X323530Y168232D01*
X323570Y168238D01*
X323681Y168281D01*
X323794Y168318D01*
X323828Y168340D01*
X323866Y168355D01*
X323962Y168424D01*
X324063Y168488D01*
X324091Y168518D01*
X324123Y168541D01*
X324199Y168633D01*
X324281Y168720D01*
X324300Y168755D01*
X324326Y168786D01*
X324337Y168809D01*
X324372Y168835D01*
X324473Y168898D01*
X324501Y168928D01*
X324534Y168952D01*
X324610Y169043D01*
X324691Y169130D01*
X324711Y169165D01*
X324736Y169197D01*
X324787Y169304D01*
X324845Y169409D01*
X324855Y169448D01*
X324872Y169484D01*
X324894Y169601D01*
X324924Y169717D01*
X324928Y169777D01*
X324932Y169797D01*
X324930Y169817D01*
X324934Y169877D01*
X324934Y175363D01*
X326744Y175363D01*
X327213Y175237D01*
X327338Y175220D01*
X327462Y175196D01*
X327495Y175198D01*
X327529Y175194D01*
X327654Y175208D01*
X327779Y175216D01*
X327811Y175226D01*
X327844Y175230D01*
X327962Y175275D01*
X328081Y175314D01*
X328110Y175332D01*
X328141Y175344D01*
X328244Y175417D01*
X328350Y175484D01*
X328373Y175509D01*
X328401Y175528D01*
X328482Y175624D01*
X328568Y175716D01*
X328584Y175745D01*
X328606Y175771D01*
X328661Y175884D01*
X328722Y175994D01*
X328730Y176027D01*
X328745Y176057D01*
X328770Y176181D01*
X328801Y176302D01*
X328804Y176351D01*
X328808Y176369D01*
X328807Y176391D01*
X328811Y176463D01*
X328811Y177795D01*
X328799Y177894D01*
X328796Y177993D01*
X328779Y178051D01*
X328771Y178111D01*
X328735Y178203D01*
X328707Y178298D01*
X328677Y178350D01*
X328654Y178407D01*
X328596Y178487D01*
X328546Y178572D01*
X328480Y178647D01*
X328468Y178664D01*
X328458Y178672D01*
X328440Y178693D01*
X328093Y179040D01*
X328015Y179100D01*
X327943Y179168D01*
X327890Y179197D01*
X327842Y179234D01*
X327751Y179274D01*
X327664Y179322D01*
X327605Y179337D01*
X327550Y179361D01*
X327452Y179376D01*
X327356Y179401D01*
X327256Y179407D01*
X327236Y179411D01*
X327223Y179409D01*
X327195Y179411D01*
X320658Y179411D01*
X319467Y180602D01*
X319467Y193286D01*
X320658Y194477D01*
X328342Y194477D01*
X329533Y193286D01*
X329533Y186749D01*
X329545Y186650D01*
X329548Y186551D01*
X329565Y186493D01*
X329573Y186433D01*
X329609Y186341D01*
X329637Y186246D01*
X329667Y186194D01*
X329690Y186137D01*
X329748Y186057D01*
X329798Y185972D01*
X329864Y185897D01*
X329876Y185880D01*
X329886Y185872D01*
X329904Y185851D01*
X334909Y180847D01*
X334909Y176124D01*
X334921Y176026D01*
X334924Y175926D01*
X334941Y175868D01*
X334949Y175808D01*
X334985Y175716D01*
X335013Y175621D01*
X335043Y175569D01*
X335066Y175512D01*
X335124Y175432D01*
X335174Y175347D01*
X335240Y175272D01*
X335252Y175255D01*
X335262Y175247D01*
X335280Y175226D01*
X336843Y173664D01*
X336843Y165680D01*
X335652Y164489D01*
X333005Y164489D01*
X332906Y164477D01*
X332807Y164474D01*
X332749Y164457D01*
X332689Y164449D01*
X332597Y164413D01*
X332502Y164385D01*
X332450Y164355D01*
X332393Y164332D01*
X332313Y164274D01*
X332228Y164224D01*
X332153Y164158D01*
X332136Y164146D01*
X332128Y164136D01*
X332107Y164118D01*
X329081Y161092D01*
X329004Y160992D01*
X328922Y160897D01*
X328907Y160867D01*
X328886Y160840D01*
X328836Y160725D01*
X328780Y160612D01*
X328773Y160579D01*
X328760Y160548D01*
X328740Y160424D01*
X328714Y160301D01*
X328715Y160268D01*
X328710Y160234D01*
X328722Y160109D01*
X328727Y159984D01*
X328737Y159951D01*
X328740Y159918D01*
X328782Y159799D01*
X328819Y159679D01*
X328836Y159650D01*
X328847Y159618D01*
X328918Y159515D01*
X328983Y159407D01*
X329007Y159383D01*
X329026Y159355D01*
X329120Y159272D01*
X329210Y159184D01*
X329251Y159157D01*
X329264Y159145D01*
X329284Y159135D01*
X329344Y159095D01*
X330040Y158693D01*
X330513Y158220D01*
X330848Y157641D01*
X331021Y156994D01*
X331021Y150929D01*
X327749Y150929D01*
X327749Y156696D01*
X327748Y156706D01*
X327749Y156716D01*
X327728Y156862D01*
X327710Y157011D01*
X327706Y157021D01*
X327704Y157031D01*
X327647Y157169D01*
X327593Y157307D01*
X327587Y157315D01*
X327583Y157324D01*
X327493Y157444D01*
X327406Y157564D01*
X327398Y157571D01*
X327392Y157579D01*
X327276Y157672D01*
X327161Y157767D01*
X327152Y157771D01*
X327144Y157778D01*
X327007Y157839D01*
X326873Y157903D01*
X326863Y157904D01*
X326854Y157909D01*
X326706Y157934D01*
X326561Y157962D01*
X326551Y157962D01*
X326541Y157963D01*
X326391Y157952D01*
X326243Y157943D01*
X326234Y157939D01*
X326223Y157939D01*
X326082Y157890D01*
X325941Y157845D01*
X325932Y157839D01*
X325923Y157836D01*
X325798Y157754D01*
X325672Y157674D01*
X325665Y157667D01*
X325657Y157661D01*
X325541Y157549D01*
X325501Y157493D01*
X325454Y157443D01*
X325454Y157442D01*
X325410Y157363D01*
X325358Y157289D01*
X325334Y157224D01*
X325300Y157164D01*
X325278Y157076D01*
X325246Y156991D01*
X325238Y156923D01*
X325221Y156856D01*
X325211Y156695D01*
X325211Y149660D01*
X325211Y140119D01*
X324146Y140119D01*
X323499Y140292D01*
X323214Y140457D01*
X323129Y140493D01*
X323048Y140538D01*
X322983Y140554D01*
X322921Y140580D01*
X322829Y140594D01*
X322740Y140617D01*
X322623Y140624D01*
X322606Y140627D01*
X322598Y140626D01*
X322579Y140627D01*
X316523Y140627D01*
X316517Y140630D01*
X316411Y140684D01*
X316372Y140693D01*
X316335Y140709D01*
X316217Y140728D01*
X316101Y140754D01*
X316060Y140753D01*
X316020Y140759D01*
X315902Y140748D01*
X315783Y140744D01*
X315744Y140733D01*
X315704Y140729D01*
X315592Y140689D01*
X315477Y140656D01*
X315443Y140635D01*
X315420Y140627D01*
X309523Y140627D01*
X309517Y140630D01*
X309411Y140684D01*
X309372Y140693D01*
X309335Y140709D01*
X309217Y140728D01*
X309101Y140754D01*
X309060Y140753D01*
X309020Y140759D01*
X308902Y140748D01*
X308783Y140744D01*
X308744Y140733D01*
X308704Y140729D01*
X308592Y140689D01*
X308477Y140656D01*
X308443Y140635D01*
X308420Y140627D01*
X302523Y140627D01*
X302517Y140630D01*
X302411Y140684D01*
X302372Y140693D01*
X302335Y140709D01*
X302217Y140728D01*
X302101Y140754D01*
X302060Y140753D01*
X302020Y140759D01*
X301902Y140748D01*
X301783Y140744D01*
X301744Y140733D01*
X301704Y140729D01*
X301592Y140689D01*
X301477Y140656D01*
X301443Y140635D01*
X301420Y140627D01*
X295523Y140627D01*
X295517Y140630D01*
X295411Y140684D01*
X295372Y140693D01*
X295335Y140709D01*
X295217Y140728D01*
X295101Y140754D01*
X295060Y140753D01*
X295020Y140759D01*
X294902Y140748D01*
X294783Y140744D01*
X294744Y140733D01*
X294704Y140729D01*
X294592Y140689D01*
X294477Y140656D01*
X294443Y140635D01*
X294420Y140627D01*
X288523Y140627D01*
X288517Y140630D01*
X288411Y140684D01*
X288372Y140693D01*
X288335Y140709D01*
X288217Y140728D01*
X288101Y140754D01*
X288060Y140753D01*
X288020Y140759D01*
X287902Y140748D01*
X287783Y140744D01*
X287744Y140733D01*
X287704Y140729D01*
X287592Y140689D01*
X287477Y140656D01*
X287443Y140635D01*
X287420Y140627D01*
X281523Y140627D01*
X281517Y140630D01*
X281411Y140684D01*
X281372Y140693D01*
X281335Y140709D01*
X281217Y140728D01*
X281101Y140754D01*
X281060Y140753D01*
X281020Y140759D01*
X280902Y140748D01*
X280783Y140744D01*
X280744Y140733D01*
X280704Y140729D01*
X280592Y140689D01*
X280477Y140656D01*
X280443Y140635D01*
X280420Y140627D01*
X274523Y140627D01*
X274517Y140630D01*
X274411Y140684D01*
X274372Y140693D01*
X274335Y140709D01*
X274217Y140728D01*
X274101Y140754D01*
X274060Y140753D01*
X274020Y140759D01*
X273902Y140748D01*
X273783Y140744D01*
X273744Y140733D01*
X273704Y140729D01*
X273592Y140689D01*
X273477Y140656D01*
X273443Y140635D01*
X273420Y140627D01*
X267523Y140627D01*
X267517Y140630D01*
X267411Y140684D01*
X267372Y140693D01*
X267335Y140709D01*
X267217Y140728D01*
X267101Y140754D01*
X267060Y140753D01*
X267020Y140759D01*
X266902Y140748D01*
X266783Y140744D01*
X266744Y140733D01*
X266704Y140729D01*
X266592Y140689D01*
X266477Y140656D01*
X266443Y140635D01*
X266420Y140627D01*
X260523Y140627D01*
X260517Y140630D01*
X260411Y140684D01*
X260372Y140693D01*
X260335Y140709D01*
X260217Y140728D01*
X260101Y140754D01*
X260060Y140753D01*
X260020Y140759D01*
X259902Y140748D01*
X259783Y140744D01*
X259744Y140733D01*
X259704Y140729D01*
X259592Y140689D01*
X259477Y140656D01*
X259443Y140635D01*
X259420Y140627D01*
X253523Y140627D01*
X253517Y140630D01*
X253411Y140684D01*
X253372Y140693D01*
X253335Y140709D01*
X253217Y140728D01*
X253101Y140754D01*
X253060Y140753D01*
X253020Y140759D01*
X252902Y140748D01*
X252783Y140744D01*
X252744Y140733D01*
X252704Y140729D01*
X252592Y140689D01*
X252477Y140656D01*
X252443Y140635D01*
X252420Y140627D01*
X248452Y140627D01*
X248314Y140610D01*
X248175Y140597D01*
X248156Y140590D01*
X248136Y140587D01*
X248007Y140536D01*
X247876Y140489D01*
X247859Y140478D01*
X247840Y140470D01*
X247728Y140389D01*
X247613Y140311D01*
X247600Y140295D01*
X247583Y140284D01*
X247494Y140176D01*
X247402Y140072D01*
X247393Y140054D01*
X247380Y140039D01*
X247321Y139913D01*
X247258Y139789D01*
X247253Y139769D01*
X247245Y139751D01*
X247219Y139615D01*
X247188Y139479D01*
X247189Y139458D01*
X247185Y139439D01*
X247194Y139300D01*
X247198Y139161D01*
X247203Y139141D01*
X247205Y139121D01*
X247248Y138989D01*
X247286Y138855D01*
X247297Y138838D01*
X247303Y138819D01*
X247377Y138701D01*
X247448Y138581D01*
X247466Y138560D01*
X247473Y138550D01*
X247488Y138536D01*
X247513Y138508D01*
X247513Y132703D01*
X247510Y132697D01*
X247456Y132591D01*
X247447Y132551D01*
X247431Y132514D01*
X247412Y132397D01*
X247386Y132280D01*
X247387Y132240D01*
X247381Y132200D01*
X247392Y132082D01*
X247396Y131963D01*
X247407Y131924D01*
X247411Y131884D01*
X247451Y131771D01*
X247484Y131657D01*
X247505Y131622D01*
X247513Y131600D01*
X247513Y125703D01*
X247510Y125697D01*
X247456Y125591D01*
X247447Y125552D01*
X247431Y125515D01*
X247412Y125397D01*
X247386Y125281D01*
X247387Y125240D01*
X247381Y125200D01*
X247392Y125082D01*
X247396Y124963D01*
X247407Y124924D01*
X247411Y124884D01*
X247451Y124772D01*
X247484Y124657D01*
X247505Y124623D01*
X247513Y124600D01*
X247513Y118703D01*
X247510Y118697D01*
X247456Y118591D01*
X247447Y118552D01*
X247431Y118515D01*
X247412Y118397D01*
X247386Y118281D01*
X247387Y118240D01*
X247381Y118200D01*
X247392Y118082D01*
X247396Y117963D01*
X247407Y117924D01*
X247411Y117884D01*
X247451Y117772D01*
X247484Y117657D01*
X247505Y117623D01*
X247513Y117600D01*
X247513Y111703D01*
X247510Y111697D01*
X247456Y111591D01*
X247447Y111552D01*
X247431Y111515D01*
X247412Y111397D01*
X247386Y111281D01*
X247387Y111240D01*
X247381Y111200D01*
X247392Y111082D01*
X247396Y110963D01*
X247407Y110924D01*
X247411Y110884D01*
X247451Y110772D01*
X247484Y110657D01*
X247505Y110623D01*
X247513Y110600D01*
X247513Y104703D01*
X247510Y104697D01*
X247456Y104591D01*
X247447Y104552D01*
X247431Y104515D01*
X247412Y104397D01*
X247386Y104281D01*
X247387Y104240D01*
X247381Y104200D01*
X247392Y104082D01*
X247396Y103963D01*
X247407Y103924D01*
X247411Y103884D01*
X247451Y103772D01*
X247484Y103657D01*
X247505Y103623D01*
X247513Y103600D01*
X247513Y97703D01*
X247510Y97697D01*
X247456Y97591D01*
X247447Y97552D01*
X247431Y97515D01*
X247412Y97397D01*
X247386Y97281D01*
X247387Y97240D01*
X247381Y97200D01*
X247392Y97082D01*
X247396Y96963D01*
X247407Y96924D01*
X247411Y96884D01*
X247451Y96772D01*
X247484Y96657D01*
X247505Y96623D01*
X247513Y96600D01*
X247513Y90703D01*
X247510Y90697D01*
X247456Y90591D01*
X247447Y90552D01*
X247431Y90515D01*
X247412Y90397D01*
X247386Y90281D01*
X247387Y90240D01*
X247381Y90200D01*
X247392Y90082D01*
X247396Y89963D01*
X247407Y89924D01*
X247411Y89884D01*
X247451Y89772D01*
X247484Y89657D01*
X247505Y89623D01*
X247513Y89600D01*
X247513Y83703D01*
X247510Y83697D01*
X247456Y83591D01*
X247447Y83552D01*
X247431Y83515D01*
X247412Y83397D01*
X247386Y83281D01*
X247387Y83240D01*
X247381Y83200D01*
X247392Y83082D01*
X247396Y82963D01*
X247407Y82924D01*
X247411Y82884D01*
X247451Y82772D01*
X247484Y82657D01*
X247505Y82623D01*
X247513Y82600D01*
X247513Y76703D01*
X247510Y76697D01*
X247456Y76591D01*
X247447Y76552D01*
X247431Y76515D01*
X247412Y76397D01*
X247386Y76281D01*
X247387Y76240D01*
X247381Y76200D01*
X247392Y76082D01*
X247396Y75963D01*
X247407Y75924D01*
X247411Y75884D01*
X247451Y75772D01*
X247484Y75657D01*
X247505Y75623D01*
X247513Y75600D01*
X247513Y69703D01*
X247510Y69697D01*
X247456Y69591D01*
X247447Y69552D01*
X247431Y69515D01*
X247412Y69397D01*
X247386Y69281D01*
X247387Y69240D01*
X247381Y69200D01*
X247392Y69082D01*
X247396Y68963D01*
X247407Y68924D01*
X247411Y68884D01*
X247451Y68772D01*
X247484Y68657D01*
X247505Y68623D01*
X247513Y68600D01*
X247513Y66262D01*
X247528Y66144D01*
X247535Y66025D01*
X247548Y65987D01*
X247553Y65946D01*
X247596Y65836D01*
X247633Y65723D01*
X247655Y65688D01*
X247670Y65651D01*
X247739Y65555D01*
X247803Y65454D01*
X247833Y65426D01*
X247856Y65393D01*
X247948Y65317D01*
X248035Y65236D01*
X248070Y65216D01*
X248101Y65191D01*
X248209Y65140D01*
X248313Y65082D01*
X248353Y65072D01*
X248389Y65055D01*
X248506Y65033D01*
X248621Y65003D01*
X248681Y64999D01*
X248701Y64995D01*
X248722Y64997D01*
X248782Y64993D01*
X290485Y64993D01*
X290500Y64985D01*
X290548Y64948D01*
X290639Y64908D01*
X290725Y64860D01*
X290784Y64845D01*
X290840Y64821D01*
X290872Y64816D01*
X290907Y64726D01*
X290935Y64631D01*
X290965Y64579D01*
X290988Y64523D01*
X291046Y64443D01*
X291096Y64357D01*
X291162Y64282D01*
X291174Y64265D01*
X291184Y64258D01*
X291203Y64236D01*
X291813Y63626D01*
X291813Y35597D01*
X291828Y35479D01*
X291835Y35360D01*
X291848Y35322D01*
X291853Y35281D01*
X291896Y35171D01*
X291933Y35058D01*
X291955Y35023D01*
X291970Y34986D01*
X292039Y34890D01*
X292103Y34789D01*
X292133Y34761D01*
X292156Y34728D01*
X292248Y34652D01*
X292335Y34571D01*
X292370Y34551D01*
X292401Y34526D01*
X292509Y34475D01*
X292613Y34417D01*
X292653Y34407D01*
X292689Y34390D01*
X292806Y34368D01*
X292921Y34338D01*
X292981Y34334D01*
X293001Y34330D01*
X293022Y34332D01*
X293082Y34328D01*
X329750Y34328D01*
X329868Y34343D01*
X329987Y34350D01*
X330025Y34363D01*
X330065Y34368D01*
X330176Y34411D01*
X330289Y34448D01*
X330323Y34470D01*
X330361Y34485D01*
X330457Y34554D01*
X330474Y34565D01*
X330498Y34551D01*
X330530Y34526D01*
X330637Y34475D01*
X330742Y34417D01*
X330781Y34407D01*
X330817Y34390D01*
X330934Y34368D01*
X331050Y34338D01*
X331110Y34334D01*
X331130Y34330D01*
X331150Y34332D01*
X331210Y34328D01*
X338585Y34328D01*
X338880Y34032D01*
X338959Y33972D01*
X339031Y33904D01*
X339084Y33875D01*
X339132Y33838D01*
X339223Y33798D01*
X339309Y33750D01*
X339368Y33735D01*
X339423Y33711D01*
X339521Y33696D01*
X339617Y33671D01*
X339717Y33665D01*
X339738Y33661D01*
X339750Y33662D01*
X339778Y33661D01*
X340021Y33661D01*
X340021Y33418D01*
X340033Y33320D01*
X340036Y33220D01*
X340053Y33162D01*
X340061Y33102D01*
X340097Y33010D01*
X340125Y32915D01*
X340155Y32863D01*
X340167Y32834D01*
X340170Y32783D01*
X340183Y32745D01*
X340188Y32704D01*
X340231Y32594D01*
X340268Y32481D01*
X340290Y32446D01*
X340305Y32409D01*
X340374Y32313D01*
X340438Y32212D01*
X340468Y32184D01*
X340491Y32151D01*
X340583Y32075D01*
X340670Y31994D01*
X340705Y31974D01*
X340736Y31949D01*
X340844Y31898D01*
X340948Y31840D01*
X340988Y31830D01*
X341024Y31813D01*
X341141Y31791D01*
X341256Y31761D01*
X341316Y31757D01*
X341336Y31753D01*
X341357Y31755D01*
X341417Y31751D01*
X399288Y31751D01*
X399406Y31766D01*
G37*
G36*
X227661Y31766D02*
X227661Y31766D01*
X227780Y31773D01*
X227818Y31786D01*
X227859Y31791D01*
X227969Y31834D01*
X228082Y31871D01*
X228117Y31893D01*
X228154Y31908D01*
X228250Y31978D01*
X228351Y32041D01*
X228379Y32071D01*
X228412Y32094D01*
X228488Y32186D01*
X228569Y32273D01*
X228589Y32308D01*
X228614Y32339D01*
X228665Y32447D01*
X228723Y32551D01*
X228733Y32591D01*
X228750Y32627D01*
X228772Y32744D01*
X228802Y32859D01*
X228802Y32863D01*
X228850Y32949D01*
X228865Y33008D01*
X228889Y33063D01*
X228904Y33161D01*
X228929Y33257D01*
X228935Y33357D01*
X228939Y33377D01*
X228937Y33389D01*
X228939Y33418D01*
X228939Y33661D01*
X229182Y33661D01*
X229280Y33673D01*
X229379Y33676D01*
X229438Y33693D01*
X229498Y33701D01*
X229590Y33737D01*
X229685Y33765D01*
X229737Y33795D01*
X229793Y33818D01*
X229873Y33876D01*
X229959Y33926D01*
X230034Y33992D01*
X230051Y34004D01*
X230059Y34014D01*
X230080Y34032D01*
X230375Y34328D01*
X237750Y34328D01*
X237868Y34343D01*
X237987Y34350D01*
X238025Y34363D01*
X238065Y34368D01*
X238176Y34411D01*
X238289Y34448D01*
X238323Y34470D01*
X238361Y34485D01*
X238457Y34554D01*
X238558Y34618D01*
X238586Y34648D01*
X238618Y34671D01*
X238694Y34763D01*
X238776Y34850D01*
X238795Y34885D01*
X238821Y34916D01*
X238872Y35024D01*
X238929Y35128D01*
X238939Y35168D01*
X238957Y35204D01*
X238979Y35321D01*
X239009Y35436D01*
X239013Y35496D01*
X239016Y35516D01*
X239015Y35537D01*
X239019Y35597D01*
X239019Y36390D01*
X239004Y36508D01*
X238997Y36627D01*
X238984Y36665D01*
X238979Y36706D01*
X238935Y36816D01*
X238899Y36929D01*
X238877Y36964D01*
X238862Y37001D01*
X238792Y37097D01*
X238729Y37198D01*
X238699Y37226D01*
X238675Y37259D01*
X238584Y37335D01*
X238497Y37416D01*
X238462Y37436D01*
X238430Y37461D01*
X238323Y37512D01*
X238218Y37570D01*
X238179Y37580D01*
X238143Y37597D01*
X238026Y37619D01*
X237910Y37649D01*
X237850Y37653D01*
X237830Y37657D01*
X237810Y37655D01*
X237750Y37659D01*
X228939Y37659D01*
X228939Y39994D01*
X229112Y40641D01*
X229277Y40926D01*
X229313Y41011D01*
X229358Y41092D01*
X229374Y41157D01*
X229400Y41219D01*
X229414Y41311D01*
X229437Y41400D01*
X229444Y41517D01*
X229447Y41534D01*
X229446Y41542D01*
X229447Y41561D01*
X229447Y44010D01*
X229441Y44059D01*
X229443Y44109D01*
X229421Y44216D01*
X229407Y44325D01*
X229389Y44371D01*
X229379Y44420D01*
X229331Y44519D01*
X229290Y44621D01*
X229261Y44661D01*
X229239Y44706D01*
X229168Y44789D01*
X229104Y44878D01*
X229065Y44910D01*
X229033Y44948D01*
X228943Y45011D01*
X228859Y45081D01*
X228814Y45102D01*
X228773Y45131D01*
X228670Y45170D01*
X228571Y45217D01*
X228522Y45226D01*
X228476Y45244D01*
X228366Y45256D01*
X228259Y45276D01*
X228209Y45273D01*
X228160Y45279D01*
X228051Y45263D01*
X227941Y45257D01*
X227894Y45241D01*
X227845Y45234D01*
X227692Y45182D01*
X227217Y44985D01*
X224903Y44985D01*
X222766Y45870D01*
X221130Y47506D01*
X220245Y49643D01*
X220245Y51957D01*
X221130Y54094D01*
X222766Y55730D01*
X224137Y56297D01*
X224181Y56322D01*
X224227Y56339D01*
X224318Y56401D01*
X224414Y56455D01*
X224449Y56490D01*
X224491Y56518D01*
X224563Y56600D01*
X224642Y56676D01*
X224668Y56719D01*
X224701Y56756D01*
X224751Y56854D01*
X224808Y56947D01*
X224823Y56995D01*
X224846Y57039D01*
X224870Y57147D01*
X224902Y57251D01*
X224904Y57301D01*
X224915Y57350D01*
X224912Y57459D01*
X224917Y57569D01*
X224907Y57618D01*
X224906Y57667D01*
X224875Y57773D01*
X224853Y57880D01*
X224831Y57925D01*
X224817Y57973D01*
X224761Y58068D01*
X224713Y58166D01*
X224681Y58204D01*
X224656Y58247D01*
X224549Y58368D01*
X224153Y58764D01*
X224075Y58825D01*
X224003Y58892D01*
X223950Y58922D01*
X223902Y58959D01*
X223811Y58998D01*
X223724Y59046D01*
X223665Y59061D01*
X223610Y59085D01*
X223512Y59101D01*
X223416Y59125D01*
X223316Y59132D01*
X223296Y59135D01*
X223283Y59134D01*
X223255Y59136D01*
X221121Y59136D01*
X218984Y60021D01*
X217348Y61657D01*
X216463Y63794D01*
X216463Y66107D01*
X217348Y68244D01*
X218984Y69880D01*
X221121Y70765D01*
X223435Y70765D01*
X225572Y69880D01*
X227301Y68151D01*
X227395Y68078D01*
X227484Y67999D01*
X227520Y67981D01*
X227552Y67956D01*
X227662Y67908D01*
X227767Y67854D01*
X227807Y67845D01*
X227844Y67829D01*
X227962Y67811D01*
X228078Y67785D01*
X228118Y67786D01*
X228158Y67780D01*
X228277Y67791D01*
X228396Y67794D01*
X228435Y67806D01*
X228475Y67809D01*
X228587Y67850D01*
X228701Y67883D01*
X228736Y67903D01*
X228774Y67917D01*
X228873Y67984D01*
X228975Y68044D01*
X229020Y68084D01*
X229037Y68096D01*
X229051Y68111D01*
X229096Y68151D01*
X229208Y68263D01*
X229281Y68357D01*
X229360Y68446D01*
X229378Y68482D01*
X229403Y68514D01*
X229450Y68623D01*
X229504Y68729D01*
X229513Y68769D01*
X229529Y68806D01*
X229548Y68923D01*
X229574Y69040D01*
X229573Y69080D01*
X229579Y69120D01*
X229568Y69238D01*
X229564Y69357D01*
X229553Y69396D01*
X229549Y69436D01*
X229509Y69549D01*
X229476Y69663D01*
X229455Y69698D01*
X229447Y69720D01*
X229447Y75617D01*
X229450Y75623D01*
X229504Y75729D01*
X229513Y75769D01*
X229529Y75806D01*
X229548Y75923D01*
X229574Y76040D01*
X229573Y76080D01*
X229579Y76120D01*
X229568Y76238D01*
X229564Y76357D01*
X229553Y76396D01*
X229549Y76436D01*
X229509Y76549D01*
X229476Y76663D01*
X229455Y76698D01*
X229447Y76720D01*
X229447Y82617D01*
X229450Y82623D01*
X229504Y82729D01*
X229513Y82769D01*
X229529Y82806D01*
X229548Y82923D01*
X229574Y83040D01*
X229573Y83080D01*
X229579Y83120D01*
X229568Y83238D01*
X229564Y83357D01*
X229553Y83396D01*
X229549Y83436D01*
X229509Y83549D01*
X229476Y83663D01*
X229455Y83698D01*
X229447Y83720D01*
X229447Y89617D01*
X229450Y89623D01*
X229504Y89729D01*
X229513Y89768D01*
X229529Y89806D01*
X229548Y89923D01*
X229574Y90039D01*
X229573Y90080D01*
X229579Y90120D01*
X229568Y90238D01*
X229564Y90357D01*
X229553Y90396D01*
X229549Y90436D01*
X229509Y90549D01*
X229476Y90663D01*
X229455Y90698D01*
X229442Y90736D01*
X229375Y90834D01*
X229314Y90937D01*
X229274Y90982D01*
X229263Y90999D01*
X229248Y91012D01*
X229208Y91058D01*
X229166Y91099D01*
X229072Y91172D01*
X228983Y91251D01*
X228947Y91269D01*
X228915Y91294D01*
X228806Y91341D01*
X228700Y91395D01*
X228661Y91404D01*
X228623Y91420D01*
X228506Y91439D01*
X228390Y91465D01*
X228349Y91464D01*
X228309Y91470D01*
X228191Y91459D01*
X228072Y91455D01*
X228033Y91444D01*
X227993Y91440D01*
X227881Y91400D01*
X227766Y91367D01*
X227731Y91346D01*
X227693Y91333D01*
X227595Y91266D01*
X227492Y91205D01*
X227447Y91165D01*
X227430Y91154D01*
X227417Y91139D01*
X227371Y91099D01*
X225940Y89667D01*
X225921Y89644D01*
X225899Y89624D01*
X225824Y89518D01*
X225745Y89416D01*
X225733Y89388D01*
X225716Y89364D01*
X225670Y89243D01*
X225618Y89124D01*
X225614Y89095D01*
X225603Y89067D01*
X225589Y88938D01*
X225568Y88810D01*
X225571Y88780D01*
X225568Y88751D01*
X225586Y88622D01*
X225598Y88493D01*
X225608Y88465D01*
X225612Y88436D01*
X225664Y88284D01*
X226823Y85487D01*
X226823Y82153D01*
X225547Y79072D01*
X223188Y76713D01*
X220107Y75437D01*
X216773Y75437D01*
X213692Y76713D01*
X211333Y79072D01*
X210057Y82153D01*
X210057Y85487D01*
X211333Y88568D01*
X213692Y90927D01*
X216773Y92203D01*
X219372Y92203D01*
X219470Y92215D01*
X219569Y92218D01*
X219627Y92235D01*
X219687Y92243D01*
X219779Y92279D01*
X219875Y92307D01*
X219927Y92337D01*
X219983Y92360D01*
X220063Y92418D01*
X220148Y92468D01*
X220224Y92534D01*
X220240Y92546D01*
X220248Y92556D01*
X220269Y92574D01*
X229076Y101381D01*
X229136Y101459D01*
X229204Y101531D01*
X229233Y101584D01*
X229270Y101632D01*
X229310Y101723D01*
X229358Y101810D01*
X229373Y101868D01*
X229397Y101924D01*
X229412Y102022D01*
X229437Y102118D01*
X229443Y102218D01*
X229447Y102238D01*
X229445Y102250D01*
X229447Y102278D01*
X229447Y103617D01*
X229450Y103623D01*
X229504Y103729D01*
X229513Y103769D01*
X229529Y103806D01*
X229548Y103923D01*
X229574Y104040D01*
X229573Y104080D01*
X229579Y104120D01*
X229568Y104238D01*
X229564Y104357D01*
X229553Y104396D01*
X229549Y104436D01*
X229509Y104549D01*
X229476Y104663D01*
X229455Y104698D01*
X229447Y104720D01*
X229447Y109395D01*
X229428Y109547D01*
X229411Y109698D01*
X229408Y109704D01*
X229407Y109711D01*
X229351Y109853D01*
X229297Y109995D01*
X229293Y110000D01*
X229290Y110007D01*
X229214Y110111D01*
X229224Y110128D01*
X229249Y110159D01*
X229300Y110267D01*
X229358Y110371D01*
X229368Y110410D01*
X229385Y110447D01*
X229407Y110564D01*
X229437Y110679D01*
X229441Y110739D01*
X229445Y110759D01*
X229445Y110760D01*
X229443Y110780D01*
X229447Y110840D01*
X229432Y110958D01*
X229425Y111077D01*
X229412Y111115D01*
X229407Y111156D01*
X229364Y111266D01*
X229327Y111380D01*
X229305Y111414D01*
X229290Y111451D01*
X229221Y111548D01*
X229157Y111648D01*
X229127Y111676D01*
X229104Y111709D01*
X229012Y111785D01*
X228925Y111866D01*
X228890Y111886D01*
X228859Y111912D01*
X228751Y111962D01*
X228647Y112020D01*
X228607Y112030D01*
X228571Y112047D01*
X228454Y112069D01*
X228339Y112099D01*
X228279Y112103D01*
X228259Y112107D01*
X228238Y112106D01*
X228178Y112109D01*
X225999Y112109D01*
X225961Y112105D01*
X225924Y112107D01*
X225864Y112096D01*
X225802Y112094D01*
X225743Y112077D01*
X225683Y112070D01*
X225648Y112055D01*
X225611Y112049D01*
X225556Y112023D01*
X225496Y112006D01*
X225444Y111975D01*
X225388Y111953D01*
X225357Y111930D01*
X225323Y111914D01*
X225275Y111875D01*
X225222Y111844D01*
X225147Y111778D01*
X225130Y111766D01*
X225122Y111756D01*
X225101Y111738D01*
X225101Y111737D01*
X225090Y111724D01*
X225077Y111713D01*
X225005Y111614D01*
X224927Y111521D01*
X224919Y111503D01*
X224906Y111486D01*
X224899Y111470D01*
X224889Y111456D01*
X224843Y111342D01*
X224792Y111233D01*
X224788Y111214D01*
X224780Y111194D01*
X224777Y111177D01*
X224771Y111161D01*
X224755Y111038D01*
X224732Y110921D01*
X224733Y110901D01*
X224730Y110880D01*
X224732Y110863D01*
X224729Y110846D01*
X224744Y110722D01*
X224752Y110603D01*
X224758Y110584D01*
X224760Y110564D01*
X224766Y110547D01*
X224768Y110530D01*
X224813Y110414D01*
X224850Y110300D01*
X224860Y110284D01*
X224867Y110264D01*
X224877Y110250D01*
X224883Y110234D01*
X224955Y110134D01*
X225020Y110032D01*
X225035Y110018D01*
X225046Y110001D01*
X225059Y109990D01*
X225069Y109976D01*
X225186Y109865D01*
X225221Y109842D01*
X225252Y109814D01*
X225269Y109804D01*
X225284Y109791D01*
X225371Y109746D01*
X225454Y109693D01*
X225494Y109680D01*
X225530Y109660D01*
X225550Y109655D01*
X225568Y109646D01*
X225662Y109625D01*
X225756Y109594D01*
X225798Y109591D01*
X225838Y109581D01*
X225867Y109579D01*
X225878Y109576D01*
X225897Y109577D01*
X225999Y109571D01*
X226911Y109571D01*
X226739Y108928D01*
X226593Y108675D01*
X226557Y108590D01*
X226512Y108509D01*
X226496Y108444D01*
X226470Y108382D01*
X226456Y108291D01*
X226433Y108201D01*
X226426Y108084D01*
X226423Y108067D01*
X226424Y108059D01*
X226423Y108041D01*
X226423Y105059D01*
X225071Y103707D01*
X220650Y103707D01*
X220532Y103692D01*
X220413Y103685D01*
X220375Y103672D01*
X220334Y103667D01*
X220224Y103624D01*
X220111Y103587D01*
X220076Y103565D01*
X220039Y103550D01*
X219943Y103481D01*
X219842Y103417D01*
X219814Y103387D01*
X219781Y103364D01*
X219705Y103272D01*
X219624Y103185D01*
X219604Y103150D01*
X219579Y103119D01*
X219528Y103011D01*
X219470Y102907D01*
X219460Y102867D01*
X219443Y102831D01*
X219421Y102714D01*
X219407Y102659D01*
X216142Y102659D01*
X216024Y102644D01*
X215905Y102637D01*
X215867Y102625D01*
X215826Y102620D01*
X215716Y102576D01*
X215603Y102539D01*
X215568Y102517D01*
X215531Y102503D01*
X215435Y102433D01*
X215334Y102369D01*
X215306Y102339D01*
X215273Y102316D01*
X215197Y102224D01*
X215116Y102137D01*
X215096Y102102D01*
X215071Y102071D01*
X215020Y101963D01*
X214962Y101859D01*
X214952Y101820D01*
X214935Y101783D01*
X214913Y101666D01*
X214883Y101551D01*
X214879Y101491D01*
X214875Y101471D01*
X214875Y101470D01*
X214877Y101450D01*
X214873Y101390D01*
X214888Y101272D01*
X214895Y101153D01*
X214908Y101114D01*
X214913Y101074D01*
X214956Y100964D01*
X214993Y100850D01*
X215015Y100816D01*
X215030Y100779D01*
X215099Y100682D01*
X215163Y100582D01*
X215193Y100554D01*
X215216Y100521D01*
X215308Y100445D01*
X215395Y100364D01*
X215430Y100344D01*
X215461Y100318D01*
X215569Y100268D01*
X215673Y100210D01*
X215713Y100200D01*
X215749Y100183D01*
X215866Y100161D01*
X215981Y100131D01*
X216041Y100127D01*
X216061Y100123D01*
X216082Y100124D01*
X216142Y100121D01*
X219381Y100121D01*
X219381Y98094D01*
X219189Y97378D01*
X218818Y96736D01*
X218294Y96212D01*
X217652Y95841D01*
X217009Y95669D01*
X217009Y96582D01*
X217008Y96592D01*
X217009Y96602D01*
X216988Y96749D01*
X216970Y96897D01*
X216966Y96907D01*
X216964Y96917D01*
X216907Y97055D01*
X216853Y97193D01*
X216847Y97201D01*
X216843Y97210D01*
X216753Y97330D01*
X216666Y97450D01*
X216658Y97457D01*
X216652Y97465D01*
X216536Y97557D01*
X216421Y97653D01*
X216412Y97657D01*
X216404Y97664D01*
X216267Y97725D01*
X216133Y97788D01*
X216123Y97790D01*
X216114Y97795D01*
X215966Y97820D01*
X215821Y97848D01*
X215811Y97848D01*
X215801Y97849D01*
X215651Y97838D01*
X215503Y97828D01*
X215494Y97825D01*
X215483Y97825D01*
X215342Y97776D01*
X215201Y97730D01*
X215192Y97725D01*
X215183Y97722D01*
X215058Y97640D01*
X214932Y97560D01*
X214925Y97553D01*
X214917Y97547D01*
X214801Y97435D01*
X214761Y97379D01*
X214714Y97329D01*
X214714Y97328D01*
X214670Y97249D01*
X214618Y97175D01*
X214594Y97110D01*
X214560Y97050D01*
X214538Y96962D01*
X214506Y96877D01*
X214498Y96809D01*
X214481Y96742D01*
X214471Y96581D01*
X214471Y95669D01*
X213828Y95841D01*
X213575Y95987D01*
X213490Y96023D01*
X213409Y96068D01*
X213344Y96084D01*
X213282Y96110D01*
X213191Y96124D01*
X213101Y96147D01*
X212984Y96154D01*
X212967Y96157D01*
X212959Y96156D01*
X212941Y96157D01*
X202666Y96157D01*
X202528Y96140D01*
X202389Y96127D01*
X202370Y96120D01*
X202350Y96117D01*
X202221Y96066D01*
X202090Y96019D01*
X202073Y96008D01*
X202054Y96000D01*
X201942Y95919D01*
X201827Y95841D01*
X201814Y95825D01*
X201797Y95814D01*
X201708Y95706D01*
X201616Y95602D01*
X201607Y95584D01*
X201594Y95569D01*
X201535Y95443D01*
X201472Y95319D01*
X201467Y95299D01*
X201459Y95281D01*
X201433Y95144D01*
X201402Y95009D01*
X201403Y94988D01*
X201399Y94969D01*
X201408Y94830D01*
X201412Y94691D01*
X201417Y94671D01*
X201419Y94651D01*
X201461Y94519D01*
X201500Y94385D01*
X201511Y94368D01*
X201517Y94349D01*
X201591Y94231D01*
X201662Y94111D01*
X201680Y94090D01*
X201687Y94080D01*
X201702Y94066D01*
X201768Y93991D01*
X202533Y93226D01*
X202533Y82542D01*
X201342Y81351D01*
X192658Y81351D01*
X191674Y82336D01*
X191574Y82413D01*
X191479Y82495D01*
X191449Y82510D01*
X191422Y82531D01*
X191307Y82581D01*
X191194Y82637D01*
X191161Y82644D01*
X191130Y82657D01*
X191006Y82677D01*
X190883Y82703D01*
X190850Y82702D01*
X190816Y82707D01*
X190691Y82695D01*
X190566Y82690D01*
X190533Y82680D01*
X190500Y82677D01*
X190381Y82635D01*
X190261Y82598D01*
X190232Y82581D01*
X190200Y82570D01*
X190096Y82499D01*
X189989Y82434D01*
X189965Y82410D01*
X189937Y82391D01*
X189854Y82297D01*
X189766Y82207D01*
X189739Y82166D01*
X189727Y82153D01*
X189717Y82133D01*
X189677Y82073D01*
X189533Y81824D01*
X189060Y81351D01*
X188481Y81016D01*
X187834Y80843D01*
X185749Y80843D01*
X185749Y87404D01*
X185734Y87522D01*
X185727Y87641D01*
X185714Y87679D01*
X185709Y87719D01*
X185666Y87830D01*
X185629Y87943D01*
X185607Y87977D01*
X185592Y88015D01*
X185523Y88111D01*
X185459Y88212D01*
X185429Y88240D01*
X185406Y88272D01*
X185314Y88348D01*
X185227Y88430D01*
X185192Y88449D01*
X185161Y88475D01*
X185053Y88526D01*
X184949Y88583D01*
X184909Y88593D01*
X184873Y88611D01*
X184756Y88633D01*
X184754Y88639D01*
X184749Y88680D01*
X184705Y88790D01*
X184669Y88903D01*
X184647Y88938D01*
X184632Y88975D01*
X184562Y89071D01*
X184499Y89172D01*
X184469Y89200D01*
X184445Y89233D01*
X184354Y89309D01*
X184267Y89390D01*
X184232Y89410D01*
X184200Y89435D01*
X184093Y89486D01*
X183988Y89544D01*
X183949Y89554D01*
X183913Y89571D01*
X183796Y89593D01*
X183680Y89623D01*
X183620Y89627D01*
X183600Y89631D01*
X183580Y89629D01*
X183520Y89633D01*
X177959Y89633D01*
X177959Y92718D01*
X178132Y93365D01*
X178485Y93975D01*
X178525Y94026D01*
X178613Y94133D01*
X178622Y94152D01*
X178634Y94168D01*
X178690Y94295D01*
X178749Y94421D01*
X178753Y94441D01*
X178761Y94459D01*
X178782Y94596D01*
X178809Y94734D01*
X178807Y94754D01*
X178811Y94774D01*
X178798Y94912D01*
X178789Y95051D01*
X178783Y95070D01*
X178781Y95090D01*
X178734Y95221D01*
X178691Y95353D01*
X178680Y95370D01*
X178673Y95389D01*
X178595Y95504D01*
X178521Y95622D01*
X178506Y95636D01*
X178495Y95653D01*
X178391Y95745D01*
X178289Y95840D01*
X178271Y95850D01*
X178256Y95863D01*
X178132Y95926D01*
X178011Y95994D01*
X177991Y95999D01*
X177973Y96008D01*
X177837Y96038D01*
X177703Y96073D01*
X177675Y96075D01*
X177663Y96077D01*
X177642Y96077D01*
X177542Y96083D01*
X170655Y96083D01*
X167470Y99268D01*
X167392Y99328D01*
X167320Y99396D01*
X167267Y99425D01*
X167219Y99462D01*
X167128Y99502D01*
X167042Y99550D01*
X166983Y99565D01*
X166927Y99589D01*
X166829Y99604D01*
X166734Y99629D01*
X166634Y99635D01*
X166613Y99639D01*
X166601Y99637D01*
X166573Y99639D01*
X165429Y99639D01*
X165429Y106200D01*
X165414Y106318D01*
X165407Y106437D01*
X165394Y106475D01*
X165389Y106515D01*
X165346Y106626D01*
X165330Y106674D01*
X165340Y106692D01*
X165350Y106731D01*
X165367Y106767D01*
X165389Y106884D01*
X165419Y107000D01*
X165423Y107060D01*
X165427Y107080D01*
X165425Y107100D01*
X165429Y107160D01*
X165429Y121440D01*
X165414Y121558D01*
X165407Y121677D01*
X165394Y121715D01*
X165389Y121755D01*
X165346Y121866D01*
X165330Y121914D01*
X165340Y121932D01*
X165350Y121971D01*
X165367Y122007D01*
X165389Y122124D01*
X165419Y122240D01*
X165423Y122300D01*
X165427Y122320D01*
X165425Y122340D01*
X165429Y122400D01*
X165429Y128961D01*
X167514Y128961D01*
X168161Y128788D01*
X168740Y128453D01*
X169213Y127980D01*
X169357Y127731D01*
X169433Y127631D01*
X169503Y127527D01*
X169529Y127505D01*
X169549Y127478D01*
X169648Y127400D01*
X169742Y127316D01*
X169772Y127301D01*
X169798Y127280D01*
X169913Y127229D01*
X170025Y127172D01*
X170058Y127164D01*
X170089Y127151D01*
X170213Y127130D01*
X170335Y127102D01*
X170369Y127103D01*
X170402Y127098D01*
X170528Y127108D01*
X170653Y127112D01*
X170686Y127121D01*
X170719Y127124D01*
X170838Y127165D01*
X170959Y127200D01*
X170988Y127217D01*
X171020Y127228D01*
X171124Y127298D01*
X171233Y127362D01*
X171269Y127394D01*
X171285Y127404D01*
X171299Y127420D01*
X171354Y127468D01*
X172368Y128482D01*
X172383Y128488D01*
X172424Y128493D01*
X172534Y128536D01*
X172647Y128573D01*
X172682Y128595D01*
X172719Y128610D01*
X172815Y128679D01*
X172916Y128743D01*
X172944Y128773D01*
X172977Y128796D01*
X173053Y128888D01*
X173134Y128975D01*
X173154Y129010D01*
X173179Y129041D01*
X173230Y129149D01*
X173288Y129253D01*
X173298Y129293D01*
X173315Y129329D01*
X173337Y129446D01*
X173367Y129561D01*
X173371Y129621D01*
X173375Y129641D01*
X173373Y129662D01*
X173377Y129722D01*
X173377Y132328D01*
X179704Y138655D01*
X179777Y138749D01*
X179856Y138839D01*
X179874Y138874D01*
X179899Y138906D01*
X179947Y139016D01*
X180001Y139122D01*
X180009Y139161D01*
X180026Y139198D01*
X180044Y139316D01*
X180070Y139432D01*
X180069Y139472D01*
X180075Y139512D01*
X180064Y139631D01*
X180061Y139750D01*
X180049Y139789D01*
X180046Y139829D01*
X180005Y139941D01*
X179977Y140038D01*
X179977Y153861D01*
X181086Y154969D01*
X181146Y155047D01*
X181214Y155120D01*
X181243Y155173D01*
X181280Y155220D01*
X181320Y155311D01*
X181368Y155398D01*
X181383Y155457D01*
X181407Y155512D01*
X181422Y155610D01*
X181447Y155706D01*
X181453Y155806D01*
X181457Y155826D01*
X181455Y155839D01*
X181457Y155867D01*
X181457Y157680D01*
X183644Y159867D01*
X183657Y159871D01*
X183709Y159901D01*
X183765Y159924D01*
X183845Y159982D01*
X183931Y160032D01*
X184006Y160098D01*
X184023Y160110D01*
X184031Y160120D01*
X184052Y160138D01*
X186735Y162822D01*
X186820Y162931D01*
X186909Y163038D01*
X186917Y163057D01*
X186930Y163073D01*
X186985Y163201D01*
X187044Y163326D01*
X187048Y163346D01*
X187056Y163365D01*
X187078Y163503D01*
X187104Y163639D01*
X187103Y163659D01*
X187106Y163679D01*
X187093Y163818D01*
X187084Y163956D01*
X187078Y163975D01*
X187076Y163995D01*
X187029Y164127D01*
X186986Y164258D01*
X186975Y164276D01*
X186968Y164295D01*
X186890Y164410D01*
X186816Y164527D01*
X186801Y164541D01*
X186790Y164558D01*
X186686Y164650D01*
X186584Y164745D01*
X186567Y164755D01*
X186551Y164768D01*
X186427Y164832D01*
X186306Y164899D01*
X186286Y164904D01*
X186268Y164913D01*
X186132Y164943D01*
X185998Y164978D01*
X185970Y164980D01*
X185958Y164983D01*
X185937Y164982D01*
X185837Y164988D01*
X181143Y164988D01*
X181083Y165041D01*
X181047Y165060D01*
X181015Y165085D01*
X180906Y165132D01*
X180800Y165186D01*
X180761Y165195D01*
X180724Y165211D01*
X180606Y165230D01*
X180490Y165256D01*
X180450Y165254D01*
X180409Y165261D01*
X180291Y165250D01*
X180172Y165246D01*
X180133Y165235D01*
X180093Y165231D01*
X179981Y165191D01*
X179866Y165158D01*
X179832Y165137D01*
X179794Y165123D01*
X179724Y165076D01*
X179715Y165071D01*
X178991Y164653D01*
X178344Y164480D01*
X176634Y164480D01*
X176634Y172916D01*
X176619Y173034D01*
X176612Y173153D01*
X176599Y173191D01*
X176594Y173231D01*
X176551Y173342D01*
X176514Y173455D01*
X176492Y173489D01*
X176477Y173527D01*
X176408Y173623D01*
X176344Y173724D01*
X176314Y173752D01*
X176291Y173784D01*
X176199Y173860D01*
X176112Y173942D01*
X176077Y173961D01*
X176046Y173987D01*
X175938Y174038D01*
X175834Y174095D01*
X175794Y174105D01*
X175758Y174123D01*
X175641Y174145D01*
X175526Y174175D01*
X175466Y174179D01*
X175446Y174182D01*
X175425Y174181D01*
X175365Y174185D01*
X175155Y174185D01*
X175037Y174170D01*
X174918Y174163D01*
X174880Y174150D01*
X174839Y174145D01*
X174729Y174101D01*
X174616Y174065D01*
X174581Y174043D01*
X174544Y174028D01*
X174447Y173958D01*
X174347Y173895D01*
X174319Y173865D01*
X174286Y173841D01*
X174210Y173750D01*
X174129Y173663D01*
X174109Y173628D01*
X174084Y173596D01*
X174033Y173489D01*
X173975Y173384D01*
X173965Y173345D01*
X173948Y173309D01*
X173926Y173192D01*
X173896Y173076D01*
X173892Y173016D01*
X173888Y172996D01*
X173890Y172976D01*
X173886Y172916D01*
X173886Y164480D01*
X172176Y164480D01*
X171529Y164653D01*
X170879Y165029D01*
X170865Y165041D01*
X170829Y165060D01*
X170798Y165084D01*
X170688Y165132D01*
X170582Y165186D01*
X170543Y165195D01*
X170506Y165211D01*
X170388Y165229D01*
X170271Y165256D01*
X170232Y165254D01*
X170192Y165261D01*
X170073Y165250D01*
X169953Y165246D01*
X169915Y165235D01*
X169875Y165231D01*
X169763Y165191D01*
X169648Y165158D01*
X169614Y165137D01*
X169576Y165124D01*
X169477Y165057D01*
X169374Y164996D01*
X169365Y164988D01*
X162168Y164988D01*
X160977Y166179D01*
X160977Y179863D01*
X162086Y180971D01*
X162146Y181049D01*
X162214Y181122D01*
X162243Y181175D01*
X162280Y181222D01*
X162320Y181313D01*
X162368Y181400D01*
X162383Y181459D01*
X162407Y181514D01*
X162422Y181612D01*
X162447Y181708D01*
X162453Y181808D01*
X162457Y181828D01*
X162455Y181841D01*
X162457Y181869D01*
X162457Y186568D01*
X162776Y186886D01*
X162836Y186965D01*
X162904Y187037D01*
X162933Y187090D01*
X162970Y187138D01*
X163010Y187229D01*
X163058Y187315D01*
X163073Y187374D01*
X163097Y187429D01*
X163112Y187527D01*
X163137Y187623D01*
X163143Y187723D01*
X163147Y187744D01*
X163145Y187756D01*
X163147Y187784D01*
X163147Y195962D01*
X164132Y196946D01*
X164209Y197046D01*
X164291Y197141D01*
X164306Y197171D01*
X164327Y197198D01*
X164377Y197313D01*
X164433Y197426D01*
X164440Y197459D01*
X164453Y197490D01*
X164473Y197614D01*
X164499Y197737D01*
X164498Y197770D01*
X164503Y197804D01*
X164491Y197929D01*
X164486Y198054D01*
X164476Y198087D01*
X164473Y198120D01*
X164431Y198239D01*
X164394Y198359D01*
X164377Y198388D01*
X164366Y198420D01*
X164295Y198524D01*
X164230Y198631D01*
X164206Y198655D01*
X164187Y198683D01*
X164093Y198766D01*
X164003Y198854D01*
X163962Y198881D01*
X163949Y198893D01*
X163929Y198903D01*
X163869Y198943D01*
X163620Y199087D01*
X163147Y199560D01*
X162812Y200139D01*
X162639Y200786D01*
X162639Y204121D01*
X168950Y204121D01*
X169068Y204136D01*
X169187Y204143D01*
X169225Y204155D01*
X169265Y204161D01*
X169376Y204204D01*
X169489Y204241D01*
X169523Y204263D01*
X169561Y204278D01*
X169657Y204347D01*
X169758Y204411D01*
X169786Y204441D01*
X169818Y204464D01*
X169894Y204556D01*
X169976Y204643D01*
X169995Y204678D01*
X170021Y204709D01*
X170072Y204817D01*
X170129Y204921D01*
X170139Y204961D01*
X170157Y204997D01*
X170179Y205114D01*
X170209Y205229D01*
X170213Y205289D01*
X170216Y205309D01*
X170215Y205330D01*
X170219Y205390D01*
X170219Y206581D01*
X171410Y206581D01*
X171528Y206596D01*
X171647Y206603D01*
X171685Y206616D01*
X171726Y206621D01*
X171836Y206665D01*
X171949Y206701D01*
X171984Y206723D01*
X172021Y206738D01*
X172117Y206808D01*
X172218Y206871D01*
X172246Y206901D01*
X172279Y206925D01*
X172355Y207016D01*
X172436Y207103D01*
X172456Y207138D01*
X172481Y207170D01*
X172532Y207277D01*
X172590Y207382D01*
X172600Y207421D01*
X172617Y207457D01*
X172639Y207574D01*
X172669Y207690D01*
X172673Y207750D01*
X172677Y207770D01*
X172675Y207790D01*
X172679Y207850D01*
X172679Y214661D01*
X174498Y214661D01*
X174616Y214676D01*
X174735Y214683D01*
X174773Y214696D01*
X174814Y214701D01*
X174924Y214744D01*
X175037Y214781D01*
X175072Y214803D01*
X175109Y214818D01*
X175205Y214887D01*
X175306Y214951D01*
X175334Y214981D01*
X175367Y215004D01*
X175443Y215096D01*
X175524Y215183D01*
X175544Y215218D01*
X175569Y215249D01*
X175620Y215357D01*
X175678Y215461D01*
X175688Y215501D01*
X175705Y215537D01*
X175727Y215654D01*
X175757Y215769D01*
X175761Y215829D01*
X175765Y215849D01*
X175763Y215870D01*
X175767Y215930D01*
X175767Y223618D01*
X176681Y224532D01*
X176724Y224587D01*
X176774Y224636D01*
X176821Y224713D01*
X176876Y224783D01*
X176904Y224847D01*
X176941Y224907D01*
X176967Y224993D01*
X177003Y225075D01*
X177014Y225144D01*
X177034Y225211D01*
X177038Y225300D01*
X177053Y225389D01*
X177046Y225459D01*
X177049Y225529D01*
X177031Y225616D01*
X177023Y225706D01*
X176999Y225772D01*
X176985Y225840D01*
X176946Y225921D01*
X176915Y226005D01*
X176876Y226063D01*
X176845Y226126D01*
X176787Y226194D01*
X176737Y226268D01*
X176684Y226315D01*
X176639Y226368D01*
X176565Y226419D01*
X176498Y226479D01*
X176436Y226511D01*
X176379Y226551D01*
X176295Y226583D01*
X176215Y226624D01*
X176147Y226639D01*
X176082Y226664D01*
X175992Y226674D01*
X175905Y226693D01*
X175835Y226691D01*
X175765Y226699D01*
X175676Y226686D01*
X175587Y226684D01*
X175520Y226664D01*
X175451Y226654D01*
X175298Y226602D01*
X172582Y225477D01*
X167298Y225477D01*
X162416Y227499D01*
X160409Y229506D01*
X160300Y229591D01*
X160193Y229680D01*
X160174Y229688D01*
X160158Y229701D01*
X160030Y229756D01*
X159905Y229815D01*
X159885Y229819D01*
X159866Y229827D01*
X159728Y229849D01*
X159592Y229875D01*
X159572Y229874D01*
X159552Y229877D01*
X159413Y229864D01*
X159275Y229855D01*
X159256Y229849D01*
X159236Y229847D01*
X159104Y229800D01*
X158973Y229757D01*
X158955Y229747D01*
X158936Y229740D01*
X158821Y229662D01*
X158704Y229587D01*
X158690Y229572D01*
X158673Y229561D01*
X158581Y229457D01*
X158486Y229356D01*
X158476Y229338D01*
X158463Y229323D01*
X158399Y229199D01*
X158332Y229077D01*
X158327Y229057D01*
X158318Y229039D01*
X158288Y228904D01*
X158253Y228769D01*
X158251Y228741D01*
X158248Y228729D01*
X158249Y228709D01*
X158243Y228608D01*
X158243Y130185D01*
X158258Y130061D01*
X158268Y129935D01*
X158278Y129903D01*
X158283Y129870D01*
X158329Y129753D01*
X158369Y129634D01*
X158387Y129605D01*
X158400Y129574D01*
X158473Y129473D01*
X158542Y129367D01*
X158567Y129344D01*
X158586Y129317D01*
X158683Y129237D01*
X158776Y129151D01*
X158806Y129135D01*
X158831Y129114D01*
X158945Y129060D01*
X159056Y129001D01*
X159089Y128993D01*
X159119Y128978D01*
X159242Y128955D01*
X159365Y128925D01*
X159398Y128925D01*
X159431Y128919D01*
X159557Y128926D01*
X159683Y128928D01*
X159731Y128937D01*
X159749Y128938D01*
X159769Y128945D01*
X159841Y128959D01*
X159846Y128961D01*
X161931Y128961D01*
X161931Y122400D01*
X161946Y122282D01*
X161953Y122163D01*
X161965Y122125D01*
X161971Y122085D01*
X162014Y121974D01*
X162030Y121926D01*
X162020Y121908D01*
X162010Y121869D01*
X161993Y121833D01*
X161971Y121716D01*
X161941Y121600D01*
X161937Y121540D01*
X161933Y121520D01*
X161935Y121500D01*
X161931Y121440D01*
X161931Y107160D01*
X161946Y107042D01*
X161953Y106923D01*
X161965Y106885D01*
X161971Y106845D01*
X162014Y106734D01*
X162030Y106686D01*
X162020Y106668D01*
X162010Y106629D01*
X161993Y106593D01*
X161971Y106476D01*
X161941Y106360D01*
X161937Y106300D01*
X161933Y106280D01*
X161935Y106260D01*
X161931Y106200D01*
X161931Y99639D01*
X159846Y99639D01*
X159841Y99641D01*
X159716Y99658D01*
X159592Y99681D01*
X159559Y99679D01*
X159526Y99684D01*
X159400Y99669D01*
X159275Y99662D01*
X159243Y99651D01*
X159210Y99647D01*
X159092Y99602D01*
X158973Y99564D01*
X158944Y99546D01*
X158913Y99534D01*
X158810Y99461D01*
X158704Y99393D01*
X158681Y99369D01*
X158653Y99349D01*
X158572Y99253D01*
X158486Y99162D01*
X158470Y99132D01*
X158448Y99107D01*
X158393Y98993D01*
X158332Y98883D01*
X158324Y98851D01*
X158309Y98820D01*
X158284Y98697D01*
X158253Y98575D01*
X158250Y98527D01*
X158246Y98509D01*
X158247Y98487D01*
X158243Y98415D01*
X158243Y82382D01*
X158260Y82244D01*
X158273Y82105D01*
X158280Y82086D01*
X158283Y82066D01*
X158334Y81937D01*
X158381Y81806D01*
X158392Y81789D01*
X158400Y81770D01*
X158481Y81658D01*
X158559Y81543D01*
X158575Y81530D01*
X158586Y81513D01*
X158694Y81424D01*
X158798Y81332D01*
X158816Y81323D01*
X158831Y81310D01*
X158957Y81251D01*
X159081Y81188D01*
X159101Y81183D01*
X159119Y81175D01*
X159256Y81149D01*
X159391Y81118D01*
X159412Y81119D01*
X159431Y81115D01*
X159570Y81124D01*
X159709Y81128D01*
X159729Y81133D01*
X159749Y81135D01*
X159881Y81178D01*
X160015Y81216D01*
X160032Y81227D01*
X160051Y81233D01*
X160169Y81307D01*
X160289Y81378D01*
X160310Y81396D01*
X160320Y81403D01*
X160334Y81418D01*
X160409Y81484D01*
X161838Y82913D01*
X176690Y82913D01*
X176808Y82928D01*
X176927Y82935D01*
X176965Y82948D01*
X177006Y82953D01*
X177116Y82996D01*
X177229Y83033D01*
X177264Y83055D01*
X177301Y83070D01*
X177397Y83139D01*
X177498Y83203D01*
X177526Y83233D01*
X177559Y83256D01*
X177635Y83348D01*
X177716Y83435D01*
X177736Y83470D01*
X177761Y83501D01*
X177812Y83609D01*
X177870Y83713D01*
X177880Y83753D01*
X177897Y83789D01*
X177919Y83906D01*
X177949Y84021D01*
X177953Y84081D01*
X177957Y84101D01*
X177955Y84122D01*
X177959Y84182D01*
X177959Y86135D01*
X182251Y86135D01*
X182251Y80843D01*
X180982Y80843D01*
X180864Y80828D01*
X180745Y80821D01*
X180707Y80808D01*
X180666Y80803D01*
X180556Y80760D01*
X180443Y80723D01*
X180408Y80701D01*
X180371Y80686D01*
X180275Y80617D01*
X180174Y80553D01*
X180146Y80523D01*
X180113Y80500D01*
X180037Y80408D01*
X179956Y80321D01*
X179936Y80286D01*
X179911Y80255D01*
X179860Y80147D01*
X179802Y80043D01*
X179792Y80003D01*
X179775Y79967D01*
X179753Y79850D01*
X179723Y79735D01*
X179719Y79675D01*
X179715Y79655D01*
X179717Y79634D01*
X179713Y79574D01*
X179713Y65038D01*
X178522Y63847D01*
X173454Y63847D01*
X173336Y63832D01*
X173217Y63825D01*
X173179Y63812D01*
X173138Y63807D01*
X173028Y63764D01*
X172915Y63727D01*
X172880Y63705D01*
X172843Y63690D01*
X172747Y63621D01*
X172646Y63557D01*
X172618Y63527D01*
X172585Y63504D01*
X172509Y63412D01*
X172428Y63325D01*
X172408Y63290D01*
X172383Y63259D01*
X172332Y63151D01*
X172274Y63047D01*
X172264Y63007D01*
X172247Y62971D01*
X172225Y62854D01*
X172195Y62739D01*
X172191Y62679D01*
X172187Y62659D01*
X172189Y62638D01*
X172185Y62578D01*
X172185Y61580D01*
X172197Y61482D01*
X172200Y61383D01*
X172217Y61325D01*
X172225Y61265D01*
X172261Y61173D01*
X172289Y61078D01*
X172319Y61025D01*
X172342Y60969D01*
X172400Y60889D01*
X172450Y60804D01*
X172516Y60728D01*
X172528Y60712D01*
X172538Y60704D01*
X172556Y60683D01*
X174066Y59174D01*
X174951Y57037D01*
X174951Y54723D01*
X174066Y52586D01*
X172430Y50951D01*
X172218Y50863D01*
X172157Y50828D01*
X172092Y50802D01*
X172019Y50750D01*
X171941Y50705D01*
X171891Y50657D01*
X171835Y50616D01*
X171777Y50546D01*
X171713Y50484D01*
X171676Y50424D01*
X171632Y50371D01*
X171594Y50289D01*
X171547Y50213D01*
X171526Y50146D01*
X171496Y50083D01*
X171480Y49995D01*
X171453Y49909D01*
X171450Y49839D01*
X171437Y49770D01*
X171442Y49681D01*
X171438Y49591D01*
X171452Y49523D01*
X171456Y49453D01*
X171484Y49368D01*
X171502Y49280D01*
X171533Y49217D01*
X171554Y49151D01*
X171602Y49075D01*
X171642Y48994D01*
X171687Y48941D01*
X171725Y48882D01*
X171790Y48820D01*
X171848Y48752D01*
X171905Y48712D01*
X171956Y48664D01*
X172035Y48621D01*
X172108Y48569D01*
X172174Y48544D01*
X172235Y48510D01*
X172322Y48488D01*
X172406Y48456D01*
X172475Y48448D01*
X172543Y48431D01*
X172703Y48421D01*
X178014Y48421D01*
X178661Y48248D01*
X178958Y48076D01*
X179081Y48024D01*
X179200Y47968D01*
X179227Y47963D01*
X179252Y47952D01*
X179383Y47933D01*
X179513Y47908D01*
X179539Y47910D01*
X179566Y47906D01*
X179698Y47920D01*
X179830Y47928D01*
X179856Y47936D01*
X179882Y47939D01*
X180006Y47985D01*
X180132Y48026D01*
X180155Y48040D01*
X180181Y48050D01*
X180289Y48125D01*
X180401Y48196D01*
X180420Y48216D01*
X180442Y48231D01*
X180528Y48331D01*
X180619Y48428D01*
X180632Y48451D01*
X180650Y48472D01*
X180709Y48591D01*
X180773Y48706D01*
X180779Y48732D01*
X180791Y48757D01*
X180819Y48887D01*
X180852Y49014D01*
X180854Y49052D01*
X180858Y49068D01*
X180857Y49090D01*
X180862Y49175D01*
X180862Y55433D01*
X183490Y61776D01*
X188344Y66630D01*
X194687Y69258D01*
X201553Y69258D01*
X207896Y66630D01*
X212750Y61776D01*
X215378Y55433D01*
X215378Y48567D01*
X212750Y42224D01*
X207896Y37370D01*
X201553Y34742D01*
X194687Y34742D01*
X188344Y37370D01*
X183490Y42224D01*
X182663Y44221D01*
X182628Y44281D01*
X182602Y44346D01*
X182550Y44419D01*
X182505Y44497D01*
X182457Y44547D01*
X182416Y44604D01*
X182346Y44661D01*
X182284Y44725D01*
X182224Y44762D01*
X182171Y44806D01*
X182089Y44845D01*
X182013Y44892D01*
X181946Y44912D01*
X181883Y44942D01*
X181795Y44959D01*
X181709Y44985D01*
X181639Y44989D01*
X181570Y45002D01*
X181481Y44996D01*
X181391Y45001D01*
X181323Y44986D01*
X181253Y44982D01*
X181168Y44954D01*
X181080Y44936D01*
X181017Y44906D01*
X180951Y44884D01*
X180875Y44836D01*
X180794Y44796D01*
X180741Y44751D01*
X180682Y44714D01*
X180620Y44648D01*
X180552Y44590D01*
X180512Y44533D01*
X180464Y44482D01*
X180421Y44404D01*
X180369Y44330D01*
X180344Y44265D01*
X180310Y44204D01*
X180288Y44117D01*
X180256Y44033D01*
X180248Y43963D01*
X180231Y43896D01*
X180221Y43735D01*
X180221Y40919D01*
X171450Y40919D01*
X171332Y40904D01*
X171213Y40897D01*
X171175Y40884D01*
X171135Y40879D01*
X171024Y40835D01*
X170911Y40799D01*
X170876Y40777D01*
X170839Y40762D01*
X170743Y40692D01*
X170642Y40629D01*
X170614Y40599D01*
X170582Y40575D01*
X170506Y40484D01*
X170424Y40397D01*
X170405Y40362D01*
X170379Y40330D01*
X170328Y40223D01*
X170271Y40119D01*
X170260Y40079D01*
X170243Y40043D01*
X170221Y39926D01*
X170191Y39811D01*
X170187Y39750D01*
X170183Y39730D01*
X170185Y39710D01*
X170181Y39650D01*
X170181Y37110D01*
X170196Y36992D01*
X170203Y36873D01*
X170216Y36835D01*
X170221Y36795D01*
X170265Y36684D01*
X170301Y36571D01*
X170323Y36536D01*
X170338Y36499D01*
X170408Y36403D01*
X170471Y36302D01*
X170501Y36274D01*
X170525Y36241D01*
X170616Y36166D01*
X170703Y36084D01*
X170738Y36064D01*
X170770Y36039D01*
X170877Y35988D01*
X170981Y35930D01*
X171021Y35920D01*
X171057Y35903D01*
X171174Y35881D01*
X171289Y35851D01*
X171350Y35847D01*
X171370Y35843D01*
X171390Y35845D01*
X171450Y35841D01*
X180221Y35841D01*
X180221Y33020D01*
X180236Y32902D01*
X180243Y32783D01*
X180256Y32745D01*
X180261Y32704D01*
X180304Y32594D01*
X180341Y32481D01*
X180363Y32446D01*
X180378Y32409D01*
X180447Y32313D01*
X180511Y32212D01*
X180541Y32184D01*
X180564Y32151D01*
X180656Y32076D01*
X180743Y31994D01*
X180778Y31974D01*
X180809Y31949D01*
X180917Y31898D01*
X181021Y31840D01*
X181061Y31830D01*
X181097Y31813D01*
X181214Y31791D01*
X181329Y31761D01*
X181389Y31757D01*
X181409Y31753D01*
X181430Y31755D01*
X181490Y31751D01*
X227543Y31751D01*
X227661Y31766D01*
G37*
%LPC*%
G36*
X359787Y34742D02*
X359787Y34742D01*
X353444Y37370D01*
X348590Y42224D01*
X345962Y48567D01*
X345962Y55433D01*
X348590Y61776D01*
X353444Y66630D01*
X359787Y69258D01*
X366653Y69258D01*
X372996Y66630D01*
X377850Y61776D01*
X380478Y55433D01*
X380478Y48567D01*
X377850Y42224D01*
X372996Y37370D01*
X366653Y34742D01*
X359787Y34742D01*
G37*
%LPD*%
%LPC*%
G36*
X162168Y138986D02*
X162168Y138986D01*
X160977Y140177D01*
X160977Y153861D01*
X162168Y155052D01*
X169352Y155052D01*
X170543Y153861D01*
X170543Y140177D01*
X169352Y138986D01*
X162168Y138986D01*
G37*
%LPD*%
%LPC*%
G36*
X388619Y150739D02*
X388619Y150739D01*
X388619Y157241D01*
X393914Y157241D01*
X394561Y157068D01*
X395140Y156733D01*
X395613Y156260D01*
X395948Y155681D01*
X396121Y155034D01*
X396121Y150739D01*
X388619Y150739D01*
G37*
%LPD*%
%LPC*%
G36*
X376039Y150739D02*
X376039Y150739D01*
X376039Y155034D01*
X376212Y155681D01*
X376547Y156260D01*
X377020Y156733D01*
X377599Y157068D01*
X378246Y157241D01*
X383541Y157241D01*
X383541Y150739D01*
X376039Y150739D01*
G37*
%LPD*%
%LPC*%
G36*
X313014Y171146D02*
X313014Y171146D01*
X313014Y175363D01*
X314824Y175363D01*
X315471Y175190D01*
X316050Y174855D01*
X316603Y174303D01*
X316697Y174230D01*
X316786Y174151D01*
X316822Y174133D01*
X316854Y174108D01*
X316963Y174060D01*
X317069Y174006D01*
X317108Y173997D01*
X317146Y173981D01*
X317263Y173963D01*
X317379Y173937D01*
X317420Y173938D01*
X317460Y173931D01*
X317578Y173943D01*
X317697Y173946D01*
X317736Y173958D01*
X317776Y173961D01*
X317888Y174002D01*
X318003Y174035D01*
X318038Y174055D01*
X318076Y174069D01*
X318174Y174136D01*
X318277Y174196D01*
X318322Y174236D01*
X318339Y174247D01*
X318352Y174263D01*
X318398Y174303D01*
X318950Y174855D01*
X319529Y175190D01*
X320176Y175363D01*
X321986Y175363D01*
X321986Y171146D01*
X313014Y171146D01*
G37*
%LPD*%
%LPC*%
G36*
X332479Y37659D02*
X332479Y37659D01*
X332479Y42201D01*
X337814Y42201D01*
X338461Y42028D01*
X339040Y41693D01*
X339513Y41220D01*
X339848Y40641D01*
X340021Y39994D01*
X340021Y37659D01*
X332479Y37659D01*
G37*
%LPD*%
%LPC*%
G36*
X320939Y37659D02*
X320939Y37659D01*
X320939Y39994D01*
X321112Y40641D01*
X321447Y41220D01*
X321920Y41693D01*
X322499Y42028D01*
X323146Y42201D01*
X328481Y42201D01*
X328481Y37659D01*
X320939Y37659D01*
G37*
%LPD*%
%LPC*%
G36*
X368259Y148159D02*
X368259Y148159D01*
X368259Y153701D01*
X371094Y153701D01*
X371741Y153528D01*
X372320Y153193D01*
X372793Y152720D01*
X373128Y152141D01*
X373301Y151494D01*
X373301Y148159D01*
X368259Y148159D01*
G37*
%LPD*%
%LPC*%
G36*
X162639Y209119D02*
X162639Y209119D01*
X162639Y212454D01*
X162812Y213101D01*
X163147Y213680D01*
X163620Y214153D01*
X164199Y214488D01*
X164846Y214661D01*
X167681Y214661D01*
X167681Y209119D01*
X162639Y209119D01*
G37*
%LPD*%
%LPC*%
G36*
X216739Y161115D02*
X216739Y161115D01*
X216739Y166157D01*
X222281Y166157D01*
X222281Y163322D01*
X222108Y162675D01*
X221773Y162096D01*
X221300Y161623D01*
X220721Y161288D01*
X220074Y161115D01*
X216739Y161115D01*
G37*
%LPD*%
%LPC*%
G36*
X358219Y148159D02*
X358219Y148159D01*
X358219Y151494D01*
X358392Y152141D01*
X358727Y152720D01*
X359200Y153193D01*
X359779Y153528D01*
X360426Y153701D01*
X363261Y153701D01*
X363261Y148159D01*
X358219Y148159D01*
G37*
%LPD*%
%LPC*%
G36*
X327749Y140119D02*
X327749Y140119D01*
X327749Y148391D01*
X331021Y148391D01*
X331021Y142326D01*
X330848Y141679D01*
X330513Y141100D01*
X330040Y140627D01*
X329461Y140292D01*
X328814Y140119D01*
X327749Y140119D01*
G37*
%LPD*%
%LPC*%
G36*
X237939Y150929D02*
X237939Y150929D01*
X237939Y156994D01*
X238112Y157641D01*
X238447Y158220D01*
X238920Y158693D01*
X239499Y159028D01*
X240146Y159201D01*
X241211Y159201D01*
X241211Y150929D01*
X237939Y150929D01*
G37*
%LPD*%
%LPC*%
G36*
X354710Y85978D02*
X354710Y85978D01*
X354710Y90171D01*
X358093Y90171D01*
X358740Y89998D01*
X359319Y89663D01*
X359792Y89190D01*
X360127Y88611D01*
X360300Y87964D01*
X360300Y85978D01*
X354710Y85978D01*
G37*
%LPD*%
%LPC*%
G36*
X345820Y85978D02*
X345820Y85978D01*
X345820Y87964D01*
X345993Y88611D01*
X346328Y89190D01*
X346801Y89663D01*
X347380Y89998D01*
X348027Y90171D01*
X351410Y90171D01*
X351410Y85978D01*
X345820Y85978D01*
G37*
%LPD*%
%LPC*%
G36*
X354710Y78485D02*
X354710Y78485D01*
X354710Y82678D01*
X360300Y82678D01*
X360300Y80692D01*
X360127Y80045D01*
X359792Y79466D01*
X359319Y78993D01*
X358740Y78658D01*
X358093Y78485D01*
X354710Y78485D01*
G37*
%LPD*%
%LPC*%
G36*
X348027Y78485D02*
X348027Y78485D01*
X347380Y78658D01*
X346801Y78993D01*
X346328Y79466D01*
X345993Y80045D01*
X345820Y80692D01*
X345820Y82678D01*
X351410Y82678D01*
X351410Y78485D01*
X348027Y78485D01*
G37*
%LPD*%
%LPC*%
G36*
X392226Y192666D02*
X392226Y192666D01*
X397343Y192666D01*
X397343Y190756D01*
X397170Y190109D01*
X396835Y189530D01*
X396362Y189057D01*
X395783Y188722D01*
X395136Y188549D01*
X392917Y188549D01*
X392847Y188541D01*
X392778Y188542D01*
X392690Y188521D01*
X392601Y188509D01*
X392536Y188484D01*
X392468Y188467D01*
X392389Y188425D01*
X392305Y188392D01*
X392249Y188351D01*
X392226Y188339D01*
X392226Y192666D01*
G37*
%LPD*%
%LPC*%
G36*
X392226Y195814D02*
X392226Y195814D01*
X392226Y199931D01*
X395136Y199931D01*
X395783Y199758D01*
X396362Y199423D01*
X396835Y198950D01*
X397170Y198371D01*
X397343Y197724D01*
X397343Y195814D01*
X392226Y195814D01*
G37*
%LPD*%
%LPC*%
G36*
X383961Y195814D02*
X383961Y195814D01*
X383961Y197724D01*
X384134Y198371D01*
X384469Y198950D01*
X384942Y199423D01*
X385521Y199758D01*
X386168Y199931D01*
X389078Y199931D01*
X389078Y195814D01*
X383961Y195814D01*
G37*
%LPD*%
%LPC*%
G36*
X386168Y188549D02*
X386168Y188549D01*
X385521Y188722D01*
X384942Y189057D01*
X384469Y189530D01*
X384134Y190109D01*
X383961Y190756D01*
X383961Y192666D01*
X389078Y192666D01*
X389078Y188549D01*
X386168Y188549D01*
G37*
%LPD*%
%LPC*%
G36*
X263627Y182775D02*
X263627Y182775D01*
X263627Y186817D01*
X265962Y186817D01*
X266609Y186644D01*
X267188Y186309D01*
X267661Y185836D01*
X267996Y185257D01*
X268169Y184610D01*
X268169Y182775D01*
X263627Y182775D01*
G37*
%LPD*%
%LPC*%
G36*
X256087Y182775D02*
X256087Y182775D01*
X256087Y184610D01*
X256260Y185257D01*
X256595Y185836D01*
X257068Y186309D01*
X257647Y186644D01*
X258294Y186817D01*
X260629Y186817D01*
X260629Y182775D01*
X256087Y182775D01*
G37*
%LPD*%
D10*
X383540Y104140D03*
D11*
X198120Y52000D03*
X198120Y202000D03*
X363220Y202000D03*
X363220Y52000D03*
D12*
X284480Y174380D03*
X284480Y191380D03*
D13*
X323460Y169672D03*
X331860Y169672D03*
X311540Y169672D03*
X303140Y169672D03*
D14*
X163680Y121920D03*
X176680Y121920D03*
X184000Y87884D03*
X197000Y87884D03*
X163680Y106680D03*
X176680Y106680D03*
D12*
X365760Y145660D03*
X365760Y128660D03*
D15*
X353060Y84328D03*
X353060Y98552D03*
D16*
X231140Y210820D03*
X256540Y210820D03*
X281940Y210820D03*
X307340Y210820D03*
D17*
X370220Y114300D03*
X356220Y114300D03*
D18*
X368300Y102872D03*
X368300Y94232D03*
D19*
X170180Y38380D03*
X170180Y73380D03*
D20*
X330480Y35660D03*
D21*
X330480Y65660D03*
X330480Y72660D03*
X330480Y79660D03*
X330480Y86660D03*
X330480Y93660D03*
X330480Y100660D03*
X330480Y107660D03*
X330480Y114660D03*
X330480Y121660D03*
X330480Y128660D03*
D22*
X326480Y149660D03*
X319480Y149660D03*
X312480Y149660D03*
X305480Y149660D03*
X298480Y149660D03*
X291480Y149660D03*
X284480Y149660D03*
X277480Y149660D03*
X270480Y149660D03*
X263480Y149660D03*
X256480Y149660D03*
X249480Y149660D03*
X242480Y149660D03*
D21*
X238480Y128660D03*
X238480Y121660D03*
X238480Y114660D03*
X238480Y107660D03*
X238480Y100660D03*
X238480Y93660D03*
X238480Y86660D03*
X238480Y79660D03*
X238480Y72660D03*
X238480Y65660D03*
X238480Y58660D03*
X238480Y51660D03*
X238480Y44660D03*
D20*
X238480Y35660D03*
D23*
X255480Y41160D03*
X255480Y55160D03*
D21*
X238480Y135660D03*
D24*
X214915Y135215D02*
X214915Y129365D01*
X214915Y135215D02*
X216565Y135215D01*
X216565Y129365D01*
X214915Y129365D01*
X214915Y129887D02*
X216565Y129887D01*
X216565Y130409D02*
X214915Y130409D01*
X214915Y130931D02*
X216565Y130931D01*
X216565Y131453D02*
X214915Y131453D01*
X214915Y131975D02*
X216565Y131975D01*
X216565Y132497D02*
X214915Y132497D01*
X214915Y133019D02*
X216565Y133019D01*
X216565Y133541D02*
X214915Y133541D01*
X214915Y134063D02*
X216565Y134063D01*
X216565Y134585D02*
X214915Y134585D01*
X214915Y135107D02*
X216565Y135107D01*
X210915Y135215D02*
X210915Y129365D01*
X210915Y135215D02*
X212565Y135215D01*
X212565Y129365D01*
X210915Y129365D01*
X210915Y129887D02*
X212565Y129887D01*
X212565Y130409D02*
X210915Y130409D01*
X210915Y130931D02*
X212565Y130931D01*
X212565Y131453D02*
X210915Y131453D01*
X210915Y131975D02*
X212565Y131975D01*
X212565Y132497D02*
X210915Y132497D01*
X210915Y133019D02*
X212565Y133019D01*
X212565Y133541D02*
X210915Y133541D01*
X210915Y134063D02*
X212565Y134063D01*
X212565Y134585D02*
X210915Y134585D01*
X210915Y135107D02*
X212565Y135107D01*
X206915Y135215D02*
X206915Y129365D01*
X206915Y135215D02*
X208565Y135215D01*
X208565Y129365D01*
X206915Y129365D01*
X206915Y129887D02*
X208565Y129887D01*
X208565Y130409D02*
X206915Y130409D01*
X206915Y130931D02*
X208565Y130931D01*
X208565Y131453D02*
X206915Y131453D01*
X206915Y131975D02*
X208565Y131975D01*
X208565Y132497D02*
X206915Y132497D01*
X206915Y133019D02*
X208565Y133019D01*
X208565Y133541D02*
X206915Y133541D01*
X206915Y134063D02*
X208565Y134063D01*
X208565Y134585D02*
X206915Y134585D01*
X206915Y135107D02*
X208565Y135107D01*
X202915Y135215D02*
X202915Y129365D01*
X202915Y135215D02*
X204565Y135215D01*
X204565Y129365D01*
X202915Y129365D01*
X202915Y129887D02*
X204565Y129887D01*
X204565Y130409D02*
X202915Y130409D01*
X202915Y130931D02*
X204565Y130931D01*
X204565Y131453D02*
X202915Y131453D01*
X202915Y131975D02*
X204565Y131975D01*
X204565Y132497D02*
X202915Y132497D01*
X202915Y133019D02*
X204565Y133019D01*
X204565Y133541D02*
X202915Y133541D01*
X202915Y134063D02*
X204565Y134063D01*
X204565Y134585D02*
X202915Y134585D01*
X202915Y135107D02*
X204565Y135107D01*
X198915Y135215D02*
X198915Y129365D01*
X198915Y135215D02*
X200565Y135215D01*
X200565Y129365D01*
X198915Y129365D01*
X198915Y129887D02*
X200565Y129887D01*
X200565Y130409D02*
X198915Y130409D01*
X198915Y130931D02*
X200565Y130931D01*
X200565Y131453D02*
X198915Y131453D01*
X198915Y131975D02*
X200565Y131975D01*
X200565Y132497D02*
X198915Y132497D01*
X198915Y133019D02*
X200565Y133019D01*
X200565Y133541D02*
X198915Y133541D01*
X198915Y134063D02*
X200565Y134063D01*
X200565Y134585D02*
X198915Y134585D01*
X198915Y135107D02*
X200565Y135107D01*
X194915Y135215D02*
X194915Y129365D01*
X194915Y135215D02*
X196565Y135215D01*
X196565Y129365D01*
X194915Y129365D01*
X194915Y129887D02*
X196565Y129887D01*
X196565Y130409D02*
X194915Y130409D01*
X194915Y130931D02*
X196565Y130931D01*
X196565Y131453D02*
X194915Y131453D01*
X194915Y131975D02*
X196565Y131975D01*
X196565Y132497D02*
X194915Y132497D01*
X194915Y133019D02*
X196565Y133019D01*
X196565Y133541D02*
X194915Y133541D01*
X194915Y134063D02*
X196565Y134063D01*
X196565Y134585D02*
X194915Y134585D01*
X194915Y135107D02*
X196565Y135107D01*
X193215Y126015D02*
X187365Y126015D01*
X187365Y127665D01*
X193215Y127665D01*
X193215Y126015D01*
X193215Y126537D02*
X187365Y126537D01*
X187365Y127059D02*
X193215Y127059D01*
X193215Y127581D02*
X187365Y127581D01*
X187365Y122015D02*
X193215Y122015D01*
X187365Y122015D02*
X187365Y123665D01*
X193215Y123665D01*
X193215Y122015D01*
X193215Y122537D02*
X187365Y122537D01*
X187365Y123059D02*
X193215Y123059D01*
X193215Y123581D02*
X187365Y123581D01*
X187365Y118015D02*
X193215Y118015D01*
X187365Y118015D02*
X187365Y119665D01*
X193215Y119665D01*
X193215Y118015D01*
X193215Y118537D02*
X187365Y118537D01*
X187365Y119059D02*
X193215Y119059D01*
X193215Y119581D02*
X187365Y119581D01*
X187365Y114015D02*
X193215Y114015D01*
X187365Y114015D02*
X187365Y115665D01*
X193215Y115665D01*
X193215Y114015D01*
X193215Y114537D02*
X187365Y114537D01*
X187365Y115059D02*
X193215Y115059D01*
X193215Y115581D02*
X187365Y115581D01*
X187365Y110015D02*
X193215Y110015D01*
X187365Y110015D02*
X187365Y111665D01*
X193215Y111665D01*
X193215Y110015D01*
X193215Y110537D02*
X187365Y110537D01*
X187365Y111059D02*
X193215Y111059D01*
X193215Y111581D02*
X187365Y111581D01*
X187365Y106015D02*
X193215Y106015D01*
X187365Y106015D02*
X187365Y107665D01*
X193215Y107665D01*
X193215Y106015D01*
X193215Y106537D02*
X187365Y106537D01*
X187365Y107059D02*
X193215Y107059D01*
X193215Y107581D02*
X187365Y107581D01*
X196565Y104315D02*
X196565Y98465D01*
X194915Y98465D01*
X194915Y104315D01*
X196565Y104315D01*
X196565Y98987D02*
X194915Y98987D01*
X194915Y99509D02*
X196565Y99509D01*
X196565Y100031D02*
X194915Y100031D01*
X194915Y100553D02*
X196565Y100553D01*
X196565Y101075D02*
X194915Y101075D01*
X194915Y101597D02*
X196565Y101597D01*
X196565Y102119D02*
X194915Y102119D01*
X194915Y102641D02*
X196565Y102641D01*
X196565Y103163D02*
X194915Y103163D01*
X194915Y103685D02*
X196565Y103685D01*
X196565Y104207D02*
X194915Y104207D01*
X200565Y104315D02*
X200565Y98465D01*
X198915Y98465D01*
X198915Y104315D01*
X200565Y104315D01*
X200565Y98987D02*
X198915Y98987D01*
X198915Y99509D02*
X200565Y99509D01*
X200565Y100031D02*
X198915Y100031D01*
X198915Y100553D02*
X200565Y100553D01*
X200565Y101075D02*
X198915Y101075D01*
X198915Y101597D02*
X200565Y101597D01*
X200565Y102119D02*
X198915Y102119D01*
X198915Y102641D02*
X200565Y102641D01*
X200565Y103163D02*
X198915Y103163D01*
X198915Y103685D02*
X200565Y103685D01*
X200565Y104207D02*
X198915Y104207D01*
X204565Y104315D02*
X204565Y98465D01*
X202915Y98465D01*
X202915Y104315D01*
X204565Y104315D01*
X204565Y98987D02*
X202915Y98987D01*
X202915Y99509D02*
X204565Y99509D01*
X204565Y100031D02*
X202915Y100031D01*
X202915Y100553D02*
X204565Y100553D01*
X204565Y101075D02*
X202915Y101075D01*
X202915Y101597D02*
X204565Y101597D01*
X204565Y102119D02*
X202915Y102119D01*
X202915Y102641D02*
X204565Y102641D01*
X204565Y103163D02*
X202915Y103163D01*
X202915Y103685D02*
X204565Y103685D01*
X204565Y104207D02*
X202915Y104207D01*
X208565Y104315D02*
X208565Y98465D01*
X206915Y98465D01*
X206915Y104315D01*
X208565Y104315D01*
X208565Y98987D02*
X206915Y98987D01*
X206915Y99509D02*
X208565Y99509D01*
X208565Y100031D02*
X206915Y100031D01*
X206915Y100553D02*
X208565Y100553D01*
X208565Y101075D02*
X206915Y101075D01*
X206915Y101597D02*
X208565Y101597D01*
X208565Y102119D02*
X206915Y102119D01*
X206915Y102641D02*
X208565Y102641D01*
X208565Y103163D02*
X206915Y103163D01*
X206915Y103685D02*
X208565Y103685D01*
X208565Y104207D02*
X206915Y104207D01*
X212565Y104315D02*
X212565Y98465D01*
X210915Y98465D01*
X210915Y104315D01*
X212565Y104315D01*
X212565Y98987D02*
X210915Y98987D01*
X210915Y99509D02*
X212565Y99509D01*
X212565Y100031D02*
X210915Y100031D01*
X210915Y100553D02*
X212565Y100553D01*
X212565Y101075D02*
X210915Y101075D01*
X210915Y101597D02*
X212565Y101597D01*
X212565Y102119D02*
X210915Y102119D01*
X210915Y102641D02*
X212565Y102641D01*
X212565Y103163D02*
X210915Y103163D01*
X210915Y103685D02*
X212565Y103685D01*
X212565Y104207D02*
X210915Y104207D01*
X216565Y104315D02*
X216565Y98465D01*
X214915Y98465D01*
X214915Y104315D01*
X216565Y104315D01*
X216565Y98987D02*
X214915Y98987D01*
X214915Y99509D02*
X216565Y99509D01*
X216565Y100031D02*
X214915Y100031D01*
X214915Y100553D02*
X216565Y100553D01*
X216565Y101075D02*
X214915Y101075D01*
X214915Y101597D02*
X216565Y101597D01*
X216565Y102119D02*
X214915Y102119D01*
X214915Y102641D02*
X216565Y102641D01*
X216565Y103163D02*
X214915Y103163D01*
X214915Y103685D02*
X216565Y103685D01*
X216565Y104207D02*
X214915Y104207D01*
X218265Y107665D02*
X224115Y107665D01*
X224115Y106015D01*
X218265Y106015D01*
X218265Y107665D01*
X218265Y106537D02*
X224115Y106537D01*
X224115Y107059D02*
X218265Y107059D01*
X218265Y107581D02*
X224115Y107581D01*
X224115Y111665D02*
X218265Y111665D01*
X224115Y111665D02*
X224115Y110015D01*
X218265Y110015D01*
X218265Y111665D01*
X218265Y110537D02*
X224115Y110537D01*
X224115Y111059D02*
X218265Y111059D01*
X218265Y111581D02*
X224115Y111581D01*
X224115Y115665D02*
X218265Y115665D01*
X224115Y115665D02*
X224115Y114015D01*
X218265Y114015D01*
X218265Y115665D01*
X218265Y114537D02*
X224115Y114537D01*
X224115Y115059D02*
X218265Y115059D01*
X218265Y115581D02*
X224115Y115581D01*
X224115Y119665D02*
X218265Y119665D01*
X224115Y119665D02*
X224115Y118015D01*
X218265Y118015D01*
X218265Y119665D01*
X218265Y118537D02*
X224115Y118537D01*
X224115Y119059D02*
X218265Y119059D01*
X218265Y119581D02*
X224115Y119581D01*
X224115Y123665D02*
X218265Y123665D01*
X224115Y123665D02*
X224115Y122015D01*
X218265Y122015D01*
X218265Y123665D01*
X218265Y122537D02*
X224115Y122537D01*
X224115Y123059D02*
X218265Y123059D01*
X218265Y123581D02*
X224115Y123581D01*
X224115Y127665D02*
X218265Y127665D01*
X224115Y127665D02*
X224115Y126015D01*
X218265Y126015D01*
X218265Y127665D01*
X218265Y126537D02*
X224115Y126537D01*
X224115Y127059D02*
X218265Y127059D01*
X218265Y127581D02*
X224115Y127581D01*
D10*
X218440Y83820D03*
D25*
X218440Y238760D03*
X198440Y238760D03*
X238440Y238760D03*
D26*
X169940Y238760D03*
X266940Y238760D03*
D27*
X184760Y173021D03*
X175260Y173021D03*
X165760Y173021D03*
X165760Y147019D03*
X184760Y147019D03*
D12*
X170180Y206620D03*
X170180Y189620D03*
D28*
X214240Y168656D03*
X197240Y168656D03*
D29*
X386080Y148200D03*
X386080Y131200D03*
D30*
X310500Y186944D03*
X324500Y186944D03*
D31*
X390652Y217240D03*
X390652Y194240D03*
D32*
X348488Y129644D03*
X348488Y142644D03*
D33*
X262128Y181276D03*
X262128Y171276D03*
D34*
X362124Y180340D03*
X352124Y180340D03*
X208360Y148844D03*
X218360Y148844D03*
D35*
X163680Y121920D02*
X163680Y106680D01*
D36*
X342900Y35560D03*
X314960Y38100D03*
X314960Y50800D03*
X340360Y48260D03*
X299720Y50800D03*
X299720Y38100D03*
X294640Y68580D03*
X309880Y68580D03*
X276860Y68580D03*
X256540Y68580D03*
X256540Y86360D03*
X256540Y106680D03*
X256540Y124460D03*
X274320Y124460D03*
X292100Y124460D03*
X309880Y124460D03*
X309880Y106680D03*
X309880Y88900D03*
X292100Y88900D03*
X274320Y88900D03*
X274320Y106680D03*
X292100Y106680D03*
X234188Y162052D03*
X245364Y162052D03*
X226060Y35560D03*
X215900Y35560D03*
X332740Y160020D03*
X342392Y160020D03*
D35*
X231140Y195529D02*
X231140Y210820D01*
X231140Y195529D02*
X224818Y189207D01*
X163680Y106680D02*
X163680Y85472D01*
X160140Y81932D01*
X169050Y39510D02*
X170180Y38380D01*
X169050Y39510D02*
X160140Y48420D01*
X160140Y81932D01*
D37*
X221190Y110840D02*
X226980Y110840D01*
X228600Y109220D01*
X232664Y162052D02*
X234188Y162052D01*
X232664Y162052D02*
X224940Y169776D01*
X224940Y171494D01*
X190290Y118840D02*
X190666Y118464D01*
X194374Y118464D01*
X197040Y115798D01*
X197040Y107926D01*
X197852Y107114D01*
X197040Y107926D02*
X194126Y110840D01*
X190290Y110840D01*
X191947Y79844D02*
X201038Y79844D01*
X184000Y87791D02*
X184000Y87884D01*
X184000Y87791D02*
X191947Y79844D01*
X184000Y87884D02*
X184000Y62981D01*
X180371Y59352D01*
X180371Y50831D01*
X169050Y39510D01*
X170180Y38380D02*
X186639Y38380D01*
X190768Y34251D01*
X205472Y34251D01*
X206781Y35560D01*
X215900Y35560D01*
X226060Y35560D01*
X226160Y35660D01*
X238480Y35660D01*
X330580Y35560D02*
X342900Y35560D01*
X330580Y35560D02*
X330480Y35660D01*
X342900Y35560D02*
X342900Y45720D01*
X340360Y48260D01*
X340360Y60960D01*
X353060Y73660D01*
X353060Y84328D01*
X326480Y149660D02*
X326480Y153760D01*
X332740Y160020D01*
X326480Y149660D02*
X326480Y141060D01*
X309880Y124460D01*
X274320Y124460D02*
X256540Y124460D01*
X256540Y68580D02*
X276860Y68580D01*
X294640Y68580D01*
X292100Y88900D02*
X309880Y88900D01*
X292100Y88900D02*
X274320Y88900D01*
X256540Y86360D02*
X256540Y68580D01*
X256540Y106680D02*
X256540Y124460D01*
X274320Y124460D02*
X274320Y106680D01*
X292100Y106680D01*
X243404Y171494D02*
X224940Y171494D01*
X275004Y181904D02*
X284480Y191380D01*
X253814Y181904D02*
X243404Y171494D01*
D38*
X311540Y169672D02*
X317500Y169672D01*
X323460Y169672D01*
D35*
X228600Y109220D02*
X228600Y106519D01*
X220980Y98899D01*
X220980Y94003D01*
X213904Y92710D02*
X201038Y79844D01*
X215900Y92710D02*
X219687Y92710D01*
X215900Y92710D02*
X213904Y92710D01*
X219687Y92710D02*
X220980Y94003D01*
D39*
X163680Y121920D02*
X163680Y134620D01*
X365760Y145660D02*
X368300Y148200D01*
X386080Y148200D01*
X175260Y164227D02*
X161853Y164227D01*
X160216Y165864D01*
X160216Y200856D01*
X165980Y206620D01*
X170180Y206620D01*
X167285Y138225D02*
X163680Y134620D01*
X167285Y138225D02*
X169667Y138225D01*
X175260Y143818D01*
X175260Y164227D01*
X175260Y173021D01*
D35*
X215740Y101390D02*
X215900Y101230D01*
X215900Y92710D01*
D37*
X215740Y101390D02*
X215364Y101766D01*
X215364Y105474D01*
X213724Y107114D01*
X197852Y107114D01*
D39*
X386080Y148200D02*
X388484Y145796D01*
X394716Y145796D01*
X396374Y123543D02*
X395732Y122901D01*
X395732Y91948D01*
X396374Y144138D02*
X394716Y145796D01*
X396374Y144138D02*
X396374Y123543D01*
X395732Y91948D02*
X388112Y84328D01*
X353060Y84328D01*
X224818Y189207D02*
X224564Y188953D01*
X224564Y173096D01*
X224940Y172720D01*
X220876Y168656D02*
X214240Y168656D01*
X220876Y168656D02*
X224940Y172720D01*
D40*
X242480Y153760D02*
X242480Y149660D01*
X242480Y153760D02*
X234188Y162052D01*
D36*
X323088Y198628D03*
D39*
X323088Y197983D01*
X318706Y193601D01*
X318706Y170878D02*
X317500Y169672D01*
X318706Y170878D02*
X318706Y193601D01*
D40*
X291728Y198628D02*
X284480Y191380D01*
X291728Y198628D02*
X323088Y198628D01*
D39*
X390652Y194240D02*
X390652Y190148D01*
X397736Y183064D01*
X397736Y159856D01*
X386080Y148200D01*
X362744Y142644D02*
X348488Y142644D01*
X362744Y142644D02*
X365760Y145660D01*
D35*
X261500Y181904D02*
X253814Y181904D01*
X261500Y181904D02*
X262128Y181276D01*
X262756Y181904D01*
X275004Y181904D01*
X190290Y122840D02*
X177600Y122840D01*
X176680Y121920D01*
X195740Y101390D02*
X195740Y99060D01*
X195740Y90160D01*
X365220Y128120D02*
X365760Y128660D01*
D39*
X307340Y210820D02*
X299182Y210820D01*
X286990Y223012D01*
X226090Y223012D02*
X217155Y214077D01*
X226090Y223012D02*
X286990Y223012D01*
X349476Y163252D02*
X349476Y156788D01*
X307738Y210422D02*
X307340Y210820D01*
X307738Y210422D02*
X335649Y210422D01*
X343944Y168784D02*
X349476Y163252D01*
X349476Y156788D02*
X339344Y146656D01*
X343944Y202127D02*
X335649Y210422D01*
X343944Y202127D02*
X343944Y168784D01*
D37*
X221190Y118840D02*
X217482Y118840D01*
X215466Y120856D01*
X215466Y124728D02*
X213854Y126340D01*
X197498Y126340D01*
X193998Y122840D02*
X190290Y122840D01*
X215466Y124728D02*
X215466Y120856D01*
X197498Y126340D02*
X193998Y122840D01*
D39*
X170386Y112337D02*
X170386Y101023D01*
X172023Y99386D01*
X176680Y118631D02*
X176680Y121920D01*
X176680Y118631D02*
X170386Y112337D01*
X195414Y99386D02*
X195740Y99060D01*
X195414Y99386D02*
X172023Y99386D01*
X195740Y101390D02*
X195740Y90160D01*
X195740Y89144D01*
X197000Y87884D01*
X184760Y139040D02*
X184760Y147019D01*
X176680Y130960D02*
X176680Y121920D01*
X176680Y130960D02*
X184760Y139040D01*
X365760Y128660D02*
X368300Y131200D01*
X386080Y131200D01*
X383540Y128660D02*
X383540Y104140D01*
X383540Y128660D02*
X386080Y131200D01*
X197240Y168656D02*
X185048Y156464D01*
X184912Y156464D01*
X184760Y156312D01*
X184760Y147019D01*
X197240Y168656D02*
X197240Y172856D01*
X217155Y192771D02*
X217155Y214077D01*
X217155Y192771D02*
X197240Y172856D01*
X330480Y128660D02*
X331464Y129644D01*
X339344Y129644D01*
X348488Y129644D01*
X339344Y129644D02*
X339344Y146656D01*
X348488Y129644D02*
X363696Y129644D01*
X365220Y128120D01*
D37*
X218440Y86456D02*
X218440Y83820D01*
X218440Y86456D02*
X232644Y100660D01*
X238480Y100660D01*
D35*
X319480Y149660D02*
X319480Y155802D01*
X331860Y168182D02*
X331860Y169672D01*
X331860Y168182D02*
X319480Y155802D01*
X331860Y169672D02*
X331860Y179584D01*
X324500Y186944D01*
X312480Y157008D02*
X312480Y149660D01*
X303140Y166348D02*
X303140Y169672D01*
X303140Y166348D02*
X312480Y157008D01*
X303140Y169672D02*
X303140Y179584D01*
X310500Y186944D01*
X238480Y58660D02*
X228568Y58660D01*
X222278Y64950D01*
D36*
X222278Y64950D03*
X231140Y185420D03*
D35*
X232156Y185420D02*
X243332Y196596D01*
X232156Y185420D02*
X231140Y185420D01*
D36*
X243332Y196596D03*
D35*
X238480Y51660D02*
X237620Y50800D01*
X226060Y50800D01*
D36*
X226060Y50800D03*
X238760Y177800D03*
D35*
X251460Y190500D02*
X251460Y200660D01*
X251460Y190500D02*
X238760Y177800D01*
X256540Y205740D02*
X256540Y210820D01*
X256540Y205740D02*
X251460Y200660D01*
X330480Y121660D02*
X343160Y121660D01*
X350520Y114300D01*
X356220Y114300D01*
X368300Y112380D02*
X368300Y102872D01*
X368300Y112380D02*
X370220Y114300D01*
X342540Y114660D02*
X330480Y114660D01*
X353060Y104140D02*
X353060Y98552D01*
X353060Y104140D02*
X342540Y114660D01*
X365508Y94232D02*
X368300Y94232D01*
X365508Y94232D02*
X360680Y99060D01*
X353568Y99060D01*
X353060Y98552D01*
X232760Y122840D02*
X221190Y122840D01*
X233940Y121660D02*
X238480Y121660D01*
X233940Y121660D02*
X232760Y122840D01*
X235340Y128660D02*
X238480Y128660D01*
X233520Y126840D02*
X221190Y126840D01*
X233520Y126840D02*
X235340Y128660D01*
D39*
X218440Y238760D02*
X233680Y254000D01*
X339160Y226060D02*
X363220Y202000D01*
X299720Y226060D02*
X271780Y254000D01*
X299720Y226060D02*
X339160Y226060D01*
X271780Y254000D02*
X233680Y254000D01*
D35*
X354720Y193500D02*
X363220Y202000D01*
D39*
X378460Y217240D01*
X390652Y217240D01*
D35*
X352124Y190904D02*
X352124Y180340D01*
X352124Y190904D02*
X363220Y202000D01*
D36*
X216442Y180478D03*
D35*
X216442Y177967D01*
D36*
X169136Y55880D03*
D35*
X169136Y72336D01*
X170180Y73380D01*
X206200Y174708D02*
X207688Y176196D01*
X214672Y176196D01*
X216442Y177967D01*
X206200Y151004D02*
X208360Y148844D01*
X206200Y151004D02*
X206200Y174708D01*
X229592Y135660D02*
X238480Y135660D01*
X218360Y146892D02*
X218360Y148844D01*
X218360Y146892D02*
X229592Y135660D01*
X276860Y150280D02*
X277480Y149660D01*
X276860Y150280D02*
X276860Y162560D01*
D36*
X276860Y162560D03*
D37*
X190290Y114840D02*
X186153Y114840D01*
D35*
X184840Y114840D01*
X176680Y106680D01*
D39*
X184760Y181000D02*
X179070Y186690D01*
X179070Y222250D01*
X184760Y181000D02*
X184760Y173021D01*
X195580Y238760D02*
X198440Y238760D01*
X195580Y238760D02*
X179070Y222250D01*
X165760Y185200D02*
X165760Y173021D01*
X165760Y185200D02*
X170180Y189620D01*
X176140Y189620D01*
X179070Y186690D01*
D35*
X284480Y174380D02*
X295470Y163390D01*
X296300Y162560D01*
X299720Y162560D01*
X305480Y156800D01*
X305480Y149660D01*
D36*
X391160Y180340D03*
X295470Y163390D03*
D35*
X362124Y180340D02*
X391160Y180340D01*
X271700Y171276D02*
X262128Y171276D01*
X271700Y171276D02*
X271780Y171196D01*
X281296Y171196D01*
X284480Y174380D01*
M02*
