G04 EAGLE Gerber RS-274X export*
G75*
%MOMM*%
%FSLAX34Y34*%
%LPD*%
%INBottom Copper*%
%IPPOS*%
%AMOC8*
5,1,8,0,0,1.08239X$1,22.5*%
G01*
%ADD10R,4.000000X4.000000*%
%ADD11C,3.045000*%
%ADD12C,1.879600*%
%ADD13R,1.700000X3.700000*%
%ADD14C,1.308000*%
%ADD15C,2.250000*%
%ADD16C,0.756400*%
%ADD17C,0.406400*%
%ADD18C,0.254000*%
%ADD19C,0.200000*%
%ADD20C,0.152400*%
%ADD21C,0.203200*%

G36*
X399406Y31766D02*
X399406Y31766D01*
X399525Y31773D01*
X399563Y31786D01*
X399604Y31791D01*
X399714Y31834D01*
X399827Y31871D01*
X399862Y31893D01*
X399899Y31908D01*
X399995Y31978D01*
X400096Y32041D01*
X400124Y32071D01*
X400157Y32094D01*
X400233Y32186D01*
X400314Y32273D01*
X400334Y32308D01*
X400359Y32339D01*
X400410Y32447D01*
X400468Y32551D01*
X400478Y32591D01*
X400495Y32627D01*
X400517Y32744D01*
X400547Y32859D01*
X400551Y32920D01*
X400555Y32940D01*
X400553Y32960D01*
X400557Y33020D01*
X400557Y214418D01*
X400542Y214536D01*
X400535Y214655D01*
X400522Y214693D01*
X400517Y214734D01*
X400474Y214844D01*
X400437Y214957D01*
X400415Y214992D01*
X400400Y215029D01*
X400331Y215125D01*
X400267Y215226D01*
X400237Y215254D01*
X400214Y215287D01*
X400122Y215363D01*
X400035Y215444D01*
X400000Y215464D01*
X399969Y215489D01*
X399861Y215540D01*
X399757Y215598D01*
X399717Y215608D01*
X399681Y215625D01*
X399564Y215647D01*
X399449Y215677D01*
X399389Y215681D01*
X399369Y215685D01*
X399348Y215683D01*
X399288Y215687D01*
X386878Y215687D01*
X386760Y215672D01*
X386641Y215665D01*
X386603Y215652D01*
X386562Y215647D01*
X386452Y215604D01*
X386339Y215567D01*
X386304Y215545D01*
X386267Y215530D01*
X386171Y215461D01*
X386070Y215397D01*
X386042Y215367D01*
X386009Y215344D01*
X385933Y215252D01*
X385852Y215165D01*
X385832Y215130D01*
X385807Y215099D01*
X385756Y214991D01*
X385698Y214887D01*
X385688Y214847D01*
X385671Y214811D01*
X385649Y214694D01*
X385619Y214579D01*
X385615Y214519D01*
X385611Y214499D01*
X385613Y214478D01*
X385609Y214418D01*
X385609Y186076D01*
X385626Y185938D01*
X385639Y185800D01*
X385646Y185781D01*
X385649Y185761D01*
X385700Y185632D01*
X385747Y185501D01*
X385758Y185484D01*
X385766Y185465D01*
X385847Y185353D01*
X385925Y185237D01*
X385941Y185224D01*
X385952Y185208D01*
X386060Y185119D01*
X386164Y185027D01*
X386182Y185018D01*
X386197Y185005D01*
X386323Y184946D01*
X386447Y184882D01*
X386467Y184878D01*
X386485Y184869D01*
X386622Y184843D01*
X386757Y184813D01*
X386778Y184813D01*
X386797Y184810D01*
X386936Y184818D01*
X387075Y184822D01*
X387095Y184828D01*
X387115Y184829D01*
X387247Y184872D01*
X387381Y184911D01*
X387398Y184921D01*
X387417Y184927D01*
X387535Y185002D01*
X387655Y185072D01*
X387676Y185091D01*
X387686Y185097D01*
X387700Y185112D01*
X387776Y185179D01*
X387866Y185270D01*
X390003Y186155D01*
X392317Y186155D01*
X394454Y185270D01*
X396090Y183634D01*
X396975Y181497D01*
X396975Y179183D01*
X396090Y177046D01*
X394454Y175410D01*
X392317Y174525D01*
X390183Y174525D01*
X390084Y174513D01*
X389985Y174510D01*
X389927Y174493D01*
X389867Y174485D01*
X389775Y174449D01*
X389680Y174421D01*
X389628Y174391D01*
X389571Y174368D01*
X389491Y174310D01*
X389406Y174260D01*
X389331Y174194D01*
X389314Y174182D01*
X389306Y174172D01*
X389285Y174154D01*
X379723Y164591D01*
X302554Y164591D01*
X302436Y164576D01*
X302317Y164569D01*
X302279Y164556D01*
X302238Y164551D01*
X302128Y164508D01*
X302015Y164471D01*
X301980Y164449D01*
X301943Y164434D01*
X301847Y164365D01*
X301746Y164301D01*
X301718Y164271D01*
X301685Y164248D01*
X301609Y164156D01*
X301528Y164069D01*
X301508Y164034D01*
X301483Y164003D01*
X301432Y163895D01*
X301374Y163791D01*
X301364Y163751D01*
X301347Y163715D01*
X301325Y163598D01*
X301295Y163483D01*
X301291Y163423D01*
X301287Y163403D01*
X301289Y163382D01*
X301285Y163322D01*
X301285Y162233D01*
X300400Y160096D01*
X298764Y158460D01*
X296627Y157575D01*
X294313Y157575D01*
X292176Y158460D01*
X290540Y160096D01*
X289655Y162233D01*
X289655Y164547D01*
X290540Y166684D01*
X291361Y167505D01*
X291446Y167614D01*
X291535Y167721D01*
X291544Y167740D01*
X291556Y167756D01*
X291611Y167883D01*
X291671Y168009D01*
X291674Y168029D01*
X291683Y168048D01*
X291704Y168186D01*
X291730Y168322D01*
X291729Y168342D01*
X291732Y168362D01*
X291719Y168501D01*
X291711Y168639D01*
X291704Y168658D01*
X291703Y168678D01*
X291655Y168810D01*
X291613Y168941D01*
X291602Y168959D01*
X291595Y168978D01*
X291517Y169093D01*
X291443Y169210D01*
X291428Y169224D01*
X291416Y169241D01*
X291312Y169333D01*
X291211Y169428D01*
X291193Y169438D01*
X291178Y169451D01*
X291054Y169514D01*
X290932Y169582D01*
X290913Y169587D01*
X290895Y169596D01*
X290759Y169626D01*
X290624Y169661D01*
X290596Y169663D01*
X290584Y169666D01*
X290564Y169665D01*
X290464Y169671D01*
X288809Y169671D01*
X288710Y169659D01*
X288611Y169656D01*
X288553Y169639D01*
X288493Y169631D01*
X288401Y169595D01*
X288306Y169567D01*
X288254Y169537D01*
X288197Y169514D01*
X288117Y169456D01*
X288032Y169406D01*
X287957Y169340D01*
X287940Y169328D01*
X287932Y169318D01*
X287911Y169300D01*
X283046Y164435D01*
X282986Y164357D01*
X282918Y164285D01*
X282889Y164232D01*
X282852Y164184D01*
X282812Y164093D01*
X282764Y164006D01*
X282749Y163947D01*
X282725Y163892D01*
X282710Y163794D01*
X282685Y163698D01*
X282679Y163598D01*
X282675Y163578D01*
X282677Y163565D01*
X282675Y163537D01*
X282675Y161403D01*
X281790Y159266D01*
X280154Y157630D01*
X277783Y156649D01*
X277777Y156645D01*
X277672Y156607D01*
X277655Y156596D01*
X277636Y156588D01*
X277524Y156507D01*
X277409Y156429D01*
X277395Y156413D01*
X277379Y156402D01*
X277290Y156294D01*
X277198Y156190D01*
X277189Y156172D01*
X277176Y156157D01*
X277117Y156031D01*
X277054Y155907D01*
X277049Y155887D01*
X277041Y155869D01*
X277015Y155733D01*
X276984Y155597D01*
X276985Y155576D01*
X276981Y155557D01*
X276990Y155418D01*
X276994Y155279D01*
X276999Y155259D01*
X277001Y155239D01*
X277043Y155107D01*
X277082Y154973D01*
X277092Y154956D01*
X277099Y154937D01*
X277173Y154819D01*
X277244Y154699D01*
X277262Y154678D01*
X277269Y154668D01*
X277284Y154654D01*
X277350Y154579D01*
X290050Y141878D01*
X290128Y141818D01*
X290201Y141750D01*
X290254Y141721D01*
X290301Y141684D01*
X290392Y141644D01*
X290479Y141596D01*
X290538Y141581D01*
X290593Y141557D01*
X290691Y141542D01*
X290787Y141517D01*
X290887Y141511D01*
X290907Y141507D01*
X290920Y141509D01*
X290948Y141507D01*
X339918Y141507D01*
X340036Y141522D01*
X340155Y141529D01*
X340193Y141542D01*
X340234Y141547D01*
X340344Y141590D01*
X340457Y141627D01*
X340492Y141649D01*
X340529Y141664D01*
X340625Y141733D01*
X340726Y141797D01*
X340754Y141827D01*
X340787Y141850D01*
X340863Y141942D01*
X340944Y142029D01*
X340964Y142064D01*
X340989Y142095D01*
X341040Y142203D01*
X341098Y142307D01*
X341108Y142347D01*
X341125Y142383D01*
X341147Y142500D01*
X341177Y142615D01*
X341181Y142675D01*
X341185Y142695D01*
X341183Y142716D01*
X341187Y142776D01*
X341187Y147842D01*
X342378Y149033D01*
X384062Y149033D01*
X385253Y147842D01*
X385253Y106158D01*
X384062Y104967D01*
X342378Y104967D01*
X341187Y106158D01*
X341187Y133632D01*
X341172Y133750D01*
X341165Y133869D01*
X341152Y133907D01*
X341147Y133948D01*
X341104Y134058D01*
X341067Y134171D01*
X341045Y134206D01*
X341030Y134243D01*
X340961Y134339D01*
X340897Y134440D01*
X340867Y134468D01*
X340844Y134501D01*
X340752Y134577D01*
X340665Y134658D01*
X340630Y134678D01*
X340599Y134703D01*
X340491Y134754D01*
X340387Y134812D01*
X340347Y134822D01*
X340311Y134839D01*
X340194Y134861D01*
X340079Y134891D01*
X340019Y134895D01*
X339999Y134899D01*
X339978Y134897D01*
X339918Y134901D01*
X287686Y134901D01*
X246319Y176268D01*
X246280Y176299D01*
X246246Y176335D01*
X246155Y176396D01*
X246068Y176463D01*
X246022Y176483D01*
X245980Y176510D01*
X245877Y176546D01*
X245776Y176589D01*
X245727Y176597D01*
X245680Y176613D01*
X245570Y176622D01*
X245462Y176639D01*
X245412Y176635D01*
X245363Y176639D01*
X245255Y176620D01*
X245145Y176610D01*
X245098Y176593D01*
X245049Y176584D01*
X244949Y176539D01*
X244846Y176502D01*
X244805Y176474D01*
X244759Y176454D01*
X244673Y176385D01*
X244583Y176323D01*
X244550Y176286D01*
X244511Y176255D01*
X244445Y176167D01*
X244372Y176085D01*
X244350Y176041D01*
X244320Y176001D01*
X244249Y175856D01*
X243690Y174506D01*
X242054Y172870D01*
X239917Y171985D01*
X237603Y171985D01*
X236346Y172506D01*
X236317Y172514D01*
X236291Y172527D01*
X236164Y172556D01*
X236039Y172590D01*
X236010Y172591D01*
X235981Y172597D01*
X235851Y172593D01*
X235721Y172595D01*
X235692Y172588D01*
X235663Y172587D01*
X235538Y172551D01*
X235412Y172521D01*
X235386Y172507D01*
X235357Y172499D01*
X235246Y172433D01*
X235131Y172372D01*
X235109Y172352D01*
X235083Y172337D01*
X234963Y172231D01*
X229762Y167031D01*
X229702Y166953D01*
X229634Y166881D01*
X229605Y166828D01*
X229568Y166780D01*
X229528Y166689D01*
X229480Y166602D01*
X229465Y166543D01*
X229441Y166488D01*
X229426Y166390D01*
X229401Y166294D01*
X229395Y166194D01*
X229391Y166174D01*
X229393Y166161D01*
X229391Y166133D01*
X229391Y144966D01*
X229403Y144868D01*
X229406Y144769D01*
X229423Y144710D01*
X229431Y144650D01*
X229467Y144558D01*
X229495Y144463D01*
X229525Y144411D01*
X229548Y144355D01*
X229606Y144275D01*
X229656Y144189D01*
X229722Y144114D01*
X229734Y144097D01*
X229744Y144090D01*
X229762Y144068D01*
X231649Y142182D01*
X231649Y52755D01*
X231650Y52746D01*
X231649Y52736D01*
X231670Y52587D01*
X231689Y52439D01*
X231692Y52431D01*
X231693Y52421D01*
X231745Y52269D01*
X231875Y51957D01*
X231875Y49643D01*
X230990Y47506D01*
X229354Y45870D01*
X227217Y44985D01*
X224903Y44985D01*
X222766Y45870D01*
X221130Y47506D01*
X220245Y49643D01*
X220245Y51957D01*
X221130Y54094D01*
X222766Y55730D01*
X224768Y56559D01*
X224793Y56573D01*
X224821Y56582D01*
X224931Y56652D01*
X225044Y56716D01*
X225065Y56737D01*
X225090Y56752D01*
X225179Y56847D01*
X225272Y56937D01*
X225288Y56963D01*
X225308Y56984D01*
X225371Y57098D01*
X225439Y57208D01*
X225447Y57237D01*
X225462Y57263D01*
X225494Y57388D01*
X225532Y57512D01*
X225534Y57542D01*
X225541Y57570D01*
X225551Y57731D01*
X225551Y58113D01*
X225545Y58162D01*
X225547Y58212D01*
X225525Y58319D01*
X225511Y58428D01*
X225493Y58475D01*
X225483Y58523D01*
X225435Y58622D01*
X225394Y58724D01*
X225365Y58764D01*
X225343Y58809D01*
X225272Y58893D01*
X225208Y58981D01*
X225169Y59013D01*
X225137Y59051D01*
X225047Y59114D01*
X224963Y59184D01*
X224918Y59205D01*
X224877Y59234D01*
X224774Y59273D01*
X224675Y59320D01*
X224626Y59329D01*
X224580Y59347D01*
X224470Y59359D01*
X224363Y59380D01*
X224313Y59376D01*
X224264Y59382D01*
X224155Y59367D01*
X224045Y59360D01*
X223998Y59344D01*
X223949Y59338D01*
X223796Y59285D01*
X223435Y59136D01*
X221121Y59136D01*
X218984Y60021D01*
X217348Y61657D01*
X216463Y63794D01*
X216463Y66107D01*
X217348Y68244D01*
X218858Y69753D01*
X218918Y69831D01*
X218986Y69904D01*
X219015Y69957D01*
X219052Y70004D01*
X219092Y70095D01*
X219140Y70182D01*
X219155Y70241D01*
X219179Y70296D01*
X219194Y70394D01*
X219219Y70490D01*
X219225Y70590D01*
X219229Y70610D01*
X219227Y70623D01*
X219229Y70651D01*
X219229Y103190D01*
X219214Y103308D01*
X219207Y103427D01*
X219194Y103465D01*
X219189Y103506D01*
X219146Y103616D01*
X219109Y103729D01*
X219087Y103764D01*
X219072Y103801D01*
X219003Y103897D01*
X218939Y103998D01*
X218909Y104026D01*
X218886Y104059D01*
X218794Y104135D01*
X218707Y104216D01*
X218672Y104236D01*
X218641Y104261D01*
X218533Y104312D01*
X218429Y104370D01*
X218389Y104380D01*
X218353Y104397D01*
X218236Y104419D01*
X218185Y104432D01*
X218185Y109728D01*
X218183Y109745D01*
X218184Y109760D01*
X218184Y109763D01*
X218184Y109767D01*
X218162Y109869D01*
X218146Y109971D01*
X218136Y109988D01*
X218132Y110008D01*
X218079Y110097D01*
X218030Y110188D01*
X218016Y110202D01*
X218006Y110219D01*
X217927Y110286D01*
X217852Y110358D01*
X217834Y110366D01*
X217819Y110379D01*
X217723Y110418D01*
X217629Y110461D01*
X217609Y110463D01*
X217591Y110471D01*
X217424Y110489D01*
X200659Y110489D01*
X200659Y125730D01*
X200644Y125848D01*
X200637Y125967D01*
X200624Y126005D01*
X200619Y126045D01*
X200575Y126156D01*
X200539Y126269D01*
X200517Y126304D01*
X200502Y126341D01*
X200432Y126437D01*
X200369Y126538D01*
X200339Y126566D01*
X200315Y126598D01*
X200224Y126674D01*
X200137Y126756D01*
X200102Y126775D01*
X200070Y126801D01*
X199963Y126852D01*
X199859Y126909D01*
X199819Y126920D01*
X199783Y126937D01*
X199666Y126959D01*
X199551Y126989D01*
X199490Y126993D01*
X199470Y126997D01*
X199450Y126995D01*
X199390Y126999D01*
X198119Y126999D01*
X198119Y127001D01*
X199390Y127001D01*
X199508Y127016D01*
X199627Y127023D01*
X199665Y127036D01*
X199705Y127041D01*
X199816Y127085D01*
X199929Y127121D01*
X199964Y127143D01*
X200001Y127158D01*
X200097Y127228D01*
X200198Y127291D01*
X200226Y127321D01*
X200258Y127345D01*
X200334Y127436D01*
X200416Y127523D01*
X200435Y127558D01*
X200461Y127590D01*
X200512Y127697D01*
X200569Y127801D01*
X200580Y127841D01*
X200597Y127877D01*
X200619Y127994D01*
X200649Y128109D01*
X200653Y128170D01*
X200657Y128190D01*
X200655Y128210D01*
X200659Y128270D01*
X200659Y149541D01*
X217960Y149541D01*
X218078Y149556D01*
X218197Y149563D01*
X218235Y149576D01*
X218276Y149581D01*
X218386Y149624D01*
X218499Y149661D01*
X218534Y149683D01*
X218571Y149698D01*
X218667Y149767D01*
X218768Y149831D01*
X218796Y149861D01*
X218829Y149884D01*
X218905Y149976D01*
X218986Y150063D01*
X219006Y150098D01*
X219031Y150129D01*
X219082Y150237D01*
X219140Y150341D01*
X219150Y150381D01*
X219167Y150417D01*
X219189Y150534D01*
X219219Y150649D01*
X219223Y150709D01*
X219227Y150729D01*
X219225Y150750D01*
X219229Y150810D01*
X219229Y173439D01*
X219223Y173489D01*
X219225Y173538D01*
X219203Y173646D01*
X219189Y173755D01*
X219171Y173801D01*
X219161Y173850D01*
X219113Y173948D01*
X219072Y174050D01*
X219043Y174091D01*
X219021Y174135D01*
X218950Y174219D01*
X218886Y174308D01*
X218847Y174339D01*
X218815Y174377D01*
X218725Y174440D01*
X218641Y174511D01*
X218596Y174532D01*
X218555Y174560D01*
X218452Y174599D01*
X218353Y174646D01*
X218304Y174655D01*
X218257Y174673D01*
X218148Y174685D01*
X218041Y174706D01*
X217991Y174703D01*
X217941Y174708D01*
X217833Y174693D01*
X217723Y174686D01*
X217676Y174671D01*
X217627Y174664D01*
X217625Y174663D01*
X215285Y174663D01*
X213148Y175548D01*
X211639Y177058D01*
X211561Y177118D01*
X211489Y177186D01*
X211436Y177215D01*
X211388Y177252D01*
X211297Y177292D01*
X211210Y177340D01*
X211152Y177355D01*
X211096Y177379D01*
X210998Y177394D01*
X210902Y177419D01*
X210802Y177425D01*
X210782Y177429D01*
X210770Y177427D01*
X210742Y177429D01*
X178806Y177429D01*
X178708Y177417D01*
X178609Y177414D01*
X178551Y177397D01*
X178491Y177389D01*
X178399Y177353D01*
X178304Y177325D01*
X178252Y177295D01*
X178195Y177272D01*
X178115Y177214D01*
X178030Y177164D01*
X177954Y177098D01*
X177938Y177086D01*
X177930Y177076D01*
X177909Y177058D01*
X173064Y172213D01*
X173004Y172135D01*
X172936Y172063D01*
X172907Y172010D01*
X172870Y171962D01*
X172830Y171871D01*
X172782Y171784D01*
X172767Y171726D01*
X172743Y171670D01*
X172728Y171572D01*
X172703Y171476D01*
X172697Y171376D01*
X172693Y171356D01*
X172695Y171344D01*
X172693Y171316D01*
X172693Y61072D01*
X172705Y60974D01*
X172708Y60875D01*
X172725Y60817D01*
X172733Y60757D01*
X172769Y60665D01*
X172797Y60570D01*
X172827Y60517D01*
X172850Y60461D01*
X172908Y60381D01*
X172958Y60296D01*
X173024Y60220D01*
X173036Y60204D01*
X173046Y60196D01*
X173064Y60175D01*
X174066Y59174D01*
X174951Y57037D01*
X174951Y54723D01*
X174066Y52586D01*
X172430Y50950D01*
X170293Y50065D01*
X167979Y50065D01*
X165842Y50950D01*
X164206Y52586D01*
X163321Y54723D01*
X163321Y57037D01*
X164206Y59174D01*
X165847Y60815D01*
X165865Y60821D01*
X165975Y60890D01*
X166088Y60954D01*
X166109Y60975D01*
X166134Y60991D01*
X166223Y61085D01*
X166316Y61176D01*
X166332Y61201D01*
X166352Y61222D01*
X166415Y61336D01*
X166483Y61447D01*
X166491Y61475D01*
X166506Y61501D01*
X166538Y61627D01*
X166576Y61751D01*
X166578Y61780D01*
X166585Y61809D01*
X166595Y61969D01*
X166595Y174367D01*
X175755Y183527D01*
X191241Y183527D01*
X191310Y183535D01*
X191380Y183534D01*
X191467Y183555D01*
X191556Y183567D01*
X191621Y183592D01*
X191689Y183609D01*
X191769Y183651D01*
X191852Y183684D01*
X191908Y183725D01*
X191970Y183757D01*
X192037Y183818D01*
X192109Y183870D01*
X192154Y183924D01*
X192206Y183971D01*
X192255Y184046D01*
X192312Y184115D01*
X192342Y184179D01*
X192380Y184237D01*
X192410Y184322D01*
X192448Y184403D01*
X192461Y184472D01*
X192484Y184538D01*
X192491Y184627D01*
X192508Y184715D01*
X192503Y184785D01*
X192509Y184855D01*
X192493Y184943D01*
X192488Y185033D01*
X192466Y185099D01*
X192454Y185168D01*
X192417Y185250D01*
X192390Y185335D01*
X192352Y185394D01*
X192324Y185458D01*
X192268Y185528D01*
X192220Y185604D01*
X192169Y185652D01*
X192125Y185706D01*
X192053Y185761D01*
X191988Y185822D01*
X191927Y185856D01*
X191871Y185898D01*
X191727Y185969D01*
X188344Y187370D01*
X183490Y192224D01*
X180862Y198567D01*
X180862Y205433D01*
X183490Y211776D01*
X188344Y216630D01*
X194687Y219258D01*
X201553Y219258D01*
X207896Y216630D01*
X212750Y211776D01*
X215378Y205433D01*
X215378Y198567D01*
X214973Y197590D01*
X214960Y197542D01*
X214939Y197497D01*
X214918Y197389D01*
X214889Y197283D01*
X214888Y197233D01*
X214879Y197184D01*
X214886Y197075D01*
X214884Y196965D01*
X214895Y196917D01*
X214899Y196867D01*
X214932Y196763D01*
X214958Y196656D01*
X214981Y196612D01*
X214997Y196565D01*
X215055Y196472D01*
X215107Y196375D01*
X215140Y196338D01*
X215167Y196296D01*
X215247Y196221D01*
X215321Y196139D01*
X215362Y196112D01*
X215398Y196078D01*
X215495Y196025D01*
X215586Y195965D01*
X215633Y195948D01*
X215677Y195924D01*
X215783Y195897D01*
X215887Y195861D01*
X215937Y195857D01*
X215985Y195845D01*
X216145Y195835D01*
X236248Y195835D01*
X236366Y195850D01*
X236485Y195857D01*
X236523Y195870D01*
X236564Y195875D01*
X236674Y195918D01*
X236787Y195955D01*
X236822Y195977D01*
X236859Y195992D01*
X236955Y196061D01*
X237056Y196125D01*
X237084Y196155D01*
X237117Y196178D01*
X237193Y196270D01*
X237274Y196357D01*
X237294Y196392D01*
X237319Y196423D01*
X237370Y196531D01*
X237428Y196635D01*
X237438Y196675D01*
X237455Y196711D01*
X237477Y196828D01*
X237507Y196943D01*
X237511Y197003D01*
X237515Y197023D01*
X237513Y197044D01*
X237517Y197104D01*
X237517Y197753D01*
X237732Y198272D01*
X237740Y198301D01*
X237754Y198328D01*
X237782Y198454D01*
X237816Y198579D01*
X237817Y198609D01*
X237823Y198638D01*
X237819Y198767D01*
X237821Y198897D01*
X237815Y198926D01*
X237814Y198956D01*
X237778Y199080D01*
X237747Y199206D01*
X237733Y199233D01*
X237725Y199261D01*
X237659Y199373D01*
X237599Y199487D01*
X237579Y199509D01*
X237563Y199535D01*
X237472Y199627D01*
X237385Y199723D01*
X237360Y199739D01*
X237339Y199760D01*
X237227Y199826D01*
X237119Y199897D01*
X237091Y199907D01*
X237065Y199922D01*
X236941Y199959D01*
X236818Y200001D01*
X236788Y200003D01*
X236760Y200011D01*
X236631Y200015D01*
X236501Y200026D01*
X236472Y200021D01*
X236442Y200022D01*
X236315Y199994D01*
X236188Y199971D01*
X236161Y199959D01*
X236131Y199953D01*
X235984Y199889D01*
X235723Y199756D01*
X233936Y199175D01*
X233679Y199135D01*
X233679Y208281D01*
X243840Y208281D01*
X243958Y208296D01*
X244077Y208303D01*
X244115Y208316D01*
X244156Y208321D01*
X244266Y208364D01*
X244379Y208401D01*
X244414Y208423D01*
X244451Y208438D01*
X244547Y208508D01*
X244648Y208571D01*
X244676Y208601D01*
X244709Y208624D01*
X244785Y208716D01*
X244866Y208803D01*
X244886Y208838D01*
X244911Y208869D01*
X244962Y208977D01*
X245020Y209081D01*
X245030Y209121D01*
X245047Y209157D01*
X245069Y209274D01*
X245099Y209389D01*
X245103Y209450D01*
X245107Y209470D01*
X245105Y209490D01*
X245109Y209550D01*
X245109Y212090D01*
X245094Y212208D01*
X245087Y212327D01*
X245074Y212365D01*
X245069Y212405D01*
X245026Y212516D01*
X244989Y212629D01*
X244967Y212664D01*
X244952Y212701D01*
X244883Y212797D01*
X244845Y212856D01*
X244846Y212857D01*
X244948Y212938D01*
X244966Y212962D01*
X244988Y212982D01*
X245061Y213088D01*
X245139Y213192D01*
X245158Y213230D01*
X245167Y213244D01*
X245175Y213265D01*
X245210Y213336D01*
X246849Y217295D01*
X250065Y220511D01*
X254266Y222251D01*
X258814Y222251D01*
X263015Y220511D01*
X266231Y217295D01*
X267971Y213094D01*
X267971Y208546D01*
X266231Y204345D01*
X263697Y201811D01*
X263612Y201702D01*
X263523Y201595D01*
X263514Y201576D01*
X263502Y201560D01*
X263447Y201432D01*
X263388Y201307D01*
X263384Y201287D01*
X263376Y201268D01*
X263354Y201130D01*
X263328Y200994D01*
X263329Y200974D01*
X263326Y200954D01*
X263339Y200815D01*
X263348Y200677D01*
X263354Y200658D01*
X263356Y200638D01*
X263403Y200506D01*
X263446Y200375D01*
X263456Y200357D01*
X263463Y200338D01*
X263541Y200223D01*
X263616Y200106D01*
X263630Y200092D01*
X263642Y200075D01*
X263746Y199983D01*
X263847Y199888D01*
X263865Y199878D01*
X263880Y199865D01*
X264004Y199801D01*
X264126Y199734D01*
X264145Y199729D01*
X264163Y199720D01*
X264299Y199690D01*
X264434Y199655D01*
X264462Y199653D01*
X264474Y199650D01*
X264494Y199651D01*
X264594Y199645D01*
X265927Y199645D01*
X266026Y199657D01*
X266125Y199660D01*
X266183Y199677D01*
X266243Y199685D01*
X266335Y199721D01*
X266430Y199749D01*
X266482Y199779D01*
X266539Y199802D01*
X266619Y199860D01*
X266704Y199910D01*
X266779Y199976D01*
X266796Y199988D01*
X266804Y199998D01*
X266825Y200016D01*
X271329Y204520D01*
X271347Y204544D01*
X271369Y204563D01*
X271444Y204669D01*
X271524Y204772D01*
X271535Y204799D01*
X271552Y204823D01*
X271598Y204944D01*
X271650Y205063D01*
X271655Y205093D01*
X271665Y205120D01*
X271680Y205249D01*
X271700Y205378D01*
X271697Y205407D01*
X271700Y205436D01*
X271682Y205565D01*
X271670Y205694D01*
X271660Y205722D01*
X271656Y205751D01*
X271604Y205904D01*
X270509Y208546D01*
X270509Y213094D01*
X272249Y217295D01*
X275465Y220511D01*
X279666Y222251D01*
X284214Y222251D01*
X288415Y220511D01*
X291631Y217295D01*
X293371Y213094D01*
X293371Y208546D01*
X291631Y204345D01*
X288415Y201129D01*
X284214Y199389D01*
X279666Y199389D01*
X277024Y200484D01*
X276995Y200492D01*
X276969Y200505D01*
X276842Y200534D01*
X276717Y200568D01*
X276687Y200568D01*
X276658Y200575D01*
X276529Y200571D01*
X276399Y200573D01*
X276370Y200566D01*
X276341Y200565D01*
X276216Y200529D01*
X276090Y200499D01*
X276063Y200485D01*
X276035Y200477D01*
X275923Y200411D01*
X275921Y200410D01*
X275907Y200404D01*
X275897Y200397D01*
X275808Y200350D01*
X275787Y200330D01*
X275761Y200315D01*
X275651Y200218D01*
X275650Y200217D01*
X275649Y200216D01*
X275640Y200209D01*
X268979Y193547D01*
X249032Y193547D01*
X248934Y193535D01*
X248835Y193532D01*
X248777Y193515D01*
X248717Y193507D01*
X248625Y193471D01*
X248530Y193443D01*
X248477Y193413D01*
X248421Y193390D01*
X248341Y193332D01*
X248256Y193282D01*
X248180Y193216D01*
X248164Y193204D01*
X248156Y193194D01*
X248135Y193176D01*
X246626Y191666D01*
X244489Y190781D01*
X244212Y190781D01*
X244074Y190764D01*
X243935Y190751D01*
X243916Y190744D01*
X243896Y190741D01*
X243767Y190690D01*
X243636Y190643D01*
X243619Y190632D01*
X243600Y190624D01*
X243488Y190543D01*
X243373Y190465D01*
X243359Y190449D01*
X243343Y190438D01*
X243254Y190330D01*
X243162Y190226D01*
X243153Y190208D01*
X243140Y190193D01*
X243081Y190067D01*
X243018Y189943D01*
X243013Y189923D01*
X243005Y189905D01*
X242979Y189769D01*
X242948Y189633D01*
X242949Y189612D01*
X242945Y189593D01*
X242954Y189454D01*
X242958Y189315D01*
X242963Y189295D01*
X242965Y189275D01*
X243007Y189143D01*
X243046Y189009D01*
X243056Y188992D01*
X243063Y188973D01*
X243137Y188855D01*
X243208Y188735D01*
X243226Y188714D01*
X243233Y188704D01*
X243248Y188690D01*
X243314Y188615D01*
X268879Y163050D01*
X268988Y162965D01*
X269095Y162876D01*
X269114Y162868D01*
X269130Y162855D01*
X269258Y162800D01*
X269383Y162741D01*
X269403Y162737D01*
X269422Y162729D01*
X269560Y162707D01*
X269696Y162681D01*
X269716Y162682D01*
X269736Y162679D01*
X269875Y162692D01*
X270013Y162701D01*
X270032Y162707D01*
X270052Y162709D01*
X270184Y162756D01*
X270315Y162799D01*
X270333Y162810D01*
X270352Y162816D01*
X270467Y162894D01*
X270584Y162969D01*
X270598Y162984D01*
X270615Y162995D01*
X270707Y163099D01*
X270802Y163200D01*
X270812Y163218D01*
X270825Y163233D01*
X270889Y163357D01*
X270956Y163479D01*
X270961Y163499D01*
X270970Y163517D01*
X270979Y163556D01*
X271930Y165854D01*
X273566Y167490D01*
X275703Y168375D01*
X277837Y168375D01*
X277936Y168387D01*
X278035Y168390D01*
X278093Y168407D01*
X278153Y168415D01*
X278245Y168451D01*
X278340Y168479D01*
X278392Y168509D01*
X278449Y168532D01*
X278529Y168590D01*
X278614Y168640D01*
X278689Y168706D01*
X278706Y168718D01*
X278714Y168728D01*
X278735Y168746D01*
X285757Y175769D01*
X374131Y175769D01*
X374230Y175781D01*
X374329Y175784D01*
X374387Y175801D01*
X374447Y175809D01*
X374539Y175845D01*
X374634Y175873D01*
X374686Y175903D01*
X374743Y175926D01*
X374823Y175984D01*
X374908Y176034D01*
X374983Y176100D01*
X375000Y176112D01*
X375008Y176122D01*
X375029Y176140D01*
X379140Y180251D01*
X379200Y180329D01*
X379268Y180401D01*
X379297Y180454D01*
X379334Y180502D01*
X379374Y180593D01*
X379422Y180680D01*
X379437Y180739D01*
X379461Y180794D01*
X379476Y180892D01*
X379501Y180988D01*
X379507Y181088D01*
X379511Y181108D01*
X379509Y181121D01*
X379511Y181149D01*
X379511Y190821D01*
X379494Y190958D01*
X379481Y191097D01*
X379474Y191116D01*
X379471Y191136D01*
X379420Y191265D01*
X379373Y191397D01*
X379362Y191413D01*
X379354Y191432D01*
X379273Y191545D01*
X379195Y191660D01*
X379179Y191673D01*
X379168Y191689D01*
X379060Y191778D01*
X378956Y191870D01*
X378938Y191879D01*
X378923Y191892D01*
X378797Y191952D01*
X378673Y192015D01*
X378653Y192019D01*
X378635Y192028D01*
X378499Y192054D01*
X378363Y192084D01*
X378342Y192084D01*
X378323Y192088D01*
X378184Y192079D01*
X378045Y192075D01*
X378025Y192069D01*
X378005Y192068D01*
X377873Y192025D01*
X377739Y191986D01*
X377722Y191976D01*
X377703Y191970D01*
X377585Y191895D01*
X377465Y191825D01*
X377444Y191806D01*
X377434Y191800D01*
X377420Y191785D01*
X377345Y191718D01*
X372996Y187370D01*
X366653Y184742D01*
X359787Y184742D01*
X353444Y187370D01*
X348590Y192224D01*
X345962Y198567D01*
X345962Y205433D01*
X348590Y211776D01*
X353444Y216630D01*
X359787Y219258D01*
X366653Y219258D01*
X372996Y216630D01*
X377345Y212282D01*
X377454Y212196D01*
X377561Y212108D01*
X377580Y212099D01*
X377596Y212087D01*
X377724Y212031D01*
X377849Y211972D01*
X377869Y211968D01*
X377888Y211960D01*
X378026Y211938D01*
X378162Y211912D01*
X378182Y211914D01*
X378202Y211910D01*
X378341Y211924D01*
X378479Y211932D01*
X378498Y211938D01*
X378518Y211940D01*
X378650Y211987D01*
X378781Y212030D01*
X378799Y212041D01*
X378818Y212048D01*
X378933Y212126D01*
X379050Y212200D01*
X379064Y212215D01*
X379081Y212226D01*
X379173Y212331D01*
X379268Y212432D01*
X379278Y212450D01*
X379291Y212465D01*
X379355Y212589D01*
X379422Y212710D01*
X379427Y212730D01*
X379436Y212748D01*
X379466Y212884D01*
X379501Y213018D01*
X379503Y213046D01*
X379506Y213058D01*
X379505Y213079D01*
X379511Y213179D01*
X379511Y229972D01*
X379558Y230056D01*
X379573Y230115D01*
X379597Y230170D01*
X379612Y230268D01*
X379637Y230364D01*
X379643Y230464D01*
X379647Y230484D01*
X379645Y230497D01*
X379647Y230525D01*
X379647Y254508D01*
X379632Y254626D01*
X379625Y254745D01*
X379612Y254783D01*
X379607Y254824D01*
X379564Y254934D01*
X379527Y255047D01*
X379505Y255082D01*
X379490Y255119D01*
X379421Y255215D01*
X379357Y255316D01*
X379327Y255344D01*
X379304Y255377D01*
X379212Y255453D01*
X379125Y255534D01*
X379090Y255554D01*
X379059Y255579D01*
X378951Y255630D01*
X378847Y255688D01*
X378807Y255698D01*
X378771Y255715D01*
X378654Y255737D01*
X378539Y255767D01*
X378479Y255771D01*
X378459Y255775D01*
X378438Y255773D01*
X378378Y255777D01*
X343490Y255777D01*
X343372Y255762D01*
X343253Y255755D01*
X343215Y255742D01*
X343174Y255737D01*
X343064Y255694D01*
X342951Y255657D01*
X342916Y255635D01*
X342879Y255620D01*
X342783Y255551D01*
X342682Y255487D01*
X342654Y255457D01*
X342621Y255434D01*
X342545Y255342D01*
X342464Y255255D01*
X342444Y255220D01*
X342419Y255189D01*
X342368Y255081D01*
X342310Y254977D01*
X342300Y254937D01*
X342283Y254901D01*
X342261Y254784D01*
X342231Y254669D01*
X342227Y254609D01*
X342223Y254589D01*
X342225Y254568D01*
X342221Y254508D01*
X342221Y238759D01*
X332450Y238759D01*
X332332Y238744D01*
X332213Y238737D01*
X332175Y238724D01*
X332135Y238719D01*
X332024Y238675D01*
X331911Y238639D01*
X331876Y238617D01*
X331839Y238602D01*
X331743Y238532D01*
X331642Y238469D01*
X331614Y238439D01*
X331582Y238415D01*
X331506Y238324D01*
X331424Y238237D01*
X331405Y238202D01*
X331379Y238170D01*
X331328Y238063D01*
X331271Y237959D01*
X331260Y237919D01*
X331243Y237883D01*
X331221Y237766D01*
X331191Y237651D01*
X331187Y237590D01*
X331183Y237570D01*
X331185Y237550D01*
X331181Y237490D01*
X331181Y236219D01*
X331179Y236219D01*
X331179Y237490D01*
X331164Y237608D01*
X331157Y237727D01*
X331144Y237765D01*
X331139Y237805D01*
X331095Y237916D01*
X331059Y238029D01*
X331037Y238064D01*
X331022Y238101D01*
X330952Y238197D01*
X330889Y238298D01*
X330859Y238326D01*
X330835Y238358D01*
X330744Y238434D01*
X330657Y238516D01*
X330622Y238535D01*
X330590Y238561D01*
X330483Y238612D01*
X330379Y238669D01*
X330339Y238680D01*
X330303Y238697D01*
X330186Y238719D01*
X330071Y238749D01*
X330010Y238753D01*
X329990Y238757D01*
X329970Y238755D01*
X329910Y238759D01*
X320139Y238759D01*
X320139Y254508D01*
X320124Y254626D01*
X320117Y254745D01*
X320104Y254783D01*
X320099Y254824D01*
X320056Y254934D01*
X320019Y255047D01*
X319997Y255082D01*
X319982Y255119D01*
X319913Y255215D01*
X319849Y255316D01*
X319819Y255344D01*
X319796Y255377D01*
X319704Y255453D01*
X319617Y255534D01*
X319582Y255554D01*
X319551Y255579D01*
X319443Y255630D01*
X319339Y255688D01*
X319299Y255698D01*
X319263Y255715D01*
X319146Y255737D01*
X319031Y255767D01*
X318971Y255771D01*
X318951Y255775D01*
X318930Y255773D01*
X318870Y255777D01*
X159512Y255777D01*
X159394Y255762D01*
X159275Y255755D01*
X159237Y255742D01*
X159196Y255737D01*
X159086Y255694D01*
X158973Y255657D01*
X158938Y255635D01*
X158901Y255620D01*
X158805Y255551D01*
X158704Y255487D01*
X158676Y255457D01*
X158643Y255434D01*
X158567Y255342D01*
X158486Y255255D01*
X158466Y255220D01*
X158441Y255189D01*
X158390Y255081D01*
X158332Y254977D01*
X158322Y254937D01*
X158305Y254901D01*
X158283Y254784D01*
X158253Y254669D01*
X158249Y254609D01*
X158245Y254589D01*
X158247Y254568D01*
X158243Y254508D01*
X158243Y248912D01*
X158260Y248774D01*
X158273Y248635D01*
X158280Y248616D01*
X158283Y248596D01*
X158334Y248467D01*
X158381Y248336D01*
X158392Y248319D01*
X158400Y248300D01*
X158481Y248188D01*
X158559Y248073D01*
X158575Y248059D01*
X158586Y248043D01*
X158694Y247954D01*
X158798Y247862D01*
X158816Y247853D01*
X158831Y247840D01*
X158957Y247781D01*
X159081Y247718D01*
X159101Y247713D01*
X159119Y247705D01*
X159255Y247679D01*
X159391Y247648D01*
X159412Y247649D01*
X159431Y247645D01*
X159570Y247654D01*
X159709Y247658D01*
X159729Y247663D01*
X159749Y247665D01*
X159881Y247707D01*
X160015Y247746D01*
X160032Y247756D01*
X160051Y247763D01*
X160169Y247837D01*
X160289Y247908D01*
X160310Y247926D01*
X160320Y247933D01*
X160334Y247948D01*
X160409Y248014D01*
X162416Y250021D01*
X167298Y252043D01*
X172582Y252043D01*
X177464Y250021D01*
X181201Y246284D01*
X183223Y241402D01*
X183223Y236118D01*
X181201Y231236D01*
X177464Y227499D01*
X172582Y225477D01*
X167298Y225477D01*
X162416Y227499D01*
X160409Y229506D01*
X160300Y229591D01*
X160193Y229680D01*
X160174Y229688D01*
X160158Y229701D01*
X160030Y229756D01*
X159905Y229815D01*
X159885Y229819D01*
X159866Y229827D01*
X159728Y229849D01*
X159592Y229875D01*
X159572Y229874D01*
X159552Y229877D01*
X159413Y229864D01*
X159275Y229855D01*
X159256Y229849D01*
X159236Y229847D01*
X159104Y229800D01*
X158973Y229757D01*
X158955Y229747D01*
X158936Y229740D01*
X158821Y229662D01*
X158704Y229587D01*
X158690Y229572D01*
X158673Y229561D01*
X158581Y229457D01*
X158486Y229356D01*
X158476Y229338D01*
X158463Y229323D01*
X158399Y229199D01*
X158332Y229077D01*
X158327Y229057D01*
X158318Y229039D01*
X158288Y228904D01*
X158253Y228769D01*
X158251Y228741D01*
X158248Y228729D01*
X158249Y228709D01*
X158243Y228608D01*
X158243Y33020D01*
X158258Y32902D01*
X158265Y32783D01*
X158278Y32745D01*
X158283Y32704D01*
X158326Y32594D01*
X158363Y32481D01*
X158385Y32446D01*
X158400Y32409D01*
X158469Y32313D01*
X158533Y32212D01*
X158563Y32184D01*
X158586Y32151D01*
X158678Y32076D01*
X158765Y31994D01*
X158800Y31974D01*
X158831Y31949D01*
X158939Y31898D01*
X159043Y31840D01*
X159083Y31830D01*
X159119Y31813D01*
X159236Y31791D01*
X159351Y31761D01*
X159411Y31757D01*
X159431Y31753D01*
X159452Y31755D01*
X159512Y31751D01*
X399288Y31751D01*
X399406Y31766D01*
G37*
%LPC*%
G36*
X194687Y34742D02*
X194687Y34742D01*
X188344Y37370D01*
X183490Y42224D01*
X180862Y48567D01*
X180862Y55433D01*
X183490Y61776D01*
X188344Y66630D01*
X194687Y69258D01*
X201553Y69258D01*
X207896Y66630D01*
X212750Y61776D01*
X215378Y55433D01*
X215378Y48567D01*
X212750Y42224D01*
X207896Y37370D01*
X201553Y34742D01*
X194687Y34742D01*
G37*
%LPD*%
%LPC*%
G36*
X359787Y34742D02*
X359787Y34742D01*
X353444Y37370D01*
X348590Y42224D01*
X345962Y48567D01*
X345962Y55433D01*
X348590Y61776D01*
X353444Y66630D01*
X359787Y69258D01*
X366653Y69258D01*
X372996Y66630D01*
X377850Y61776D01*
X380478Y55433D01*
X380478Y48567D01*
X377850Y42224D01*
X372996Y37370D01*
X366653Y34742D01*
X359787Y34742D01*
G37*
%LPD*%
%LPC*%
G36*
X264298Y225477D02*
X264298Y225477D01*
X259416Y227499D01*
X255679Y231236D01*
X253657Y236118D01*
X253657Y241402D01*
X255679Y246284D01*
X259416Y250021D01*
X264298Y252043D01*
X269582Y252043D01*
X274464Y250021D01*
X278201Y246284D01*
X280223Y241402D01*
X280223Y236118D01*
X278201Y231236D01*
X274464Y227499D01*
X269582Y225477D01*
X264298Y225477D01*
G37*
%LPD*%
%LPC*%
G36*
X305066Y199389D02*
X305066Y199389D01*
X300865Y201129D01*
X297649Y204345D01*
X295909Y208546D01*
X295909Y213094D01*
X297649Y217295D01*
X300865Y220511D01*
X305066Y222251D01*
X309614Y222251D01*
X313815Y220511D01*
X317031Y217295D01*
X318771Y213094D01*
X318771Y208546D01*
X317031Y204345D01*
X313815Y201129D01*
X309614Y199389D01*
X305066Y199389D01*
G37*
%LPD*%
%LPC*%
G36*
X175579Y129539D02*
X175579Y129539D01*
X175579Y147334D01*
X175752Y147981D01*
X176087Y148560D01*
X176560Y149033D01*
X177139Y149368D01*
X177786Y149541D01*
X195581Y149541D01*
X195581Y129539D01*
X175579Y129539D01*
G37*
%LPD*%
%LPC*%
G36*
X177786Y104459D02*
X177786Y104459D01*
X177139Y104632D01*
X176560Y104967D01*
X176087Y105440D01*
X175752Y106019D01*
X175579Y106666D01*
X175579Y124461D01*
X195581Y124461D01*
X195581Y110489D01*
X178816Y110489D01*
X178796Y110486D01*
X178777Y110488D01*
X178675Y110466D01*
X178573Y110450D01*
X178556Y110440D01*
X178536Y110436D01*
X178447Y110383D01*
X178356Y110334D01*
X178342Y110320D01*
X178325Y110310D01*
X178258Y110231D01*
X178187Y110156D01*
X178178Y110138D01*
X178165Y110123D01*
X178126Y110027D01*
X178083Y109933D01*
X178081Y109913D01*
X178073Y109895D01*
X178055Y109728D01*
X178055Y104459D01*
X177786Y104459D01*
G37*
%LPD*%
%LPC*%
G36*
X216735Y230187D02*
X216735Y230187D01*
X213584Y231492D01*
X211172Y233904D01*
X209867Y237055D01*
X209867Y240465D01*
X211172Y243616D01*
X213584Y246028D01*
X216735Y247333D01*
X220145Y247333D01*
X223296Y246028D01*
X225708Y243616D01*
X227013Y240465D01*
X227013Y237055D01*
X225708Y233904D01*
X223296Y231492D01*
X220145Y230187D01*
X216735Y230187D01*
G37*
%LPD*%
%LPC*%
G36*
X236735Y230187D02*
X236735Y230187D01*
X233584Y231492D01*
X231172Y233904D01*
X229867Y237055D01*
X229867Y240465D01*
X231172Y243616D01*
X233584Y246028D01*
X236735Y247333D01*
X240145Y247333D01*
X243296Y246028D01*
X245708Y243616D01*
X247013Y240465D01*
X247013Y237055D01*
X245708Y233904D01*
X243296Y231492D01*
X240145Y230187D01*
X236735Y230187D01*
G37*
%LPD*%
%LPC*%
G36*
X196735Y230187D02*
X196735Y230187D01*
X193584Y231492D01*
X191172Y233904D01*
X189867Y237055D01*
X189867Y240465D01*
X191172Y243616D01*
X193584Y246028D01*
X196735Y247333D01*
X200145Y247333D01*
X203296Y246028D01*
X205708Y243616D01*
X207013Y240465D01*
X207013Y237055D01*
X205708Y233904D01*
X203296Y231492D01*
X200145Y230187D01*
X196735Y230187D01*
G37*
%LPD*%
%LPC*%
G36*
X333719Y215179D02*
X333719Y215179D01*
X333719Y233681D01*
X342221Y233681D01*
X342221Y217386D01*
X342048Y216739D01*
X341713Y216160D01*
X341240Y215687D01*
X340661Y215352D01*
X340014Y215179D01*
X333719Y215179D01*
G37*
%LPD*%
%LPC*%
G36*
X322346Y215179D02*
X322346Y215179D01*
X321699Y215352D01*
X321120Y215687D01*
X320647Y216160D01*
X320312Y216739D01*
X320139Y217386D01*
X320139Y233681D01*
X328641Y233681D01*
X328641Y215179D01*
X322346Y215179D01*
G37*
%LPD*%
%LPC*%
G36*
X233679Y213359D02*
X233679Y213359D01*
X233679Y222505D01*
X233936Y222465D01*
X235723Y221884D01*
X237397Y221031D01*
X238918Y219926D01*
X240246Y218598D01*
X241351Y217077D01*
X242204Y215403D01*
X242794Y213586D01*
X242819Y213500D01*
X242850Y213374D01*
X242857Y213359D01*
X233679Y213359D01*
G37*
%LPD*%
%LPC*%
G36*
X219455Y213359D02*
X219455Y213359D01*
X219495Y213616D01*
X220076Y215403D01*
X220929Y217077D01*
X222034Y218598D01*
X223362Y219926D01*
X224883Y221031D01*
X226557Y221884D01*
X228344Y222465D01*
X228601Y222505D01*
X228601Y213359D01*
X219455Y213359D01*
G37*
%LPD*%
%LPC*%
G36*
X228344Y199175D02*
X228344Y199175D01*
X226557Y199756D01*
X224883Y200609D01*
X223362Y201714D01*
X222034Y203042D01*
X220929Y204563D01*
X220076Y206237D01*
X219495Y208024D01*
X219455Y208281D01*
X228601Y208281D01*
X228601Y199135D01*
X228344Y199175D01*
G37*
%LPD*%
%LPC*%
G36*
X231139Y210819D02*
X231139Y210819D01*
X231139Y210821D01*
X231141Y210821D01*
X231141Y210819D01*
X231139Y210819D01*
G37*
%LPD*%
D10*
X198120Y127000D03*
D11*
X198120Y52000D03*
X198120Y202000D03*
D10*
X363220Y127000D03*
D11*
X363220Y202000D03*
X363220Y52000D03*
D12*
X231140Y210820D03*
X256540Y210820D03*
X281940Y210820D03*
X307340Y210820D03*
D13*
X331180Y236220D03*
X390180Y236220D03*
D14*
X218440Y238760D03*
X198440Y238760D03*
X238440Y238760D03*
D15*
X169940Y238760D03*
X266940Y238760D03*
D16*
X342900Y35560D03*
X314960Y38100D03*
X314960Y50800D03*
X340360Y48260D03*
X299720Y50800D03*
X299720Y38100D03*
X294640Y68580D03*
X309880Y68580D03*
X276860Y68580D03*
X256540Y68580D03*
X256540Y86360D03*
X256540Y106680D03*
X256540Y124460D03*
X274320Y124460D03*
X292100Y124460D03*
X309880Y124460D03*
X309880Y106680D03*
X309880Y88900D03*
X292100Y88900D03*
X274320Y88900D03*
X274320Y106680D03*
X292100Y106680D03*
X234188Y162052D03*
X245364Y162052D03*
X226060Y35560D03*
X215900Y35560D03*
X332740Y160020D03*
X342392Y160020D03*
D17*
X216901Y59779D02*
X216901Y44221D01*
X198120Y78560D02*
X198120Y106680D01*
X216901Y44221D02*
X215900Y43220D01*
X215900Y35560D01*
X216901Y59779D02*
X198120Y78560D01*
D18*
X228600Y38100D02*
X226060Y35560D01*
X228600Y38100D02*
X314960Y38100D01*
X299720Y38100D02*
X299720Y50800D01*
X314960Y38100D02*
X340360Y38100D01*
X342900Y35560D01*
X340360Y38100D02*
X340360Y48260D01*
X337820Y50800D01*
X314960Y50800D01*
X299720Y50800D01*
X299720Y63500D01*
X294640Y68580D01*
X309880Y68580D01*
X309880Y88900D01*
X309880Y106680D01*
X309880Y124460D01*
X292100Y124460D01*
X274320Y124460D01*
D19*
X239680Y210820D02*
X231140Y210820D01*
X239680Y210820D02*
X253634Y224774D01*
X310590Y224774D01*
X245364Y162052D02*
X234188Y162052D01*
X241808Y139192D02*
X256540Y124460D01*
X241808Y139192D02*
X241808Y158496D01*
X245364Y162052D01*
D20*
X198120Y127000D02*
X198120Y106680D01*
D16*
X323088Y198628D03*
D18*
X330690Y206230D01*
X330690Y233190D01*
X324848Y239032D01*
D20*
X327660Y236220D02*
X331180Y236220D01*
X327660Y236220D02*
X324848Y239032D01*
X322036Y236220D02*
X331180Y236220D01*
X322036Y236220D02*
X310590Y224774D01*
X332740Y160020D02*
X342392Y160020D01*
D16*
X222278Y64950D03*
X231140Y185420D03*
D21*
X222278Y176558D02*
X222278Y64950D01*
X222278Y176558D02*
X231140Y185420D01*
D16*
X243332Y196596D03*
D21*
X267716Y196596D01*
X281940Y210820D01*
D16*
X226060Y50800D03*
D21*
X228600Y53340D01*
X228600Y140919D02*
X226342Y143177D01*
X226342Y167922D01*
X228600Y140919D02*
X228600Y53340D01*
X236220Y177800D02*
X238760Y177800D01*
D16*
X238760Y177800D03*
D21*
X236220Y177800D02*
X226342Y167922D01*
D16*
X216442Y180478D03*
X169136Y55880D03*
D21*
X177018Y180478D02*
X216442Y180478D01*
X177018Y180478D02*
X169644Y173104D01*
X169644Y56388D02*
X169136Y55880D01*
X169644Y56388D02*
X169644Y173104D01*
D16*
X276860Y162560D03*
D21*
X287020Y172720D01*
X375920Y172720D01*
X382560Y179360D01*
X382560Y228600D02*
X390180Y236220D01*
X382560Y228600D02*
X382560Y179360D01*
D18*
X352016Y138204D02*
X363220Y127000D01*
X352016Y138204D02*
X289054Y138204D01*
X198120Y192532D02*
X198120Y202000D01*
X198120Y192532D02*
X234726Y192532D01*
X289054Y138204D01*
D16*
X391160Y180340D03*
D21*
X378460Y167640D01*
X299720Y167640D01*
X295470Y163390D01*
D16*
X295470Y163390D03*
M02*
