G04 EAGLE Gerber RS-274X export*
G75*
%MOMM*%
%FSLAX34Y34*%
%LPD*%
%INSilkscreen Top*%
%IPPOS*%
%AMOC8*
5,1,8,0,0,1.08239X$1,22.5*%
G01*
%ADD10C,0.101600*%
%ADD11C,0.076200*%
%ADD12C,0.127000*%
%ADD13C,0.050800*%
%ADD14C,0.200000*%
%ADD15R,0.325000X0.425000*%
%ADD16R,0.350000X0.350000*%
%ADD17C,0.254000*%
%ADD18C,0.203200*%
%ADD19C,0.150000*%


D10*
X282053Y221996D02*
X279456Y221996D01*
X279357Y221998D01*
X279257Y222004D01*
X279158Y222013D01*
X279060Y222026D01*
X278962Y222043D01*
X278864Y222064D01*
X278768Y222089D01*
X278673Y222117D01*
X278579Y222149D01*
X278486Y222184D01*
X278394Y222223D01*
X278304Y222266D01*
X278216Y222311D01*
X278129Y222361D01*
X278045Y222413D01*
X277962Y222469D01*
X277882Y222527D01*
X277804Y222589D01*
X277729Y222654D01*
X277656Y222722D01*
X277586Y222792D01*
X277518Y222865D01*
X277453Y222940D01*
X277391Y223018D01*
X277333Y223098D01*
X277277Y223181D01*
X277225Y223265D01*
X277175Y223352D01*
X277130Y223440D01*
X277087Y223530D01*
X277048Y223622D01*
X277013Y223715D01*
X276981Y223809D01*
X276953Y223904D01*
X276928Y224000D01*
X276907Y224098D01*
X276890Y224196D01*
X276877Y224294D01*
X276868Y224393D01*
X276862Y224493D01*
X276860Y224592D01*
X276860Y231084D01*
X276862Y231183D01*
X276868Y231283D01*
X276877Y231382D01*
X276890Y231480D01*
X276907Y231578D01*
X276928Y231676D01*
X276953Y231772D01*
X276981Y231867D01*
X277013Y231961D01*
X277048Y232054D01*
X277087Y232146D01*
X277130Y232236D01*
X277175Y232324D01*
X277225Y232411D01*
X277277Y232495D01*
X277333Y232578D01*
X277391Y232658D01*
X277453Y232736D01*
X277518Y232811D01*
X277586Y232884D01*
X277656Y232954D01*
X277729Y233022D01*
X277804Y233087D01*
X277882Y233149D01*
X277962Y233207D01*
X278045Y233263D01*
X278129Y233315D01*
X278216Y233365D01*
X278304Y233410D01*
X278394Y233453D01*
X278486Y233492D01*
X278578Y233527D01*
X278673Y233559D01*
X278768Y233587D01*
X278864Y233612D01*
X278962Y233633D01*
X279060Y233650D01*
X279158Y233663D01*
X279257Y233672D01*
X279357Y233678D01*
X279456Y233680D01*
X282053Y233680D01*
X318008Y223012D02*
X321903Y211328D01*
X325797Y223012D01*
X330422Y219117D02*
X330422Y211328D01*
X330422Y219117D02*
X334316Y219117D01*
X334316Y217819D01*
X339923Y211328D02*
X343168Y211328D01*
X339923Y211328D02*
X339836Y211330D01*
X339748Y211336D01*
X339662Y211346D01*
X339575Y211359D01*
X339490Y211377D01*
X339405Y211398D01*
X339321Y211423D01*
X339239Y211452D01*
X339158Y211485D01*
X339078Y211521D01*
X339000Y211560D01*
X338924Y211604D01*
X338850Y211650D01*
X338779Y211700D01*
X338709Y211753D01*
X338642Y211809D01*
X338578Y211868D01*
X338516Y211930D01*
X338457Y211994D01*
X338401Y212061D01*
X338348Y212131D01*
X338298Y212202D01*
X338252Y212276D01*
X338208Y212352D01*
X338169Y212430D01*
X338133Y212510D01*
X338100Y212591D01*
X338071Y212673D01*
X338046Y212757D01*
X338025Y212842D01*
X338007Y212927D01*
X337994Y213014D01*
X337984Y213100D01*
X337978Y213188D01*
X337976Y213275D01*
X337975Y213275D02*
X337975Y216521D01*
X337976Y216521D02*
X337978Y216622D01*
X337984Y216722D01*
X337994Y216822D01*
X338007Y216922D01*
X338025Y217021D01*
X338046Y217120D01*
X338071Y217217D01*
X338100Y217314D01*
X338133Y217409D01*
X338169Y217503D01*
X338209Y217595D01*
X338252Y217686D01*
X338299Y217775D01*
X338349Y217862D01*
X338403Y217948D01*
X338460Y218031D01*
X338520Y218111D01*
X338583Y218190D01*
X338650Y218266D01*
X338719Y218339D01*
X338791Y218409D01*
X338865Y218477D01*
X338942Y218542D01*
X339022Y218603D01*
X339104Y218662D01*
X339188Y218717D01*
X339274Y218769D01*
X339362Y218818D01*
X339452Y218863D01*
X339544Y218905D01*
X339637Y218943D01*
X339732Y218977D01*
X339827Y219008D01*
X339924Y219035D01*
X340022Y219058D01*
X340121Y219078D01*
X340221Y219093D01*
X340321Y219105D01*
X340421Y219113D01*
X340522Y219117D01*
X340622Y219117D01*
X340723Y219113D01*
X340823Y219105D01*
X340923Y219093D01*
X341023Y219078D01*
X341122Y219058D01*
X341220Y219035D01*
X341317Y219008D01*
X341412Y218977D01*
X341507Y218943D01*
X341600Y218905D01*
X341692Y218863D01*
X341782Y218818D01*
X341870Y218769D01*
X341956Y218717D01*
X342040Y218662D01*
X342122Y218603D01*
X342202Y218542D01*
X342279Y218477D01*
X342353Y218409D01*
X342425Y218339D01*
X342494Y218266D01*
X342561Y218190D01*
X342624Y218111D01*
X342684Y218031D01*
X342741Y217948D01*
X342795Y217862D01*
X342845Y217775D01*
X342892Y217686D01*
X342935Y217595D01*
X342975Y217503D01*
X343011Y217409D01*
X343044Y217314D01*
X343073Y217217D01*
X343098Y217120D01*
X343119Y217021D01*
X343137Y216922D01*
X343150Y216822D01*
X343160Y216722D01*
X343166Y216622D01*
X343168Y216521D01*
X343168Y215223D01*
X337975Y215223D01*
X348508Y211328D02*
X348508Y221065D01*
X348510Y221152D01*
X348516Y221240D01*
X348526Y221326D01*
X348539Y221413D01*
X348557Y221498D01*
X348578Y221583D01*
X348603Y221667D01*
X348632Y221749D01*
X348665Y221830D01*
X348701Y221910D01*
X348740Y221988D01*
X348784Y222064D01*
X348830Y222138D01*
X348880Y222209D01*
X348933Y222279D01*
X348989Y222346D01*
X349048Y222410D01*
X349109Y222472D01*
X349174Y222531D01*
X349241Y222587D01*
X349311Y222640D01*
X349382Y222690D01*
X349456Y222736D01*
X349532Y222780D01*
X349610Y222819D01*
X349690Y222855D01*
X349771Y222888D01*
X349853Y222917D01*
X349937Y222942D01*
X350022Y222963D01*
X350107Y222981D01*
X350194Y222994D01*
X350280Y223004D01*
X350368Y223010D01*
X350455Y223012D01*
X351104Y223012D01*
X351104Y219117D02*
X347210Y219117D01*
X243332Y199136D02*
X243332Y187452D01*
X243332Y199136D02*
X246578Y199136D01*
X246691Y199134D01*
X246804Y199128D01*
X246917Y199118D01*
X247030Y199104D01*
X247142Y199087D01*
X247253Y199065D01*
X247363Y199040D01*
X247473Y199010D01*
X247581Y198977D01*
X247688Y198940D01*
X247794Y198900D01*
X247898Y198855D01*
X248001Y198807D01*
X248102Y198756D01*
X248201Y198701D01*
X248298Y198643D01*
X248393Y198581D01*
X248486Y198516D01*
X248576Y198448D01*
X248664Y198377D01*
X248750Y198302D01*
X248833Y198225D01*
X248913Y198145D01*
X248990Y198062D01*
X249065Y197976D01*
X249136Y197888D01*
X249204Y197798D01*
X249269Y197705D01*
X249331Y197610D01*
X249389Y197513D01*
X249444Y197414D01*
X249495Y197313D01*
X249543Y197210D01*
X249588Y197106D01*
X249628Y197000D01*
X249665Y196893D01*
X249698Y196785D01*
X249728Y196675D01*
X249753Y196565D01*
X249775Y196454D01*
X249792Y196342D01*
X249806Y196229D01*
X249816Y196116D01*
X249822Y196003D01*
X249824Y195890D01*
X249823Y195890D02*
X249823Y190698D01*
X249824Y190698D02*
X249822Y190585D01*
X249816Y190472D01*
X249806Y190359D01*
X249792Y190246D01*
X249775Y190134D01*
X249753Y190023D01*
X249728Y189913D01*
X249698Y189803D01*
X249665Y189695D01*
X249628Y189588D01*
X249588Y189482D01*
X249543Y189378D01*
X249495Y189275D01*
X249444Y189174D01*
X249389Y189075D01*
X249331Y188978D01*
X249269Y188883D01*
X249204Y188790D01*
X249136Y188700D01*
X249065Y188612D01*
X248990Y188526D01*
X248913Y188443D01*
X248833Y188363D01*
X248750Y188286D01*
X248664Y188211D01*
X248576Y188140D01*
X248486Y188072D01*
X248393Y188007D01*
X248298Y187945D01*
X248201Y187887D01*
X248102Y187832D01*
X248001Y187781D01*
X247898Y187733D01*
X247794Y187688D01*
X247688Y187648D01*
X247581Y187611D01*
X247473Y187578D01*
X247363Y187548D01*
X247253Y187523D01*
X247142Y187501D01*
X247030Y187484D01*
X246917Y187470D01*
X246804Y187460D01*
X246691Y187454D01*
X246578Y187452D01*
X243332Y187452D01*
D11*
X229602Y180264D02*
X229602Y178697D01*
X229602Y180264D02*
X234823Y180264D01*
X234823Y177131D01*
X234821Y177042D01*
X234815Y176954D01*
X234806Y176866D01*
X234793Y176778D01*
X234776Y176691D01*
X234756Y176605D01*
X234731Y176520D01*
X234704Y176435D01*
X234672Y176352D01*
X234638Y176271D01*
X234599Y176191D01*
X234558Y176113D01*
X234513Y176036D01*
X234465Y175962D01*
X234414Y175889D01*
X234360Y175819D01*
X234302Y175752D01*
X234242Y175686D01*
X234180Y175624D01*
X234114Y175564D01*
X234047Y175506D01*
X233977Y175452D01*
X233904Y175401D01*
X233830Y175353D01*
X233753Y175308D01*
X233675Y175267D01*
X233595Y175228D01*
X233514Y175194D01*
X233431Y175162D01*
X233346Y175135D01*
X233261Y175110D01*
X233175Y175090D01*
X233088Y175073D01*
X233000Y175060D01*
X232912Y175051D01*
X232824Y175045D01*
X232735Y175043D01*
X227513Y175043D01*
X227513Y175042D02*
X227422Y175044D01*
X227331Y175050D01*
X227240Y175060D01*
X227150Y175074D01*
X227061Y175092D01*
X226972Y175113D01*
X226885Y175139D01*
X226799Y175168D01*
X226714Y175201D01*
X226630Y175238D01*
X226548Y175278D01*
X226469Y175322D01*
X226391Y175369D01*
X226315Y175420D01*
X226241Y175474D01*
X226170Y175531D01*
X226102Y175591D01*
X226036Y175654D01*
X225973Y175720D01*
X225913Y175788D01*
X225856Y175859D01*
X225802Y175933D01*
X225751Y176009D01*
X225704Y176086D01*
X225660Y176166D01*
X225620Y176248D01*
X225583Y176332D01*
X225550Y176416D01*
X225521Y176503D01*
X225495Y176590D01*
X225474Y176679D01*
X225456Y176768D01*
X225442Y176858D01*
X225432Y176949D01*
X225426Y177040D01*
X225424Y177131D01*
X225425Y177131D02*
X225425Y180264D01*
X225425Y184796D02*
X234823Y184796D01*
X234823Y190017D02*
X225425Y184796D01*
X225425Y190017D02*
X234823Y190017D01*
X234823Y194550D02*
X225425Y194550D01*
X225425Y197160D01*
X225427Y197260D01*
X225433Y197360D01*
X225442Y197459D01*
X225456Y197559D01*
X225473Y197657D01*
X225494Y197755D01*
X225518Y197852D01*
X225547Y197948D01*
X225579Y198043D01*
X225614Y198136D01*
X225653Y198228D01*
X225696Y198319D01*
X225742Y198407D01*
X225792Y198494D01*
X225844Y198579D01*
X225900Y198662D01*
X225959Y198743D01*
X226022Y198821D01*
X226087Y198897D01*
X226155Y198971D01*
X226225Y199041D01*
X226299Y199109D01*
X226375Y199174D01*
X226453Y199237D01*
X226534Y199296D01*
X226617Y199352D01*
X226702Y199404D01*
X226789Y199454D01*
X226877Y199500D01*
X226968Y199543D01*
X227060Y199582D01*
X227153Y199617D01*
X227248Y199649D01*
X227344Y199678D01*
X227441Y199702D01*
X227539Y199723D01*
X227637Y199740D01*
X227737Y199754D01*
X227836Y199763D01*
X227936Y199769D01*
X228036Y199771D01*
X232212Y199771D01*
X232312Y199769D01*
X232412Y199763D01*
X232511Y199754D01*
X232611Y199740D01*
X232709Y199723D01*
X232807Y199702D01*
X232904Y199678D01*
X233000Y199649D01*
X233095Y199617D01*
X233188Y199582D01*
X233280Y199543D01*
X233371Y199500D01*
X233459Y199454D01*
X233546Y199404D01*
X233631Y199352D01*
X233714Y199296D01*
X233795Y199237D01*
X233873Y199174D01*
X233949Y199109D01*
X234023Y199041D01*
X234093Y198971D01*
X234161Y198897D01*
X234226Y198821D01*
X234289Y198743D01*
X234348Y198662D01*
X234404Y198579D01*
X234456Y198494D01*
X234506Y198407D01*
X234552Y198319D01*
X234595Y198228D01*
X234634Y198136D01*
X234669Y198043D01*
X234701Y197948D01*
X234730Y197852D01*
X234754Y197755D01*
X234775Y197657D01*
X234792Y197559D01*
X234806Y197459D01*
X234815Y197360D01*
X234821Y197260D01*
X234823Y197160D01*
X234823Y194550D01*
D12*
X298831Y236855D02*
X298831Y252349D01*
X303135Y252349D01*
X303265Y252347D01*
X303395Y252341D01*
X303525Y252331D01*
X303654Y252318D01*
X303783Y252300D01*
X303911Y252279D01*
X304038Y252253D01*
X304165Y252224D01*
X304291Y252191D01*
X304415Y252154D01*
X304539Y252114D01*
X304661Y252069D01*
X304782Y252021D01*
X304901Y251970D01*
X305019Y251915D01*
X305135Y251856D01*
X305249Y251794D01*
X305362Y251728D01*
X305472Y251659D01*
X305580Y251587D01*
X305686Y251512D01*
X305789Y251433D01*
X305890Y251351D01*
X305989Y251267D01*
X306085Y251179D01*
X306178Y251088D01*
X306269Y250995D01*
X306357Y250899D01*
X306441Y250800D01*
X306523Y250699D01*
X306602Y250596D01*
X306677Y250490D01*
X306749Y250382D01*
X306818Y250272D01*
X306884Y250159D01*
X306946Y250045D01*
X307005Y249929D01*
X307060Y249811D01*
X307111Y249692D01*
X307159Y249571D01*
X307204Y249449D01*
X307244Y249325D01*
X307281Y249201D01*
X307314Y249075D01*
X307343Y248948D01*
X307369Y248821D01*
X307390Y248693D01*
X307408Y248564D01*
X307421Y248435D01*
X307431Y248305D01*
X307437Y248175D01*
X307439Y248045D01*
X307437Y247915D01*
X307431Y247785D01*
X307421Y247655D01*
X307408Y247526D01*
X307390Y247397D01*
X307369Y247269D01*
X307343Y247142D01*
X307314Y247015D01*
X307281Y246889D01*
X307244Y246765D01*
X307204Y246641D01*
X307159Y246519D01*
X307111Y246398D01*
X307060Y246279D01*
X307005Y246161D01*
X306946Y246045D01*
X306884Y245931D01*
X306818Y245818D01*
X306749Y245708D01*
X306677Y245600D01*
X306602Y245494D01*
X306523Y245391D01*
X306441Y245290D01*
X306357Y245191D01*
X306269Y245095D01*
X306178Y245002D01*
X306085Y244911D01*
X305989Y244823D01*
X305890Y244739D01*
X305789Y244657D01*
X305686Y244578D01*
X305580Y244503D01*
X305472Y244431D01*
X305362Y244362D01*
X305249Y244296D01*
X305135Y244234D01*
X305019Y244175D01*
X304901Y244120D01*
X304782Y244069D01*
X304661Y244021D01*
X304539Y243976D01*
X304415Y243936D01*
X304291Y243899D01*
X304165Y243866D01*
X304038Y243837D01*
X303911Y243811D01*
X303783Y243790D01*
X303654Y243772D01*
X303525Y243759D01*
X303395Y243749D01*
X303265Y243743D01*
X303135Y243741D01*
X298831Y243741D01*
X303996Y243741D02*
X307439Y236855D01*
X316063Y236855D02*
X320367Y236855D01*
X316063Y236855D02*
X315964Y236857D01*
X315865Y236863D01*
X315767Y236872D01*
X315669Y236885D01*
X315571Y236902D01*
X315475Y236923D01*
X315379Y236947D01*
X315284Y236975D01*
X315190Y237007D01*
X315098Y237042D01*
X315007Y237081D01*
X314917Y237123D01*
X314830Y237169D01*
X314744Y237218D01*
X314660Y237270D01*
X314578Y237325D01*
X314498Y237384D01*
X314420Y237445D01*
X314345Y237509D01*
X314273Y237577D01*
X314203Y237647D01*
X314135Y237719D01*
X314071Y237794D01*
X314010Y237872D01*
X313951Y237952D01*
X313896Y238034D01*
X313844Y238118D01*
X313795Y238204D01*
X313749Y238291D01*
X313707Y238381D01*
X313668Y238472D01*
X313633Y238564D01*
X313601Y238658D01*
X313573Y238753D01*
X313549Y238849D01*
X313528Y238945D01*
X313511Y239043D01*
X313498Y239141D01*
X313489Y239239D01*
X313483Y239338D01*
X313481Y239437D01*
X313481Y243741D01*
X313483Y243857D01*
X313489Y243973D01*
X313499Y244089D01*
X313512Y244205D01*
X313530Y244320D01*
X313551Y244434D01*
X313577Y244548D01*
X313606Y244660D01*
X313639Y244772D01*
X313676Y244882D01*
X313716Y244991D01*
X313760Y245099D01*
X313808Y245205D01*
X313859Y245309D01*
X313914Y245412D01*
X313972Y245513D01*
X314033Y245611D01*
X314098Y245708D01*
X314166Y245802D01*
X314237Y245894D01*
X314312Y245984D01*
X314389Y246071D01*
X314469Y246155D01*
X314552Y246236D01*
X314638Y246315D01*
X314726Y246391D01*
X314817Y246464D01*
X314910Y246533D01*
X315005Y246600D01*
X315103Y246663D01*
X315203Y246723D01*
X315304Y246779D01*
X315408Y246832D01*
X315513Y246882D01*
X315620Y246927D01*
X315728Y246970D01*
X315838Y247008D01*
X315949Y247043D01*
X316061Y247074D01*
X316174Y247101D01*
X316288Y247125D01*
X316403Y247144D01*
X316518Y247160D01*
X316634Y247172D01*
X316750Y247180D01*
X316866Y247184D01*
X316982Y247184D01*
X317098Y247180D01*
X317214Y247172D01*
X317330Y247160D01*
X317445Y247144D01*
X317560Y247125D01*
X317674Y247101D01*
X317787Y247074D01*
X317899Y247043D01*
X318010Y247008D01*
X318120Y246970D01*
X318228Y246927D01*
X318335Y246882D01*
X318440Y246832D01*
X318544Y246779D01*
X318646Y246723D01*
X318745Y246663D01*
X318843Y246600D01*
X318938Y246533D01*
X319031Y246464D01*
X319122Y246391D01*
X319210Y246315D01*
X319296Y246236D01*
X319379Y246155D01*
X319459Y246071D01*
X319536Y245984D01*
X319611Y245894D01*
X319682Y245802D01*
X319750Y245708D01*
X319815Y245611D01*
X319876Y245513D01*
X319934Y245412D01*
X319989Y245309D01*
X320040Y245205D01*
X320088Y245099D01*
X320132Y244991D01*
X320172Y244882D01*
X320209Y244772D01*
X320242Y244660D01*
X320271Y244548D01*
X320297Y244434D01*
X320318Y244320D01*
X320336Y244205D01*
X320349Y244089D01*
X320359Y243973D01*
X320365Y243857D01*
X320367Y243741D01*
X320367Y242020D01*
X313481Y242020D01*
X327656Y242880D02*
X331960Y241159D01*
X327656Y242881D02*
X327570Y242917D01*
X327485Y242958D01*
X327402Y243001D01*
X327321Y243049D01*
X327242Y243099D01*
X327165Y243153D01*
X327090Y243210D01*
X327018Y243270D01*
X326949Y243334D01*
X326882Y243400D01*
X326818Y243468D01*
X326757Y243540D01*
X326700Y243614D01*
X326645Y243690D01*
X326593Y243768D01*
X326545Y243849D01*
X326501Y243931D01*
X326459Y244016D01*
X326422Y244102D01*
X326388Y244189D01*
X326358Y244278D01*
X326331Y244368D01*
X326308Y244459D01*
X326289Y244551D01*
X326275Y244644D01*
X326263Y244737D01*
X326256Y244831D01*
X326253Y244924D01*
X326254Y245018D01*
X326259Y245112D01*
X326267Y245205D01*
X326280Y245298D01*
X326296Y245391D01*
X326317Y245482D01*
X326341Y245573D01*
X326369Y245663D01*
X326401Y245751D01*
X326436Y245838D01*
X326475Y245923D01*
X326517Y246007D01*
X326564Y246089D01*
X326613Y246168D01*
X326666Y246246D01*
X326722Y246321D01*
X326781Y246394D01*
X326843Y246465D01*
X326908Y246532D01*
X326976Y246597D01*
X327046Y246659D01*
X327119Y246718D01*
X327195Y246774D01*
X327272Y246827D01*
X327352Y246876D01*
X327434Y246922D01*
X327518Y246964D01*
X327603Y247003D01*
X327690Y247039D01*
X327778Y247070D01*
X327868Y247098D01*
X327959Y247122D01*
X328050Y247142D01*
X328143Y247159D01*
X328236Y247171D01*
X328329Y247180D01*
X328423Y247184D01*
X328517Y247185D01*
X328517Y247184D02*
X328752Y247178D01*
X328986Y247166D01*
X329221Y247149D01*
X329455Y247125D01*
X329688Y247097D01*
X329920Y247062D01*
X330152Y247022D01*
X330383Y246977D01*
X330612Y246926D01*
X330840Y246870D01*
X331067Y246808D01*
X331292Y246740D01*
X331516Y246667D01*
X331737Y246589D01*
X331957Y246506D01*
X332175Y246417D01*
X332390Y246323D01*
X331960Y241159D02*
X332046Y241123D01*
X332131Y241082D01*
X332214Y241039D01*
X332295Y240991D01*
X332374Y240941D01*
X332451Y240887D01*
X332526Y240830D01*
X332598Y240770D01*
X332667Y240706D01*
X332734Y240640D01*
X332798Y240572D01*
X332859Y240500D01*
X332916Y240426D01*
X332971Y240350D01*
X333023Y240272D01*
X333071Y240191D01*
X333115Y240109D01*
X333157Y240024D01*
X333194Y239938D01*
X333228Y239851D01*
X333258Y239762D01*
X333285Y239672D01*
X333308Y239581D01*
X333327Y239489D01*
X333341Y239396D01*
X333353Y239303D01*
X333360Y239209D01*
X333363Y239116D01*
X333362Y239022D01*
X333357Y238928D01*
X333349Y238835D01*
X333336Y238742D01*
X333320Y238649D01*
X333299Y238558D01*
X333275Y238467D01*
X333247Y238377D01*
X333215Y238289D01*
X333180Y238202D01*
X333141Y238117D01*
X333099Y238033D01*
X333052Y237951D01*
X333003Y237872D01*
X332950Y237794D01*
X332894Y237719D01*
X332835Y237646D01*
X332773Y237575D01*
X332708Y237508D01*
X332640Y237443D01*
X332570Y237381D01*
X332497Y237322D01*
X332421Y237266D01*
X332344Y237213D01*
X332264Y237164D01*
X332182Y237118D01*
X332098Y237076D01*
X332013Y237037D01*
X331926Y237001D01*
X331838Y236970D01*
X331748Y236942D01*
X331657Y236918D01*
X331566Y236898D01*
X331473Y236881D01*
X331380Y236869D01*
X331287Y236860D01*
X331193Y236856D01*
X331099Y236855D01*
X330753Y236865D01*
X330409Y236882D01*
X330064Y236907D01*
X329721Y236940D01*
X329378Y236982D01*
X329036Y237032D01*
X328696Y237089D01*
X328357Y237155D01*
X328019Y237229D01*
X327684Y237311D01*
X327351Y237400D01*
X327019Y237498D01*
X326691Y237603D01*
X326364Y237716D01*
X339812Y231690D02*
X339812Y247184D01*
X344116Y247184D01*
X344217Y247182D01*
X344319Y247176D01*
X344419Y247166D01*
X344520Y247152D01*
X344620Y247134D01*
X344719Y247113D01*
X344817Y247087D01*
X344914Y247058D01*
X345010Y247024D01*
X345104Y246987D01*
X345197Y246947D01*
X345288Y246903D01*
X345378Y246855D01*
X345465Y246804D01*
X345550Y246749D01*
X345634Y246691D01*
X345714Y246630D01*
X345793Y246565D01*
X345869Y246498D01*
X345942Y246428D01*
X346012Y246355D01*
X346079Y246279D01*
X346144Y246201D01*
X346205Y246120D01*
X346263Y246036D01*
X346318Y245951D01*
X346369Y245864D01*
X346417Y245774D01*
X346461Y245683D01*
X346501Y245590D01*
X346538Y245496D01*
X346572Y245400D01*
X346601Y245303D01*
X346627Y245205D01*
X346648Y245106D01*
X346666Y245006D01*
X346680Y244906D01*
X346690Y244805D01*
X346696Y244703D01*
X346698Y244602D01*
X346699Y244602D02*
X346699Y239437D01*
X346698Y239437D02*
X346696Y239338D01*
X346690Y239239D01*
X346681Y239141D01*
X346668Y239043D01*
X346651Y238945D01*
X346630Y238849D01*
X346606Y238753D01*
X346578Y238658D01*
X346546Y238564D01*
X346511Y238472D01*
X346472Y238381D01*
X346430Y238291D01*
X346384Y238204D01*
X346335Y238118D01*
X346283Y238034D01*
X346228Y237952D01*
X346169Y237872D01*
X346108Y237794D01*
X346044Y237719D01*
X345976Y237647D01*
X345906Y237577D01*
X345834Y237509D01*
X345759Y237445D01*
X345681Y237384D01*
X345601Y237325D01*
X345519Y237270D01*
X345435Y237218D01*
X345349Y237169D01*
X345262Y237123D01*
X345172Y237081D01*
X345081Y237042D01*
X344989Y237007D01*
X344895Y236975D01*
X344800Y236947D01*
X344704Y236923D01*
X344608Y236902D01*
X344510Y236885D01*
X344412Y236872D01*
X344314Y236863D01*
X344215Y236857D01*
X344116Y236855D01*
X339812Y236855D01*
X352602Y236855D02*
X352602Y247184D01*
X352172Y251488D02*
X352172Y252349D01*
X353032Y252349D01*
X353032Y251488D01*
X352172Y251488D01*
X359148Y247184D02*
X359148Y236855D01*
X359148Y247184D02*
X364312Y247184D01*
X364312Y245463D01*
X369606Y252349D02*
X369606Y236855D01*
X369606Y245463D02*
X378213Y245463D01*
X378213Y252349D02*
X378213Y236855D01*
X384837Y240298D02*
X384837Y243741D01*
X384839Y243857D01*
X384845Y243973D01*
X384855Y244089D01*
X384868Y244205D01*
X384886Y244320D01*
X384907Y244434D01*
X384933Y244548D01*
X384962Y244660D01*
X384995Y244772D01*
X385032Y244882D01*
X385072Y244991D01*
X385116Y245099D01*
X385164Y245205D01*
X385215Y245309D01*
X385270Y245412D01*
X385328Y245513D01*
X385389Y245611D01*
X385454Y245708D01*
X385522Y245802D01*
X385593Y245894D01*
X385668Y245984D01*
X385745Y246071D01*
X385825Y246155D01*
X385908Y246236D01*
X385994Y246315D01*
X386082Y246391D01*
X386173Y246464D01*
X386266Y246533D01*
X386361Y246600D01*
X386459Y246663D01*
X386559Y246723D01*
X386660Y246779D01*
X386764Y246832D01*
X386869Y246882D01*
X386976Y246927D01*
X387084Y246970D01*
X387194Y247008D01*
X387305Y247043D01*
X387417Y247074D01*
X387530Y247101D01*
X387644Y247125D01*
X387759Y247144D01*
X387874Y247160D01*
X387990Y247172D01*
X388106Y247180D01*
X388222Y247184D01*
X388338Y247184D01*
X388454Y247180D01*
X388570Y247172D01*
X388686Y247160D01*
X388801Y247144D01*
X388916Y247125D01*
X389030Y247101D01*
X389143Y247074D01*
X389255Y247043D01*
X389366Y247008D01*
X389476Y246970D01*
X389584Y246927D01*
X389691Y246882D01*
X389796Y246832D01*
X389900Y246779D01*
X390002Y246723D01*
X390101Y246663D01*
X390199Y246600D01*
X390294Y246533D01*
X390387Y246464D01*
X390478Y246391D01*
X390566Y246315D01*
X390652Y246236D01*
X390735Y246155D01*
X390815Y246071D01*
X390892Y245984D01*
X390967Y245894D01*
X391038Y245802D01*
X391106Y245708D01*
X391171Y245611D01*
X391232Y245513D01*
X391290Y245412D01*
X391345Y245309D01*
X391396Y245205D01*
X391444Y245099D01*
X391488Y244991D01*
X391528Y244882D01*
X391565Y244772D01*
X391598Y244660D01*
X391627Y244548D01*
X391653Y244434D01*
X391674Y244320D01*
X391692Y244205D01*
X391705Y244089D01*
X391715Y243973D01*
X391721Y243857D01*
X391723Y243741D01*
X391723Y240298D01*
X391721Y240182D01*
X391715Y240066D01*
X391705Y239950D01*
X391692Y239834D01*
X391674Y239719D01*
X391653Y239605D01*
X391627Y239491D01*
X391598Y239379D01*
X391565Y239267D01*
X391528Y239157D01*
X391488Y239048D01*
X391444Y238940D01*
X391396Y238834D01*
X391345Y238730D01*
X391290Y238627D01*
X391232Y238526D01*
X391171Y238428D01*
X391106Y238331D01*
X391038Y238237D01*
X390967Y238145D01*
X390892Y238055D01*
X390815Y237968D01*
X390735Y237884D01*
X390652Y237803D01*
X390566Y237724D01*
X390478Y237648D01*
X390387Y237575D01*
X390294Y237506D01*
X390199Y237439D01*
X390101Y237376D01*
X390002Y237316D01*
X389900Y237260D01*
X389796Y237207D01*
X389691Y237157D01*
X389584Y237112D01*
X389476Y237069D01*
X389366Y237031D01*
X389255Y236996D01*
X389143Y236965D01*
X389030Y236938D01*
X388916Y236914D01*
X388801Y236895D01*
X388686Y236879D01*
X388570Y236867D01*
X388454Y236859D01*
X388338Y236855D01*
X388222Y236855D01*
X388106Y236859D01*
X387990Y236867D01*
X387874Y236879D01*
X387759Y236895D01*
X387644Y236914D01*
X387530Y236938D01*
X387417Y236965D01*
X387305Y236996D01*
X387194Y237031D01*
X387084Y237069D01*
X386976Y237112D01*
X386869Y237157D01*
X386764Y237207D01*
X386660Y237260D01*
X386559Y237316D01*
X386459Y237376D01*
X386361Y237439D01*
X386266Y237506D01*
X386173Y237575D01*
X386082Y237648D01*
X385994Y237724D01*
X385908Y237803D01*
X385825Y237884D01*
X385745Y237968D01*
X385668Y238055D01*
X385593Y238145D01*
X385522Y238237D01*
X385454Y238331D01*
X385389Y238428D01*
X385328Y238526D01*
X385270Y238627D01*
X385215Y238730D01*
X385164Y238834D01*
X385116Y238940D01*
X385072Y239048D01*
X385032Y239157D01*
X384995Y239267D01*
X384962Y239379D01*
X384933Y239491D01*
X384907Y239605D01*
X384886Y239719D01*
X384868Y239834D01*
X384855Y239950D01*
X384845Y240066D01*
X384839Y240182D01*
X384837Y240298D01*
X389141Y251058D02*
X386558Y254071D01*
D13*
X377908Y96266D02*
X376356Y95024D01*
X377908Y96266D02*
X377908Y90678D01*
X376356Y90678D02*
X379460Y90678D01*
X381593Y90678D02*
X381593Y90988D01*
X381904Y90988D01*
X381904Y90678D01*
X381593Y90678D01*
X384037Y92230D02*
X384039Y92307D01*
X384045Y92385D01*
X384054Y92461D01*
X384068Y92538D01*
X384085Y92613D01*
X384106Y92687D01*
X384131Y92761D01*
X384159Y92833D01*
X384191Y92903D01*
X384226Y92972D01*
X384265Y93039D01*
X384307Y93104D01*
X384352Y93167D01*
X384400Y93228D01*
X384451Y93286D01*
X384505Y93341D01*
X384562Y93394D01*
X384621Y93443D01*
X384683Y93490D01*
X384747Y93534D01*
X384813Y93574D01*
X384881Y93611D01*
X384951Y93645D01*
X385022Y93675D01*
X385095Y93701D01*
X385169Y93724D01*
X385244Y93743D01*
X385319Y93758D01*
X385396Y93770D01*
X385473Y93778D01*
X385550Y93782D01*
X385628Y93782D01*
X385705Y93778D01*
X385782Y93770D01*
X385859Y93758D01*
X385934Y93743D01*
X386009Y93724D01*
X386083Y93701D01*
X386156Y93675D01*
X386227Y93645D01*
X386297Y93611D01*
X386365Y93574D01*
X386431Y93534D01*
X386495Y93490D01*
X386557Y93443D01*
X386616Y93394D01*
X386673Y93341D01*
X386727Y93286D01*
X386778Y93228D01*
X386826Y93167D01*
X386871Y93104D01*
X386913Y93039D01*
X386952Y92972D01*
X386987Y92903D01*
X387019Y92833D01*
X387047Y92761D01*
X387072Y92687D01*
X387093Y92613D01*
X387110Y92538D01*
X387124Y92461D01*
X387133Y92385D01*
X387139Y92307D01*
X387141Y92230D01*
X387139Y92153D01*
X387133Y92075D01*
X387124Y91999D01*
X387110Y91922D01*
X387093Y91847D01*
X387072Y91773D01*
X387047Y91699D01*
X387019Y91627D01*
X386987Y91557D01*
X386952Y91488D01*
X386913Y91421D01*
X386871Y91356D01*
X386826Y91293D01*
X386778Y91232D01*
X386727Y91174D01*
X386673Y91119D01*
X386616Y91066D01*
X386557Y91017D01*
X386495Y90970D01*
X386431Y90926D01*
X386365Y90886D01*
X386297Y90849D01*
X386227Y90815D01*
X386156Y90785D01*
X386083Y90759D01*
X386009Y90736D01*
X385934Y90717D01*
X385859Y90702D01*
X385782Y90690D01*
X385705Y90682D01*
X385628Y90678D01*
X385550Y90678D01*
X385473Y90682D01*
X385396Y90690D01*
X385319Y90702D01*
X385244Y90717D01*
X385169Y90736D01*
X385095Y90759D01*
X385022Y90785D01*
X384951Y90815D01*
X384881Y90849D01*
X384813Y90886D01*
X384747Y90926D01*
X384683Y90970D01*
X384621Y91017D01*
X384562Y91066D01*
X384505Y91119D01*
X384451Y91174D01*
X384400Y91232D01*
X384352Y91293D01*
X384307Y91356D01*
X384265Y91421D01*
X384226Y91488D01*
X384191Y91557D01*
X384159Y91627D01*
X384131Y91699D01*
X384106Y91773D01*
X384085Y91847D01*
X384068Y91922D01*
X384054Y91999D01*
X384045Y92075D01*
X384039Y92153D01*
X384037Y92230D01*
X384347Y95024D02*
X384349Y95094D01*
X384355Y95163D01*
X384365Y95232D01*
X384378Y95300D01*
X384396Y95368D01*
X384417Y95434D01*
X384442Y95499D01*
X384470Y95563D01*
X384502Y95625D01*
X384537Y95685D01*
X384576Y95743D01*
X384618Y95798D01*
X384663Y95852D01*
X384711Y95902D01*
X384761Y95950D01*
X384815Y95995D01*
X384870Y96037D01*
X384928Y96076D01*
X384988Y96111D01*
X385050Y96143D01*
X385114Y96171D01*
X385179Y96196D01*
X385245Y96217D01*
X385313Y96235D01*
X385381Y96248D01*
X385450Y96258D01*
X385519Y96264D01*
X385589Y96266D01*
X385659Y96264D01*
X385728Y96258D01*
X385797Y96248D01*
X385865Y96235D01*
X385933Y96217D01*
X385999Y96196D01*
X386064Y96171D01*
X386128Y96143D01*
X386190Y96111D01*
X386250Y96076D01*
X386308Y96037D01*
X386363Y95995D01*
X386417Y95950D01*
X386467Y95902D01*
X386515Y95852D01*
X386560Y95798D01*
X386602Y95743D01*
X386641Y95685D01*
X386676Y95625D01*
X386708Y95563D01*
X386736Y95499D01*
X386761Y95434D01*
X386782Y95368D01*
X386800Y95300D01*
X386813Y95232D01*
X386823Y95163D01*
X386829Y95094D01*
X386831Y95024D01*
X386829Y94954D01*
X386823Y94885D01*
X386813Y94816D01*
X386800Y94748D01*
X386782Y94680D01*
X386761Y94614D01*
X386736Y94549D01*
X386708Y94485D01*
X386676Y94423D01*
X386641Y94363D01*
X386602Y94305D01*
X386560Y94250D01*
X386515Y94196D01*
X386467Y94146D01*
X386417Y94098D01*
X386363Y94053D01*
X386308Y94011D01*
X386250Y93972D01*
X386190Y93937D01*
X386128Y93905D01*
X386064Y93877D01*
X385999Y93852D01*
X385933Y93831D01*
X385865Y93813D01*
X385797Y93800D01*
X385728Y93790D01*
X385659Y93784D01*
X385589Y93782D01*
X385519Y93784D01*
X385450Y93790D01*
X385381Y93800D01*
X385313Y93813D01*
X385245Y93831D01*
X385179Y93852D01*
X385114Y93877D01*
X385050Y93905D01*
X384988Y93937D01*
X384928Y93972D01*
X384870Y94011D01*
X384815Y94053D01*
X384761Y94098D01*
X384711Y94146D01*
X384663Y94196D01*
X384618Y94250D01*
X384576Y94305D01*
X384537Y94363D01*
X384502Y94423D01*
X384470Y94485D01*
X384442Y94549D01*
X384417Y94614D01*
X384396Y94680D01*
X384378Y94748D01*
X384365Y94816D01*
X384355Y94885D01*
X384349Y94954D01*
X384347Y95024D01*
X389213Y96266D02*
X391075Y90678D01*
X392938Y96266D01*
X207258Y75946D02*
X207258Y71910D01*
X207259Y71910D02*
X207261Y71833D01*
X207267Y71755D01*
X207276Y71679D01*
X207290Y71602D01*
X207307Y71527D01*
X207328Y71453D01*
X207353Y71379D01*
X207381Y71307D01*
X207413Y71237D01*
X207448Y71168D01*
X207487Y71101D01*
X207529Y71036D01*
X207574Y70973D01*
X207622Y70912D01*
X207673Y70854D01*
X207727Y70799D01*
X207784Y70746D01*
X207843Y70697D01*
X207905Y70650D01*
X207969Y70606D01*
X208035Y70566D01*
X208103Y70529D01*
X208173Y70495D01*
X208244Y70465D01*
X208317Y70439D01*
X208391Y70416D01*
X208466Y70397D01*
X208541Y70382D01*
X208618Y70370D01*
X208695Y70362D01*
X208772Y70358D01*
X208850Y70358D01*
X208927Y70362D01*
X209004Y70370D01*
X209081Y70382D01*
X209156Y70397D01*
X209231Y70416D01*
X209305Y70439D01*
X209378Y70465D01*
X209449Y70495D01*
X209519Y70529D01*
X209587Y70566D01*
X209653Y70606D01*
X209717Y70650D01*
X209779Y70697D01*
X209838Y70746D01*
X209895Y70799D01*
X209949Y70854D01*
X210000Y70912D01*
X210048Y70973D01*
X210093Y71036D01*
X210135Y71101D01*
X210174Y71168D01*
X210209Y71237D01*
X210241Y71307D01*
X210269Y71379D01*
X210294Y71453D01*
X210315Y71527D01*
X210332Y71602D01*
X210346Y71679D01*
X210355Y71755D01*
X210361Y71833D01*
X210363Y71910D01*
X210363Y75946D01*
X214480Y75946D02*
X212617Y70358D01*
X216343Y70358D02*
X214480Y75946D01*
X215877Y71755D02*
X213083Y71755D01*
X218633Y70358D02*
X218633Y75946D01*
X220185Y75946D01*
X220262Y75944D01*
X220340Y75938D01*
X220416Y75929D01*
X220493Y75915D01*
X220568Y75898D01*
X220642Y75877D01*
X220716Y75852D01*
X220788Y75824D01*
X220858Y75792D01*
X220927Y75757D01*
X220994Y75718D01*
X221059Y75676D01*
X221122Y75631D01*
X221183Y75583D01*
X221241Y75532D01*
X221296Y75478D01*
X221349Y75421D01*
X221398Y75362D01*
X221445Y75300D01*
X221489Y75236D01*
X221529Y75170D01*
X221566Y75102D01*
X221600Y75032D01*
X221630Y74961D01*
X221656Y74888D01*
X221679Y74814D01*
X221698Y74739D01*
X221713Y74664D01*
X221725Y74587D01*
X221733Y74510D01*
X221737Y74433D01*
X221737Y74355D01*
X221733Y74278D01*
X221725Y74201D01*
X221713Y74124D01*
X221698Y74049D01*
X221679Y73974D01*
X221656Y73900D01*
X221630Y73827D01*
X221600Y73756D01*
X221566Y73686D01*
X221529Y73618D01*
X221489Y73552D01*
X221445Y73488D01*
X221398Y73426D01*
X221349Y73367D01*
X221296Y73310D01*
X221241Y73256D01*
X221183Y73205D01*
X221122Y73157D01*
X221059Y73112D01*
X220994Y73070D01*
X220927Y73031D01*
X220858Y72996D01*
X220788Y72964D01*
X220716Y72936D01*
X220642Y72911D01*
X220568Y72890D01*
X220493Y72873D01*
X220416Y72859D01*
X220340Y72850D01*
X220262Y72844D01*
X220185Y72842D01*
X218633Y72842D01*
X220496Y72842D02*
X221737Y70358D01*
X225270Y70358D02*
X225270Y75946D01*
X223718Y75946D02*
X226822Y75946D01*
D14*
X367300Y86552D02*
X367302Y86615D01*
X367308Y86677D01*
X367318Y86739D01*
X367331Y86801D01*
X367349Y86861D01*
X367370Y86920D01*
X367395Y86978D01*
X367424Y87034D01*
X367456Y87088D01*
X367491Y87140D01*
X367529Y87189D01*
X367571Y87237D01*
X367615Y87281D01*
X367663Y87323D01*
X367712Y87361D01*
X367764Y87396D01*
X367818Y87428D01*
X367874Y87457D01*
X367932Y87482D01*
X367991Y87503D01*
X368051Y87521D01*
X368113Y87534D01*
X368175Y87544D01*
X368237Y87550D01*
X368300Y87552D01*
X368363Y87550D01*
X368425Y87544D01*
X368487Y87534D01*
X368549Y87521D01*
X368609Y87503D01*
X368668Y87482D01*
X368726Y87457D01*
X368782Y87428D01*
X368836Y87396D01*
X368888Y87361D01*
X368937Y87323D01*
X368985Y87281D01*
X369029Y87237D01*
X369071Y87189D01*
X369109Y87140D01*
X369144Y87088D01*
X369176Y87034D01*
X369205Y86978D01*
X369230Y86920D01*
X369251Y86861D01*
X369269Y86801D01*
X369282Y86739D01*
X369292Y86677D01*
X369298Y86615D01*
X369300Y86552D01*
X369298Y86489D01*
X369292Y86427D01*
X369282Y86365D01*
X369269Y86303D01*
X369251Y86243D01*
X369230Y86184D01*
X369205Y86126D01*
X369176Y86070D01*
X369144Y86016D01*
X369109Y85964D01*
X369071Y85915D01*
X369029Y85867D01*
X368985Y85823D01*
X368937Y85781D01*
X368888Y85743D01*
X368836Y85708D01*
X368782Y85676D01*
X368726Y85647D01*
X368668Y85622D01*
X368609Y85601D01*
X368549Y85583D01*
X368487Y85570D01*
X368425Y85560D01*
X368363Y85554D01*
X368300Y85552D01*
X368237Y85554D01*
X368175Y85560D01*
X368113Y85570D01*
X368051Y85583D01*
X367991Y85601D01*
X367932Y85622D01*
X367874Y85647D01*
X367818Y85676D01*
X367764Y85708D01*
X367712Y85743D01*
X367663Y85781D01*
X367615Y85823D01*
X367571Y85867D01*
X367529Y85915D01*
X367491Y85964D01*
X367456Y86016D01*
X367424Y86070D01*
X367395Y86126D01*
X367370Y86184D01*
X367349Y86243D01*
X367331Y86303D01*
X367318Y86365D01*
X367308Y86427D01*
X367302Y86489D01*
X367300Y86552D01*
D15*
X177055Y50255D03*
X163305Y50255D03*
D16*
X170180Y54130D03*
D12*
X234480Y-6340D02*
X334480Y-6340D01*
X234480Y-6340D02*
X234480Y153660D01*
X334480Y153660D01*
X334480Y-6340D01*
X220740Y131140D02*
X220740Y131840D01*
X220040Y131840D01*
D14*
X214740Y140840D02*
X214742Y140903D01*
X214748Y140965D01*
X214758Y141027D01*
X214771Y141089D01*
X214789Y141149D01*
X214810Y141208D01*
X214835Y141266D01*
X214864Y141322D01*
X214896Y141376D01*
X214931Y141428D01*
X214969Y141477D01*
X215011Y141525D01*
X215055Y141569D01*
X215103Y141611D01*
X215152Y141649D01*
X215204Y141684D01*
X215258Y141716D01*
X215314Y141745D01*
X215372Y141770D01*
X215431Y141791D01*
X215491Y141809D01*
X215553Y141822D01*
X215615Y141832D01*
X215677Y141838D01*
X215740Y141840D01*
X215803Y141838D01*
X215865Y141832D01*
X215927Y141822D01*
X215989Y141809D01*
X216049Y141791D01*
X216108Y141770D01*
X216166Y141745D01*
X216222Y141716D01*
X216276Y141684D01*
X216328Y141649D01*
X216377Y141611D01*
X216425Y141569D01*
X216469Y141525D01*
X216511Y141477D01*
X216549Y141428D01*
X216584Y141376D01*
X216616Y141322D01*
X216645Y141266D01*
X216670Y141208D01*
X216691Y141149D01*
X216709Y141089D01*
X216722Y141027D01*
X216732Y140965D01*
X216738Y140903D01*
X216740Y140840D01*
X216738Y140777D01*
X216732Y140715D01*
X216722Y140653D01*
X216709Y140591D01*
X216691Y140531D01*
X216670Y140472D01*
X216645Y140414D01*
X216616Y140358D01*
X216584Y140304D01*
X216549Y140252D01*
X216511Y140203D01*
X216469Y140155D01*
X216425Y140111D01*
X216377Y140069D01*
X216328Y140031D01*
X216276Y139996D01*
X216222Y139964D01*
X216166Y139935D01*
X216108Y139910D01*
X216049Y139889D01*
X215989Y139871D01*
X215927Y139858D01*
X215865Y139848D01*
X215803Y139842D01*
X215740Y139840D01*
X215677Y139842D01*
X215615Y139848D01*
X215553Y139858D01*
X215491Y139871D01*
X215431Y139889D01*
X215372Y139910D01*
X215314Y139935D01*
X215258Y139964D01*
X215204Y139996D01*
X215152Y140031D01*
X215103Y140069D01*
X215055Y140111D01*
X215011Y140155D01*
X214969Y140203D01*
X214931Y140252D01*
X214896Y140304D01*
X214864Y140358D01*
X214835Y140414D01*
X214810Y140472D01*
X214789Y140531D01*
X214771Y140591D01*
X214758Y140653D01*
X214748Y140715D01*
X214742Y140777D01*
X214740Y140840D01*
D12*
X191440Y131840D02*
X190740Y131840D01*
X190740Y131140D01*
X190740Y102540D02*
X190740Y101840D01*
X191440Y101840D01*
X220040Y101840D02*
X220740Y101840D01*
X220740Y102540D01*
D17*
X191262Y170180D03*
D18*
X162560Y164314D02*
X162560Y155726D01*
X187960Y155726D02*
X187960Y164314D01*
X177944Y152932D02*
X172576Y152932D01*
D19*
X312500Y178944D02*
X322500Y178944D01*
X322500Y194944D02*
X312500Y194944D01*
D18*
X384402Y223440D02*
X396902Y223440D01*
X396902Y214740D02*
X396902Y196740D01*
X384402Y196740D02*
X384402Y214740D01*
D13*
X340882Y125042D02*
X340882Y124043D01*
X340883Y124043D02*
X340881Y123980D01*
X340875Y123918D01*
X340865Y123856D01*
X340852Y123795D01*
X340834Y123734D01*
X340813Y123675D01*
X340788Y123618D01*
X340759Y123562D01*
X340727Y123508D01*
X340692Y123456D01*
X340654Y123406D01*
X340612Y123359D01*
X340568Y123315D01*
X340521Y123273D01*
X340471Y123235D01*
X340419Y123200D01*
X340365Y123168D01*
X340309Y123139D01*
X340252Y123114D01*
X340193Y123093D01*
X340132Y123075D01*
X340071Y123062D01*
X340009Y123052D01*
X339947Y123046D01*
X339884Y123044D01*
X339884Y123045D02*
X337388Y123045D01*
X337325Y123047D01*
X337263Y123053D01*
X337201Y123063D01*
X337140Y123076D01*
X337079Y123094D01*
X337020Y123115D01*
X336963Y123140D01*
X336907Y123169D01*
X336853Y123201D01*
X336801Y123236D01*
X336751Y123274D01*
X336704Y123316D01*
X336660Y123360D01*
X336618Y123407D01*
X336580Y123457D01*
X336545Y123509D01*
X336513Y123563D01*
X336484Y123619D01*
X336459Y123676D01*
X336438Y123735D01*
X336420Y123796D01*
X336407Y123857D01*
X336397Y123919D01*
X336391Y123981D01*
X336389Y124044D01*
X336389Y124043D02*
X336389Y125042D01*
X336390Y128184D02*
X336392Y128249D01*
X336398Y128314D01*
X336407Y128379D01*
X336420Y128443D01*
X336437Y128506D01*
X336458Y128568D01*
X336482Y128629D01*
X336509Y128688D01*
X336540Y128746D01*
X336575Y128801D01*
X336612Y128855D01*
X336653Y128906D01*
X336696Y128955D01*
X336742Y129001D01*
X336791Y129044D01*
X336842Y129085D01*
X336896Y129122D01*
X336952Y129157D01*
X337009Y129188D01*
X337068Y129215D01*
X337129Y129239D01*
X337191Y129260D01*
X337254Y129277D01*
X337318Y129290D01*
X337383Y129299D01*
X337448Y129305D01*
X337513Y129307D01*
X336389Y128184D02*
X336391Y128111D01*
X336396Y128039D01*
X336405Y127967D01*
X336418Y127896D01*
X336434Y127825D01*
X336454Y127755D01*
X336478Y127686D01*
X336504Y127619D01*
X336534Y127553D01*
X336568Y127488D01*
X336604Y127426D01*
X336644Y127365D01*
X336687Y127306D01*
X336732Y127250D01*
X336781Y127196D01*
X336832Y127144D01*
X336885Y127095D01*
X336941Y127049D01*
X336999Y127005D01*
X337060Y126965D01*
X337122Y126928D01*
X337186Y126894D01*
X337252Y126863D01*
X337319Y126835D01*
X337388Y126811D01*
X338387Y128932D02*
X338341Y128978D01*
X338292Y129022D01*
X338241Y129062D01*
X338188Y129100D01*
X338133Y129135D01*
X338077Y129167D01*
X338018Y129196D01*
X337958Y129222D01*
X337897Y129244D01*
X337835Y129263D01*
X337772Y129279D01*
X337708Y129291D01*
X337643Y129300D01*
X337578Y129305D01*
X337513Y129307D01*
X338386Y128932D02*
X340882Y126811D01*
X340882Y129307D01*
D10*
X280670Y164271D02*
X268986Y164271D01*
X268986Y167516D01*
X268988Y167629D01*
X268994Y167742D01*
X269004Y167855D01*
X269018Y167968D01*
X269035Y168080D01*
X269057Y168191D01*
X269082Y168301D01*
X269112Y168411D01*
X269145Y168519D01*
X269182Y168626D01*
X269222Y168732D01*
X269267Y168836D01*
X269315Y168939D01*
X269366Y169040D01*
X269421Y169139D01*
X269479Y169236D01*
X269541Y169331D01*
X269606Y169424D01*
X269674Y169514D01*
X269745Y169602D01*
X269820Y169688D01*
X269897Y169771D01*
X269977Y169851D01*
X270060Y169928D01*
X270146Y170003D01*
X270234Y170074D01*
X270324Y170142D01*
X270417Y170207D01*
X270512Y170269D01*
X270609Y170327D01*
X270708Y170382D01*
X270809Y170433D01*
X270912Y170481D01*
X271016Y170526D01*
X271122Y170566D01*
X271229Y170603D01*
X271337Y170636D01*
X271447Y170666D01*
X271557Y170691D01*
X271668Y170713D01*
X271780Y170730D01*
X271893Y170744D01*
X272006Y170754D01*
X272119Y170760D01*
X272232Y170762D01*
X272345Y170760D01*
X272458Y170754D01*
X272571Y170744D01*
X272684Y170730D01*
X272796Y170713D01*
X272907Y170691D01*
X273017Y170666D01*
X273127Y170636D01*
X273235Y170603D01*
X273342Y170566D01*
X273448Y170526D01*
X273552Y170481D01*
X273655Y170433D01*
X273756Y170382D01*
X273855Y170327D01*
X273952Y170269D01*
X274047Y170207D01*
X274140Y170142D01*
X274230Y170074D01*
X274318Y170003D01*
X274404Y169928D01*
X274487Y169851D01*
X274567Y169771D01*
X274644Y169688D01*
X274719Y169602D01*
X274790Y169514D01*
X274858Y169424D01*
X274923Y169331D01*
X274985Y169236D01*
X275043Y169139D01*
X275098Y169040D01*
X275149Y168939D01*
X275197Y168836D01*
X275242Y168732D01*
X275282Y168626D01*
X275319Y168519D01*
X275352Y168411D01*
X275382Y168301D01*
X275407Y168191D01*
X275429Y168080D01*
X275446Y167968D01*
X275460Y167855D01*
X275470Y167742D01*
X275476Y167629D01*
X275478Y167516D01*
X275477Y167516D02*
X275477Y164271D01*
X275477Y168165D02*
X280670Y170762D01*
X271582Y175627D02*
X268986Y178872D01*
X280670Y178872D01*
X280670Y175627D02*
X280670Y182118D01*
X345119Y173482D02*
X345119Y161798D01*
X345119Y173482D02*
X348364Y173482D01*
X348477Y173480D01*
X348590Y173474D01*
X348703Y173464D01*
X348816Y173450D01*
X348928Y173433D01*
X349039Y173411D01*
X349149Y173386D01*
X349259Y173356D01*
X349367Y173323D01*
X349474Y173286D01*
X349580Y173246D01*
X349684Y173201D01*
X349787Y173153D01*
X349888Y173102D01*
X349987Y173047D01*
X350084Y172989D01*
X350179Y172927D01*
X350272Y172862D01*
X350362Y172794D01*
X350450Y172723D01*
X350536Y172648D01*
X350619Y172571D01*
X350699Y172491D01*
X350776Y172408D01*
X350851Y172322D01*
X350922Y172234D01*
X350990Y172144D01*
X351055Y172051D01*
X351117Y171956D01*
X351175Y171859D01*
X351230Y171760D01*
X351281Y171659D01*
X351329Y171556D01*
X351374Y171452D01*
X351414Y171346D01*
X351451Y171239D01*
X351484Y171131D01*
X351514Y171021D01*
X351539Y170911D01*
X351561Y170800D01*
X351578Y170688D01*
X351592Y170575D01*
X351602Y170462D01*
X351608Y170349D01*
X351610Y170236D01*
X351608Y170123D01*
X351602Y170010D01*
X351592Y169897D01*
X351578Y169784D01*
X351561Y169672D01*
X351539Y169561D01*
X351514Y169451D01*
X351484Y169341D01*
X351451Y169233D01*
X351414Y169126D01*
X351374Y169020D01*
X351329Y168916D01*
X351281Y168813D01*
X351230Y168712D01*
X351175Y168613D01*
X351117Y168516D01*
X351055Y168421D01*
X350990Y168328D01*
X350922Y168238D01*
X350851Y168150D01*
X350776Y168064D01*
X350699Y167981D01*
X350619Y167901D01*
X350536Y167824D01*
X350450Y167749D01*
X350362Y167678D01*
X350272Y167610D01*
X350179Y167545D01*
X350084Y167483D01*
X349987Y167425D01*
X349888Y167370D01*
X349787Y167319D01*
X349684Y167271D01*
X349580Y167226D01*
X349474Y167186D01*
X349367Y167149D01*
X349259Y167116D01*
X349149Y167086D01*
X349039Y167061D01*
X348928Y167039D01*
X348816Y167022D01*
X348703Y167008D01*
X348590Y166998D01*
X348477Y166992D01*
X348364Y166990D01*
X348364Y166991D02*
X345119Y166991D01*
X349013Y166991D02*
X351610Y161798D01*
X362966Y170561D02*
X362964Y170668D01*
X362958Y170774D01*
X362948Y170880D01*
X362935Y170986D01*
X362917Y171092D01*
X362896Y171196D01*
X362871Y171300D01*
X362842Y171403D01*
X362810Y171504D01*
X362773Y171604D01*
X362733Y171703D01*
X362690Y171801D01*
X362643Y171897D01*
X362592Y171991D01*
X362538Y172083D01*
X362481Y172173D01*
X362421Y172261D01*
X362357Y172346D01*
X362290Y172429D01*
X362220Y172510D01*
X362148Y172588D01*
X362072Y172664D01*
X361994Y172736D01*
X361913Y172806D01*
X361830Y172873D01*
X361745Y172937D01*
X361657Y172997D01*
X361567Y173054D01*
X361475Y173108D01*
X361381Y173159D01*
X361285Y173206D01*
X361187Y173249D01*
X361088Y173289D01*
X360988Y173326D01*
X360887Y173358D01*
X360784Y173387D01*
X360680Y173412D01*
X360576Y173433D01*
X360470Y173451D01*
X360364Y173464D01*
X360258Y173474D01*
X360152Y173480D01*
X360045Y173482D01*
X359924Y173480D01*
X359803Y173474D01*
X359683Y173464D01*
X359562Y173451D01*
X359443Y173433D01*
X359323Y173412D01*
X359205Y173387D01*
X359088Y173358D01*
X358971Y173325D01*
X358856Y173289D01*
X358742Y173248D01*
X358629Y173205D01*
X358517Y173157D01*
X358408Y173106D01*
X358300Y173051D01*
X358193Y172993D01*
X358089Y172932D01*
X357987Y172867D01*
X357887Y172799D01*
X357789Y172728D01*
X357693Y172654D01*
X357600Y172577D01*
X357510Y172496D01*
X357422Y172413D01*
X357337Y172327D01*
X357254Y172238D01*
X357175Y172147D01*
X357098Y172053D01*
X357025Y171957D01*
X356955Y171859D01*
X356888Y171758D01*
X356824Y171655D01*
X356764Y171550D01*
X356707Y171443D01*
X356653Y171335D01*
X356603Y171225D01*
X356557Y171113D01*
X356514Y171000D01*
X356475Y170885D01*
X361993Y168289D02*
X362072Y168366D01*
X362148Y168447D01*
X362221Y168530D01*
X362291Y168615D01*
X362358Y168703D01*
X362422Y168793D01*
X362482Y168885D01*
X362539Y168980D01*
X362593Y169076D01*
X362644Y169174D01*
X362691Y169274D01*
X362735Y169376D01*
X362775Y169479D01*
X362811Y169583D01*
X362843Y169689D01*
X362872Y169795D01*
X362897Y169903D01*
X362919Y170011D01*
X362936Y170121D01*
X362950Y170230D01*
X362959Y170340D01*
X362965Y170451D01*
X362967Y170561D01*
X361992Y168289D02*
X356475Y161798D01*
X362966Y161798D01*
X207518Y167386D02*
X207518Y155702D01*
X207518Y167386D02*
X210764Y167386D01*
X210877Y167384D01*
X210990Y167378D01*
X211103Y167368D01*
X211216Y167354D01*
X211328Y167337D01*
X211439Y167315D01*
X211549Y167290D01*
X211659Y167260D01*
X211767Y167227D01*
X211874Y167190D01*
X211980Y167150D01*
X212084Y167105D01*
X212187Y167057D01*
X212288Y167006D01*
X212387Y166951D01*
X212484Y166893D01*
X212579Y166831D01*
X212672Y166766D01*
X212762Y166698D01*
X212850Y166627D01*
X212936Y166552D01*
X213019Y166475D01*
X213099Y166395D01*
X213176Y166312D01*
X213251Y166226D01*
X213322Y166138D01*
X213390Y166048D01*
X213455Y165955D01*
X213517Y165860D01*
X213575Y165763D01*
X213630Y165664D01*
X213681Y165563D01*
X213729Y165460D01*
X213774Y165356D01*
X213814Y165250D01*
X213851Y165143D01*
X213884Y165035D01*
X213914Y164925D01*
X213939Y164815D01*
X213961Y164704D01*
X213978Y164592D01*
X213992Y164479D01*
X214002Y164366D01*
X214008Y164253D01*
X214010Y164140D01*
X214008Y164027D01*
X214002Y163914D01*
X213992Y163801D01*
X213978Y163688D01*
X213961Y163576D01*
X213939Y163465D01*
X213914Y163355D01*
X213884Y163245D01*
X213851Y163137D01*
X213814Y163030D01*
X213774Y162924D01*
X213729Y162820D01*
X213681Y162717D01*
X213630Y162616D01*
X213575Y162517D01*
X213517Y162420D01*
X213455Y162325D01*
X213390Y162232D01*
X213322Y162142D01*
X213251Y162054D01*
X213176Y161968D01*
X213099Y161885D01*
X213019Y161805D01*
X212936Y161728D01*
X212850Y161653D01*
X212762Y161582D01*
X212672Y161514D01*
X212579Y161449D01*
X212484Y161387D01*
X212387Y161329D01*
X212288Y161274D01*
X212187Y161223D01*
X212084Y161175D01*
X211980Y161130D01*
X211874Y161090D01*
X211767Y161053D01*
X211659Y161020D01*
X211549Y160990D01*
X211439Y160965D01*
X211328Y160943D01*
X211216Y160926D01*
X211103Y160912D01*
X210990Y160902D01*
X210877Y160896D01*
X210764Y160894D01*
X210764Y160895D02*
X207518Y160895D01*
X211413Y160895D02*
X214009Y155702D01*
X218874Y155702D02*
X222120Y155702D01*
X222233Y155704D01*
X222346Y155710D01*
X222459Y155720D01*
X222572Y155734D01*
X222684Y155751D01*
X222795Y155773D01*
X222905Y155798D01*
X223015Y155828D01*
X223123Y155861D01*
X223230Y155898D01*
X223336Y155938D01*
X223440Y155983D01*
X223543Y156031D01*
X223644Y156082D01*
X223743Y156137D01*
X223840Y156195D01*
X223935Y156257D01*
X224028Y156322D01*
X224118Y156390D01*
X224206Y156461D01*
X224292Y156536D01*
X224375Y156613D01*
X224455Y156693D01*
X224532Y156776D01*
X224607Y156862D01*
X224678Y156950D01*
X224746Y157040D01*
X224811Y157133D01*
X224873Y157228D01*
X224931Y157325D01*
X224986Y157424D01*
X225037Y157525D01*
X225085Y157628D01*
X225130Y157732D01*
X225170Y157838D01*
X225207Y157945D01*
X225240Y158053D01*
X225270Y158163D01*
X225295Y158273D01*
X225317Y158384D01*
X225334Y158496D01*
X225348Y158609D01*
X225358Y158722D01*
X225364Y158835D01*
X225366Y158948D01*
X225364Y159061D01*
X225358Y159174D01*
X225348Y159287D01*
X225334Y159400D01*
X225317Y159512D01*
X225295Y159623D01*
X225270Y159733D01*
X225240Y159843D01*
X225207Y159951D01*
X225170Y160058D01*
X225130Y160164D01*
X225085Y160268D01*
X225037Y160371D01*
X224986Y160472D01*
X224931Y160571D01*
X224873Y160668D01*
X224811Y160763D01*
X224746Y160856D01*
X224678Y160946D01*
X224607Y161034D01*
X224532Y161120D01*
X224455Y161203D01*
X224375Y161283D01*
X224292Y161360D01*
X224206Y161435D01*
X224118Y161506D01*
X224028Y161574D01*
X223935Y161639D01*
X223840Y161701D01*
X223743Y161759D01*
X223644Y161814D01*
X223543Y161865D01*
X223440Y161913D01*
X223336Y161958D01*
X223230Y161998D01*
X223123Y162035D01*
X223015Y162068D01*
X222905Y162098D01*
X222795Y162123D01*
X222684Y162145D01*
X222572Y162162D01*
X222459Y162176D01*
X222346Y162186D01*
X222233Y162192D01*
X222120Y162194D01*
X222769Y167386D02*
X218874Y167386D01*
X222769Y167386D02*
X222870Y167384D01*
X222970Y167378D01*
X223070Y167368D01*
X223170Y167355D01*
X223269Y167337D01*
X223368Y167316D01*
X223465Y167291D01*
X223562Y167262D01*
X223657Y167229D01*
X223751Y167193D01*
X223843Y167153D01*
X223934Y167110D01*
X224023Y167063D01*
X224110Y167013D01*
X224196Y166959D01*
X224279Y166902D01*
X224359Y166842D01*
X224438Y166779D01*
X224514Y166712D01*
X224587Y166643D01*
X224657Y166571D01*
X224725Y166497D01*
X224790Y166420D01*
X224851Y166340D01*
X224910Y166258D01*
X224965Y166174D01*
X225017Y166088D01*
X225066Y166000D01*
X225111Y165910D01*
X225153Y165818D01*
X225191Y165725D01*
X225225Y165630D01*
X225256Y165535D01*
X225283Y165438D01*
X225306Y165340D01*
X225326Y165241D01*
X225341Y165141D01*
X225353Y165041D01*
X225361Y164941D01*
X225365Y164840D01*
X225365Y164740D01*
X225361Y164639D01*
X225353Y164539D01*
X225341Y164439D01*
X225326Y164339D01*
X225306Y164240D01*
X225283Y164142D01*
X225256Y164045D01*
X225225Y163950D01*
X225191Y163855D01*
X225153Y163762D01*
X225111Y163670D01*
X225066Y163580D01*
X225017Y163492D01*
X224965Y163406D01*
X224910Y163322D01*
X224851Y163240D01*
X224790Y163160D01*
X224725Y163083D01*
X224657Y163009D01*
X224587Y162937D01*
X224514Y162868D01*
X224438Y162801D01*
X224359Y162738D01*
X224279Y162678D01*
X224196Y162621D01*
X224110Y162567D01*
X224023Y162517D01*
X223934Y162470D01*
X223843Y162427D01*
X223751Y162387D01*
X223657Y162351D01*
X223562Y162318D01*
X223465Y162289D01*
X223368Y162264D01*
X223269Y162243D01*
X223170Y162225D01*
X223070Y162212D01*
X222970Y162202D01*
X222870Y162196D01*
X222769Y162194D01*
X222769Y162193D02*
X220173Y162193D01*
M02*
