G04 EAGLE Gerber RS-274X export*
G75*
%MOMM*%
%FSLAX34Y34*%
%LPD*%
%INSilkscreen Bottom*%
%IPPOS*%
%AMOC8*
5,1,8,0,0,1.08239X$1,22.5*%
G01*
%ADD10C,0.127000*%
%ADD11C,0.101600*%
%ADD12C,0.050800*%


D10*
X216520Y51000D02*
X266720Y51000D01*
X266720Y203000D01*
X216520Y203000D01*
X179720Y51000D02*
X114720Y51000D01*
X114720Y203000D01*
X179720Y203000D01*
D11*
X277119Y54754D02*
X277119Y51508D01*
X277120Y54754D02*
X277118Y54867D01*
X277112Y54980D01*
X277102Y55093D01*
X277088Y55206D01*
X277071Y55318D01*
X277049Y55429D01*
X277024Y55539D01*
X276994Y55649D01*
X276961Y55757D01*
X276924Y55864D01*
X276884Y55970D01*
X276839Y56074D01*
X276791Y56177D01*
X276740Y56278D01*
X276685Y56377D01*
X276627Y56474D01*
X276565Y56569D01*
X276500Y56662D01*
X276432Y56752D01*
X276361Y56840D01*
X276286Y56926D01*
X276209Y57009D01*
X276129Y57089D01*
X276046Y57166D01*
X275960Y57241D01*
X275872Y57312D01*
X275782Y57380D01*
X275689Y57445D01*
X275594Y57507D01*
X275497Y57565D01*
X275398Y57620D01*
X275297Y57671D01*
X275194Y57719D01*
X275090Y57764D01*
X274984Y57804D01*
X274877Y57841D01*
X274769Y57874D01*
X274659Y57904D01*
X274549Y57929D01*
X274438Y57951D01*
X274326Y57968D01*
X274213Y57982D01*
X274100Y57992D01*
X273987Y57998D01*
X273874Y58000D01*
X273761Y57998D01*
X273648Y57992D01*
X273535Y57982D01*
X273422Y57968D01*
X273310Y57951D01*
X273199Y57929D01*
X273089Y57904D01*
X272979Y57874D01*
X272871Y57841D01*
X272764Y57804D01*
X272658Y57764D01*
X272554Y57719D01*
X272451Y57671D01*
X272350Y57620D01*
X272251Y57565D01*
X272154Y57507D01*
X272059Y57445D01*
X271966Y57380D01*
X271876Y57312D01*
X271788Y57241D01*
X271702Y57166D01*
X271619Y57089D01*
X271539Y57009D01*
X271462Y56926D01*
X271387Y56840D01*
X271316Y56752D01*
X271248Y56662D01*
X271183Y56569D01*
X271121Y56474D01*
X271063Y56377D01*
X271008Y56278D01*
X270957Y56177D01*
X270909Y56074D01*
X270864Y55970D01*
X270824Y55864D01*
X270787Y55757D01*
X270754Y55649D01*
X270724Y55539D01*
X270699Y55429D01*
X270677Y55318D01*
X270660Y55206D01*
X270646Y55093D01*
X270636Y54980D01*
X270630Y54867D01*
X270628Y54754D01*
X270628Y51508D01*
X282312Y51508D01*
X282312Y54754D01*
X282310Y54855D01*
X282304Y54955D01*
X282294Y55055D01*
X282281Y55155D01*
X282263Y55254D01*
X282242Y55353D01*
X282217Y55450D01*
X282188Y55547D01*
X282155Y55642D01*
X282119Y55736D01*
X282079Y55828D01*
X282036Y55919D01*
X281989Y56008D01*
X281939Y56095D01*
X281885Y56181D01*
X281828Y56264D01*
X281768Y56344D01*
X281705Y56423D01*
X281638Y56499D01*
X281569Y56572D01*
X281497Y56642D01*
X281423Y56710D01*
X281346Y56775D01*
X281266Y56836D01*
X281184Y56895D01*
X281100Y56950D01*
X281014Y57002D01*
X280926Y57051D01*
X280836Y57096D01*
X280744Y57138D01*
X280651Y57176D01*
X280556Y57210D01*
X280461Y57241D01*
X280364Y57268D01*
X280266Y57291D01*
X280167Y57311D01*
X280067Y57326D01*
X279967Y57338D01*
X279867Y57346D01*
X279766Y57350D01*
X279666Y57350D01*
X279565Y57346D01*
X279465Y57338D01*
X279365Y57326D01*
X279265Y57311D01*
X279166Y57291D01*
X279068Y57268D01*
X278971Y57241D01*
X278876Y57210D01*
X278781Y57176D01*
X278688Y57138D01*
X278596Y57096D01*
X278506Y57051D01*
X278418Y57002D01*
X278332Y56950D01*
X278248Y56895D01*
X278166Y56836D01*
X278086Y56775D01*
X278009Y56710D01*
X277935Y56642D01*
X277863Y56572D01*
X277794Y56499D01*
X277727Y56423D01*
X277664Y56344D01*
X277604Y56264D01*
X277547Y56181D01*
X277493Y56095D01*
X277443Y56008D01*
X277396Y55919D01*
X277353Y55828D01*
X277313Y55736D01*
X277277Y55642D01*
X277244Y55547D01*
X277215Y55450D01*
X277190Y55353D01*
X277169Y55254D01*
X277151Y55155D01*
X277138Y55055D01*
X277128Y54955D01*
X277122Y54855D01*
X277120Y54754D01*
X282312Y64871D02*
X270628Y64871D01*
X282312Y61626D02*
X282312Y68117D01*
X279716Y72294D02*
X282312Y75539D01*
X270628Y75539D01*
X270628Y72294D02*
X270628Y78785D01*
D10*
X294620Y203000D02*
X344820Y203000D01*
X294620Y203000D02*
X294620Y51000D01*
X344820Y51000D01*
X381620Y203000D02*
X446620Y203000D01*
X446620Y51000D01*
X381620Y51000D01*
D11*
X285519Y175215D02*
X285519Y178461D01*
X285520Y178461D02*
X285518Y178574D01*
X285512Y178687D01*
X285502Y178800D01*
X285488Y178913D01*
X285471Y179025D01*
X285449Y179136D01*
X285424Y179246D01*
X285394Y179356D01*
X285361Y179464D01*
X285324Y179571D01*
X285284Y179677D01*
X285239Y179781D01*
X285191Y179884D01*
X285140Y179985D01*
X285085Y180084D01*
X285027Y180181D01*
X284965Y180276D01*
X284900Y180369D01*
X284832Y180459D01*
X284761Y180547D01*
X284686Y180633D01*
X284609Y180716D01*
X284529Y180796D01*
X284446Y180873D01*
X284360Y180948D01*
X284272Y181019D01*
X284182Y181087D01*
X284089Y181152D01*
X283994Y181214D01*
X283897Y181272D01*
X283798Y181327D01*
X283697Y181378D01*
X283594Y181426D01*
X283490Y181471D01*
X283384Y181511D01*
X283277Y181548D01*
X283169Y181581D01*
X283059Y181611D01*
X282949Y181636D01*
X282838Y181658D01*
X282726Y181675D01*
X282613Y181689D01*
X282500Y181699D01*
X282387Y181705D01*
X282274Y181707D01*
X282161Y181705D01*
X282048Y181699D01*
X281935Y181689D01*
X281822Y181675D01*
X281710Y181658D01*
X281599Y181636D01*
X281489Y181611D01*
X281379Y181581D01*
X281271Y181548D01*
X281164Y181511D01*
X281058Y181471D01*
X280954Y181426D01*
X280851Y181378D01*
X280750Y181327D01*
X280651Y181272D01*
X280554Y181214D01*
X280459Y181152D01*
X280366Y181087D01*
X280276Y181019D01*
X280188Y180948D01*
X280102Y180873D01*
X280019Y180796D01*
X279939Y180716D01*
X279862Y180633D01*
X279787Y180547D01*
X279716Y180459D01*
X279648Y180369D01*
X279583Y180276D01*
X279521Y180181D01*
X279463Y180084D01*
X279408Y179985D01*
X279357Y179884D01*
X279309Y179781D01*
X279264Y179677D01*
X279224Y179571D01*
X279187Y179464D01*
X279154Y179356D01*
X279124Y179246D01*
X279099Y179136D01*
X279077Y179025D01*
X279060Y178913D01*
X279046Y178800D01*
X279036Y178687D01*
X279030Y178574D01*
X279028Y178461D01*
X279028Y175215D01*
X290712Y175215D01*
X290712Y178461D01*
X290710Y178562D01*
X290704Y178662D01*
X290694Y178762D01*
X290681Y178862D01*
X290663Y178961D01*
X290642Y179060D01*
X290617Y179157D01*
X290588Y179254D01*
X290555Y179349D01*
X290519Y179443D01*
X290479Y179535D01*
X290436Y179626D01*
X290389Y179715D01*
X290339Y179802D01*
X290285Y179888D01*
X290228Y179971D01*
X290168Y180051D01*
X290105Y180130D01*
X290038Y180206D01*
X289969Y180279D01*
X289897Y180349D01*
X289823Y180417D01*
X289746Y180482D01*
X289666Y180543D01*
X289584Y180602D01*
X289500Y180657D01*
X289414Y180709D01*
X289326Y180758D01*
X289236Y180803D01*
X289144Y180845D01*
X289051Y180883D01*
X288956Y180917D01*
X288861Y180948D01*
X288764Y180975D01*
X288666Y180998D01*
X288567Y181018D01*
X288467Y181033D01*
X288367Y181045D01*
X288267Y181053D01*
X288166Y181057D01*
X288066Y181057D01*
X287965Y181053D01*
X287865Y181045D01*
X287765Y181033D01*
X287665Y181018D01*
X287566Y180998D01*
X287468Y180975D01*
X287371Y180948D01*
X287276Y180917D01*
X287181Y180883D01*
X287088Y180845D01*
X286996Y180803D01*
X286906Y180758D01*
X286818Y180709D01*
X286732Y180657D01*
X286648Y180602D01*
X286566Y180543D01*
X286486Y180482D01*
X286409Y180417D01*
X286335Y180349D01*
X286263Y180279D01*
X286194Y180206D01*
X286127Y180130D01*
X286064Y180051D01*
X286004Y179971D01*
X285947Y179888D01*
X285893Y179802D01*
X285843Y179715D01*
X285796Y179626D01*
X285753Y179535D01*
X285713Y179443D01*
X285677Y179349D01*
X285644Y179254D01*
X285615Y179157D01*
X285590Y179060D01*
X285569Y178961D01*
X285551Y178862D01*
X285538Y178762D01*
X285528Y178662D01*
X285522Y178562D01*
X285520Y178461D01*
X290712Y188578D02*
X279028Y188578D01*
X290712Y185333D02*
X290712Y191824D01*
X290712Y199571D02*
X290710Y199678D01*
X290704Y199784D01*
X290694Y199890D01*
X290681Y199996D01*
X290663Y200102D01*
X290642Y200206D01*
X290617Y200310D01*
X290588Y200413D01*
X290556Y200514D01*
X290519Y200614D01*
X290479Y200713D01*
X290436Y200811D01*
X290389Y200907D01*
X290338Y201001D01*
X290284Y201093D01*
X290227Y201183D01*
X290167Y201271D01*
X290103Y201356D01*
X290036Y201439D01*
X289966Y201520D01*
X289894Y201598D01*
X289818Y201674D01*
X289740Y201746D01*
X289659Y201816D01*
X289576Y201883D01*
X289491Y201947D01*
X289403Y202007D01*
X289313Y202064D01*
X289221Y202118D01*
X289127Y202169D01*
X289031Y202216D01*
X288933Y202259D01*
X288834Y202299D01*
X288734Y202336D01*
X288633Y202368D01*
X288530Y202397D01*
X288426Y202422D01*
X288322Y202443D01*
X288216Y202461D01*
X288110Y202474D01*
X288004Y202484D01*
X287898Y202490D01*
X287791Y202492D01*
X290712Y199571D02*
X290710Y199450D01*
X290704Y199329D01*
X290694Y199209D01*
X290681Y199088D01*
X290663Y198969D01*
X290642Y198849D01*
X290617Y198731D01*
X290588Y198614D01*
X290555Y198497D01*
X290519Y198382D01*
X290478Y198268D01*
X290435Y198155D01*
X290387Y198043D01*
X290336Y197934D01*
X290281Y197826D01*
X290223Y197719D01*
X290162Y197615D01*
X290097Y197513D01*
X290029Y197413D01*
X289958Y197315D01*
X289884Y197219D01*
X289807Y197126D01*
X289726Y197036D01*
X289643Y196948D01*
X289557Y196863D01*
X289468Y196780D01*
X289377Y196701D01*
X289283Y196624D01*
X289187Y196551D01*
X289089Y196481D01*
X288988Y196414D01*
X288885Y196350D01*
X288780Y196290D01*
X288673Y196233D01*
X288565Y196179D01*
X288455Y196129D01*
X288343Y196083D01*
X288230Y196040D01*
X288115Y196001D01*
X285519Y201519D02*
X285596Y201598D01*
X285677Y201674D01*
X285760Y201747D01*
X285845Y201817D01*
X285933Y201884D01*
X286023Y201948D01*
X286115Y202008D01*
X286210Y202065D01*
X286306Y202119D01*
X286404Y202170D01*
X286504Y202217D01*
X286606Y202261D01*
X286709Y202301D01*
X286813Y202337D01*
X286919Y202369D01*
X287025Y202398D01*
X287133Y202423D01*
X287241Y202445D01*
X287351Y202462D01*
X287460Y202476D01*
X287570Y202485D01*
X287681Y202491D01*
X287791Y202493D01*
X285519Y201518D02*
X279028Y196001D01*
X279028Y202492D01*
D12*
X335026Y-7874D02*
X335026Y-14986D01*
X332655Y-11825D02*
X335026Y-7874D01*
X332655Y-11825D02*
X330285Y-7874D01*
X330285Y-14986D01*
X326859Y-14986D02*
X326859Y-7874D01*
X324883Y-7874D01*
X324797Y-7876D01*
X324711Y-7882D01*
X324625Y-7891D01*
X324540Y-7904D01*
X324455Y-7921D01*
X324372Y-7941D01*
X324289Y-7965D01*
X324207Y-7993D01*
X324127Y-8024D01*
X324048Y-8059D01*
X323971Y-8097D01*
X323895Y-8139D01*
X323821Y-8183D01*
X323750Y-8231D01*
X323680Y-8282D01*
X323613Y-8336D01*
X323548Y-8393D01*
X323486Y-8453D01*
X323426Y-8515D01*
X323369Y-8580D01*
X323315Y-8647D01*
X323264Y-8717D01*
X323216Y-8788D01*
X323172Y-8862D01*
X323130Y-8938D01*
X323092Y-9015D01*
X323057Y-9094D01*
X323026Y-9174D01*
X322998Y-9256D01*
X322974Y-9339D01*
X322954Y-9422D01*
X322937Y-9507D01*
X322924Y-9592D01*
X322915Y-9678D01*
X322909Y-9764D01*
X322907Y-9850D01*
X322907Y-13010D01*
X322909Y-13096D01*
X322915Y-13182D01*
X322924Y-13268D01*
X322937Y-13353D01*
X322954Y-13438D01*
X322974Y-13521D01*
X322998Y-13604D01*
X323026Y-13686D01*
X323057Y-13766D01*
X323092Y-13845D01*
X323130Y-13922D01*
X323172Y-13998D01*
X323216Y-14072D01*
X323264Y-14143D01*
X323315Y-14213D01*
X323369Y-14280D01*
X323426Y-14345D01*
X323486Y-14407D01*
X323548Y-14467D01*
X323613Y-14524D01*
X323680Y-14578D01*
X323750Y-14629D01*
X323821Y-14677D01*
X323895Y-14721D01*
X323971Y-14763D01*
X324048Y-14801D01*
X324127Y-14836D01*
X324207Y-14867D01*
X324289Y-14895D01*
X324372Y-14919D01*
X324455Y-14939D01*
X324540Y-14956D01*
X324625Y-14969D01*
X324711Y-14978D01*
X324797Y-14984D01*
X324883Y-14986D01*
X326859Y-14986D01*
X319450Y-11035D02*
X317475Y-11035D01*
X317475Y-11034D02*
X317388Y-11036D01*
X317300Y-11042D01*
X317213Y-11051D01*
X317127Y-11065D01*
X317041Y-11082D01*
X316957Y-11103D01*
X316873Y-11128D01*
X316790Y-11157D01*
X316709Y-11189D01*
X316629Y-11224D01*
X316551Y-11263D01*
X316474Y-11306D01*
X316400Y-11352D01*
X316328Y-11401D01*
X316258Y-11453D01*
X316190Y-11509D01*
X316125Y-11567D01*
X316062Y-11628D01*
X316003Y-11692D01*
X315946Y-11759D01*
X315892Y-11827D01*
X315841Y-11899D01*
X315794Y-11972D01*
X315749Y-12047D01*
X315708Y-12125D01*
X315671Y-12204D01*
X315637Y-12284D01*
X315607Y-12366D01*
X315580Y-12449D01*
X315557Y-12534D01*
X315538Y-12619D01*
X315523Y-12705D01*
X315511Y-12792D01*
X315503Y-12879D01*
X315499Y-12966D01*
X315499Y-13054D01*
X315503Y-13141D01*
X315511Y-13228D01*
X315523Y-13315D01*
X315538Y-13401D01*
X315557Y-13486D01*
X315580Y-13571D01*
X315607Y-13654D01*
X315637Y-13736D01*
X315671Y-13816D01*
X315708Y-13895D01*
X315749Y-13973D01*
X315794Y-14048D01*
X315841Y-14121D01*
X315892Y-14193D01*
X315946Y-14261D01*
X316003Y-14328D01*
X316062Y-14392D01*
X316125Y-14453D01*
X316190Y-14511D01*
X316258Y-14567D01*
X316328Y-14619D01*
X316400Y-14668D01*
X316474Y-14714D01*
X316551Y-14757D01*
X316629Y-14796D01*
X316709Y-14831D01*
X316790Y-14863D01*
X316873Y-14892D01*
X316957Y-14917D01*
X317041Y-14938D01*
X317127Y-14955D01*
X317213Y-14969D01*
X317300Y-14978D01*
X317388Y-14984D01*
X317475Y-14986D01*
X319450Y-14986D01*
X319450Y-7874D01*
X317475Y-7874D01*
X317396Y-7876D01*
X317318Y-7882D01*
X317240Y-7892D01*
X317162Y-7905D01*
X317085Y-7923D01*
X317009Y-7944D01*
X316935Y-7969D01*
X316861Y-7998D01*
X316789Y-8030D01*
X316719Y-8066D01*
X316651Y-8106D01*
X316585Y-8149D01*
X316521Y-8195D01*
X316459Y-8244D01*
X316400Y-8296D01*
X316344Y-8351D01*
X316290Y-8409D01*
X316240Y-8469D01*
X316192Y-8532D01*
X316148Y-8597D01*
X316107Y-8664D01*
X316069Y-8733D01*
X316035Y-8804D01*
X316004Y-8877D01*
X315977Y-8951D01*
X315954Y-9026D01*
X315935Y-9102D01*
X315919Y-9180D01*
X315907Y-9258D01*
X315899Y-9336D01*
X315895Y-9415D01*
X315895Y-9493D01*
X315899Y-9572D01*
X315907Y-9650D01*
X315919Y-9728D01*
X315935Y-9806D01*
X315954Y-9882D01*
X315977Y-9957D01*
X316004Y-10031D01*
X316035Y-10104D01*
X316069Y-10175D01*
X316107Y-10244D01*
X316148Y-10311D01*
X316192Y-10376D01*
X316240Y-10439D01*
X316290Y-10499D01*
X316344Y-10557D01*
X316400Y-10612D01*
X316459Y-10664D01*
X316521Y-10713D01*
X316585Y-10759D01*
X316651Y-10802D01*
X316719Y-10842D01*
X316789Y-10878D01*
X316861Y-10910D01*
X316935Y-10939D01*
X317009Y-10964D01*
X317085Y-10985D01*
X317162Y-11003D01*
X317240Y-11016D01*
X317318Y-11026D01*
X317396Y-11032D01*
X317475Y-11034D01*
X311396Y-7874D02*
X311396Y-14986D01*
X313371Y-7874D02*
X309420Y-7874D01*
X305390Y-7874D02*
X306970Y-13406D01*
X303019Y-13406D01*
X304205Y-14986D02*
X304205Y-11825D01*
X297939Y-7874D02*
X297857Y-7876D01*
X297775Y-7882D01*
X297693Y-7891D01*
X297612Y-7904D01*
X297532Y-7921D01*
X297452Y-7942D01*
X297374Y-7966D01*
X297297Y-7994D01*
X297221Y-8025D01*
X297146Y-8060D01*
X297074Y-8099D01*
X297003Y-8140D01*
X296934Y-8185D01*
X296868Y-8233D01*
X296803Y-8284D01*
X296741Y-8338D01*
X296682Y-8395D01*
X296625Y-8454D01*
X296571Y-8516D01*
X296520Y-8581D01*
X296472Y-8647D01*
X296427Y-8716D01*
X296386Y-8787D01*
X296347Y-8859D01*
X296312Y-8934D01*
X296281Y-9010D01*
X296253Y-9087D01*
X296229Y-9165D01*
X296208Y-9245D01*
X296191Y-9325D01*
X296178Y-9406D01*
X296169Y-9488D01*
X296163Y-9570D01*
X296161Y-9652D01*
X297939Y-7874D02*
X298032Y-7876D01*
X298124Y-7882D01*
X298216Y-7891D01*
X298308Y-7904D01*
X298399Y-7921D01*
X298489Y-7941D01*
X298579Y-7965D01*
X298667Y-7993D01*
X298755Y-8025D01*
X298840Y-8059D01*
X298925Y-8098D01*
X299008Y-8139D01*
X299089Y-8184D01*
X299168Y-8233D01*
X299245Y-8284D01*
X299320Y-8339D01*
X299392Y-8396D01*
X299463Y-8456D01*
X299530Y-8520D01*
X299595Y-8585D01*
X299658Y-8654D01*
X299717Y-8725D01*
X299774Y-8798D01*
X299828Y-8874D01*
X299878Y-8951D01*
X299926Y-9031D01*
X299970Y-9113D01*
X300010Y-9196D01*
X300048Y-9281D01*
X300082Y-9367D01*
X300112Y-9454D01*
X296754Y-11035D02*
X296693Y-10974D01*
X296635Y-10911D01*
X296580Y-10845D01*
X296527Y-10777D01*
X296478Y-10706D01*
X296433Y-10634D01*
X296390Y-10559D01*
X296351Y-10483D01*
X296315Y-10404D01*
X296283Y-10325D01*
X296255Y-10244D01*
X296230Y-10161D01*
X296209Y-10078D01*
X296192Y-9994D01*
X296178Y-9909D01*
X296169Y-9824D01*
X296163Y-9738D01*
X296161Y-9652D01*
X296754Y-11035D02*
X300112Y-14986D01*
X296161Y-14986D01*
X292888Y-13010D02*
X292888Y-9850D01*
X292886Y-9763D01*
X292880Y-9675D01*
X292871Y-9588D01*
X292857Y-9502D01*
X292840Y-9416D01*
X292819Y-9332D01*
X292794Y-9248D01*
X292765Y-9165D01*
X292733Y-9084D01*
X292698Y-9004D01*
X292659Y-8926D01*
X292616Y-8849D01*
X292570Y-8775D01*
X292521Y-8703D01*
X292469Y-8633D01*
X292413Y-8565D01*
X292355Y-8500D01*
X292294Y-8437D01*
X292230Y-8378D01*
X292163Y-8321D01*
X292095Y-8267D01*
X292023Y-8216D01*
X291950Y-8169D01*
X291875Y-8124D01*
X291797Y-8083D01*
X291718Y-8046D01*
X291638Y-8012D01*
X291556Y-7982D01*
X291473Y-7955D01*
X291388Y-7932D01*
X291303Y-7913D01*
X291217Y-7898D01*
X291130Y-7886D01*
X291043Y-7878D01*
X290956Y-7874D01*
X290868Y-7874D01*
X290781Y-7878D01*
X290694Y-7886D01*
X290607Y-7898D01*
X290521Y-7913D01*
X290436Y-7932D01*
X290351Y-7955D01*
X290268Y-7982D01*
X290186Y-8012D01*
X290106Y-8046D01*
X290027Y-8083D01*
X289949Y-8124D01*
X289874Y-8169D01*
X289801Y-8216D01*
X289729Y-8267D01*
X289661Y-8321D01*
X289594Y-8378D01*
X289530Y-8437D01*
X289469Y-8500D01*
X289411Y-8565D01*
X289355Y-8633D01*
X289303Y-8703D01*
X289254Y-8775D01*
X289208Y-8849D01*
X289165Y-8926D01*
X289126Y-9004D01*
X289091Y-9084D01*
X289059Y-9165D01*
X289030Y-9248D01*
X289005Y-9332D01*
X288984Y-9416D01*
X288967Y-9502D01*
X288953Y-9588D01*
X288944Y-9675D01*
X288938Y-9763D01*
X288936Y-9850D01*
X288937Y-9850D02*
X288937Y-13010D01*
X288936Y-13010D02*
X288938Y-13097D01*
X288944Y-13185D01*
X288953Y-13272D01*
X288967Y-13358D01*
X288984Y-13444D01*
X289005Y-13528D01*
X289030Y-13612D01*
X289059Y-13695D01*
X289091Y-13776D01*
X289126Y-13856D01*
X289165Y-13934D01*
X289208Y-14011D01*
X289254Y-14085D01*
X289303Y-14157D01*
X289355Y-14227D01*
X289411Y-14295D01*
X289469Y-14360D01*
X289530Y-14423D01*
X289594Y-14482D01*
X289661Y-14539D01*
X289729Y-14593D01*
X289801Y-14644D01*
X289874Y-14691D01*
X289949Y-14736D01*
X290027Y-14777D01*
X290106Y-14814D01*
X290186Y-14848D01*
X290268Y-14878D01*
X290351Y-14905D01*
X290436Y-14928D01*
X290521Y-14947D01*
X290607Y-14962D01*
X290694Y-14974D01*
X290781Y-14982D01*
X290868Y-14986D01*
X290956Y-14986D01*
X291043Y-14982D01*
X291130Y-14974D01*
X291217Y-14962D01*
X291303Y-14947D01*
X291388Y-14928D01*
X291473Y-14905D01*
X291556Y-14878D01*
X291638Y-14848D01*
X291718Y-14814D01*
X291797Y-14777D01*
X291875Y-14736D01*
X291950Y-14691D01*
X292023Y-14644D01*
X292095Y-14593D01*
X292163Y-14539D01*
X292230Y-14482D01*
X292294Y-14423D01*
X292355Y-14360D01*
X292413Y-14295D01*
X292469Y-14227D01*
X292521Y-14157D01*
X292570Y-14085D01*
X292616Y-14011D01*
X292659Y-13934D01*
X292698Y-13856D01*
X292733Y-13776D01*
X292765Y-13695D01*
X292794Y-13612D01*
X292819Y-13528D01*
X292840Y-13444D01*
X292857Y-13358D01*
X292871Y-13272D01*
X292880Y-13185D01*
X292886Y-13097D01*
X292888Y-13010D01*
X289727Y-13406D02*
X288146Y-14986D01*
X286168Y-9454D02*
X284192Y-7874D01*
X284192Y-14986D01*
X282217Y-14986D02*
X286168Y-14986D01*
D10*
X268440Y218760D02*
X168440Y218760D01*
X238440Y258760D02*
X268440Y258760D01*
X238440Y258760D02*
X218440Y258760D01*
X198440Y258760D01*
X168440Y258760D01*
X168440Y225760D02*
X168440Y218760D01*
X168440Y251760D02*
X168440Y258760D01*
X268440Y225760D02*
X268440Y218760D01*
X268440Y251760D02*
X268440Y258760D01*
M02*
